<?xml version="1.0" standalone="no"?>
<!DOCTYPE svg PUBLIC "-//W3C//DTD SVG 20010904//EN"
 "http://www.w3.org/TR/2001/REC-SVG-20010904/DTD/svg10.dtd">
<svg version="1.0" xmlns="http://www.w3.org/2000/svg"
 width="672.000000pt" height="672.000000pt" viewBox="0 0 672.000000 672.000000"
 preserveAspectRatio="xMidYMid meet">
<metadata>
Created by potrace 1.11, written by Peter Selinger 2001-2013
</metadata>
<g transform="translate(0.000000,672.000000) scale(0.100000,-0.100000)"
fill="#000000" stroke="none">
<path d="M3430 6689 c-19 -17 -82 -75 -140 -128 -58 -54 -130 -121 -160 -148
-30 -28 -71 -66 -91 -84 -20 -19 -85 -79 -144 -134 -60 -55 -123 -113 -140
-130 -18 -16 -70 -64 -116 -106 -46 -42 -109 -101 -140 -130 l-56 -54 0 -1825
c0 -1004 -3 -1825 -7 -1825 -13 0 -159 139 -421 400 -296 295 -309 314 -309
430 0 153 18 178 347 507 l251 251 1 778 c0 777 0 778 -20 760 -11 -9 -51 -44
-90 -77 -38 -32 -76 -66 -85 -74 -18 -16 -134 -120 -219 -194 -30 -27 -64 -58
-76 -69 -13 -12 -65 -60 -116 -107 -188 -172 -280 -261 -544 -525 -253 -254
-309 -312 -460 -480 -95 -106 -245 -297 -245 -312 0 -7 -5 -13 -11 -13 -5 0
-8 -4 -5 -9 4 -5 3 -11 -2 -13 -13 -5 -50 -91 -73 -170 -25 -84 -34 -281 -18
-363 21 -101 52 -192 94 -277 40 -80 107 -188 137 -219 7 -8 26 -32 42 -54 17
-22 33 -42 36 -45 3 -3 18 -21 34 -40 138 -169 618 -652 891 -896 17 -14 50
-45 75 -68 25 -24 83 -76 130 -117 47 -41 99 -86 115 -100 105 -92 231 -199
300 -254 28 -22 57 -47 65 -55 39 -41 501 -400 608 -474 32 -22 59 -42 62 -46
3 -3 47 -34 99 -68 151 -99 259 -131 423 -127 95 2 120 5 166 19 9 3 28 7 42
10 24 4 48 12 108 38 15 6 30 11 35 10 4 -1 7 2 7 8 0 5 4 10 9 10 21 0 302
175 309 192 2 4 8 8 13 8 8 0 64 38 114 78 6 4 26 18 45 32 19 13 49 35 66 49
17 14 44 36 60 48 81 62 247 200 305 253 15 14 51 45 80 70 254 218 965 925
1300 1291 35 38 242 259 258 276 23 24 24 84 3 119 -41 65 -34 65 -624 64
-293 0 -565 -2 -604 -4 -130 -8 -191 -34 -295 -126 -34 -30 -70 -62 -79 -70
-93 -82 -155 -138 -210 -189 -36 -34 -67 -61 -70 -61 -3 0 -5 820 -4 1823 l0
1822 -37 35 c-20 19 -71 67 -113 105 -42 39 -100 93 -130 120 -29 28 -97 91
-151 140 -54 50 -113 104 -131 120 -51 49 -243 226 -303 280 -30 28 -69 64
-86 80 -73 70 -66 67 -105 34z"/>
</g>
</svg>
