<svg id="Capa_1" data-name="Capa 1" xmlns="http://www.w3.org/2000/svg" viewBox="0 0 218.78 322.63"><defs><style>.cls-1{fill:none;stroke:#000;stroke-miterlimit:10;stroke-width:0.28px;}</style></defs><title>1</title><polyline id="polyline10" class="cls-1" points="142.53 37.37 143.47 38.11 143.95 39.05 144.88 39.53 144.66 40.46 144.88 41.4 144.88 42.33 145.37 43.3 145.85 44.23 145.59 45.17 146.04 46.1 145.85 47.07 146.3 48 147.01 48.94 147.94 48.94 148.88 49.42 149.82 50.1 150.3 51.04 150.55 51.97 149.62 52.71 148.88 53.64 147.94 54.58 147.01 55.54 145.85 56.48 144.88 56.96 144.18 57.9 143.24 58.58 142.53 59.51 142.53 60.48 142.08 61.41 141.34 62.35 140.41 63.28 139.7 64.25 140.66 64.25 143.01 63.54 143.95 63.28 144.43 62.35 144.43 61.41 145.37 60.93 146.04 61.89 146.78 62.83 147.01 61.89 146.3 60.93 146.53 59.99 147.26 59.06 148.2 58.58 149.13 58.58 150.07 58.58 151.03 58.83 151.97 58.83 152.91 58.58 153.84 58.35 154.81 57.9 155.74 57.9 156.68 58.12 158.09 59.06 157.36 59.99 157.16 60.93 156.9 61.89 156.42 62.83 155.74 63.76 154.81 64.7 153.84 64.95 152.91 64.7 151.97 65.44 151.03 65.89 150.07 65.66 149.13 65.44 148.2 65.66 147.26 65.89 146.3 65.89 145.37 65.89 144.43 65.44 143.24 65.18 142.28 65.66 142.28 66.6 143.47 65.89 144.43 66.37 145.37 66.6 146.3 66.85 147.26 66.85 148.2 66.37 149.13 66.6 150.07 66.6 151.03 66.85 151.97 66.85 152.91 66.37 153.13 67.31 154.07 66.6 154.32 65.66 155.26 65.44 156.19 64.7 157.16 64.7 157.36 63.76 158.09 62.83 158.57 61.89 159.25 60.93 160.19 60.48 161.13 60.93 162.09 61.18 163.03 61.89 163.96 62.12 164.9 62.35 165.86 63.08 166.79 63.54 167.99 64.02 169.15 64.5 170.08 64.25 171.05 64.7 171.98 65.44 172.24 66.37 173.17 65.89 174.11 66.12 175.04 66.85 175.75 67.79 175.75 68.72 175.53 69.66 175.75 70.62 175.53 71.79 175.53 72.72 174.82 73.66 175.75 73.91 176.46 72.98 176.69 72.04 176.94 71.08 177.88 70.82 178.59 71.79 179.78 71.56 180.23 70.62 180.71 69.66 181.65 70.14 182.58 70.62 183.55 71.3 184.48 71.79 185.42 72.04 186.35 72.98 187.32 73.2 188.25 72.49 189.19 72.98 190.12 73.43 191.09 74.14 192.02 73.66 192.96 73.91 193.67 74.85 194.6 74.39 195.54 73.91 196.47 73.91 197.66 74.59 198.63 75.33 199.56 75.33 200.5 76.01 201.43 76.75 202.14 77.68 202.85 78.62 203.82 79.1 204.75 79.55 205.21 80.52 205.91 81.45 206.37 82.39 207.33 83.32 208.27 83.8 209.2 84.29 210.16 84.97 211.1 85.45 212.04 86.38 212.29 87.32 213.71 87.09 214.87 87.58 215.81 87.8 216.74 88.06 217.22 88.99 217.71 89.93 217.48 90.86 217.48 91.83 217.93 92.76 218.41 93.7 218.41 94.63 218.64 95.6 218.64 96.53 218.64 97.47 218.41 98.4 218.16 99.37 218.41 100.3 218.41 101.24 217.93 102.17 217.48 103.14 217.48 104.07 217.22 105.01 217 105.94 216.54 106.91 215.81 107.81 215.13 108.75 214.16 109 213.23 109 213.71 109.94 213.23 110.88 212.52 111.84 211.81 112.78 210.87 113.45 209.94 114.19 208.97 114.19 208.27 115.13 207.33 115.81 206.85 116.77 206.37 117.71 205.91 118.67 205.43 119.61 203.82 121.02 203.08 121.99 202.14 122.44 200.98 122.19 200.04 121.73 199.79 122.67 199.79 123.6 199.56 124.54 198.83 125.5 198.15 126.44 197.89 127.37 198.15 128.31 199.08 127.86 199.08 128.79 199.08 129.73 198.15 130.46 197.66 131.4 198.15 132.33 198.15 133.27 198.15 134.23 198.37 135.17 198.37 136.1 198.15 137.04 198.15 138 197.66 138.94 197.44 139.87 196.96 140.81 196.73 141.77 196.02 142.71 195.79 143.64 195.54 144.58 195.31 145.54 195.31 146.48 194.6 147.41 193.89 148.35 193.44 149.31 193.19 150.25 193.19 151.18 192.96 152.12 192.96 153.08 192.7 154.02 192.25 154.95 191.29 155.44 190.35 157.05 189.42 157.79 189.19 158.72 189.19 159.66 188.25 159.89 187.32 160.82 186.35 161.08 186.35 162.01 185.65 162.98 184.97 163.91 184.97 164.85 184.97 165.78 184.97 166.75 184 167.68 183.07 168.16 182.13 168.36 181.19 169.1 181.19 170.03 180.23 170.52 179.3 170.26 178.36 170.26 177.43 170.26 176.46 170.26 175.53 170.03 174.59 170.26 173.66 170.52 172.69 169.78 171.76 170.03 170.82 170.52 169.88 170.52 168.92 171.2 167.99 171.93 167.05 172.13 166.12 172.87 165.63 173.8 164.7 173.8 163.28 173.8 162.34 174.29 161.38 174.74 160.44 174.74 159.51 174.97 158.57 175.45 157.61 176.16 156.9 177.09 155.97 177.8 155 178.51 154.32 179.44 153.84 180.41 152.91 180.86 151.97 180.61 151.23 181.57 151.23 182.51 151.03 183.44 150.78 184.38 150.78 185.34 151.03 186.28 151.23 187.21 151.03 188.86 151.03 189.79 150.07 189.79 150.07 190.73 150.07 191.69 150.55 192.63 151.03 194.3 150.55 195.23 149.82 196.17 148.88 196.4 147.01 196.65 146.3 197.59 145.59 198.52 144.66 199.26 144.43 200.19 143.95 201.13 143.47 202.07 143.01 203.03 142.76 203.97 142.28 204.9 142.08 205.84 141.59 206.8 140.66 207.74 139.7 208.41 138.99 209.35 138.05 210.06 137.09 210.77 136.15 211.25 135.7 210.31 136.63 210.06 137.57 209.35 138.31 208.41 138.31 207.48 138.99 206.54 139.92 206.06 140.41 205.13 140.66 203.97 140.66 203.03 139.7 203.03 138.76 202.55 138.76 203.48 138.99 204.42 138.76 205.38 137.82 206.06 137.57 207 136.63 207.74 135.93 208.67 134.99 209.58 134.28 210.51 134.28 211.48 134.28 212.41 134.28 213.35 134.28 214.28 133.8 215.25 133.57 216.18 133.12 217.12 132.38 218.05 131.45 218.53 130.51 218.79 129.55 218.53 129.35 217.6 129.8 216.66 130.77 215.7 131.7 215.02 132.64 214.09 132.86 213.12 132.86 212.19 131.93 212.41 131.22 213.35 130.51 214.28 130.28 214.54 129.35 213.6 128.61 212.67 127.93 211.73 127.19 210.77 126.26 210.09 125.32 209.35 124.39 208.9 123.42 208.19 122.49 207.48 122.01 206.54 121.33 205.58 120.39 205.84 119.46 205.38 118.72 204.42 117.78 203.48 116.85 202.78 116.37 201.81 115.43 201.81 114.47 202.29 113.53 202.55 112.37 202.78 113.08 201.81 113.79 200.88 114.47 199.94 115.2 199 115.89 198.07 116.85 197.1 117.56 196.17 118.49 195.23 119.2 194.3 119.66 193.34 120.62 192.4 121.55 191.92 122.49 191.72 123.42 191.24 123.91 190.3 124.84 189.82 125.78 189.11 126.74 188.63 127.68 188.63 128.61 187.95 129.35 186.99 129.35 186.05 129.55 185.12 129.55 184.18 129.55 183.22 129.09 182.28 129.09 181.34 128.39 180.41 127.45 180.15 126.52 180.61 125.58 181.15 126.03 180.21 126.03 179.28 126.03 178.34 126.03 177.38 126.03 176.44 126.03 175.25 126.52 174.31 126.74 173.35 126.52 172.41 125.58 172.19 124.39 172.19 123.42 171.96 122.49 171.25 122.26 170.32 122.01 169.38 122.26 168.45 121.81 167.48 121.55 166.55 121.81 165.61 121.33 164.68 120.39 164.19 119.46 163.71 118.49 163.26 117.56 163.26 116.62 163.46 115.69 163.46 114.72 163.46 113.79 163.94 112.85 163.71 111.66 163.26 111.92 162.3 112.11 161.36 112.11 160.43 111.66 159.49 112.11 158.53 112.11 157.59 111.66 156.66 111.66 155.72 111.66 154.76 111.18 154.05 112.37 152.63 110.95 151.47 111.18 150.53 111.66 149.6 111.92 148.63 112.11 147.7 112.6 146.76 112.85 145.83 113.31 144.86 113.79 143.93 113.08 142.99 112.37 142.06 111.43 141.32 110.5 140.38 109.53 139.9 109.31 138.97 108.83 138.03 109.08 137.1 109.53 136.13 110.02 135.2 109.76 134.97 101.29 134.52 99.87 129.56 100.81 129.56 101.29 128.59 101.29 127.66 100.61 126.72 101.06 125.79 101.06 124.82 100.35 123.89 99.39 123.4 98.45 123.21 97.52 122.72 96.58 122.24 95.62 122.24 94.68 122.47 93.75 122.47 92.81 121.79 91.85 120.85 90.91 120.85 89.98 120.6 89.04 120.12 88.08 119.44 87.4 118.47 86.46 118.47 85.53 118.02 84.56 117.76 83.63 117.76 82.69 117.76 81.73 117.28 81.02 116.35 80.08 115.67 79.15 115.18 78.18 114.25 77.25 113.51 77.02 112.58 77.25 111.64 77.25 110.7 77.02 109.74 76.57 108.81 76.09 107.87 76.57 106.94 77.02 105.97 77.02 105.04 76.57 104.1 75.61 104.36 74.67 104.36 73.73 104.58 72.8 104.58 71.83 104.81 70.9 105.52 70.19 106.45 69.23 107.19 68.29 107.39 67.36 107.87 66.65 108.81 65.71 109.29 64.78 109.54 64.04 110.48 63.36 111.41 62.42 111.41 61.49 110.96 60.52 110.7 59.59 110.96 58.65 111.16 57.89 111.36 56.7 111.13 55.76 111.61 54.83 112.07 53.86 112.07 52.93 111.84 52.45 110.88 52.7 109.94 52.7 106.42 52.45 105.49 52.45 104.53 51.54 104.3 50.6 105.01 49.67 105.49 48.73 106.17 47.99 107.11 47.06 107.36 46.12 107.59 45.16 107.59 44.48 106.65 43.55 105.69 42.55 105.01 41.62 104.75 40.68 105.01 39.75 105.01 39.97 104.07 39.75 102.88 39.26 101.92 38.33 100.98 37.62 100.05 37.37 99.11 37.17 98.18 36.2 97.47 35.75 96.53 36.2 95.6 36.43 94.63 36.69 93.7 36.91 92.76 37.37 91.83 38.58 91.34 39.52 90.41 39.26 89.47 39.04 88.51 39.04 87.58 39.52 86.64 40.2 85.7 40.68 84.74 41.13 83.8 41.87 82.87 42.55 81.93 43.55 81.45 44.48 80.97 45.42 80.72 46.58 80.72 47.51 80.72 48.48 79.78 49.41 79.33 50.6 78.84 51.54 78.84 52.45 79.33 53.41 78.84 54.34 78.84 54.6 78.36 55.76 71.79 56.22 65.89 56.22 65.44 56.47 64.5 56.47 63.54 55.76 62.6 55.05 61.67 54.34 60.73 53.41 60.5 53.41 59.57 53.41 58.6 53.41 57.67 53.41 56.73 53.66 55.8 54.6 55.8 55.53 55.06 56.47 55.8 57.43 55.32 57.18 54.38 56.22 53.39 55.28 52.94 54.34 53.19 54.12 50.1 55.05 50.1 56.22 50.1 57.18 50.1 58.12 50.1 59.05 50.1 59.99 50.1 61.2 50.36 62.14 49.62 62.14 48.68 63.3 48.94 64.24 48.46 65.17 48.23 66.14 48.23 66.59 48.68 67.07 49.62 67.55 50.58 68.49 51.52 69.2 52.45 70.16 52.94 70.36 53.87 71.32 54.13 72.26 54.58 73.19 55.06 74.13 55.06 75.09 54.38 75.55 53.39 76.48 54.13 77.22 52.94 77.7 51.97 78.64 51.29 79.57 50.58 80.51 50.1 80.99 49.16 81.93 48.23 82.86 48 83.83 47.75 84.76 47.27 84.5 46.33 83.57 46.1 82.63 46.1 81.67 46.1 80.73 45.65 80.73 44.69 80.99 43.75 80.51 42.81 80.51 41.88 80.25 40.69 79.57 39.73 78.64 39.27 77.7 38.56 77.7 37.63 78.64 37.63 79.57 37.85 80.51 37.63 81.47 38.11 82.41 38.31 83.34 38.79 84.28 39.05 85.24 39.53 86.18 39.73 87.11 39.05 87.79 38.11 88.76 38.11 89.69 38.11 90.63 37.63 91.56 37.63 92.53 37.37 93.46 36.92 94.4 36.21 95.33 36.21 96.55 35.5 97.72 35.02 98.42 34.09 98 33.09 98.91 32.67 99.84 32.19 100.78 32.19 101.71 32.67 101.71 34.34 100.78 35.02 100.78 35.96 101.48 36.92 102.19 37.85 102.42 38.79 102.19 39.73 101.94 40.69 101.71 41.63 101.71 42.56 101.71 43.5 101.71 44.46 101.71 45.4 102.19 46.33 102.42 47.27 102.67 48.23 103.13 49.16 104.09 49.62 105.03 49.87 106.19 50.58 107.15 50.81 108.09 50.81 109.05 50.36 109.99 49.87 110.92 49.45 112.57 49.45 113.5 49.45 114.44 48.46 115.4 48 116.34 48 117.53 47.75 117.76 48 118.69 48 119.63 48.68 120.82 48.46 121.78 47.75 121.78 46.81 120.82 46.1 121.04 45.17 121.98 45.4 122.94 45.65 123.88 45.4 124.81 44.91 125.75 44.91 126.23 45.85 127.17 45.85 127.68 46.61 128.61 46.84 129.8 47.29 130.77 46.84 131.7 46.13 132.64 46.36 133.57 46.13 134.54 46.61 135.47 46.84 136.41 46.13 138.76 43.07 139.24 42.13 139.92 41.17 140.66 40.01 141.34 39.07 142.08 38.14 141.82 37.2 142.53 37.37"/><polyline id="polyline12" class="cls-1" points="43.29 4.41 44.23 3.92 45.16 3.44 46.12 3.44 47.06 2.76 47.51 1.83 47.31 0.86 46.35 0.15 45.42 0.41 44.48 0.86 43.29 1.83 42.55 2.76 41.87 3.7 40.94 3.92 39.97 4.41 39.04 4.86 38.13 5.85 37.17 6.3 36.2 6.3 35.27 6.3 34.08 6.3 33.14 6.53 32.43 7.47 31.72 8.4 30.79 9.37 30.08 8.4 29.14 8.18 28.21 8.63 27.47 9.56 27.02 10.53 26.54 11.46 26.05 12.4 25.86 13.34 25.86 14.3 25.86 15.23 24.89 15.23 23.96 15.49 23.5 16.43 23.02 17.36 22.29 18.32 21.35 18.78 20.41 19.49 20.19 20.42 20.67 21.36 20.67 22.32 20.67 23.29 19.73 23.29 19.73 22.32 19 21.36 18.32 20.42 17.35 20.42 17.58 21.36 17.58 22.32 17.35 23.29 16.9 24.22 16.42 25.16 15.48 24.9 15.23 25.84 15.23 26.8 15.96 27.73 16.16 28.67 17.13 28.9 17.35 29.83 17.13 31.02 17.35 31.99 17.83 32.92 17.35 33.86 16.9 34.79 17.35 35.76 17.35 36.69 17.35 37.63 17.35 38.56 17.35 39.53 17.13 40.46 17.13 41.4 17.58 42.33 18.52 42.33 18.52 43.3 17.58 43.98 16.9 44.91 16.16 45.85 15.96 46.81 15.71 47.75 15.48 48.68 14.55 48.94 13.58 48.94 12.65 49.45 11.71 49.16 11.48 50.1 11.48 51.04 11.97 51.97 12.19 52.94 11.23 53.39 10.29 53.39 10.04 54.38 10.78 56 10.04 54.58 11.71 56.25 12.65 57.19 13.58 57.41 14.55 57.67 15.48 57.9 16.42 57.67 17.35 58.35 18.32 59.31 19.25 59.77 20.19 59.77 21.12 60.25 22.09 59.77 22.29 58.83 23.25 59.31 24.18 59.77 25.12 60.02 26.05 60.73 27.02 60.96 28.44 60.96 29.37 61.18 30.31 61.67 31.24 62.38 32.21 62.86 32.66 63.76 33.4 64.7 34.33 64.95 35.27 65.44 36.2 65.66 36.69 66.6 37.62 67.31 38.58 67.79 38.33 68.72 38.78 69.66 38.33 70.62 39.26 70.82 39.75 71.79 40.94 71.08 41.87 71.3 42.81 70.82 43.74 70.37 44.71 69.89 45.64 69.66 46.58 69.89 47.51 70.82 48.48 70.37 49.19 69.43 50.12 69.43 51.09 69.66 51.99 69.66 52.93 70.14 53.18 71.08 54.34 71.3 49.89 76.94 51.77 76.01 52.7 75.56 53.18 76.01 53.18 76.94 54.6 78.36 55.76 71.79 56.22 65.89 56.22 65.44 56.47 64.5 56.47 63.54 55.76 62.6 55.05 61.67 54.34 60.73 53.41 60.5 53.41 59.57 53.41 58.6 53.41 57.67 53.41 56.73 53.66 55.8 54.6 55.8 55.53 55.06 56.47 55.8 57.43 55.32 57.18 54.38 56.22 53.39 55.28 52.94 54.34 53.19 54.12 50.1 55.05 50.1 56.22 50.1 57.18 50.1 58.12 50.1 59.05 50.1 59.99 50.1 61.2 50.36 62.14 49.62 62.14 48.68 63.3 48.94 64.24 48.46 65.17 48.23 66.14 48.23 66.14 47.27 65.66 46.33 64.97 45.4 64.24 44.46 64.97 43.5 65.66 42.56 65.91 41.63 65.66 40.69 64.97 39.73 64.49 38.79 64.01 37.85 63.76 36.92 63.76 35.96 63.76 35.02 63.76 34.09 63.76 33.15 64.24 32.19 65.17 31.25 64.97 30.32 65.17 29.38 64.97 28.41 64.01 28.22 63.08 28.67 62.14 28.9 60.72 28.9 59.79 28.67 58.82 28.41 57.89 28.67 56.95 29.15 56.02 29.15 55.28 28.22 54.34 27.48 53.41 26.55 52.45 26.09 51.54 25.84 50.6 25.38 49.67 25.16 48.73 24.9 47.51 24.9 46.58 24.9 45.64 24.67 44.71 24.9 43.74 25.38 42.81 25.38 42.35 24.45 41.39 23.74 41.13 22.8 41.39 21.87 41.39 20.88 41.13 19.94 40.68 19 39.97 18.07 39.75 17.11 39.26 16.17 39.26 15.23 38.33 15.23 37.62 16.17 36.69 16.17 37.37 15.01 38.13 14.07 38.33 13.14 38.13 11.95 38.33 10.98 38.78 10.05 39.26 9.11 39.75 8.18 40.68 7.24 41.13 6.3 42.1 5.85 43.06 5.34 43.29 4.41"/><polyline id="polyline14" class="cls-1" points="66.11 48.17 66.11 47.24 65.63 46.3 64.95 45.37 64.21 44.4 64.95 43.47 65.63 42.53 65.88 41.6 65.63 40.63 64.95 39.7 64.46 38.76 63.98 37.83 63.73 36.86 63.73 35.93 63.73 34.99 63.73 34.06 63.73 33.09 64.21 32.16 65.14 31.22 64.95 30.29 65.14 29.32 64.95 28.39 63.98 28.16 63.05 28.64 62.11 28.87 60.69 28.87 59.76 28.64 58.8 28.39 57.86 28.64 56.92 29.12 55.99 29.12 55.25 28.16 54.32 27.45 53.38 26.52 52.42 26.06 51.51 25.81 50.58 25.35 49.64 25.13 48.67 24.87 47.48 24.87 46.55 24.87 45.61 24.64 44.68 24.87 43.72 25.35 42.78 25.35 42.3 24.42 41.36 23.71 41.11 22.77 41.36 21.84 41.36 20.85 41.11 19.91 40.65 18.98 39.95 18.04 39.69 17.08 39.24 16.14 39.24 15.21 38.3 15.21 37.59 16.14 36.66 16.14 37.34 14.98 38.13 14.04 38.3 13.11 38.13 11.89 38.3 10.95 38.75 10.02 39.24 9.08 39.69 8.12 40.65 7.21 41.11 6.28 42.07 5.79 43.03 5.31 43.26 4.35 44.2 3.9 45.13 3.41 46.07 3.41 45.9 3.92 44.96 4.41 44.23 5.34 43.55 6.3 44.23 7.24 44.71 8.18 45.16 9.11 45.16 10.05 44.23 10.98 43.55 11.95 43.06 12.88 43.74 13.82 44.23 14.75 44.71 15.72 45.64 16.17 46.58 15.72 47.51 15.23 47.99 14.3 47.99 13.34 47.77 12.4 47.31 11.46 46.35 10.98 46.35 10.05 46.12 9.11 46.12 8.18 46.35 7.24 47.31 7.01 48.25 6.05 49.19 5.85 50.12 5.6 51.09 5.34 51.99 5.34 52.7 4.41 53.41 3.44 52.45 2.99 51.54 2.02 52.45 1.09 53.41 1.34 53.66 2.28 54.34 3.24 54.83 4.18 55.76 4.63 56.7 4.41 57.63 4.41 58.6 4.86 59.53 5.34 60.47 6.05 61.2 7.01 62.14 7.95 63.08 8.18 64.01 8.4 64.97 8.4 65.91 8.4 66.84 8.4 67.78 8.4 68.75 7.95 69.68 8.18 70.62 8.18 71.55 8.18 72.52 8.88 73.45 9.11 74.39 9.37 75.32 9.56 76.28 9.56 77.22 9.82 78.16 9.82 79.09 9.56 80.06 9.56 80.99 8.63 81.93 8.63 82.86 8.63 81.93 7.95 80.99 7.72 81.93 7.24 82.86 7.24 83.83 7.24 84.76 7.47 85.7 7.24 86.63 7.01 88.53 6.79 89.47 6.79 90.4 6.79 91.36 7.24 92.3 7.01 91.56 7.95 90.63 8.4 89.69 7.95 88.76 7.72 87.79 7.72 88.28 8.63 89.01 9.56 89.95 10.3 90.88 10.3 91.82 10.78 92.78 10.98 93.72 11.24 94.65 10.98 95.59 11.46 96.55 11.95 97.49 12.17 98 13.14 98.17 14.07 98.17 15.01 97.23 15.72 97.01 16.65 98 16.65 98.91 16.43 99.84 16.43 100.78 16.17 101.71 16.43 102.19 17.36 102.19 18.32 101.26 19.26 100.32 19.71 99.36 19.94 98.42 20.88 98.42 21.87 98.42 22.8 99.36 23.48 99.84 24.45 98.91 25.16 98 25.16 97.01 25.16 96.07 25.16 95.33 26.09 95.33 27 95.14 27.96 94.88 28.9 94.88 29.83 95.82 30.57 96.75 31.25 97.49 32.19 98 33.15 98.42 34.09 97.72 35.02 96.55 35.5 95.33 36.21 94.4 36.21 93.46 36.92 92.53 37.37 91.56 37.63 90.63 37.63 89.69 38.11 88.76 38.11 87.79 38.11 87.11 39.05 86.18 39.73 85.24 39.53 84.28 39.05 83.34 38.79 82.41 38.31 81.47 38.11 80.51 37.63 79.57 37.85 78.64 37.63 77.7 37.63 77.7 38.56 78.64 39.27 79.57 39.73 80.25 40.69 80.51 41.88 80.51 42.81 80.99 43.75 80.73 44.69 80.73 45.65 81.67 46.1 82.63 46.1 83.57 46.1 84.5 46.33 84.76 47.27 83.83 47.75 82.86 48 81.93 48.23 80.99 49.16 80.51 50.1 79.57 50.58 78.64 51.29 77.7 51.97 77.22 52.94 76.48 54.13 75.55 53.39 75.09 54.38 74.13 55.06 73.19 55.06 72.26 54.58 71.32 54.13 70.36 53.87 70.16 52.94 69.2 52.45 68.49 51.52 67.55 50.58 67.07 49.62 66.59 48.68 66.11 48.17"/><polyline id="polyline16" class="cls-1" points="10.04 54.58 10.78 56 9.81 56.48 8.88 56.48 7.69 56.73 6.75 57.19 5.82 58.15 5.59 59.09 5.11 60.02 5.59 60.96 5.33 61.92 4.65 62.86 3.92 63.76 3.69 64.7 3.69 65.66 2.98 66.6 2.04 67.53 1.82 68.47 2.27 69.43 2.04 70.37 2.04 71.3 2.27 72.24 1.82 73.2 1.82 74.14 2.75 74.59 3.69 75.07 4.85 74.59 6.04 74.39 7.01 74.14 7.94 73.91 8.17 74.85 7.69 75.78 7.21 76.75 6.27 77.2 5.33 77.91 4.65 78.84 3.69 79.78 3.24 80.72 2.27 81.45 1.34 82.39 0.63 83.32 0.4 84.29 0.15 85.22 0.4 86.16 1.34 86.64 2.5 86.64 3.43 86.38 3.92 85.45 4.85 84.48 5.82 84.03 6.75 83.8 7.69 84.48 8.62 84.48 9.36 85.45 10.29 85.7 11.23 85.9 11.71 84.97 12.42 84.03 12.9 83.1 13.38 82.13 13.58 80.97 13.84 80.03 14.32 79.1 14.55 78.16 15.48 78.84 15.96 77.91 15.96 76.94 16.64 76.01 17.58 75.56 18.77 75.07 19.93 74.59 20.9 74.14 22.09 73.66 23.25 72.98 24.18 72.24 25.12 71.3 25.86 70.37 26.54 69.43 26.79 68.47 27.27 67.53 27.47 66.6 27.73 65.66 27.73 64.7 28.66 64.5 27.95 63.08 27.02 62.38 27.95 61.92 28.38 60.93 27.02 60.96 26.05 60.73 25.12 60.02 24.18 59.77 23.25 59.31 22.29 58.83 22.09 59.77 21.12 60.25 20.19 59.77 19.25 59.77 18.32 59.31 17.35 58.35 16.42 57.67 15.48 57.9 14.55 57.67 13.58 57.41 12.65 57.19 11.71 56.25 10.04 54.58"/><polyline id="polyline18" class="cls-1" points="54.57 78.33 53.15 76.92 53.15 75.98 52.67 75.53 51.74 75.98 49.84 76.92 54.32 71.28 53.15 71.05 52.9 70.11 51.96 69.63 51.06 69.63 50.09 69.38 49.16 69.38 48.45 70.34 47.48 70.79 46.55 69.86 45.61 69.63 44.68 69.86 43.72 70.34 42.78 70.79 41.84 71.28 40.91 71.05 39.69 71.76 39.24 70.79 38.3 70.59 38.75 69.63 38.3 68.7 38.53 67.76 37.59 67.28 36.66 66.57 36.17 65.61 35.24 65.41 34.3 64.93 33.37 64.67 32.63 63.73 32.15 62.83 31.21 62.35 30.28 61.64 29.34 61.16 28.38 60.93 27.93 61.89 26.99 62.35 27.93 63.05 28.63 64.44 27.7 64.67 27.7 65.61 27.44 66.57 27.22 67.5 26.76 68.44 26.51 69.38 25.83 70.34 25.09 71.28 24.16 72.21 23.22 72.95 22.06 73.63 20.84 74.11 19.9 74.56 18.74 75.05 17.55 75.53 16.62 75.98 15.91 76.92 15.91 77.88 15.45 78.81 14.52 78.11 14.29 79.07 13.81 80.01 13.55 80.94 13.36 82.1 12.87 83.04 12.39 84 11.68 84.94 11.2 85.87 10.27 85.65 9.33 85.42 8.59 84.46 7.66 84.46 6.72 83.78 5.76 84 4.82 84.46 3.89 85.42 3.41 86.36 2.47 86.61 1.31 86.61 1.08 86.87 1.08 87.8 1.56 88.74 2.5 88.74 2.98 89.67 2.27 90.86 1.34 91.34 1.56 92.28 2.5 92.76 3.43 92.99 4.85 93.24 5.82 93.7 6.75 94.18 7.69 95.11 8.42 96.05 8.88 97.01 9.36 97.95 9.59 98.89 10.55 99.56 11.48 100.3 13.13 101.46 13.38 102.4 13.58 103.33 13.84 104.3 14.32 105.23 14.8 106.17 15.48 107.11 15.96 108.07 16.64 109 17.13 110.19 17.35 111.13 18.06 112.07 18.52 113.03 18.77 113.97 19.48 114.9 20.41 115.61 21.35 116.55 21.83 117.48 22.09 118.44 22.77 119.41 23.5 120.34 24.44 121.28 24.89 122.21 25.38 123.38 26.05 124.34 27.02 124.34 27.47 125.28 27.02 126.21 26.54 127.15 26.54 128.11 27.27 129.04 27.47 129.98 28.44 130.72 29.37 131.17 30.31 131.65 31.24 132.59 32.21 133.07 32.91 134.01 33.59 134.94 34.56 135.42 35.49 135.65 36.43 135.88 37.37 136.36 38.33 136.81 39.26 137.27 40.2 137.75 41.13 138.2 42.1 138.2 43.06 138.94 44 139.42 44.96 139.62 45.9 139.62 46.83 140.1 47.77 140.58 48.73 141.04 49.67 141.77 50.6 142.71 51.09 143.64 51.99 144.35 52.93 144.81 53.66 145.74 54.6 146.48 55.53 146.96 56.47 146.71 57.43 146.48 58.37 146 58.82 145.06 58.6 144.13 59.3 143.19 59.05 142.23 58.37 141.29 58.12 140.36 58.6 139.42 59.53 138.94 60.47 138.46 61.4 138 61.2 137.04 60.95 136.1 59.99 136.36 59.05 135.65 58.12 135.42 57.18 134.94 56.22 134.49 57.18 134.23 58.12 134.01 57.43 133.07 57.63 131.88 58.6 132.33 59.05 133.07 59.53 132.11 59.99 131.4 59.79 130.46 60.24 127.63 61.4 126.47 60.95 123.63 60.95 121.99 62.14 117.96 57.89 111.36 56.7 111.13 55.76 111.61 54.83 112.07 53.86 112.07 52.93 111.84 52.45 110.88 52.7 109.94 52.7 106.42 52.45 105.49 52.45 104.53 51.54 104.3 50.6 105.01 49.67 105.49 48.73 106.17 47.99 107.11 47.06 107.36 46.12 107.59 45.16 107.59 44.48 106.65 43.55 105.69 42.55 105.01 41.62 104.75 40.68 105.01 39.75 105.01 39.97 104.07 39.75 102.88 39.26 101.92 38.33 100.98 37.62 100.05 37.37 99.11 37.17 98.18 36.2 97.47 35.75 96.53 36.2 95.6 36.43 94.63 36.69 93.7 36.91 92.76 37.37 91.83 38.58 91.34 39.52 90.41 39.26 89.47 39.04 88.51 39.04 87.58 39.52 86.64 40.2 85.7 40.68 84.74 41.13 83.8 41.87 82.87 42.55 81.93 43.55 81.45 44.48 80.97 45.42 80.72 46.58 80.72 47.51 80.72 48.48 79.78 49.41 79.33 50.6 78.84 51.54 78.84 52.45 79.33 53.41 78.84 54.34 78.84 54.57 78.33"/><polyline id="polyline20" class="cls-1" points="102.42 16.91 103.36 17.59 104.29 17.59 105.25 17.59 106.19 18.32 106.19 19.26 106.64 20.2 107.64 21.13 108.57 22.09 108.8 23.03 108.8 23.96 108.57 24.9 108.32 25.84 108.32 26.8 109.05 25.84 109.51 24.9 110.47 24.9 111.41 25.38 112.34 25.84 113.02 26.8 113.76 27.73 114.69 28.22 114.92 29.15 115.18 30.09 114.92 31.02 114.92 31.99 114.69 32.92 113.76 33.6 112.34 33.86 112.09 34.79 111.86 35.76 111.41 36.69 111.41 37.63 111.63 38.56 111.86 39.53 112.57 40.46 113.02 41.4 113.99 42.08 114.92 43.04 115.18 43.98 115.63 44.91 116.34 45.85 116.79 46.81 117.53 47.75 116.34 48 115.4 48 114.44 48.46 113.5 49.45 112.57 49.45 110.92 49.45 109.99 49.87 109.05 50.36 108.09 50.81 107.15 50.81 106.19 50.58 105.03 49.87 104.09 49.62 103.13 49.16 102.67 48.23 102.42 47.27 102.19 46.33 101.71 45.4 101.71 44.46 101.71 43.5 101.71 42.56 101.71 41.63 101.94 40.69 102.19 39.73 102.42 38.79 102.19 37.85 101.48 36.92 100.78 35.96 100.78 35.02 101.71 34.34 101.71 32.67 100.78 32.19 99.84 32.19 98.91 32.67 98 33.09 97.46 32.16 96.72 31.22 95.79 30.54 94.85 29.8 94.85 28.87 95.11 27.93 95.31 26.97 95.31 26.06 96.04 25.13 96.98 25.13 98 25.13 98.88 25.13 99.81 24.42 99.33 23.45 98.39 22.77 98.39 21.84 98.39 20.85 99.33 19.91 100.27 19.68 101.23 19.23 102.17 18.27 102.17 17.33 102.42 16.91"/><polyline id="polyline22" class="cls-1" points="115.15 30.06 114.89 31 114.89 31.93 114.67 32.89 113.73 33.58 112.31 33.83 112.06 34.77 111.83 35.7 111.38 36.66 111.38 37.6 111.58 38.53 111.83 39.47 112.54 40.43 112.99 41.37 113.96 42.05 114.89 43.01 115.15 43.95 115.6 44.88 116.31 45.82 116.76 46.78 117.5 47.72 117.76 48 118.69 48 119.63 48.68 120.82 48.46 121.78 47.75 121.78 46.81 120.82 46.1 121.04 45.17 121.98 45.4 122.94 45.65 123.88 45.4 124.81 44.91 125.75 44.91 126.23 45.85 127.17 45.85 128.1 45.17 128.36 44.23 128.84 43.3 129.32 42.33 129.52 41.4 130 40.46 130 39.53 129.07 38.56 128.58 37.63 128.58 36.69 128.36 35.76 127.9 34.79 127.9 33.86 128.1 32.92 129.07 32.44 129.78 31.5 130.26 30.57 130.71 29.61 129.78 29.38 128.84 29.38 127.9 29.15 126.94 28.9 126 28.67 125.07 28.22 124.13 28.67 123.17 28.9 122.23 28.9 121.3 29.15 120.36 29.15 119.4 28.67 118.46 28.67 117.53 28.9 116.59 28.67 115.63 28.9 115.4 29.83 115.15 30.06"/><polyline id="polyline24" class="cls-1" points="127.68 46.61 128.61 46.84 129.8 47.29 130.77 46.84 131.7 46.13 132.64 46.36 133.57 46.13 134.54 46.61 135.47 46.84 136.41 46.13 138.76 43.07 139.24 42.13 139.92 41.17 140.66 40.01 141.34 39.07 142.08 38.14 141.82 37.2 141.59 36.24 140.66 36.24 140.41 37.2 140.18 36.24 139.47 35.3 138.5 34.59 137.57 33.89 136.89 32.95 135.93 32.02 134.99 31.28 134.06 31.28 133.12 30.82 132.64 29.86 131.22 30.34 130.26 30.57 129.78 31.5 129.07 32.44 128.1 32.92 127.9 33.86 127.9 34.79 128.36 35.76 128.58 36.69 128.58 37.63 129.07 38.56 130 39.53 130 40.46 129.52 41.4 129.32 42.33 128.84 43.3 128.36 44.23 128.1 45.17 127.17 45.85 127.68 46.61"/><polyline id="polyline26" class="cls-1" points="59.82 144.15 61.23 145.83 61.49 146.99 61.69 147.92 62.17 148.86 63.1 149.79 64.04 150.53 65 151.21 64.52 152.15 64.04 153.37 64.29 154.3 63.84 155.24 64.04 156.17 64.29 157.14 64.52 158.07 65.26 159.01 65.94 159.94 66.19 160.91 66.19 161.84 66.42 162.78 66.87 163.71 67.36 164.68 67.61 165.61 67.81 166.55 66.87 167.23 67.61 168.19 68.55 168.45 69.48 168.9 70.42 168.65 71.13 167.48 71.38 166.55 72.32 166.29 73.25 165.61 73.48 164.68 74.41 164.42 74.9 163.46 75.83 163.46 76.77 163.94 77.73 164.42 78.67 164.68 79.6 164.42 80.54 164.19 81.5 164.19 82.44 164.88 82.44 165.84 82.92 166.78 83.85 167.03 83.85 166.07 84.11 165.13 84.56 164.19 85.04 163.26 85.98 163.26 87.14 163.26 88.33 163.26 89.3 163.26 90.23 163.94 90.46 163.46 91.65 158.53 91.65 155.24 94 150.99 97.77 150.53 101.29 149.6 105.74 149.6 110.02 151.47 111.18 154.05 112.37 152.63 110.95 151.47 111.18 150.53 111.66 149.6 111.92 148.63 112.11 147.7 112.6 146.76 112.85 145.83 113.31 144.86 113.79 143.93 113.08 142.99 112.37 142.06 111.43 141.32 110.5 140.38 109.53 139.9 109.31 138.97 108.83 138.03 109.08 137.1 109.53 136.13 110.02 135.2 109.76 134.97 101.29 134.52 99.87 129.56 100.81 129.56 101.29 128.59 101.29 127.66 100.61 126.72 101.06 125.79 101.06 124.82 100.35 123.89 99.39 123.4 98.45 123.21 97.52 122.72 96.58 122.24 95.62 122.24 94.68 122.47 93.75 122.47 92.81 121.79 91.85 120.85 90.91 120.85 89.98 120.6 89.04 120.12 88.08 119.44 87.4 118.47 86.46 118.47 85.53 118.02 84.56 117.76 83.63 117.76 82.69 117.76 81.73 117.28 81.02 116.35 80.08 115.67 79.15 115.18 78.18 114.25 77.25 113.51 77.02 112.58 77.25 111.64 77.25 110.7 77.02 109.74 76.57 108.81 76.09 107.87 76.57 106.94 77.02 105.97 77.02 105.04 76.57 104.1 75.61 104.36 74.67 104.36 73.73 104.58 72.8 104.58 71.83 104.81 70.9 105.52 70.19 106.45 69.23 107.19 68.29 107.39 67.36 107.87 66.65 108.81 65.71 109.29 64.78 109.54 64.04 110.48 63.36 111.41 62.42 111.41 61.49 110.96 60.52 110.7 59.59 110.96 58.65 111.16 57.89 111.36 62.14 117.96 60.95 121.99 60.95 123.63 61.4 126.47 60.24 127.63 59.79 130.46 59.99 131.4 59.53 132.11 59.05 133.07 58.6 132.33 57.63 131.88 57.43 133.07 58.12 134.01 57.18 134.23 56.22 134.49 57.18 134.94 58.12 135.42 59.05 135.65 59.99 136.36 60.95 136.1 61.2 137.04 61.4 138 60.47 138.46 59.53 138.94 58.6 139.42 58.12 140.36 58.37 141.29 59.05 142.23 59.3 143.19 59.82 144.15"/><polyline id="polyline28" class="cls-1" points="111.18 154.05 110.02 151.47 105.74 149.6 101.29 149.6 97.77 150.53 94 150.99 91.65 155.24 91.65 158.53 90.46 163.46 90.23 163.94 90.91 164.42 91.85 165.13 92.58 166.07 93.07 167.03 94 167.71 94.94 168.65 95.87 169.61 96.84 170.06 97.77 170.8 98.71 170.8 99.64 171.25 100.61 172.19 101.51 172.19 102.22 173.15 103.16 173.35 104.12 174.09 105.06 175.02 105.99 175.5 106.93 175.96 107.89 176.44 108.83 176.44 109.76 176.67 110.7 176.92 111.66 177.6 112.6 178.34 112.6 179.28 111.92 180.21 111.43 181.15 110.5 182.11 110.24 183.04 109.76 184.21 109.08 185.14 108.83 186.08 108.6 187.04 108.6 187.98 109.53 187.75 110.5 187.75 111.43 187.98 112.37 188.43 113.31 188.69 114.27 188.69 115.2 188.91 116.14 188.91 117.08 188.91 118.04 189.17 118.97 188.43 119.91 188.69 120.84 188.69 121.81 187.98 122.26 187.04 122.97 186.08 123.91 185.4 124.84 184.92 125.58 183.98 125.58 183.04 125.32 182.11 125.58 181.15 126.03 180.21 126.03 179.28 126.03 178.34 126.03 177.38 126.03 176.44 126.03 175.25 126.52 174.31 126.74 173.35 126.52 172.41 125.58 172.19 124.39 172.19 123.42 171.96 122.49 171.25 122.26 170.32 122.01 169.38 122.26 168.45 121.81 167.48 121.55 166.55 121.81 165.61 121.33 164.68 120.39 164.19 119.46 163.71 118.49 163.26 117.56 163.26 116.62 163.46 115.69 163.46 114.72 163.46 113.79 163.94 112.85 163.71 111.66 163.26 111.92 162.3 112.11 161.36 112.11 160.43 111.66 159.49 112.11 158.53 112.11 157.59 111.66 156.66 111.66 155.72 111.66 154.76 111.18 154.05"/><polyline id="polyline30" class="cls-1" points="59.3 143.19 59.82 144.15 61.23 145.83 61.49 146.99 61.69 147.92 62.17 148.86 63.1 149.79 64.04 150.53 65 151.21 64.52 152.15 64.04 153.37 64.29 154.3 63.84 155.24 64.04 156.17 64.29 157.14 64.52 158.07 65.26 159.01 65.94 159.94 66.19 160.91 66.19 161.84 66.42 162.78 66.87 163.71 67.36 164.68 67.61 165.61 67.81 166.55 66.87 167.23 67.61 168.19 68.55 168.45 69.48 168.9 70.42 168.65 71.13 167.48 71.38 167.97 71.38 168.9 71.13 173.35 66.65 176.19 65.94 177.6 66.19 178.54 66.19 179.5 65.46 180.44 65.46 181.37 65.71 182.31 66.19 183.27 66.42 184.21 65.94 185.14 65.94 186.08 66.65 187.04 66.87 187.98 65.94 188.69 65.94 189.65 65 190.59 64.29 191.52 63.84 192.46 63.59 193.42 63.1 194.36 62.65 195.29 62.42 196.23 62.17 197.39 61.94 198.32 61.49 199.29 61.01 200.22 61.23 201.16 61.49 202.09 61.94 203.06 62.17 203.99 61.69 204.93 61.23 205.86 61.23 206.83 61.49 207.76 60.75 208.7 59.82 208.95 59.59 209.89 60.27 210.85 61.23 211.79 62.17 212.72 61.49 213.66 61.94 214.62 62.42 215.56 62.88 216.49 62.65 217.43 62.88 217.91 63.36 218.85 64.04 219.78 64.29 220.75 64.29 221.68 64.52 222.62 64.52 223.55 64.29 224.03 63.36 224.52 63.36 225.45 62.88 226.39 62.65 227.32 61.69 227.8 61.49 228.74 61.69 229.68 62.17 230.64 62.65 231.57 62.17 232.51 61.94 233.44 61.23 234.41 60.52 235.34 60.52 236.28 60.75 237.22 61.01 238.18 60.52 239.12 60.52 240.05 61.01 240.99 61.49 241.95 61.94 242.88 62.17 243.82 62.42 244.76 61.49 245.72 60.52 246.4 60.52 247.34 60.52 248.27 60.27 249.23 60.07 250.17 59.82 251.1 59.82 252.04 59.82 253 59.82 253.94 59.82 254.88 59.82 255.81 59.82 256.77 60.07 257.71 60.52 258.64 61.01 259.58 61.49 260.55 61.49 261.48 61.23 262.42 60.52 263.15 60.52 264.09 60.75 265.02 61.69 265.73 62.17 266.67 62.17 267.6 62.17 268.54 62.42 269.5 62.65 270.44 62.65 271.37 63.59 271.86 64.52 271.37 65.46 271.86 65.94 272.79 65 273.5 63.84 273.73 62.88 273.73 61.94 273.98 62.88 274.66 63.84 275.14 64.78 275.63 65 276.56 64.04 277.5 63.84 278.43 63.84 279.39 63.59 280.59 64.04 280.76 64.04 281.72 64.78 282.65 64.52 283.59 64.04 284.53 63.84 285.49 63.84 286.43 63.36 287.36 63.1 288.3 63.1 289.26 63.1 290.19 63.84 291.13 63.84 292.07 63.36 293.03 62.65 293.96 62.17 294.9 61.94 295.84 61.69 296.8 61.69 297.74 61.69 298.67 61.49 299.61 62.17 300.54 62.88 301.5 63.84 301.7 64.78 301.25 65.71 300.54 66.19 301.5 66.19 302.44 65.94 303.38 66.19 304.31 66.65 305.27 66.87 306.21 67.13 307.15 68.06 307.63 69.03 307.63 69.96 307.37 70.9 307.15 71.83 307.15 72.8 307.15 73.73 307.15 74.9 307.15 75.35 308.08 74.67 309.05 73.73 309.05 72.8 309.24 71.83 309.98 71.38 310.92 71.58 311.85 71.58 312.81 71.58 313.75 71.58 314.69 71.38 315.62 70.42 315.62 69.48 315.17 68.55 314.69 67.81 313.75 68.77 313.01 69.71 313.27 70.64 311.85 70.9 310.92 70.64 309.98 69.71 310.21 69.48 311.14 69.03 312.08 67.81 312.08 67.13 313.01 67.13 314.23 66.19 313.75 65.94 312.81 66.42 311.85 66.42 310.92 66.87 309.98 65.94 309.5 65.71 310.46 65.94 311.4 65.26 312.33 64.29 312.33 64.52 311.4 64.52 310.46 63.59 310.46 63.36 309.5 64.29 308.79 64.04 307.86 62.88 307.37 62.42 306.44 62.42 305.47 61.69 304.54 61.23 303.38 61.49 302.44 60.52 301.5 60.27 300.54 59.33 299.83 59.11 298.9 59.33 297.96 59.33 297 59.11 296.06 58.88 295.13 58.65 294.19 58.17 293.03 58.17 292.07 57.24 291.36 57.46 290.42 57.72 289.46 56.75 288.3 56.75 287.36 56.5 286.43 57.46 285.94 57.46 285.01 56.98 284.07 56.05 283.82 55.56 284.75 54.63 284.53 53.69 283.59 53.21 284.53 53.47 285.49 52.53 285.69 52.05 284.75 52.05 283.82 52.73 282.88 53.21 281.92 53.21 280.98 53.21 280.05 54.15 279.82 55.11 279.82 56.05 280.3 56.05 281.24 55.82 282.17 56.75 282.17 57.72 282.65 57.92 281.72 57.92 280.76 57.46 279.82 58.17 278.88 57.72 277.95 57.92 276.99 58.17 276.05 58.88 275.12 59.82 274.63 60.07 273.7 60.07 272.76 59.11 272.02 58.17 271.83 57.92 270.86 57.92 269.93 57.92 268.74 57.46 267.8 57.72 266.84 58.17 265.9 57.92 264.97 58.4 264.03 58.17 263.07 57.46 262.13 58.4 262.61 58.88 261.68 57.92 261.2 57.92 260.26 58.17 259.3 57.24 258.62 56.3 259.1 56.05 260.03 55.11 260.26 53.95 260.26 53.47 259.3 52.53 258.62 52.53 257.68 52.53 256.75 52.73 255.78 52.73 254.85 52.53 253.91 52.53 252.98 52.53 251.76 52.73 250.82 53.21 249.89 53.21 248.95 53.47 248.01 53.21 247.05 52.73 246.12 52.27 245.18 52.05 244.25 52.05 243.28 52.05 242.35 52.05 241.41 51.79 240.47 51.34 239.51 51.57 238.09 52.53 237.16 52.98 236.22 53.47 235.29 53.69 234.32 53.69 233.39 53.47 232.45 53.47 231.52 54.15 230.55 54.4 229.62 54.63 228.68 55.11 227.52 55.56 226.59 55.56 225.62 55.56 224.69 55.82 223.75 55.82 222.81 55.82 221.88 56.3 220.92 56.75 219.98 56.3 219.04 56.05 218.11 56.3 217.15 56.98 216.21 56.5 215.28 56.3 214.34 56.5 213.38 56.5 212.44 56.3 211.5 55.34 210.57 55.11 208.67 54.88 207.74 54.63 206.8 54.63 205.58 54.88 204.65 55.34 203.71 55.56 202.78 54.88 201.81 55.34 200.88 55.34 199.94 55.11 199 54.88 198.07 54.88 197.1 55.11 196.17 55.34 195.23 55.34 194.3 55.56 193.34 55.56 192.4 55.56 191.46 56.05 190.53 56.3 189.56 56.3 188.4 56.75 187.21 57.24 186.28 57.24 185.34 56.5 184.38 56.05 183.22 56.3 182.03 56.75 181.09 56.98 180.15 56.75 179.22 56.75 178.25 56.75 177.32 56.98 176.38 56.98 175.45 56.98 174.29 57.24 173.32 57.24 172.39 56.98 171.45 56.3 170.52 56.3 169.55 57.24 168.62 57.24 167.68 57.46 166.75 57.72 165.78 57.72 164.85 57.72 163.91 57.92 162.98 57.72 161.79 57.46 160.82 56.75 159.89 56.75 158.95 56.75 157.79 56.75 156.6 56.75 155.63 56.75 154.7 56.98 153.54 56.75 152.35 56.5 151.41 55.82 150.47 55.56 149.51 55.34 148.35 55.56 147.41 55.53 146.96 56.47 146.71 57.43 146.48 58.37 146 58.82 145.06 58.6 144.13 59.3 143.19"/><polyline id="polyline32" class="cls-1" points="53.21 260.97 53.21 261.9 53.21 262.87 53.21 263.8 53.21 264.74 52.73 265.68 52.73 266.64 52.73 267.57 52.98 268.51 53.95 268.25 54.88 268.25 55.34 267.32 55.34 266.38 55.34 265.45 54.4 264.74 54.63 263.8 55.34 262.87 55.11 261.9 54.88 260.97 53.95 261.2 53.21 260.97"/><polyline id="polyline34" class="cls-1" points="79.38 318 78.44 318.2 77.5 318.94 76.77 318 75.83 318 74.9 317.75 73.96 317.27 73 318 71.83 318.46 70.9 318.2 69.96 318.94 70.9 319.17 71.83 318.68 72.06 319.62 73 319.62 73.96 320.36 74.19 319.39 75.15 319.17 76.09 319.17 77.02 319.62 77.96 320.1 79.35 319.39 79.38 318"/><polyline id="polyline36" class="cls-1" points="66.19 314.69 65.46 315.62 65.71 316.59 66.65 316.59 67.61 316.78 68.29 315.85 67.36 314.91 66.19 314.69"/><polyline id="polyline38" class="cls-1" points="76.31 308.79 75.61 309.73 75.61 310.66 74.41 310.66 73.48 310.21 73 311.14 73 312.08 73.25 313.01 74.19 313.5 75.15 312.81 75.61 313.75 74.67 314.23 74.41 315.17 74.67 316.1 75.61 316.78 76.57 317.04 77.5 317.04 78.44 317.52 79.38 317.52 79.38 316.33 79.15 314.91 78.92 313.27 78.67 312.33 78.67 310.92 78.67 309.98 78.67 309.05 77.73 309.73 76.77 309.5 76.31 308.79"/><polyline id="polyline40" class="cls-1" points="64.78 314.23 64.04 313.27 63.1 312.81 62.17 312.81 61.23 312.33 60.27 311.63 60.27 312.56 61.01 313.5 61.94 313.75 62.88 313.75 63.84 313.75 64.78 314.23"/><polyline id="polyline42" class="cls-1" points="56.75 293.03 55.82 293.48 54.88 293.48 55.11 294.42 55.56 295.38 54.63 296.06 54.88 297 55.34 297.96 56.3 297.48 56.98 298.42 57.46 299.35 58.4 299.61 58.4 298.42 58.17 297.48 57.92 296.55 57.46 295.38 57.46 294.42 56.75 293.03"/><polyline id="polyline44" class="cls-1" points="80.34 319.39 80.79 320.36 81.73 321.04 82.69 321.29 83.63 320.55 83.37 319.62 82.44 319.39 80.34 319.39"/><polyline id="polyline46" class="cls-1" points="79.86 320.55 78.92 320.44 77.96 320.44 77.02 320.81 76.57 321.77 77.5 322.45 78.44 321.77 79.38 321.77 80.34 321.97 80.79 321.04 79.86 320.55"/><polyline id="polyline48" class="cls-1" points="126.52 180.61 127.45 180.15 128.39 180.41 129.09 181.34 129.09 182.28 129.55 183.22 129.55 184.18 129.55 185.12 129.35 186.05 129.35 186.99 128.61 187.95 127.68 188.63 126.74 188.63 125.78 189.11 124.84 189.82 123.91 190.3 123.42 191.24 122.49 191.72 121.55 191.92 120.62 192.4 119.66 193.34 119.2 194.3 118.49 195.23 117.56 196.17 116.85 197.1 115.89 198.07 115.2 199 114.47 199.94 113.79 200.88 113.08 201.81 112.37 202.78 111.92 203.71 111.66 204.65 111.43 205.58 111.18 206.54 110.95 207.48 110.95 208.41 110.5 209.35 110.24 210.31 110.02 211.25 110.02 212.19 109.76 213.12 109.76 214.09 109.76 215.02 109.53 215.96 108.83 216.89 108.6 217.85 108.34 218.79 108.34 219.73 108.6 220.66 108.83 221.63 108.83 222.56 109.08 223.5 110.02 223.98 110.95 224.43 111.92 224.91 112.85 225.4 113.79 225.85 114.47 226.78 114.27 227.75 113.53 228.68 113.53 229.62 114.47 230.55 115.43 231.29 115.89 232.23 115.89 233.16 115.69 234.13 115.2 235.06 114.72 236 113.79 236.93 113.08 237.9 112.6 238.83 112.11 239.77 111.43 240.7 110.5 240.7 109.53 240.93 108.34 241.67 107.41 241.86 106.47 242.12 105.54 242.6 104.58 243.08 103.64 243.08 102.45 243.54 101.51 243.76 100.61 244.02 99.64 244.02 98.71 244.7 97.77 244.02 96.84 244.47 95.87 243.76 94.68 243.08 94.23 244.02 94.45 244.95 95.42 245.63 95.62 246.6 95.42 247.53 94.45 248.24 94.45 249.21 94.23 250.14 94 251.08 94.68 252.01 94.94 252.98 94 253.91 92.81 254.37 91.85 254.37 90.91 254.37 89.98 254.85 89.04 254.85 88.08 253.91 87.14 253.43 86.21 253.18 85.27 252.98 84.79 253.91 84.56 254.85 84.79 255.78 85.27 256.75 85.27 257.68 85.27 258.62 86.21 259.3 87.14 259.55 88.08 260.26 89.04 259.55 89.98 259.1 90.23 260.03 90.46 260.97 90.69 261.9 89.75 262.39 88.81 262.39 88.33 261.45 87.4 261.45 86.46 261.45 85.53 261.9 85.72 262.87 86.69 263.32 87.62 263.32 87.62 264.29 86.69 264.49 85.72 264.97 84.79 265.68 84.79 266.64 84.79 267.57 85.04 268.51 85.27 269.44 85.72 270.41 85.27 271.35 84.31 271.57 84.31 272.51 84.31 273.44 83.37 273.7 82.44 273.44 81.5 273.44 81.02 274.38 80.08 274.63 79.15 275.34 78.67 276.28 78.44 277.21 78.18 278.15 78.18 279.11 78.44 280.05 78.67 280.98 79.6 281.72 80.54 282.17 81.5 283.11 82.44 283.33 83.37 283.11 84.31 282.65 85.04 283.59 85.27 284.53 85.27 285.49 84.56 286.43 84.56 287.36 83.63 288.3 82.69 288.78 81.73 289.46 80.79 290.42 79.86 291.36 79.38 292.29 78.67 293.23 79.6 293.23 79.86 294.19 79.15 295.13 78.67 296.06 78.67 297 77.73 297.25 76.77 296.32 76.31 297.25 76.77 298.19 76.31 299.15 75.83 300.09 74.41 302.44 75.35 302.19 76.09 303.12 76.31 304.08 76.31 305.27 77.25 305.73 78.18 306.21 78.92 307.15 78.44 308.08 77.5 308.08 76.31 307.63 75.35 308.08 74.9 307.15 73.73 307.15 72.8 307.15 71.83 307.15 70.9 307.15 69.96 307.37 69.03 307.63 68.06 307.63 67.13 307.15 66.87 306.21 66.65 305.27 66.19 304.31 65.94 303.38 66.19 302.44 66.19 301.5 65.71 300.54 64.78 301.25 63.84 301.7 62.88 301.5 62.17 300.54 61.49 299.61 61.69 298.67 61.69 297.74 61.69 296.8 61.94 295.84 62.17 294.9 62.65 293.96 63.36 293.03 63.84 292.07 63.84 291.13 63.1 290.19 63.1 289.26 63.1 288.3 63.36 287.36 63.84 286.43 63.84 285.49 64.04 284.53 64.52 283.59 64.78 282.65 64.04 281.72 64.04 280.76 63.59 280.59 63.84 279.39 63.84 278.43 64.04 277.5 65 276.56 64.78 275.63 63.84 275.14 62.88 274.66 61.94 273.98 62.88 273.73 63.84 273.73 65 273.5 65.94 272.79 65.46 271.86 64.52 271.37 63.59 271.86 62.65 271.37 62.65 270.44 62.42 269.5 62.17 268.54 62.17 267.6 62.17 266.67 61.69 265.73 60.75 265.02 60.52 264.09 60.52 263.15 61.23 262.42 61.49 261.48 61.49 260.55 61.01 259.58 60.52 258.64 60.07 257.71 59.82 256.77 59.82 255.81 59.82 254.88 59.82 253.94 59.82 253 59.82 252.04 59.82 251.1 60.07 250.17 60.27 249.23 60.52 248.27 60.52 247.34 60.52 246.4 61.49 245.72 62.42 244.76 62.17 243.82 61.94 242.88 61.49 241.95 61.01 240.99 60.52 240.05 60.52 239.12 61.01 238.18 60.75 237.22 60.52 236.28 60.52 235.34 61.23 234.41 61.94 233.44 62.17 232.51 62.65 231.57 62.17 230.64 61.69 229.68 61.49 228.74 61.69 227.8 62.65 227.32 62.88 226.39 63.36 225.45 63.36 224.52 64.29 224.03 64.52 223.55 64.52 222.62 64.29 221.68 64.29 220.75 64.04 219.78 63.36 218.85 62.88 217.91 62.65 217.43 62.88 216.49 62.42 215.56 61.94 214.62 61.49 213.66 62.17 212.72 61.23 211.79 60.27 210.85 59.59 209.89 59.82 208.95 60.75 208.7 61.49 207.76 61.23 206.83 61.23 205.86 61.69 204.93 62.17 203.99 61.94 203.06 61.49 202.09 61.23 201.16 61.01 200.22 61.49 199.29 61.94 198.32 62.17 197.39 62.42 196.23 62.65 195.29 63.1 194.36 63.59 193.42 63.84 192.46 64.29 191.52 65 190.59 65.94 189.65 65.94 188.69 66.87 187.98 66.65 187.04 65.94 186.08 65.94 185.14 66.42 184.21 66.19 183.27 65.71 182.31 65.46 181.37 65.46 180.44 66.19 179.5 66.19 178.54 65.94 177.6 66.65 176.19 71.13 173.35 71.38 168.9 71.38 167.97 71.13 167.48 71.38 166.55 72.32 166.29 73.25 165.61 73.48 164.68 74.41 164.42 74.9 163.46 75.83 163.46 76.77 163.94 77.73 164.42 78.67 164.68 79.6 164.42 80.54 164.19 81.5 164.19 82.44 164.88 82.44 165.84 82.92 166.78 83.85 167.03 83.85 166.07 84.11 165.13 84.56 164.19 85.04 163.26 85.98 163.26 87.14 163.26 88.33 163.26 89.3 163.26 90.23 163.94 90.91 164.42 91.85 165.13 92.58 166.07 93.07 167.03 94 167.71 94.94 168.65 95.87 169.61 96.84 170.06 97.77 170.8 98.71 170.8 99.64 171.25 100.61 172.19 101.51 172.19 102.22 173.15 103.16 173.35 104.12 174.09 105.06 175.02 105.99 175.5 106.93 175.96 107.89 176.44 108.83 176.44 109.76 176.67 110.7 176.92 111.66 177.6 112.6 178.34 112.6 179.28 111.92 180.21 111.43 181.15 110.5 182.11 110.24 183.04 109.76 184.21 109.08 185.14 108.83 186.08 108.6 187.04 108.6 187.98 109.53 187.75 110.5 187.75 111.43 187.98 112.37 188.43 113.31 188.69 114.27 188.69 115.2 188.91 116.14 188.91 117.08 188.91 118.04 189.17 118.97 188.43 119.91 188.69 120.84 188.69 121.81 187.98 122.26 187.04 122.97 186.08 123.91 185.4 124.84 184.92 125.58 183.98 125.58 183.04 125.32 182.11 125.58 181.15 126.52 180.61"/><polyline id="polyline50" class="cls-1" points="79.86 317.75 80.79 318.46 81.73 318.94 82.69 318.94 83.63 318.94 84.56 319.17 85.53 319.62 86.69 319.39 87.62 319.17 88.56 318.94 89.49 318.68 89.3 317.75 88.33 317.75 87.4 317.52 86.46 317.52 85.72 316.59 84.79 316.33 83.85 316.1 82.92 315.62 82.44 314.69 81.5 314.23 80.79 313.27 80.34 312.33 79.38 312.33 79.6 311.4 79.6 310.46 78.92 309.5 78.67 309.05 78.67 309.98 78.67 310.92 78.67 312.33 78.92 313.27 79.15 314.91 79.38 316.33 79.38 317.52 79.86 317.75"/><polyline id="polyline52" class="cls-1" points="112.37 202.78 111.92 203.71 111.66 204.65 111.43 205.58 111.18 206.54 110.95 207.48 110.95 208.41 110.5 209.35 110.24 210.31 110.02 211.25 110.02 212.19 109.76 213.12 109.76 214.09 109.76 215.02 109.53 215.96 108.83 216.89 109.08 218.11 109.08 219.04 109.31 219.98 109.53 220.92 110.5 221.63 111.43 222.33 112.37 222.33 113.31 222.08 114.27 222.33 114.95 223.27 115.43 224.23 116.37 224.69 117.3 224.69 118.24 224.69 119.2 224.23 120.14 224.43 121.07 224.69 122.01 224.91 122.97 225.17 123.91 225.17 124.84 224.69 125.58 223.75 126.52 223.5 127.45 222.81 127.68 221.88 128.39 220.92 129.35 220.21 129.35 219.27 128.87 218.31 128.39 217.37 128.87 216.44 129.35 215.5 130.28 215.5 130.28 214.54 129.35 213.6 128.61 212.67 127.93 211.73 127.19 210.77 126.26 210.09 125.32 209.35 124.39 208.9 123.42 208.19 122.49 207.48 122.01 206.54 121.33 205.58 120.39 205.84 119.46 205.38 118.72 204.42 117.78 203.48 116.85 202.78 116.37 201.81 115.43 201.81 114.47 202.29 113.53 202.55 112.37 202.78"/></svg>