<svg id="Capa_1" data-name="Capa 1" xmlns="http://www.w3.org/2000/svg" viewBox="0 0 258.89 381.79"><defs><style>.cls-1{fill:none;stroke:red;stroke-miterlimit:10;stroke-width:0.28px;}</style></defs><title>2</title><polyline id="polyline10" class="cls-1" points="168.67 44.2 169.77 45.08 170.34 46.18 171.45 46.76 171.18 47.86 171.45 48.97 171.45 50.08 172.02 51.22 172.59 52.32 172.29 53.43 172.83 54.54 172.59 55.68 173.13 56.79 173.97 57.89 175.07 57.89 176.18 58.46 177.29 59.27 177.86 60.38 178.16 61.48 177.05 62.35 176.18 63.46 175.07 64.57 173.97 65.71 172.59 66.82 171.45 67.39 170.61 68.5 169.5 69.3 168.67 70.41 168.67 71.55 168.13 72.66 167.26 73.76 166.15 74.87 165.31 76.01 166.45 76.01 169.24 75.17 170.34 74.87 170.91 73.76 170.91 72.66 172.02 72.08 172.83 73.22 173.7 74.33 173.97 73.22 173.13 72.08 173.4 70.98 174.27 69.87 175.38 69.3 176.48 69.3 177.59 69.3 178.73 69.6 179.84 69.6 180.95 69.3 182.05 69.03 183.19 68.5 184.3 68.5 185.41 68.76 187.09 69.87 186.21 70.98 185.98 72.08 185.68 73.22 185.11 74.33 184.3 75.44 183.19 76.55 182.05 76.85 180.95 76.55 179.84 77.42 178.73 77.96 177.59 77.69 176.48 77.42 175.38 77.69 174.27 77.96 173.13 77.96 172.02 77.96 170.91 77.42 169.5 77.12 168.37 77.69 168.37 78.8 169.77 77.96 170.91 78.53 172.02 78.8 173.13 79.1 174.27 79.1 175.38 78.53 176.48 78.8 177.59 78.8 178.73 79.1 179.84 79.1 180.95 78.53 181.21 79.63 182.32 78.8 182.62 77.69 183.73 77.42 184.84 76.55 185.98 76.55 186.21 75.44 187.09 74.33 187.66 73.22 188.46 72.08 189.57 71.55 190.68 72.08 191.82 72.39 192.92 73.22 194.03 73.49 195.14 73.76 196.28 74.64 197.38 75.17 198.79 75.74 200.17 76.31 201.28 76.01 202.42 76.55 203.53 77.42 203.83 78.53 204.93 77.96 206.04 78.22 207.15 79.1 207.99 80.2 207.99 81.31 207.72 82.42 207.99 83.56 207.72 84.93 207.72 86.04 206.88 87.15 207.99 87.45 208.83 86.34 209.09 85.24 209.4 84.1 210.5 83.79 211.34 84.93 212.75 84.67 213.29 83.56 213.86 82.42 214.97 82.99 216.07 83.56 217.21 84.36 218.32 84.93 219.43 85.24 220.53 86.34 221.68 86.61 222.78 85.77 223.89 86.34 225 86.88 226.14 87.72 227.25 87.15 228.35 87.45 229.19 88.56 230.3 88.02 231.41 87.45 232.51 87.45 233.92 88.26 235.06 89.13 236.17 89.13 237.28 89.93 238.38 90.81 239.22 91.91 240.06 93.02 241.2 93.59 242.31 94.13 242.84 95.27 243.68 96.38 244.22 97.48 245.36 98.59 246.47 99.16 247.58 99.73 248.72 100.53 249.82 101.11 250.93 102.21 251.23 103.32 252.91 103.05 254.29 103.62 255.39 103.89 256.5 104.19 257.07 105.3 257.64 106.41 257.37 107.51 257.37 108.65 257.91 109.76 258.48 110.87 258.48 111.97 258.75 113.12 258.75 114.22 258.75 115.33 258.48 116.44 258.18 117.58 258.48 118.69 258.48 119.79 257.91 120.9 257.37 122.04 257.37 123.15 257.07 124.25 256.8 125.36 256.26 126.5 255.39 127.58 254.59 128.68 253.45 128.99 252.34 128.99 252.91 130.09 252.34 131.2 251.5 132.34 250.66 133.45 249.56 134.25 248.45 135.13 247.31 135.13 246.47 136.23 245.36 137.04 244.79 138.18 244.22 139.28 243.68 140.43 243.11 141.53 241.2 143.21 240.33 144.35 239.22 144.89 237.85 144.59 236.74 144.05 236.44 145.16 236.44 146.26 236.17 147.37 235.3 148.51 234.49 149.62 234.19 150.72 234.49 151.83 235.6 151.3 235.6 152.4 235.6 153.51 234.49 154.38 233.92 155.49 234.49 156.6 234.49 157.7 234.49 158.84 234.76 159.95 234.76 161.06 234.49 162.17 234.49 163.31 233.92 164.41 233.65 165.52 233.08 166.63 232.81 167.77 231.97 168.88 231.71 169.98 231.41 171.09 231.14 172.23 231.14 173.34 230.3 174.44 229.46 175.55 228.92 176.69 228.62 177.8 228.62 178.91 228.35 180.01 228.35 181.16 228.05 182.26 227.51 183.37 226.37 183.94 225.26 185.85 224.16 186.72 223.89 187.83 223.89 188.94 222.78 189.21 221.68 190.31 220.53 190.62 220.53 191.72 219.7 192.86 218.89 193.97 218.89 195.08 218.89 196.19 218.89 197.33 217.75 198.43 216.64 199 215.54 199.24 214.43 200.11 214.43 201.22 213.29 201.79 212.18 201.49 211.07 201.49 209.97 201.49 208.83 201.49 207.72 201.22 206.61 201.49 205.5 201.79 204.36 200.92 203.26 201.22 202.15 201.79 201.04 201.79 199.9 202.59 198.79 203.47 197.69 203.7 196.58 204.57 196.01 205.68 194.9 205.68 193.22 205.68 192.12 206.25 190.98 206.79 189.87 206.79 188.76 207.06 187.66 207.63 186.51 208.47 185.68 209.57 184.57 210.41 183.43 211.25 182.62 212.36 182.05 213.5 180.95 214.03 179.84 213.73 178.97 214.87 178.97 215.98 178.73 217.09 178.43 218.19 178.43 219.34 178.73 220.44 178.97 221.55 178.73 223.5 178.73 224.6 177.59 224.6 177.59 225.71 177.59 226.85 178.16 227.96 178.73 229.94 178.16 231.04 177.29 232.15 176.18 232.42 173.97 232.72 173.13 233.83 172.29 234.94 171.18 235.81 170.91 236.91 170.34 238.02 169.77 239.13 169.24 240.27 168.94 241.38 168.37 242.48 168.13 243.59 167.56 244.73 166.45 245.84 165.31 246.64 164.47 247.75 163.37 248.59 162.22 249.43 161.12 250 160.58 248.89 161.69 248.59 162.79 247.75 163.67 246.64 163.67 245.54 164.47 244.43 165.58 243.86 166.15 242.75 166.45 241.38 166.45 240.27 165.31 240.27 164.21 239.7 164.21 240.81 164.47 241.91 164.21 243.05 163.1 243.86 162.79 244.97 161.69 245.84 160.85 246.95 159.74 248.02 158.9 249.13 158.9 250.27 158.9 251.38 158.9 252.48 158.9 253.59 158.33 254.73 158.06 255.84 157.53 256.94 156.66 258.05 155.55 258.62 154.44 258.92 153.3 258.62 153.07 257.51 153.6 256.41 154.74 255.27 155.85 254.46 156.96 253.35 157.23 252.21 157.23 251.11 156.12 251.38 155.28 252.48 154.44 253.59 154.17 253.89 153.07 252.78 152.19 251.68 151.39 250.57 150.52 249.43 149.41 248.62 148.3 247.75 147.19 247.22 146.05 246.38 144.95 245.54 144.38 244.43 143.57 243.29 142.46 243.59 141.36 243.05 140.49 241.91 139.38 240.81 138.27 239.97 137.7 238.83 136.59 238.83 135.45 239.4 134.34 239.7 132.97 239.97 133.81 238.83 134.65 237.72 135.45 236.61 136.32 235.51 137.13 234.4 138.27 233.26 139.11 232.15 140.22 231.04 141.06 229.94 141.59 228.8 142.73 227.69 143.84 227.12 144.95 226.88 146.05 226.31 146.63 225.21 147.73 224.64 148.84 223.8 149.98 223.23 151.09 223.23 152.19 222.42 153.07 221.28 153.07 220.17 153.3 219.07 153.3 217.96 153.3 216.82 152.76 215.71 152.76 214.6 151.93 213.5 150.82 213.19 149.71 213.73 148.6 214.37 149.14 213.26 149.14 212.16 149.14 211.05 149.14 209.91 149.14 208.8 149.14 207.39 149.71 206.28 149.98 205.14 149.71 204.04 148.6 203.77 147.19 203.77 146.05 203.5 144.95 202.66 144.68 201.55 144.38 200.45 144.68 199.34 144.14 198.2 143.84 197.09 144.14 195.98 143.57 194.88 142.46 194.31 141.36 193.74 140.22 193.2 139.11 193.2 138 193.43 136.9 193.43 135.75 193.43 134.65 194 133.54 193.74 132.13 193.2 132.43 192.06 132.67 190.95 132.67 189.84 132.13 188.74 132.67 187.6 132.67 186.49 132.13 185.38 132.13 184.28 132.13 183.13 131.56 182.3 132.97 180.62 131.29 179.24 131.56 178.14 132.13 177.03 132.43 175.89 132.67 174.78 133.24 173.67 133.54 172.57 134.08 171.43 134.65 170.32 133.81 169.21 132.97 168.1 131.86 167.23 130.75 166.13 129.62 165.55 129.35 164.45 128.78 163.34 129.08 162.23 129.62 161.09 130.19 159.99 129.88 159.72 119.85 159.18 118.17 153.31 119.28 153.31 119.85 152.17 119.85 151.06 119.05 149.95 119.58 148.85 119.58 147.71 118.75 146.6 117.6 146.03 116.5 145.79 115.39 145.22 114.28 144.65 113.14 144.65 112.03 144.92 110.93 144.92 109.82 144.12 108.68 143.01 107.57 143.01 106.47 142.71 105.36 142.14 104.22 141.33 103.41 140.19 102.31 140.19 101.2 139.65 100.06 139.35 98.95 139.35 97.84 139.35 96.7 138.78 95.86 137.68 94.76 136.87 93.65 136.3 92.51 135.19 91.4 134.32 91.13 133.21 91.4 132.1 91.4 131 91.13 129.86 90.6 128.75 90.03 127.64 90.6 126.54 91.13 125.39 91.13 124.29 90.6 123.18 89.46 123.48 88.35 123.48 87.24 123.75 86.13 123.75 84.99 124.02 83.89 124.86 83.05 125.97 81.91 126.84 80.8 127.07 79.69 127.64 78.85 128.75 77.75 129.32 76.64 129.62 75.77 130.73 74.96 131.84 73.86 131.84 72.75 131.3 71.61 131 70.5 131.3 69.39 131.53 68.49 131.77 67.08 131.5 65.97 132.07 64.86 132.61 63.72 132.61 62.62 132.34 62.05 131.2 62.35 130.09 62.35 125.93 62.05 124.83 62.05 123.68 60.97 123.42 59.87 124.25 58.76 124.83 57.65 125.63 56.78 126.74 55.67 127.04 54.56 127.31 53.42 127.31 52.62 126.2 51.51 125.06 50.34 124.25 49.23 123.95 48.12 124.25 47.02 124.25 47.28 123.15 47.02 121.74 46.45 120.6 45.34 119.49 44.5 118.38 44.2 117.28 43.96 116.17 42.82 115.33 42.28 114.22 42.82 113.12 43.09 111.97 43.39 110.87 43.66 109.76 44.2 108.65 45.64 108.08 46.75 106.98 46.45 105.87 46.18 104.73 46.18 103.62 46.75 102.51 47.55 101.41 48.12 100.27 48.66 99.16 49.53 98.05 50.34 96.94 51.51 96.38 52.62 95.8 53.73 95.5 55.1 95.5 56.21 95.5 57.35 94.39 58.46 93.86 59.87 93.29 60.97 93.29 62.05 93.86 63.19 93.29 64.29 93.29 64.59 92.72 65.97 84.93 66.51 77.96 66.51 77.42 66.81 76.31 66.81 75.17 65.97 74.06 65.13 72.96 64.29 71.85 63.19 71.58 63.19 70.47 63.19 69.33 63.19 68.23 63.19 67.12 63.49 66.01 64.59 66.01 65.7 65.14 66.81 66.01 67.95 65.44 67.65 64.33 66.51 63.16 65.4 62.62 64.29 62.93 64.03 59.27 65.13 59.27 66.51 59.27 67.65 59.27 68.76 59.27 69.86 59.27 70.97 59.27 72.41 59.57 73.52 58.7 73.52 57.59 74.89 57.89 76 57.32 77.11 57.05 78.25 57.05 78.79 57.59 79.36 58.7 79.93 59.84 81.03 60.95 81.87 62.05 83.01 62.62 83.25 63.73 84.39 64.03 85.5 64.57 86.6 65.14 87.71 65.14 88.85 64.33 89.39 63.16 90.5 64.03 91.37 62.62 91.94 61.48 93.05 60.68 94.15 59.84 95.26 59.27 95.83 58.16 96.94 57.05 98.04 56.79 99.19 56.48 100.29 55.91 99.99 54.81 98.88 54.54 97.78 54.54 96.64 54.54 95.53 54 95.53 52.86 95.83 51.75 95.26 50.65 95.26 49.54 94.96 48.13 94.15 46.99 93.05 46.45 91.94 45.61 91.94 44.51 93.05 44.51 94.15 44.77 95.26 44.51 96.4 45.08 97.51 45.31 98.61 45.88 99.72 46.18 100.86 46.76 101.97 46.99 103.08 46.18 103.88 45.08 105.02 45.08 106.13 45.08 107.24 44.51 108.34 44.51 109.48 44.2 110.59 43.67 111.7 42.83 112.81 42.83 114.25 41.99 115.63 41.42 116.46 40.31 115.96 39.14 117.03 38.64 118.14 38.06 119.25 38.06 120.36 38.64 120.36 40.62 119.25 41.42 119.25 42.53 120.09 43.67 120.92 44.77 121.19 45.88 120.92 46.99 120.62 48.13 120.36 49.24 120.36 50.34 120.36 51.45 120.36 52.59 120.36 53.7 120.92 54.81 121.19 55.91 121.5 57.05 122.03 58.16 123.17 58.7 124.28 59 125.66 59.84 126.8 60.11 127.9 60.11 129.04 59.57 130.15 59 131.26 58.5 133.21 58.5 134.31 58.5 135.42 57.32 136.56 56.79 137.67 56.79 139.08 56.48 139.34 56.79 140.45 56.79 141.56 57.59 142.97 57.32 144.11 56.48 144.11 55.38 142.97 54.54 143.24 53.43 144.34 53.7 145.48 54 146.59 53.7 147.7 53.13 148.81 53.13 149.38 54.24 150.48 54.24 151.09 55.14 152.19 55.41 153.6 55.95 154.74 55.41 155.85 54.57 156.96 54.84 158.06 54.57 159.21 55.14 160.31 55.41 161.42 54.57 164.21 50.95 164.78 49.84 165.58 48.7 166.45 47.33 167.26 46.22 168.13 45.11 167.83 44 168.67 44.2"/><polyline id="polyline12" class="cls-1" points="51.21 5.19 52.32 4.62 53.42 4.05 54.56 4.05 55.67 3.24 56.21 2.13 55.97 0.99 54.83 0.15 53.73 0.46 52.62 0.99 51.21 2.13 50.34 3.24 49.53 4.35 48.42 4.62 47.28 5.19 46.18 5.72 45.1 6.9 43.96 7.43 42.82 7.43 41.71 7.43 40.3 7.43 39.2 7.7 38.36 8.81 37.52 9.92 36.41 11.06 35.58 9.92 34.47 9.65 33.36 10.19 32.49 11.29 31.95 12.43 31.38 13.54 30.81 14.65 30.58 15.76 30.58 16.89 30.58 18 29.43 18 28.33 18.3 27.79 19.41 27.22 20.52 26.35 21.66 25.24 22.2 24.13 23.04 23.87 24.14 24.44 25.25 24.44 26.39 24.44 27.53 23.33 27.53 23.33 26.39 22.46 25.25 21.65 24.14 20.51 24.14 20.78 25.25 20.78 26.39 20.51 27.53 19.97 28.64 19.4 29.75 18.3 29.44 18 30.55 18 31.69 18.87 32.8 19.1 33.91 20.24 34.17 20.51 35.28 20.24 36.69 20.51 37.83 21.08 38.94 20.51 40.05 19.97 41.15 20.51 42.29 20.51 43.4 20.51 44.51 20.51 45.61 20.51 46.76 20.24 47.86 20.24 48.97 20.78 50.08 21.89 50.08 21.89 51.22 20.78 52.02 19.97 53.13 19.1 54.24 18.87 55.38 18.57 56.48 18.3 57.59 17.19 57.89 16.05 57.89 14.94 58.5 13.84 58.16 13.57 59.27 13.57 60.38 14.14 61.48 14.4 62.62 13.26 63.16 12.16 63.16 11.86 64.33 12.73 66.25 11.86 64.57 13.84 66.55 14.94 67.66 16.05 67.92 17.19 68.23 18.3 68.5 19.4 68.23 20.51 69.03 21.65 70.17 22.76 70.71 23.87 70.71 24.97 71.28 26.11 70.71 26.35 69.6 27.49 70.17 28.6 70.71 29.7 71.01 30.81 71.85 31.95 72.12 33.63 72.12 34.74 72.39 35.84 72.96 36.95 73.8 38.09 74.37 38.63 75.44 39.5 76.55 40.61 76.85 41.71 77.42 42.82 77.69 43.39 78.8 44.5 79.63 45.64 80.2 45.34 81.31 45.88 82.42 45.34 83.56 46.45 83.79 47.02 84.93 48.42 84.1 49.53 84.36 50.64 83.79 51.75 83.26 52.89 82.69 53.99 82.42 55.1 82.69 56.21 83.79 57.35 83.26 58.19 82.15 59.29 82.15 60.44 82.42 61.51 82.42 62.62 82.99 62.92 84.1 64.29 84.36 59.03 91.04 61.24 89.93 62.35 89.4 62.92 89.93 62.92 91.04 64.59 92.72 65.97 84.93 66.51 77.96 66.51 77.42 66.81 76.31 66.81 75.17 65.97 74.06 65.13 72.96 64.29 71.85 63.19 71.58 63.19 70.47 63.19 69.33 63.19 68.23 63.19 67.12 63.49 66.01 64.59 66.01 65.7 65.14 66.81 66.01 67.95 65.44 67.65 64.33 66.51 63.16 65.4 62.62 64.29 62.93 64.03 59.27 65.13 59.27 66.51 59.27 67.65 59.27 68.76 59.27 69.86 59.27 70.97 59.27 72.41 59.57 73.52 58.7 73.52 57.59 74.89 57.89 76 57.32 77.11 57.05 78.25 57.05 78.25 55.91 77.68 54.81 76.88 53.7 76 52.59 76.88 51.45 77.68 50.34 77.98 49.24 77.68 48.13 76.88 46.99 76.3 45.88 75.73 44.77 75.43 43.67 75.43 42.53 75.43 41.42 75.43 40.31 75.43 39.21 76 38.06 77.11 36.96 76.88 35.85 77.11 34.74 76.88 33.6 75.73 33.37 74.63 33.91 73.52 34.17 71.84 34.17 70.73 33.91 69.59 33.6 68.49 33.91 67.38 34.48 66.27 34.48 65.4 33.37 64.29 32.5 63.19 31.39 62.05 30.85 60.97 30.55 59.87 30.01 58.76 29.75 57.65 29.44 56.21 29.44 55.1 29.44 53.99 29.18 52.89 29.44 51.75 30.01 50.64 30.01 50.1 28.91 48.96 28.07 48.66 26.96 48.96 25.85 48.96 24.68 48.66 23.57 48.12 22.46 47.28 21.36 47.02 20.22 46.45 19.11 46.45 18 45.34 18 44.5 19.11 43.39 19.11 44.2 17.73 45.1 16.63 45.34 15.52 45.1 14.11 45.34 12.97 45.88 11.86 46.45 10.76 47.02 9.65 48.12 8.54 48.66 7.43 49.8 6.9 50.94 6.29 51.21 5.19"/><polyline id="polyline14" class="cls-1" points="78.22 56.99 78.22 55.88 77.65 54.77 76.84 53.67 75.97 52.52 76.84 51.42 77.65 50.31 77.95 49.2 77.65 48.06 76.84 46.96 76.27 45.85 75.7 44.74 75.4 43.6 75.4 42.49 75.4 41.39 75.4 40.28 75.4 39.14 75.97 38.03 77.08 36.92 76.84 35.82 77.08 34.68 76.84 33.57 75.7 33.3 74.59 33.87 73.49 34.14 71.81 34.14 70.7 33.87 69.56 33.57 68.45 33.87 67.35 34.44 66.24 34.44 65.37 33.3 64.26 32.46 63.15 31.36 62.01 30.82 60.94 30.52 59.83 29.98 58.72 29.71 57.58 29.41 56.17 29.41 55.07 29.41 53.96 29.14 52.85 29.41 51.71 29.98 50.6 29.98 50.03 28.87 48.93 28.03 48.63 26.93 48.93 25.82 48.93 24.64 48.63 23.54 48.09 22.43 47.25 21.32 46.95 20.18 46.41 19.08 46.41 17.97 45.3 17.97 44.47 19.08 43.36 19.08 44.16 17.7 45.1 16.59 45.3 15.49 45.1 14.04 45.3 12.94 45.84 11.83 46.41 10.72 46.95 9.58 48.09 8.51 48.63 7.4 49.77 6.83 50.91 6.26 51.17 5.12 52.28 4.58 53.39 4.01 54.5 4.01 54.3 4.62 53.19 5.19 52.32 6.29 51.51 7.43 52.32 8.54 52.89 9.65 53.42 10.76 53.42 11.86 52.32 12.97 51.51 14.11 50.94 15.22 51.75 16.32 52.32 17.43 52.89 18.57 53.99 19.11 55.1 18.57 56.21 18 56.78 16.89 56.78 15.76 56.51 14.65 55.97 13.54 54.83 12.97 54.83 11.86 54.56 10.76 54.56 9.65 54.83 8.54 55.97 8.27 57.08 7.13 58.19 6.9 59.29 6.6 60.44 6.29 61.51 6.29 62.35 5.19 63.19 4.05 62.05 3.51 60.97 2.37 62.05 1.26 63.19 1.56 63.49 2.67 64.29 3.81 64.86 4.92 65.97 5.46 67.08 5.19 68.19 5.19 69.33 5.72 70.43 6.29 71.54 7.13 72.41 8.27 73.52 9.38 74.63 9.65 75.73 9.92 76.88 9.92 77.98 9.92 79.09 9.92 80.2 9.92 81.34 9.38 82.44 9.65 83.55 9.65 84.66 9.65 85.8 10.49 86.91 10.76 88.01 11.06 89.12 11.29 90.26 11.29 91.37 11.6 92.47 11.6 93.58 11.29 94.72 11.29 95.83 10.19 96.94 10.19 98.04 10.19 96.94 9.38 95.83 9.11 96.94 8.54 98.04 8.54 99.19 8.54 100.29 8.81 101.4 8.54 102.51 8.27 104.75 8.01 105.86 8.01 106.97 8.01 108.11 8.54 109.22 8.27 108.34 9.38 107.24 9.92 106.13 9.38 105.02 9.11 103.88 9.11 104.45 10.19 105.33 11.29 106.43 12.16 107.54 12.16 108.65 12.73 109.79 12.97 110.89 13.27 112 12.97 113.11 13.54 114.25 14.11 115.36 14.38 115.96 15.52 116.16 16.63 116.16 17.73 115.05 18.57 114.79 19.68 115.96 19.68 117.03 19.41 118.14 19.41 119.25 19.11 120.36 19.41 120.92 20.52 120.92 21.66 119.82 22.77 118.71 23.3 117.57 23.57 116.46 24.68 116.46 25.85 116.46 26.96 117.57 27.77 118.14 28.91 117.03 29.75 115.96 29.75 114.79 29.75 113.68 29.75 112.81 30.85 112.81 31.93 112.57 33.07 112.27 34.17 112.27 35.28 113.38 36.15 114.48 36.96 115.36 38.06 115.96 39.21 116.46 40.31 115.63 41.42 114.25 41.99 112.81 42.83 111.7 42.83 110.59 43.67 109.48 44.2 108.34 44.51 107.24 44.51 106.13 45.08 105.02 45.08 103.88 45.08 103.08 46.18 101.97 46.99 100.86 46.76 99.72 46.18 98.61 45.88 97.51 45.31 96.4 45.08 95.26 44.51 94.15 44.77 93.05 44.51 91.94 44.51 91.94 45.61 93.05 46.45 94.15 46.99 94.96 48.13 95.26 49.54 95.26 50.65 95.83 51.75 95.53 52.86 95.53 54 96.64 54.54 97.78 54.54 98.88 54.54 99.99 54.81 100.29 55.91 99.19 56.48 98.04 56.79 96.94 57.05 95.83 58.16 95.26 59.27 94.15 59.84 93.05 60.68 91.94 61.48 91.37 62.62 90.5 64.03 89.39 63.16 88.85 64.33 87.71 65.14 86.6 65.14 85.5 64.57 84.39 64.03 83.25 63.73 83.01 62.62 81.87 62.05 81.03 60.95 79.93 59.84 79.36 58.7 78.79 57.59 78.22 56.99"/><polyline id="polyline16" class="cls-1" points="11.86 64.57 12.73 66.25 11.59 66.82 10.48 66.82 9.07 67.12 7.96 67.66 6.86 68.8 6.59 69.9 6.02 71.01 6.59 72.12 6.29 73.26 5.48 74.37 4.61 75.44 4.34 76.55 4.34 77.69 3.5 78.8 2.39 79.9 2.13 81.01 2.66 82.15 2.39 83.26 2.39 84.36 2.66 85.47 2.13 86.61 2.13 87.72 3.23 88.26 4.34 88.83 5.72 88.26 7.13 88.02 8.27 87.72 9.37 87.45 9.64 88.56 9.07 89.67 8.5 90.81 7.39 91.34 6.29 92.18 5.48 93.29 4.34 94.39 3.8 95.5 2.66 96.38 1.55 97.48 0.72 98.59 0.45 99.73 0.15 100.84 0.45 101.94 1.55 102.51 2.93 102.51 4.04 102.21 4.61 101.11 5.72 99.97 6.86 99.43 7.96 99.16 9.07 99.97 10.18 99.97 11.05 101.11 12.16 101.41 13.26 101.64 13.84 100.53 14.67 99.43 15.24 98.32 15.81 97.18 16.05 95.8 16.35 94.7 16.92 93.59 17.19 92.48 18.3 93.29 18.87 92.18 18.87 91.04 19.67 89.93 20.78 89.4 22.19 88.83 23.56 88.26 24.7 87.72 26.11 87.15 27.49 86.34 28.6 85.47 29.7 84.36 30.58 83.26 31.38 82.15 31.68 81.01 32.25 79.9 32.49 78.8 32.79 77.69 32.79 76.55 33.9 76.31 33.06 74.64 31.95 73.8 33.06 73.26 33.56 72.08 31.95 72.12 30.81 71.85 29.7 71.01 28.6 70.71 27.49 70.17 26.35 69.6 26.11 70.71 24.97 71.28 23.87 70.71 22.76 70.71 21.65 70.17 20.51 69.03 19.4 68.23 18.3 68.5 17.19 68.23 16.05 67.92 14.94 67.66 13.84 66.55 11.86 64.57"/><polyline id="polyline18" class="cls-1" points="64.56 92.68 62.88 91.01 62.88 89.9 62.31 89.36 61.21 89.9 58.96 91.01 64.26 84.33 62.88 84.06 62.58 82.95 61.48 82.39 60.4 82.39 59.26 82.08 58.15 82.08 57.31 83.22 56.17 83.76 55.07 82.65 53.96 82.39 52.85 82.65 51.71 83.22 50.6 83.76 49.5 84.33 48.39 84.06 46.95 84.9 46.41 83.76 45.3 83.53 45.84 82.39 45.3 81.28 45.57 80.17 44.47 79.6 43.36 78.76 42.79 77.62 41.68 77.39 40.57 76.81 39.47 76.51 38.59 75.41 38.02 74.33 36.92 73.76 35.81 72.92 34.7 72.35 33.56 72.08 33.02 73.22 31.92 73.76 33.02 74.6 33.86 76.25 32.76 76.51 32.76 77.62 32.45 78.76 32.19 79.87 31.65 80.97 31.35 82.08 30.54 83.22 29.67 84.33 28.56 85.44 27.46 86.31 26.08 87.11 24.64 87.69 23.53 88.22 22.16 88.79 20.75 89.36 19.64 89.9 18.8 91.01 18.8 92.15 18.26 93.25 17.16 92.42 16.89 93.56 16.32 94.66 16.02 95.77 15.78 97.15 15.21 98.25 14.64 99.39 13.8 100.5 13.23 101.61 12.12 101.34 11.02 101.07 10.14 99.93 9.04 99.93 7.93 99.13 6.79 99.39 5.68 99.93 4.58 101.07 4 102.18 2.9 102.48 1.52 102.48 1.25 102.78 1.25 103.89 1.82 105 2.93 105 3.5 106.1 2.66 107.51 1.55 108.08 1.82 109.19 2.93 109.76 4.04 110.03 5.72 110.33 6.86 110.87 7.96 111.44 9.07 112.55 9.94 113.65 10.48 114.79 11.05 115.9 11.32 117.01 12.46 117.81 13.57 118.69 15.51 120.06 15.81 121.17 16.05 122.28 16.35 123.42 16.92 124.52 17.49 125.63 18.3 126.74 18.87 127.88 19.67 128.99 20.24 130.39 20.51 131.5 21.35 132.61 21.89 133.75 22.19 134.86 23.03 135.96 24.13 136.8 25.24 137.91 25.81 139.02 26.11 140.16 26.92 141.3 27.79 142.41 28.9 143.51 29.43 144.62 30.01 146 30.81 147.14 31.95 147.14 32.49 148.24 31.95 149.35 31.38 150.46 31.38 151.6 32.25 152.71 32.49 153.81 33.63 154.68 34.74 155.22 35.84 155.79 36.95 156.9 38.09 157.47 38.93 158.58 39.73 159.68 40.88 160.25 41.98 160.52 43.09 160.79 44.2 161.36 45.34 161.9 46.45 162.43 47.55 163 48.66 163.54 49.8 163.54 50.94 164.41 52.05 164.98 53.19 165.22 54.3 165.22 55.4 165.79 56.51 166.36 57.65 166.9 58.76 167.77 59.87 168.88 60.44 169.98 61.51 170.82 62.62 171.36 63.49 172.47 64.59 173.34 65.7 173.91 66.81 173.61 67.95 173.34 69.06 172.77 69.59 171.66 69.33 170.55 70.17 169.45 69.86 168.31 69.06 167.2 68.76 166.09 69.33 164.98 70.43 164.41 71.54 163.84 72.65 163.31 72.41 162.17 72.11 161.06 70.97 161.36 69.86 160.52 68.76 160.25 67.65 159.68 66.51 159.15 67.65 158.84 68.76 158.58 67.95 157.47 68.19 156.06 69.33 156.6 69.86 157.47 70.43 156.33 70.97 155.49 70.73 154.38 71.27 151.03 72.65 149.65 72.11 146.3 72.11 144.35 73.52 139.59 68.49 131.77 67.08 131.5 65.97 132.07 64.86 132.61 63.72 132.61 62.62 132.34 62.05 131.2 62.35 130.09 62.35 125.93 62.05 124.83 62.05 123.68 60.97 123.42 59.87 124.25 58.76 124.83 57.65 125.63 56.78 126.74 55.67 127.04 54.56 127.31 53.42 127.31 52.62 126.2 51.51 125.06 50.34 124.25 49.23 123.95 48.12 124.25 47.02 124.25 47.28 123.15 47.02 121.74 46.45 120.6 45.34 119.49 44.5 118.38 44.2 117.28 43.96 116.17 42.82 115.33 42.28 114.22 42.82 113.12 43.09 111.97 43.39 110.87 43.66 109.76 44.2 108.65 45.64 108.08 46.75 106.98 46.45 105.87 46.18 104.73 46.18 103.62 46.75 102.51 47.55 101.41 48.12 100.27 48.66 99.16 49.53 98.05 50.34 96.94 51.51 96.38 52.62 95.8 53.73 95.5 55.1 95.5 56.21 95.5 57.35 94.39 58.46 93.86 59.87 93.29 60.97 93.29 62.05 93.86 63.19 93.29 64.29 93.29 64.56 92.68"/><polyline id="polyline20" class="cls-1" points="121.19 19.98 122.3 20.79 123.41 20.79 124.55 20.79 125.66 21.66 125.66 22.77 126.19 23.87 127.37 24.98 128.47 26.12 128.74 27.23 128.74 28.34 128.47 29.44 128.17 30.55 128.17 31.69 129.04 30.55 129.58 29.44 130.72 29.44 131.83 30.01 132.94 30.55 133.74 31.69 134.61 32.8 135.72 33.37 135.99 34.48 136.29 35.58 135.99 36.69 135.99 37.83 135.72 38.94 134.61 39.74 132.94 40.05 132.63 41.15 132.37 42.29 131.83 43.4 131.83 44.51 132.1 45.61 132.37 46.76 133.21 47.86 133.74 48.97 134.88 49.77 135.99 50.91 136.29 52.02 136.83 53.13 137.67 54.24 138.2 55.38 139.08 56.48 137.67 56.79 136.56 56.79 135.42 57.32 134.31 58.5 133.21 58.5 131.26 58.5 130.15 59 129.04 59.57 127.9 60.11 126.8 60.11 125.66 59.84 124.28 59 123.17 58.7 122.03 58.16 121.5 57.05 121.19 55.91 120.92 54.81 120.36 53.7 120.36 52.59 120.36 51.45 120.36 50.34 120.36 49.24 120.62 48.13 120.92 46.99 121.19 45.88 120.92 44.77 120.09 43.67 119.25 42.53 119.25 41.42 120.36 40.62 120.36 38.64 119.25 38.06 118.14 38.06 117.03 38.64 115.96 39.14 115.32 38.03 114.45 36.92 113.34 36.12 112.24 35.25 112.24 34.14 112.54 33.03 112.77 31.89 112.77 30.82 113.64 29.71 114.75 29.71 115.96 29.71 117 29.71 118.11 28.87 117.54 27.73 116.43 26.93 116.43 25.82 116.43 24.64 117.54 23.54 118.64 23.27 119.78 22.73 120.89 21.59 120.89 20.48 121.19 19.98"/><polyline id="polyline22" class="cls-1" points="136.26 35.55 135.96 36.66 135.96 37.76 135.69 38.9 134.58 39.71 132.9 40.01 132.6 41.12 132.33 42.23 131.8 43.37 131.8 44.47 132.03 45.58 132.33 46.69 133.17 47.83 133.71 48.94 134.85 49.74 135.96 50.88 136.26 51.99 136.79 53.1 137.63 54.2 138.17 55.34 139.04 56.45 139.34 56.79 140.45 56.79 141.56 57.59 142.97 57.32 144.11 56.48 144.11 55.38 142.97 54.54 143.24 53.43 144.34 53.7 145.48 54 146.59 53.7 147.7 53.13 148.81 53.13 149.38 54.24 150.48 54.24 151.59 53.43 151.89 52.32 152.46 51.22 153.03 50.08 153.27 48.97 153.84 47.86 153.84 46.76 152.73 45.61 152.16 44.51 152.16 43.4 151.89 42.29 151.35 41.15 151.35 40.05 151.59 38.94 152.73 38.37 153.57 37.26 154.14 36.15 154.68 35.01 153.57 34.74 152.46 34.74 151.35 34.48 150.21 34.17 149.11 33.91 148 33.37 146.89 33.91 145.75 34.17 144.65 34.17 143.54 34.48 142.43 34.48 141.29 33.91 140.18 33.91 139.08 34.17 137.97 33.91 136.83 34.17 136.56 35.28 136.26 35.55"/><polyline id="polyline24" class="cls-1" points="151.09 55.14 152.19 55.41 153.6 55.95 154.74 55.41 155.85 54.57 156.96 54.84 158.06 54.57 159.21 55.14 160.31 55.41 161.42 54.57 164.21 50.95 164.78 49.84 165.58 48.7 166.45 47.33 167.26 46.22 168.13 45.11 167.83 44 167.56 42.86 166.45 42.86 166.15 44 165.88 42.86 165.04 41.76 163.9 40.92 162.79 40.08 161.99 38.97 160.85 37.86 159.74 36.99 158.63 36.99 157.53 36.45 156.96 35.31 155.28 35.88 154.14 36.15 153.57 37.26 152.73 38.37 151.59 38.94 151.35 40.05 151.35 41.15 151.89 42.29 152.16 43.4 152.16 44.51 152.73 45.61 153.84 46.76 153.84 47.86 153.27 48.97 153.03 50.08 152.46 51.22 151.89 52.32 151.59 53.43 150.48 54.24 151.09 55.14"/><polyline id="polyline26" class="cls-1" points="70.77 170.59 72.45 172.57 72.75 173.94 72.98 175.05 73.55 176.16 74.66 177.26 75.77 178.14 76.91 178.94 76.34 180.05 75.77 181.49 76.07 182.6 75.53 183.71 75.77 184.81 76.07 185.95 76.34 187.06 77.21 188.17 78.02 189.27 78.32 190.41 78.32 191.52 78.59 192.63 79.12 193.74 79.69 194.88 80 195.98 80.23 197.09 79.12 197.9 80 199.04 81.1 199.34 82.21 199.88 83.32 199.57 84.16 198.2 84.46 197.09 85.56 196.79 86.67 195.98 86.94 194.88 88.05 194.57 88.62 193.43 89.72 193.43 90.83 194 91.97 194.57 93.08 194.88 94.19 194.57 95.29 194.31 96.43 194.31 97.54 195.11 97.54 196.25 98.11 197.36 99.22 197.66 99.22 196.52 99.52 195.41 100.06 194.31 100.63 193.2 101.73 193.2 103.11 193.2 104.52 193.2 105.66 193.2 106.77 194 107.04 193.43 108.44 187.6 108.44 183.71 111.23 178.67 115.69 178.14 119.85 177.03 125.12 177.03 130.19 179.24 131.56 182.3 132.97 180.62 131.29 179.24 131.56 178.14 132.13 177.03 132.43 175.89 132.67 174.78 133.24 173.67 133.54 172.57 134.08 171.43 134.65 170.32 133.81 169.21 132.97 168.1 131.86 167.23 130.75 166.13 129.62 165.55 129.35 164.45 128.78 163.34 129.08 162.23 129.62 161.09 130.19 159.99 129.88 159.72 119.85 159.18 118.17 153.31 119.28 153.31 119.85 152.17 119.85 151.06 119.05 149.95 119.58 148.85 119.58 147.71 118.75 146.6 117.6 146.03 116.5 145.79 115.39 145.22 114.28 144.65 113.14 144.65 112.03 144.92 110.93 144.92 109.82 144.12 108.68 143.01 107.57 143.01 106.47 142.71 105.36 142.14 104.22 141.33 103.41 140.19 102.31 140.19 101.2 139.65 100.06 139.35 98.95 139.35 97.84 139.35 96.7 138.78 95.86 137.68 94.76 136.87 93.65 136.3 92.51 135.19 91.4 134.32 91.13 133.21 91.4 132.1 91.4 131 91.13 129.86 90.6 128.75 90.03 127.64 90.6 126.54 91.13 125.39 91.13 124.29 90.6 123.18 89.46 123.48 88.35 123.48 87.24 123.75 86.13 123.75 84.99 124.02 83.89 124.86 83.05 125.97 81.91 126.84 80.8 127.07 79.69 127.64 78.85 128.75 77.75 129.32 76.64 129.62 75.77 130.73 74.96 131.84 73.86 131.84 72.75 131.3 71.61 131 70.5 131.3 69.39 131.53 68.49 131.77 73.52 139.59 72.11 144.35 72.11 146.3 72.65 149.65 71.27 151.03 70.73 154.38 70.97 155.49 70.43 156.33 69.86 157.47 69.33 156.6 68.19 156.06 67.95 157.47 68.76 158.58 67.65 158.84 66.51 159.15 67.65 159.68 68.76 160.25 69.86 160.52 70.97 161.36 72.11 161.06 72.41 162.17 72.65 163.31 71.54 163.84 70.43 164.41 69.33 164.98 68.76 166.09 69.06 167.2 69.86 168.31 70.17 169.45 70.77 170.59"/><polyline id="polyline28" class="cls-1" points="131.56 182.3 130.19 179.24 125.12 177.03 119.85 177.03 115.69 178.14 111.23 178.67 108.44 183.71 108.44 187.6 107.04 193.43 106.77 194 107.57 194.57 108.68 195.41 109.55 196.52 110.12 197.66 111.23 198.47 112.34 199.57 113.44 200.72 114.58 201.25 115.69 202.12 116.8 202.12 117.91 202.66 119.05 203.77 120.12 203.77 120.96 204.91 122.07 205.14 123.21 206.01 124.31 207.12 125.42 207.69 126.53 208.23 127.67 208.8 128.78 208.8 129.88 209.07 130.99 209.37 132.13 210.18 133.24 211.05 133.24 212.16 132.43 213.26 131.86 214.37 130.75 215.51 130.45 216.62 129.88 217.99 129.08 219.1 128.78 220.21 128.51 221.35 128.51 222.46 129.62 222.19 130.75 222.19 131.86 222.46 132.97 222.99 134.08 223.29 135.22 223.29 136.32 223.56 137.43 223.56 138.54 223.56 139.68 223.86 140.79 222.99 141.89 223.29 143 223.29 144.14 222.46 144.68 221.35 145.52 220.21 146.63 219.4 147.73 218.83 148.6 217.72 148.6 216.62 148.3 215.51 148.6 214.37 149.14 213.26 149.14 212.16 149.14 211.05 149.14 209.91 149.14 208.8 149.14 207.39 149.71 206.28 149.98 205.14 149.71 204.04 148.6 203.77 147.19 203.77 146.05 203.5 144.95 202.66 144.68 201.55 144.38 200.45 144.68 199.34 144.14 198.2 143.84 197.09 144.14 195.98 143.57 194.88 142.46 194.31 141.36 193.74 140.22 193.2 139.11 193.2 138 193.43 136.9 193.43 135.75 193.43 134.65 194 133.54 193.74 132.13 193.2 132.43 192.06 132.67 190.95 132.67 189.84 132.13 188.74 132.67 187.6 132.67 186.49 132.13 185.38 132.13 184.28 132.13 183.13 131.56 182.3"/><polyline id="polyline30" class="cls-1" points="70.17 169.45 70.77 170.59 72.45 172.57 72.75 173.94 72.98 175.05 73.55 176.16 74.66 177.26 75.77 178.14 76.91 178.94 76.34 180.05 75.77 181.49 76.07 182.6 75.53 183.71 75.77 184.81 76.07 185.95 76.34 187.06 77.21 188.17 78.02 189.27 78.32 190.41 78.32 191.52 78.59 192.63 79.12 193.74 79.69 194.88 80 195.98 80.23 197.09 79.12 197.9 80 199.04 81.1 199.34 82.21 199.88 83.32 199.57 84.16 198.2 84.46 198.77 84.46 199.88 84.16 205.14 78.85 208.5 78.02 210.18 78.32 211.28 78.32 212.42 77.44 213.53 77.44 214.64 77.75 215.75 78.32 216.89 78.59 217.99 78.02 219.1 78.02 220.21 78.85 221.35 79.12 222.46 78.02 223.29 78.02 224.43 76.91 225.54 76.07 226.65 75.53 227.76 75.23 228.9 74.66 230 74.12 231.11 73.86 232.22 73.55 233.59 73.28 234.7 72.75 235.84 72.18 236.95 72.45 238.06 72.75 239.16 73.28 240.3 73.55 241.41 72.98 242.52 72.45 243.63 72.45 244.76 72.75 245.87 71.88 246.98 70.77 247.28 70.5 248.39 71.31 249.53 72.45 250.64 73.55 251.74 72.75 252.85 73.28 253.99 73.86 255.1 74.39 256.21 74.12 257.31 74.39 257.88 74.96 258.99 75.77 260.1 76.07 261.24 76.07 262.35 76.34 263.45 76.34 264.56 76.07 265.13 74.96 265.7 74.96 266.81 74.39 267.92 74.12 269.02 72.98 269.59 72.75 270.7 72.98 271.81 73.55 272.95 74.12 274.05 73.55 275.16 73.28 276.27 72.45 277.41 71.61 278.52 71.61 279.62 71.88 280.73 72.18 281.87 71.61 282.98 71.61 284.09 72.18 285.19 72.75 286.33 73.28 287.44 73.55 288.55 73.86 289.65 72.75 290.8 71.61 291.6 71.61 292.71 71.61 293.81 71.31 294.96 71.07 296.06 70.77 297.17 70.77 298.28 70.77 299.42 70.77 300.52 70.77 301.63 70.77 302.74 70.77 303.88 71.07 304.99 71.61 306.09 72.18 307.2 72.75 308.34 72.75 309.45 72.45 310.56 71.61 311.43 71.61 312.54 71.88 313.64 72.98 314.48 73.55 315.59 73.55 316.7 73.55 317.8 73.86 318.94 74.12 320.05 74.12 321.16 75.23 321.73 76.34 321.16 77.44 321.73 78.02 322.84 76.91 323.67 75.53 323.94 74.39 323.94 73.28 324.25 74.39 325.05 75.53 325.62 76.64 326.19 76.91 327.3 75.77 328.4 75.53 329.51 75.53 330.65 75.23 332.06 75.77 332.26 75.77 333.4 76.64 334.51 76.34 335.62 75.77 336.73 75.53 337.87 75.53 338.97 74.96 340.08 74.66 341.19 74.66 342.33 74.66 343.44 75.53 344.54 75.53 345.65 74.96 346.79 74.12 347.9 73.55 349 73.28 350.11 72.98 351.25 72.98 352.36 72.98 353.47 72.75 354.57 73.55 355.68 74.39 356.82 75.53 357.06 76.64 356.52 77.75 355.68 78.32 356.82 78.32 357.93 78.02 359.04 78.32 360.14 78.85 361.28 79.12 362.39 79.42 363.5 80.53 364.07 81.67 364.07 82.78 363.77 83.89 363.5 84.99 363.5 86.13 363.5 87.24 363.5 88.62 363.5 89.15 364.61 88.35 365.75 87.24 365.75 86.13 365.98 84.99 366.85 84.46 367.96 84.69 369.07 84.69 370.21 84.69 371.31 84.69 372.42 84.46 373.53 83.32 373.53 82.21 372.99 81.1 372.42 80.23 371.31 81.37 370.44 82.48 370.75 83.58 369.07 83.89 367.96 83.58 366.85 82.48 367.12 82.21 368.23 81.67 369.34 80.23 369.34 79.42 370.44 79.42 371.88 78.32 371.31 78.02 370.21 78.59 369.07 78.59 367.96 79.12 366.85 78.02 366.28 77.75 367.42 78.02 368.53 77.21 369.64 76.07 369.64 76.34 368.53 76.34 367.42 75.23 367.42 74.96 366.28 76.07 365.44 75.77 364.34 74.39 363.77 73.86 362.66 73.86 361.52 72.98 360.41 72.45 359.04 72.75 357.93 71.61 356.82 71.31 355.68 70.2 354.84 69.93 353.74 70.2 352.63 70.2 351.49 69.93 350.38 69.66 349.27 69.39 348.17 68.82 346.79 68.82 345.65 67.72 344.81 67.98 343.7 68.29 342.56 67.14 341.19 67.14 340.08 66.84 338.97 67.98 338.4 67.98 337.3 67.41 336.19 66.31 335.89 65.74 336.99 64.63 336.73 63.52 335.62 62.95 336.73 63.25 337.87 62.15 338.1 61.58 336.99 61.58 335.89 62.38 334.78 62.95 333.64 62.95 332.53 62.95 331.42 64.06 331.16 65.2 331.16 66.31 331.73 66.31 332.83 66.04 333.94 67.14 333.94 68.29 334.51 68.52 333.4 68.52 332.26 67.98 331.16 68.82 330.05 68.29 328.94 68.52 327.8 68.82 326.69 69.66 325.59 70.77 325.02 71.07 323.91 71.07 322.8 69.93 321.93 68.82 321.69 68.52 320.55 68.52 319.45 68.52 318.04 67.98 316.93 68.29 315.79 68.82 314.68 68.52 313.58 69.09 312.47 68.82 311.33 67.98 310.22 69.09 310.79 69.66 309.68 68.52 309.11 68.52 308.01 68.82 306.87 67.72 306.06 66.61 306.63 66.31 307.74 65.2 308.01 63.82 308.01 63.25 306.87 62.15 306.06 62.15 304.95 62.15 303.85 62.38 302.71 62.38 301.6 62.15 300.49 62.15 299.38 62.15 297.94 62.38 296.83 62.95 295.73 62.95 294.62 63.25 293.51 62.95 292.37 62.38 291.26 61.84 290.16 61.58 289.05 61.58 287.91 61.58 286.8 61.58 285.7 61.27 284.59 60.74 283.45 61.01 281.77 62.15 280.66 62.68 279.56 63.25 278.45 63.52 277.31 63.52 276.2 63.25 275.09 63.25 273.99 64.06 272.85 64.36 271.74 64.63 270.63 65.2 269.26 65.74 268.15 65.74 267.01 65.74 265.9 66.04 264.8 66.04 263.69 66.04 262.58 66.61 261.44 67.14 260.33 66.61 259.23 66.31 258.12 66.61 256.98 67.41 255.87 66.84 254.76 66.61 253.66 66.84 252.51 66.84 251.41 66.61 250.3 65.47 249.19 65.2 246.95 64.93 245.84 64.63 244.73 64.63 243.29 64.93 242.18 65.47 241.07 65.74 239.97 64.93 238.83 65.47 237.72 65.47 236.61 65.2 235.51 64.93 234.4 64.93 233.26 65.2 232.15 65.47 231.04 65.47 229.94 65.74 228.8 65.74 227.69 65.74 226.58 66.31 225.47 66.61 224.33 66.61 222.96 67.14 221.55 67.72 220.44 67.72 219.34 66.84 218.19 66.31 216.82 66.61 215.41 67.14 214.3 67.41 213.19 67.14 212.09 67.14 210.95 67.14 209.84 67.41 208.73 67.41 207.63 67.41 206.25 67.72 205.11 67.72 204 67.41 202.9 66.61 201.79 66.61 200.65 67.72 199.54 67.72 198.43 67.98 197.33 68.29 196.19 68.29 195.08 68.29 193.97 68.52 192.86 68.29 191.46 67.98 190.31 67.14 189.21 67.14 188.1 67.14 186.72 67.14 185.31 67.14 184.18 67.14 183.07 67.41 181.69 67.14 180.28 66.84 179.18 66.04 178.07 65.74 176.93 65.47 175.55 65.74 174.44 65.7 173.91 66.81 173.61 67.95 173.34 69.06 172.77 69.59 171.66 69.33 170.55 70.17 169.45"/><polyline id="polyline32" class="cls-1" points="62.95 308.85 62.95 309.95 62.95 311.09 62.95 312.2 62.95 313.31 62.38 314.42 62.38 315.56 62.38 316.66 62.68 317.77 63.82 317.47 64.93 317.47 65.47 316.36 65.47 315.25 65.47 314.15 64.36 313.31 64.63 312.2 65.47 311.09 65.2 309.95 64.93 308.85 63.82 309.11 62.95 308.85"/><polyline id="polyline34" class="cls-1" points="93.92 376.35 92.81 376.58 91.7 377.45 90.83 376.35 89.72 376.35 88.62 376.05 87.51 375.48 86.37 376.35 84.99 376.88 83.89 376.58 82.78 377.45 83.89 377.72 84.99 377.15 85.26 378.26 86.37 378.26 87.51 379.13 87.78 377.99 88.92 377.72 90.03 377.72 91.13 378.26 92.24 378.83 93.88 377.99 93.92 376.35"/><polyline id="polyline36" class="cls-1" points="78.32 372.42 77.44 373.53 77.75 374.67 78.85 374.67 80 374.9 80.8 373.8 79.69 372.69 78.32 372.42"/><polyline id="polyline38" class="cls-1" points="90.29 365.44 89.46 366.55 89.46 367.66 88.05 367.66 86.94 367.12 86.37 368.23 86.37 369.34 86.67 370.44 87.78 371.01 88.92 370.21 89.46 371.31 88.35 371.88 88.05 372.99 88.35 374.1 89.46 374.9 90.6 375.21 91.7 375.21 92.81 375.78 93.92 375.78 93.92 374.37 93.65 372.69 93.38 370.75 93.08 369.64 93.08 367.96 93.08 366.85 93.08 365.75 91.97 366.55 90.83 366.28 90.29 365.44"/><polyline id="polyline40" class="cls-1" points="76.64 371.88 75.77 370.75 74.66 370.21 73.55 370.21 72.45 369.64 71.31 368.8 71.31 369.91 72.18 371.01 73.28 371.31 74.39 371.31 75.53 371.31 76.64 371.88"/><polyline id="polyline42" class="cls-1" points="67.14 346.79 66.04 347.33 64.93 347.33 65.2 348.43 65.74 349.57 64.63 350.38 64.93 351.49 65.47 352.63 66.61 352.06 67.41 353.17 67.98 354.27 69.09 354.57 69.09 353.17 68.82 352.06 68.52 350.95 67.98 349.57 67.98 348.43 67.14 346.79"/><polyline id="polyline44" class="cls-1" points="95.06 377.99 95.59 379.13 96.7 379.94 97.84 380.24 98.95 379.37 98.65 378.26 97.54 377.99 95.06 377.99"/><polyline id="polyline46" class="cls-1" points="94.49 379.37 93.38 379.23 92.24 379.23 91.13 379.67 90.6 380.81 91.7 381.62 92.81 380.81 93.92 380.81 95.06 381.04 95.59 379.94 94.49 379.37"/><polyline id="polyline48" class="cls-1" points="149.71 213.73 150.82 213.19 151.93 213.5 152.76 214.6 152.76 215.71 153.3 216.82 153.3 217.96 153.3 219.07 153.07 220.17 153.07 221.28 152.19 222.42 151.09 223.23 149.98 223.23 148.84 223.8 147.73 224.64 146.63 225.21 146.05 226.31 144.95 226.88 143.84 227.12 142.73 227.69 141.59 228.8 141.06 229.94 140.22 231.04 139.11 232.15 138.27 233.26 137.13 234.4 136.32 235.51 135.45 236.61 134.65 237.72 133.81 238.83 132.97 239.97 132.43 241.07 132.13 242.18 131.86 243.29 131.56 244.43 131.29 245.54 131.29 246.64 130.75 247.75 130.45 248.89 130.19 250 130.19 251.11 129.88 252.21 129.88 253.35 129.88 254.46 129.62 255.57 128.78 256.68 128.51 257.82 128.21 258.92 128.21 260.03 128.51 261.14 128.78 262.28 128.78 263.38 129.08 264.49 130.19 265.06 131.29 265.6 132.43 266.17 133.54 266.74 134.65 267.28 135.45 268.38 135.22 269.52 134.34 270.63 134.34 271.74 135.45 272.85 136.59 273.72 137.13 274.83 137.13 275.93 136.9 277.07 136.32 278.18 135.75 279.29 134.65 280.39 133.81 281.54 133.24 282.64 132.67 283.75 131.86 284.86 130.75 284.86 129.62 285.13 128.21 286 127.1 286.23 125.99 286.54 124.88 287.11 123.74 287.68 122.64 287.68 121.23 288.21 120.12 288.48 119.05 288.78 117.91 288.78 116.8 289.59 115.69 288.78 114.58 289.32 113.44 288.48 112.03 287.68 111.5 288.78 111.77 289.89 112.91 290.69 113.14 291.84 112.91 292.94 111.77 293.78 111.77 294.92 111.5 296.03 111.23 297.14 112.03 298.24 112.34 299.38 111.23 300.49 109.82 301.03 108.68 301.03 107.57 301.03 106.47 301.6 105.36 301.6 104.22 300.49 103.11 299.92 102 299.62 100.9 299.38 100.33 300.49 100.06 301.6 100.33 302.71 100.9 303.85 100.9 304.95 100.9 306.06 102 306.87 103.11 307.17 104.22 308.01 105.36 307.17 106.47 306.63 106.77 307.74 107.04 308.85 107.3 309.95 106.2 310.52 105.09 310.52 104.52 309.42 103.41 309.42 102.31 309.42 101.2 309.95 101.43 311.09 102.57 311.63 103.68 311.63 103.68 312.77 102.57 313.01 101.43 313.58 100.33 314.42 100.33 315.56 100.33 316.66 100.63 317.77 100.9 318.88 101.43 320.02 100.9 321.13 99.76 321.39 99.76 322.5 99.76 323.61 98.65 323.91 97.54 323.61 96.43 323.61 95.86 324.71 94.76 325.02 93.65 325.86 93.08 326.96 92.81 328.07 92.51 329.18 92.51 330.32 92.81 331.42 93.08 332.53 94.19 333.4 95.29 333.94 96.43 335.05 97.54 335.32 98.65 335.05 99.76 334.51 100.63 335.62 100.9 336.73 100.9 337.87 100.06 338.97 100.06 340.08 98.95 341.19 97.84 341.76 96.7 342.56 95.59 343.7 94.49 344.81 93.92 345.92 93.08 347.02 94.19 347.02 94.49 348.17 93.65 349.27 93.08 350.38 93.08 351.49 91.97 351.79 90.83 350.68 90.29 351.79 90.83 352.9 90.29 354.04 89.72 355.14 88.05 357.93 89.15 357.63 90.03 358.73 90.29 359.88 90.29 361.28 91.4 361.82 92.51 362.39 93.38 363.5 92.81 364.61 91.7 364.61 90.29 364.07 89.15 364.61 88.62 363.5 87.24 363.5 86.13 363.5 84.99 363.5 83.89 363.5 82.78 363.77 81.67 364.07 80.53 364.07 79.42 363.5 79.12 362.39 78.85 361.28 78.32 360.14 78.02 359.04 78.32 357.93 78.32 356.82 77.75 355.68 76.64 356.52 75.53 357.06 74.39 356.82 73.55 355.68 72.75 354.57 72.98 353.47 72.98 352.36 72.98 351.25 73.28 350.11 73.55 349 74.12 347.9 74.96 346.79 75.53 345.65 75.53 344.54 74.66 343.44 74.66 342.33 74.66 341.19 74.96 340.08 75.53 338.97 75.53 337.87 75.77 336.73 76.34 335.62 76.64 334.51 75.77 333.4 75.77 332.26 75.23 332.06 75.53 330.65 75.53 329.51 75.77 328.4 76.91 327.3 76.64 326.19 75.53 325.62 74.39 325.05 73.28 324.25 74.39 323.94 75.53 323.94 76.91 323.67 78.02 322.84 77.44 321.73 76.34 321.16 75.23 321.73 74.12 321.16 74.12 320.05 73.86 318.94 73.55 317.8 73.55 316.7 73.55 315.59 72.98 314.48 71.88 313.64 71.61 312.54 71.61 311.43 72.45 310.56 72.75 309.45 72.75 308.34 72.18 307.2 71.61 306.09 71.07 304.99 70.77 303.88 70.77 302.74 70.77 301.63 70.77 300.52 70.77 299.42 70.77 298.28 70.77 297.17 71.07 296.06 71.31 294.96 71.61 293.81 71.61 292.71 71.61 291.6 72.75 290.8 73.86 289.65 73.55 288.55 73.28 287.44 72.75 286.33 72.18 285.19 71.61 284.09 71.61 282.98 72.18 281.87 71.88 280.73 71.61 279.62 71.61 278.52 72.45 277.41 73.28 276.27 73.55 275.16 74.12 274.05 73.55 272.95 72.98 271.81 72.75 270.7 72.98 269.59 74.12 269.02 74.39 267.92 74.96 266.81 74.96 265.7 76.07 265.13 76.34 264.56 76.34 263.45 76.07 262.35 76.07 261.24 75.77 260.1 74.96 258.99 74.39 257.88 74.12 257.31 74.39 256.21 73.86 255.1 73.28 253.99 72.75 252.85 73.55 251.74 72.45 250.64 71.31 249.53 70.5 248.39 70.77 247.28 71.88 246.98 72.75 245.87 72.45 244.76 72.45 243.63 72.98 242.52 73.55 241.41 73.28 240.3 72.75 239.16 72.45 238.06 72.18 236.95 72.75 235.84 73.28 234.7 73.55 233.59 73.86 232.22 74.12 231.11 74.66 230 75.23 228.9 75.53 227.76 76.07 226.65 76.91 225.54 78.02 224.43 78.02 223.29 79.12 222.46 78.85 221.35 78.02 220.21 78.02 219.1 78.59 217.99 78.32 216.89 77.75 215.75 77.44 214.64 77.44 213.53 78.32 212.42 78.32 211.28 78.02 210.18 78.85 208.5 84.16 205.14 84.46 199.88 84.46 198.77 84.16 198.2 84.46 197.09 85.56 196.79 86.67 195.98 86.94 194.88 88.05 194.57 88.62 193.43 89.72 193.43 90.83 194 91.97 194.57 93.08 194.88 94.19 194.57 95.29 194.31 96.43 194.31 97.54 195.11 97.54 196.25 98.11 197.36 99.22 197.66 99.22 196.52 99.52 195.41 100.06 194.31 100.63 193.2 101.73 193.2 103.11 193.2 104.52 193.2 105.66 193.2 106.77 194 107.57 194.57 108.68 195.41 109.55 196.52 110.12 197.66 111.23 198.47 112.34 199.57 113.44 200.72 114.58 201.25 115.69 202.12 116.8 202.12 117.91 202.66 119.05 203.77 120.12 203.77 120.96 204.91 122.07 205.14 123.21 206.01 124.31 207.12 125.42 207.69 126.53 208.23 127.67 208.8 128.78 208.8 129.88 209.07 130.99 209.37 132.13 210.18 133.24 211.05 133.24 212.16 132.43 213.26 131.86 214.37 130.75 215.51 130.45 216.62 129.88 217.99 129.08 219.1 128.78 220.21 128.51 221.35 128.51 222.46 129.62 222.19 130.75 222.19 131.86 222.46 132.97 222.99 134.08 223.29 135.22 223.29 136.32 223.56 137.43 223.56 138.54 223.56 139.68 223.86 140.79 222.99 141.89 223.29 143 223.29 144.14 222.46 144.68 221.35 145.52 220.21 146.63 219.4 147.73 218.83 148.6 217.72 148.6 216.62 148.3 215.51 148.6 214.37 149.71 213.73"/><polyline id="polyline50" class="cls-1" points="94.49 376.05 95.59 376.88 96.7 377.45 97.84 377.45 98.95 377.45 100.06 377.72 101.2 378.26 102.57 377.99 103.68 377.72 104.79 377.45 105.89 377.15 105.66 376.05 104.52 376.05 103.41 375.78 102.31 375.78 101.43 374.67 100.33 374.37 99.22 374.1 98.11 373.53 97.54 372.42 96.43 371.88 95.59 370.75 95.06 369.64 93.92 369.64 94.19 368.53 94.19 367.42 93.38 366.28 93.08 365.75 93.08 366.85 93.08 367.96 93.08 369.64 93.38 370.75 93.65 372.69 93.92 374.37 93.92 375.78 94.49 376.05"/><polyline id="polyline52" class="cls-1" points="132.97 239.97 132.43 241.07 132.13 242.18 131.86 243.29 131.56 244.43 131.29 245.54 131.29 246.64 130.75 247.75 130.45 248.89 130.19 250 130.19 251.11 129.88 252.21 129.88 253.35 129.88 254.46 129.62 255.57 128.78 256.68 129.08 258.12 129.08 259.23 129.35 260.33 129.62 261.44 130.75 262.28 131.86 263.12 132.97 263.12 134.08 262.81 135.22 263.12 136.02 264.22 136.59 265.37 137.7 265.9 138.81 265.9 139.91 265.9 141.06 265.37 142.16 265.6 143.27 265.9 144.38 266.17 145.52 266.47 146.63 266.47 147.73 265.9 148.6 264.8 149.71 264.49 150.82 263.69 151.09 262.58 151.93 261.44 153.07 260.6 153.07 259.49 152.5 258.35 151.93 257.25 152.5 256.14 153.07 255.03 154.17 255.03 154.17 253.89 153.07 252.78 152.19 251.68 151.39 250.57 150.52 249.43 149.41 248.62 148.3 247.75 147.19 247.22 146.05 246.38 144.95 245.54 144.38 244.43 143.57 243.29 142.46 243.59 141.36 243.05 140.49 241.91 139.38 240.81 138.27 239.97 137.7 238.83 136.59 238.83 135.45 239.4 134.34 239.7 132.97 239.97"/></svg>