<svg id="Capa_1" data-name="Capa 1" xmlns="http://www.w3.org/2000/svg" viewBox="0 0 325.89 480.62"><defs><style>.cls-1{fill:none;stroke:#0c00ff;stroke-miterlimit:10;stroke-width:0.28px;}</style></defs><title>3</title><polyline id="polyline10" class="cls-1" points="212.33 55.62 213.72 56.72 214.44 58.11 215.83 58.83 215.5 60.22 215.83 61.62 215.83 63.01 216.55 64.45 217.27 65.84 216.89 67.23 217.57 68.63 217.27 70.06 217.95 71.46 219 72.85 220.4 72.85 221.79 73.57 223.18 74.58 223.9 75.98 224.28 77.37 222.89 78.47 221.79 79.86 220.4 81.26 219 82.69 217.27 84.09 215.83 84.81 214.78 86.2 213.38 87.22 212.33 88.61 212.33 90.05 211.65 91.44 210.55 92.83 209.16 94.23 208.1 95.66 209.54 95.66 213.05 94.61 214.44 94.23 215.16 92.83 215.16 91.44 216.55 90.72 217.57 92.16 218.66 93.55 219 92.16 217.95 90.72 218.28 89.33 219.38 87.93 220.78 87.22 222.17 87.22 223.56 87.22 225 87.59 226.4 87.59 227.79 87.22 229.18 86.88 230.62 86.2 232.01 86.2 233.41 86.54 235.52 87.93 234.42 89.33 234.13 90.72 233.75 92.16 233.03 93.55 232.01 94.94 230.62 96.34 229.18 96.72 227.79 96.34 226.4 97.44 225 98.11 223.56 97.78 222.17 97.44 220.78 97.78 219.38 98.11 217.95 98.11 216.55 98.11 215.16 97.44 213.38 97.06 211.95 97.78 211.95 99.17 213.72 98.11 215.16 98.83 216.55 99.17 217.95 99.55 219.38 99.55 220.78 98.83 222.17 99.17 223.56 99.17 225 99.55 226.4 99.55 227.79 98.83 228.13 100.22 229.52 99.17 229.9 97.78 231.29 97.44 232.69 96.34 234.13 96.34 234.42 94.94 235.52 93.55 236.24 92.16 237.25 90.72 238.65 90.05 240.04 90.72 241.47 91.1 242.87 92.16 244.26 92.5 245.66 92.83 247.09 93.93 248.49 94.61 250.26 95.33 251.99 96.04 253.39 95.66 254.82 96.34 256.22 97.44 256.6 98.83 257.99 98.11 259.39 98.45 260.78 99.55 261.84 100.94 261.84 102.34 261.5 103.73 261.84 105.17 261.5 106.9 261.5 108.29 260.44 109.69 261.84 110.07 262.89 108.67 263.23 107.28 263.61 105.84 265 105.46 266.06 106.9 267.83 106.56 268.51 105.17 269.23 103.73 270.62 104.45 272.02 105.17 273.45 106.18 274.85 106.9 276.24 107.28 277.63 108.67 279.07 109.01 280.46 107.96 281.86 108.67 283.25 109.35 284.69 110.41 286.08 109.69 287.48 110.07 288.53 111.46 289.93 110.79 291.32 110.07 292.71 110.07 294.49 111.08 295.93 112.18 297.32 112.18 298.71 113.19 300.11 114.29 301.16 115.69 302.22 117.08 303.65 117.8 305.05 118.47 305.73 119.91 306.78 121.3 307.46 122.7 308.89 124.09 310.29 124.81 311.68 125.53 313.12 126.54 314.51 127.26 315.9 128.65 316.29 130.05 318.4 129.71 320.13 130.43 321.52 130.77 322.92 131.15 323.64 132.54 324.35 133.94 324.02 135.33 324.02 136.76 324.69 138.16 325.41 139.55 325.41 140.95 325.75 142.38 325.75 143.78 325.75 145.17 325.41 146.56 325.03 148 325.41 149.4 325.41 150.79 324.69 152.18 324.02 153.62 324.02 155.01 323.64 156.41 323.3 157.8 322.62 159.24 321.52 160.59 320.51 161.98 319.07 162.36 317.68 162.36 318.4 163.76 317.68 165.15 316.62 166.59 315.57 167.98 314.17 169 312.78 170.09 311.34 170.09 310.29 171.49 308.89 172.5 308.18 173.94 307.46 175.33 306.78 176.77 306.06 178.16 303.65 180.27 302.56 181.71 301.16 182.39 299.43 182.01 298.04 181.33 297.66 182.72 297.66 184.12 297.32 185.51 296.22 186.95 295.21 188.34 294.83 189.74 295.21 191.13 296.6 190.45 296.6 191.85 296.6 193.24 295.21 194.34 294.49 195.74 295.21 197.13 295.21 198.52 295.21 199.96 295.55 201.35 295.55 202.75 295.21 204.14 295.21 205.58 294.49 206.97 294.15 208.37 293.43 209.76 293.1 211.19 292.04 212.59 291.7 213.98 291.32 215.38 290.98 216.81 290.98 218.21 289.93 219.6 288.87 221 288.19 222.43 287.81 223.83 287.81 225.22 287.48 226.61 287.48 228.05 287.1 229.44 286.42 230.84 284.98 231.56 283.59 233.96 282.2 235.06 281.86 236.46 281.86 237.85 280.46 238.19 279.07 239.58 277.63 239.96 277.63 241.36 276.58 242.79 275.56 244.19 275.56 245.58 275.56 246.97 275.56 248.41 274.13 249.8 272.73 250.52 271.34 250.82 269.95 251.92 269.95 253.31 268.51 254.03 267.12 253.65 265.72 253.65 264.33 253.65 262.89 253.65 261.5 253.31 260.1 253.65 258.71 254.03 257.27 252.93 255.88 253.31 254.49 254.03 253.09 254.03 251.66 255.04 250.26 256.14 248.87 256.44 247.47 257.54 246.75 258.93 245.36 258.93 243.25 258.93 241.85 259.65 240.42 260.32 239.03 260.32 237.63 260.66 236.24 261.38 234.8 262.44 233.75 263.83 232.35 264.88 230.91 265.94 229.9 267.33 229.18 268.77 227.79 269.45 226.4 269.07 225.3 270.5 225.3 271.9 225 273.29 224.62 274.69 224.62 276.12 225 277.51 225.3 278.91 225 281.36 225 282.75 223.56 282.75 223.56 284.15 223.56 285.58 224.28 286.98 225 289.47 224.28 290.86 223.18 292.26 221.79 292.6 219 292.98 217.95 294.37 216.89 295.76 215.5 296.86 215.16 298.26 214.44 299.65 213.72 301.04 213.05 302.48 212.67 303.87 211.95 305.27 211.65 306.66 210.93 308.1 209.54 309.49 208.1 310.51 207.05 311.9 205.65 312.96 204.22 314.01 202.82 314.73 202.15 313.34 203.54 312.96 204.94 311.9 206.03 310.51 206.03 309.11 207.05 307.72 208.44 307 209.16 305.61 209.54 303.87 209.54 302.48 208.1 302.48 206.71 301.76 206.71 303.16 207.05 304.55 206.71 305.99 205.32 307 204.94 308.39 203.54 309.49 202.49 310.89 201.09 312.24 200.04 313.63 200.04 315.07 200.04 316.46 200.04 317.86 200.04 319.25 199.32 320.69 198.98 322.08 198.3 323.48 197.21 324.87 195.81 325.59 194.42 325.97 192.98 325.59 192.69 324.19 193.36 322.8 194.8 321.36 196.19 320.35 197.59 318.95 197.92 317.52 197.92 316.12 196.53 316.46 195.47 317.86 194.42 319.25 194.08 319.63 192.69 318.24 191.59 316.84 190.57 315.45 189.47 314.01 188.08 313 186.69 311.9 185.29 311.22 183.86 310.17 182.46 309.11 181.75 307.72 180.73 306.28 179.34 306.66 177.94 305.99 176.84 304.55 175.45 303.16 174.06 302.1 173.34 300.66 171.94 300.66 170.51 301.38 169.11 301.76 167.38 302.1 168.44 300.66 169.5 299.27 170.51 297.88 171.61 296.48 172.62 295.09 174.06 293.65 175.11 292.26 176.51 290.86 177.56 289.47 178.24 288.03 179.68 286.64 181.07 285.92 182.46 285.63 183.86 284.91 184.57 283.51 185.97 282.8 187.36 281.74 188.8 281.02 190.19 281.02 191.59 280.01 192.69 278.57 192.69 277.18 192.98 275.78 192.98 274.39 192.98 272.95 192.31 271.56 192.31 270.17 191.25 268.77 189.85 268.39 188.46 269.07 187.07 269.87 187.74 268.48 187.74 267.08 187.74 265.69 187.74 264.25 187.74 262.86 187.74 261.08 188.46 259.69 188.8 258.25 188.46 256.86 187.07 256.52 185.29 256.52 183.86 256.18 182.46 255.13 182.13 253.73 181.75 252.34 182.13 250.94 181.45 249.51 181.07 248.12 181.45 246.72 180.73 245.33 179.34 244.61 177.94 243.89 176.51 243.22 175.11 243.22 173.72 243.51 172.32 243.51 170.89 243.51 169.5 244.23 168.1 243.89 166.33 243.22 166.71 241.78 167 240.38 167 238.99 166.33 237.6 167 236.16 167 234.77 166.33 233.37 166.33 231.98 166.33 230.54 165.61 229.49 167.38 227.37 165.27 225.64 165.61 224.25 166.33 222.85 166.71 221.42 167 220.02 167.72 218.63 168.1 217.24 168.78 215.8 169.5 214.41 168.44 213.01 167.38 211.62 165.99 210.52 164.59 209.13 163.16 208.41 162.82 207.01 162.1 205.62 162.48 204.22 163.16 202.79 163.88 201.4 163.5 201.06 150.87 200.38 148.75 192.99 150.15 192.99 150.87 191.55 150.87 190.16 149.85 188.76 150.53 187.37 150.53 185.94 149.47 184.54 148.04 183.82 146.64 183.53 145.25 182.81 143.85 182.09 142.42 182.09 141.02 182.43 139.63 182.43 138.24 181.41 136.8 180.02 135.41 180.02 134.01 179.64 132.62 178.92 131.18 177.91 130.17 176.47 128.77 176.47 127.38 175.8 125.94 175.42 124.55 175.42 123.16 175.42 121.72 174.7 120.66 173.3 119.27 172.29 117.88 171.57 116.44 170.18 115.05 169.08 114.71 167.69 115.05 166.29 115.05 164.9 114.71 163.46 114.03 162.07 113.31 160.67 114.03 159.28 114.71 157.84 114.71 156.45 114.03 155.06 112.59 155.44 111.2 155.44 109.81 155.77 108.41 155.77 106.98 156.11 105.58 157.17 104.53 158.56 103.09 159.66 101.7 159.96 100.3 160.67 99.25 162.07 97.85 162.79 96.46 163.17 95.36 164.56 94.35 165.95 92.95 165.95 91.56 165.28 90.12 164.9 88.73 165.28 87.33 165.57 86.19 165.87 84.42 165.53 83.03 166.25 81.63 166.93 80.19 166.93 78.8 166.59 78.08 165.15 78.46 163.76 78.46 158.52 78.08 157.13 78.08 155.69 76.73 155.35 75.34 156.41 73.94 157.13 72.55 158.14 71.45 159.53 70.06 159.91 68.66 160.25 67.23 160.25 66.21 158.86 64.82 157.42 63.34 156.41 61.95 156.03 60.55 156.41 59.16 156.41 59.5 155.01 59.16 153.24 58.44 151.8 57.05 150.41 55.99 149.01 55.61 147.62 55.31 146.23 53.88 145.17 53.2 143.78 53.88 142.38 54.22 140.95 54.6 139.55 54.93 138.16 55.61 136.76 57.43 136.05 58.82 134.65 58.44 133.26 58.1 131.82 58.1 130.43 58.82 129.03 59.83 127.64 60.55 126.2 61.23 124.81 62.33 123.42 63.34 122.02 64.82 121.3 66.21 120.59 67.61 120.21 69.34 120.21 70.73 120.21 72.17 118.81 73.56 118.14 75.34 117.42 76.73 117.42 78.08 118.14 79.52 117.42 80.91 117.42 81.29 116.7 83.03 106.9 83.7 98.11 83.7 97.44 84.08 96.04 84.08 94.61 83.03 93.21 81.97 91.82 80.91 90.42 79.52 90.09 79.52 88.69 79.52 87.26 79.52 85.86 79.52 84.47 79.9 83.08 81.29 83.08 82.69 81.98 84.08 83.08 85.52 82.36 85.14 80.96 83.7 79.48 82.31 78.81 80.91 79.19 80.58 74.58 81.97 74.58 83.7 74.58 85.14 74.58 86.53 74.58 87.92 74.58 89.32 74.58 91.14 74.97 92.53 73.87 92.53 72.47 94.26 72.85 95.66 72.13 97.05 71.8 98.49 71.8 99.16 72.47 99.88 73.87 100.6 75.3 101.99 76.7 103.05 78.09 104.48 78.81 104.78 80.2 106.22 80.58 107.61 81.26 109 81.98 110.4 81.98 111.83 80.96 112.51 79.48 113.9 80.58 115 78.81 115.72 77.37 117.11 76.36 118.51 75.3 119.9 74.58 120.62 73.19 122.02 71.8 123.41 71.46 124.84 71.08 126.24 70.36 125.86 68.97 124.47 68.63 123.07 68.63 121.63 68.63 120.24 67.95 120.24 66.52 120.62 65.12 119.9 63.73 119.9 62.33 119.52 60.56 118.51 59.12 117.11 58.45 115.72 57.39 115.72 56 117.11 56 118.51 56.34 119.9 56 121.34 56.72 122.73 57.01 124.13 57.73 125.52 58.11 126.96 58.83 128.35 59.12 129.75 58.11 130.76 56.72 132.19 56.72 133.59 56.72 134.98 56 136.38 56 137.81 55.62 139.21 54.94 140.6 53.89 142 53.89 143.81 52.83 145.54 52.11 146.6 50.72 145.97 49.24 147.32 48.61 148.71 47.89 150.1 47.89 151.5 48.61 151.5 51.1 150.1 52.11 150.1 53.51 151.16 54.94 152.22 56.34 152.56 57.73 152.22 59.12 151.84 60.56 151.5 61.95 151.5 63.35 151.5 64.74 151.5 66.18 151.5 67.57 152.22 68.97 152.56 70.36 152.94 71.8 153.61 73.19 155.05 73.87 156.44 74.25 158.17 75.3 159.61 75.64 161 75.64 162.44 74.97 163.83 74.25 165.23 73.61 167.68 73.61 169.07 73.61 170.47 72.13 171.9 71.46 173.3 71.46 175.07 71.08 175.41 71.46 176.8 71.46 178.2 72.47 179.97 72.13 181.41 71.08 181.41 69.68 179.97 68.63 180.31 67.23 181.7 67.57 183.14 67.95 184.53 67.57 185.93 66.85 187.32 66.85 188.04 68.25 189.43 68.25 190.19 69.39 191.59 69.73 193.36 70.4 194.8 69.73 196.19 68.67 197.59 69.01 198.98 68.67 200.42 69.39 201.81 69.73 203.2 68.67 206.71 64.11 207.43 62.72 208.44 61.28 209.54 59.55 210.55 58.15 211.65 56.76 211.27 55.36 212.33 55.62"/><polyline id="polyline12" class="cls-1" points="64.44 6.49 65.83 5.77 67.23 5.05 68.66 5.05 70.06 4.04 70.73 2.65 70.44 1.21 69 0.15 67.61 0.53 66.21 1.21 64.44 2.65 63.34 4.04 62.33 5.43 60.93 5.77 59.5 6.49 58.1 7.17 56.75 8.64 55.31 9.32 53.88 9.32 52.48 9.32 50.71 9.32 49.32 9.66 48.26 11.05 47.2 12.45 45.81 13.88 44.75 12.45 43.36 12.11 41.97 12.78 40.87 14.18 40.19 15.62 39.47 17.01 38.76 18.4 38.46 19.8 38.46 21.23 38.46 22.63 37.02 22.63 35.63 23.01 34.95 24.4 34.24 25.8 33.14 27.23 31.74 27.91 30.35 28.96 30.01 30.36 30.73 31.75 30.73 33.19 30.73 34.62 29.34 34.62 29.34 33.19 28.24 31.75 27.22 30.36 25.79 30.36 26.13 31.75 26.13 33.19 25.79 34.62 25.11 36.02 24.39 37.41 23 37.03 22.62 38.42 22.62 39.86 23.72 41.26 24.01 42.65 25.45 42.99 25.79 44.38 25.45 46.16 25.79 47.59 26.5 48.99 25.79 50.38 25.11 51.77 25.79 53.21 25.79 54.6 25.79 56 25.79 57.39 25.79 58.83 25.45 60.22 25.45 61.62 26.13 63.01 27.52 63.01 27.52 64.45 26.13 65.46 25.11 66.85 24.01 68.25 23.72 69.68 23.34 71.08 23 72.47 21.61 72.85 20.17 72.85 18.77 73.61 17.38 73.19 17.04 74.58 17.04 75.98 17.76 77.37 18.1 78.81 16.66 79.48 15.27 79.48 14.89 80.96 15.99 83.37 14.89 81.26 17.38 83.75 18.77 85.14 20.17 85.48 21.61 85.86 23 86.2 24.39 85.86 25.79 86.88 27.22 88.31 28.62 88.99 30.01 88.99 31.41 89.71 32.84 88.99 33.14 87.59 34.57 88.31 35.97 88.99 37.36 89.37 38.76 90.42 40.19 90.76 42.3 90.76 43.7 91.1 45.09 91.82 46.49 92.88 47.92 93.59 48.6 94.94 49.7 96.34 51.09 96.72 52.48 97.44 53.88 97.78 54.6 99.17 55.99 100.22 57.43 100.94 57.05 102.34 57.72 103.73 57.05 105.17 58.44 105.46 59.16 106.9 60.93 105.84 62.33 106.18 63.72 105.46 65.11 104.79 66.55 104.07 67.94 103.73 69.34 104.07 70.73 105.46 72.17 104.79 73.22 103.39 74.62 103.39 76.06 103.73 77.41 103.73 78.8 104.45 79.18 105.84 80.91 106.18 74.28 114.59 77.07 113.19 78.46 112.52 79.18 113.19 79.18 114.59 81.29 116.7 83.03 106.9 83.7 98.11 83.7 97.44 84.08 96.04 84.08 94.61 83.03 93.21 81.97 91.82 80.91 90.42 79.52 90.09 79.52 88.69 79.52 87.26 79.52 85.86 79.52 84.47 79.9 83.08 81.29 83.08 82.69 81.98 84.08 83.08 85.52 82.36 85.14 80.96 83.7 79.48 82.31 78.81 80.91 79.19 80.58 74.58 81.97 74.58 83.7 74.58 85.14 74.58 86.53 74.58 87.92 74.58 89.32 74.58 91.14 74.97 92.53 73.87 92.53 72.47 94.26 72.85 95.66 72.13 97.05 71.8 98.49 71.8 98.49 70.36 97.77 68.97 96.75 67.57 95.66 66.18 96.75 64.74 97.77 63.35 98.15 61.95 97.77 60.56 96.75 59.12 96.04 57.73 95.32 56.34 94.94 54.94 94.94 53.51 94.94 52.11 94.94 50.72 94.94 49.32 95.66 47.89 97.05 46.49 96.75 45.1 97.05 43.71 96.75 42.27 95.32 41.97 93.92 42.65 92.53 42.99 90.42 42.99 89.02 42.65 87.59 42.27 86.19 42.65 84.8 43.37 83.41 43.37 82.31 41.97 80.91 40.88 79.52 39.48 78.08 38.81 76.73 38.42 75.34 37.75 73.94 37.41 72.55 37.03 70.73 37.03 69.34 37.03 67.94 36.69 66.55 37.03 65.11 37.75 63.72 37.75 63.05 36.35 61.61 35.3 61.23 33.91 61.61 32.51 61.61 31.03 61.23 29.64 60.55 28.25 59.5 26.85 59.16 25.41 58.44 24.02 58.44 22.63 57.05 22.63 55.99 24.02 54.6 24.02 55.61 22.29 56.75 20.89 57.05 19.5 56.75 17.73 57.05 16.29 57.72 14.9 58.44 13.5 59.16 12.11 60.55 10.71 61.23 9.32 62.66 8.64 64.1 7.88 64.44 6.49"/><polyline id="polyline14" class="cls-1" points="98.44 71.71 98.44 70.32 97.72 68.92 96.71 67.53 95.61 66.09 96.71 64.7 97.72 63.31 98.11 61.91 97.72 60.48 96.71 59.08 95.99 57.69 95.28 56.29 94.89 54.86 94.89 53.46 94.89 52.07 94.89 50.68 94.89 49.24 95.61 47.84 97.01 46.45 96.71 45.06 97.01 43.62 96.71 42.23 95.28 41.89 93.88 42.61 92.49 42.95 90.38 42.95 88.98 42.61 87.55 42.23 86.15 42.61 84.76 43.33 83.36 43.33 82.27 41.89 80.87 40.83 79.48 39.44 78.04 38.76 76.69 38.38 75.3 37.71 73.9 37.37 72.47 36.99 70.69 36.99 69.3 36.99 67.9 36.65 66.51 36.99 65.07 37.71 63.68 37.71 62.96 36.31 61.57 35.26 61.19 33.86 61.57 32.47 61.57 30.99 61.19 29.6 60.51 28.2 59.45 26.81 59.07 25.37 58.4 23.98 58.4 22.59 57 22.59 55.95 23.98 54.55 23.98 55.57 22.25 56.75 20.85 57 19.46 56.75 17.64 57 16.25 57.68 14.85 58.4 13.46 59.07 12.02 60.51 10.67 61.19 9.28 62.62 8.56 64.06 7.84 64.4 6.41 65.79 5.73 67.18 5.01 68.58 5.01 68.33 5.77 66.93 6.49 65.83 7.88 64.82 9.32 65.83 10.71 66.55 12.11 67.23 13.5 67.23 14.9 65.83 16.29 64.82 17.73 64.1 19.12 65.11 20.52 65.83 21.91 66.55 23.34 67.94 24.02 69.34 23.34 70.73 22.63 71.45 21.23 71.45 19.8 71.11 18.4 70.44 17.01 69 16.29 69 14.9 68.66 13.5 68.66 12.11 69 10.71 70.44 10.38 71.83 8.94 73.22 8.64 74.62 8.27 76.06 7.88 77.41 7.88 78.46 6.49 79.52 5.05 78.08 4.38 76.73 2.94 78.08 1.55 79.52 1.93 79.9 3.32 80.91 4.76 81.63 6.15 83.03 6.83 84.42 6.49 85.81 6.49 87.25 7.17 88.64 7.88 90.04 8.94 91.14 10.38 92.53 11.77 93.92 12.11 95.32 12.45 96.75 12.45 98.15 12.45 99.54 12.45 100.94 12.45 102.37 11.77 103.77 12.11 105.16 12.11 106.55 12.11 107.99 13.16 109.38 13.5 110.78 13.88 112.17 14.18 113.61 14.18 115 14.56 116.4 14.56 117.79 14.18 119.23 14.18 120.62 12.78 122.02 12.78 123.41 12.78 122.02 11.77 120.62 11.43 122.02 10.71 123.41 10.71 124.84 10.71 126.24 11.05 127.63 10.71 129.03 10.38 131.86 10.04 133.25 10.04 134.65 10.04 136.08 10.71 137.47 10.38 136.38 11.77 134.98 12.45 133.59 11.77 132.19 11.43 130.76 11.43 131.48 12.78 132.57 14.18 133.97 15.28 135.36 15.28 136.76 15.99 138.19 16.29 139.59 16.67 140.98 16.29 142.38 17.01 143.81 17.73 145.21 18.07 145.97 19.5 146.22 20.89 146.22 22.29 144.82 23.34 144.49 24.74 145.97 24.74 147.32 24.4 148.71 24.4 150.1 24.02 151.5 24.4 152.22 25.8 152.22 27.23 150.82 28.63 149.43 29.3 147.99 29.64 146.6 31.03 146.6 32.51 146.6 33.91 147.99 34.92 148.71 36.35 147.32 37.41 145.97 37.41 144.49 37.41 143.09 37.41 142 38.81 142 40.16 141.7 41.59 141.32 42.99 141.32 44.38 142.71 45.48 144.11 46.49 145.21 47.89 145.97 49.32 146.6 50.72 145.54 52.11 143.81 52.83 142 53.89 140.6 53.89 139.21 54.94 137.81 55.62 136.38 56 134.98 56 133.59 56.72 132.19 56.72 130.76 56.72 129.75 58.11 128.35 59.12 126.96 58.83 125.52 58.11 124.13 57.73 122.73 57.01 121.34 56.72 119.9 56 118.51 56.34 117.11 56 115.72 56 115.72 57.39 117.11 58.45 118.51 59.12 119.52 60.56 119.9 62.33 119.9 63.73 120.62 65.12 120.24 66.52 120.24 67.95 121.63 68.63 123.07 68.63 124.47 68.63 125.86 68.97 126.24 70.36 124.84 71.08 123.41 71.46 122.02 71.8 120.62 73.19 119.9 74.58 118.51 75.3 117.11 76.36 115.72 77.37 115 78.81 113.9 80.58 112.51 79.48 111.83 80.96 110.4 81.98 109 81.98 107.61 81.26 106.22 80.58 104.78 80.2 104.48 78.81 103.05 78.09 101.99 76.7 100.6 75.3 99.88 73.87 99.16 72.47 98.44 71.71"/><polyline id="polyline16" class="cls-1" points="14.89 81.26 15.99 83.37 14.55 84.09 13.16 84.09 11.38 84.47 9.99 85.14 8.6 86.58 8.26 87.97 7.54 89.37 8.26 90.76 7.88 92.2 6.86 93.59 5.76 94.94 5.43 96.34 5.43 97.78 4.37 99.17 2.98 100.56 2.64 101.96 3.31 103.39 2.98 104.79 2.98 106.18 3.31 107.58 2.64 109.01 2.64 110.41 4.03 111.08 5.43 111.8 7.16 111.08 8.93 110.79 10.37 110.41 11.76 110.07 12.1 111.46 11.38 112.86 10.66 114.29 9.27 114.97 7.88 116.02 6.86 117.42 5.43 118.81 4.75 120.21 3.31 121.3 1.92 122.7 0.86 124.09 0.53 125.53 0.15 126.92 0.53 128.32 1.92 129.03 3.65 129.03 5.05 128.65 5.76 127.26 7.16 125.82 8.6 125.15 9.99 124.81 11.38 125.82 12.78 125.82 13.88 127.26 15.27 127.64 16.66 127.94 17.38 126.54 18.44 125.15 19.16 123.75 19.87 122.32 20.17 120.59 20.55 119.19 21.27 117.8 21.61 116.4 23 117.42 23.72 116.02 23.72 114.59 24.73 113.19 26.13 112.52 27.9 111.8 29.63 111.08 31.07 110.41 32.84 109.69 34.57 108.67 35.97 107.58 37.36 106.18 38.46 104.79 39.47 103.39 39.85 101.96 40.57 100.56 40.87 99.17 41.25 97.78 41.25 96.34 42.64 96.04 41.59 93.93 40.19 92.88 41.59 92.2 42.22 90.72 40.19 90.76 38.76 90.42 37.36 89.37 35.97 88.99 34.57 88.31 33.14 87.59 32.84 88.99 31.41 89.71 30.01 88.99 28.62 88.99 27.22 88.31 25.79 86.88 24.39 85.86 23 86.2 21.61 85.86 20.17 85.48 18.77 85.14 17.38 83.75 14.89 81.26"/><polyline id="polyline18" class="cls-1" points="81.25 116.66 79.14 114.55 79.14 113.15 78.42 112.48 77.03 113.15 74.2 114.55 80.87 106.14 79.14 105.8 78.76 104.41 77.36 103.69 76.01 103.69 74.58 103.31 73.18 103.31 72.13 104.75 70.69 105.42 69.3 104.03 67.9 103.69 66.51 104.03 65.07 104.75 63.68 105.42 62.28 106.14 60.89 105.8 59.07 106.86 58.4 105.42 57 105.13 57.68 103.69 57 102.3 57.34 100.9 55.95 100.18 54.55 99.13 53.84 97.69 52.44 97.39 51.05 96.68 49.65 96.3 48.56 94.9 47.84 93.55 46.44 92.83 45.05 91.78 43.66 91.06 42.22 90.72 41.54 92.16 40.15 92.83 41.54 93.89 42.6 95.96 41.21 96.3 41.21 97.69 40.83 99.13 40.49 100.52 39.81 101.92 39.43 103.31 38.42 104.75 37.32 106.14 35.92 107.53 34.53 108.63 32.8 109.64 30.98 110.36 29.59 111.04 27.86 111.76 26.08 112.48 24.69 113.15 23.63 114.55 23.63 115.98 22.96 117.38 21.56 116.32 21.23 117.76 20.51 119.15 20.13 120.54 19.83 122.28 19.11 123.67 18.39 125.11 17.34 126.5 16.62 127.89 15.23 127.56 13.83 127.22 12.73 125.78 11.34 125.78 9.95 124.77 8.51 125.11 7.12 125.78 5.72 127.22 5 128.61 3.61 128.99 1.88 128.99 1.54 129.37 1.54 130.77 2.26 132.16 3.65 132.16 4.37 133.55 3.31 135.33 1.92 136.05 2.26 137.44 3.65 138.16 5.05 138.5 7.16 138.88 8.6 139.55 9.99 140.27 11.38 141.66 12.48 143.06 13.16 144.5 13.88 145.89 14.21 147.28 15.65 148.3 17.04 149.4 19.49 151.13 19.87 152.52 20.17 153.91 20.55 155.35 21.27 156.75 21.98 158.14 23 159.53 23.72 160.97 24.73 162.36 25.45 164.14 25.79 165.53 26.84 166.93 27.52 168.36 27.9 169.76 28.95 171.15 30.35 172.21 31.74 173.6 32.46 174.99 32.84 176.43 33.85 177.87 34.95 179.26 36.35 180.65 37.02 182.05 37.74 183.78 38.76 185.22 40.19 185.22 40.87 186.61 40.19 188 39.47 189.4 39.47 190.84 40.57 192.23 40.87 193.62 42.3 194.72 43.7 195.4 45.09 196.12 46.49 197.51 47.92 198.23 48.98 199.62 49.99 201.01 51.43 201.73 52.82 202.07 54.22 202.41 55.61 203.13 57.05 203.8 58.44 204.48 59.83 205.2 61.23 205.87 62.66 205.87 64.1 206.97 65.5 207.69 66.93 207.99 68.33 207.99 69.72 208.7 71.11 209.42 72.55 210.1 73.94 211.19 75.34 212.59 76.06 213.98 77.41 215.04 78.8 215.72 79.9 217.11 81.29 218.21 82.69 218.93 84.08 218.54 85.52 218.21 86.91 217.49 87.59 216.09 87.25 214.7 88.31 213.31 87.92 211.87 86.91 210.48 86.53 209.08 87.25 207.69 88.64 206.97 90.04 206.25 91.43 205.58 91.14 204.14 90.75 202.75 89.32 203.13 87.92 202.07 86.53 201.73 85.14 201.01 83.7 200.34 85.14 199.96 86.53 199.62 85.52 198.23 85.81 196.45 87.25 197.13 87.92 198.23 88.64 196.79 89.32 195.74 89.02 194.34 89.7 190.12 91.43 188.38 90.75 184.16 90.75 181.71 92.53 175.71 86.19 165.87 84.42 165.53 83.03 166.25 81.63 166.93 80.19 166.93 78.8 166.59 78.08 165.15 78.46 163.76 78.46 158.52 78.08 157.13 78.08 155.69 76.73 155.35 75.34 156.41 73.94 157.13 72.55 158.14 71.45 159.53 70.06 159.91 68.66 160.25 67.23 160.25 66.21 158.86 64.82 157.42 63.34 156.41 61.95 156.03 60.55 156.41 59.16 156.41 59.5 155.01 59.16 153.24 58.44 151.8 57.05 150.41 55.99 149.01 55.61 147.62 55.31 146.23 53.88 145.17 53.2 143.78 53.88 142.38 54.22 140.95 54.6 139.55 54.93 138.16 55.61 136.76 57.43 136.05 58.82 134.65 58.44 133.26 58.1 131.82 58.1 130.43 58.82 129.03 59.83 127.64 60.55 126.2 61.23 124.81 62.33 123.42 63.34 122.02 64.82 121.3 66.21 120.59 67.61 120.21 69.34 120.21 70.73 120.21 72.17 118.81 73.56 118.14 75.34 117.42 76.73 117.42 78.08 118.14 79.52 117.42 80.91 117.42 81.25 116.66"/><polyline id="polyline20" class="cls-1" points="152.56 25.12 153.95 26.13 155.34 26.13 156.78 26.13 158.17 27.23 158.17 28.63 158.85 30.02 160.33 31.41 161.72 32.85 162.06 34.24 162.06 35.64 161.72 37.03 161.34 38.42 161.34 39.86 162.44 38.42 163.12 37.03 164.55 37.03 165.95 37.75 167.34 38.42 168.35 39.86 169.45 41.26 170.85 41.97 171.18 43.37 171.56 44.76 171.18 46.16 171.18 47.59 170.85 48.99 169.45 50 167.34 50.38 166.96 51.77 166.62 53.21 165.95 54.6 165.95 56 166.28 57.39 166.62 58.83 167.68 60.22 168.35 61.62 169.79 62.63 171.18 64.07 171.56 65.46 172.24 66.85 173.3 68.25 173.97 69.68 175.07 71.08 173.3 71.46 171.9 71.46 170.47 72.13 169.07 73.61 167.68 73.61 165.23 73.61 163.83 74.25 162.44 74.97 161 75.64 159.61 75.64 158.17 75.3 156.44 74.25 155.05 73.87 153.61 73.19 152.94 71.8 152.56 70.36 152.22 68.97 151.5 67.57 151.5 66.18 151.5 64.74 151.5 63.35 151.5 61.95 151.84 60.56 152.22 59.12 152.56 57.73 152.22 56.34 151.16 54.94 150.1 53.51 150.1 52.11 151.5 51.1 151.5 48.61 150.1 47.89 148.71 47.89 147.32 48.61 145.97 49.24 145.16 47.84 144.06 46.45 142.67 45.44 141.28 44.34 141.28 42.95 141.66 41.55 141.95 40.12 141.95 38.76 143.05 37.37 144.44 37.37 145.97 37.37 147.28 37.37 148.67 36.31 147.95 34.88 146.56 33.86 146.56 32.47 146.56 30.99 147.95 29.6 149.34 29.26 150.78 28.58 152.18 27.15 152.18 25.75 152.56 25.12"/><polyline id="polyline22" class="cls-1" points="171.52 44.72 171.14 46.11 171.14 47.51 170.8 48.94 169.41 49.96 167.3 50.34 166.92 51.73 166.58 53.13 165.9 54.56 165.9 55.96 166.2 57.35 166.58 58.74 167.64 60.18 168.31 61.57 169.75 62.59 171.14 64.02 171.52 65.42 172.2 66.81 173.25 68.21 173.93 69.64 175.03 71.04 175.41 71.46 176.8 71.46 178.2 72.47 179.97 72.13 181.41 71.08 181.41 69.68 179.97 68.63 180.31 67.23 181.7 67.57 183.14 67.95 184.53 67.57 185.93 66.85 187.32 66.85 188.04 68.25 189.43 68.25 190.83 67.23 191.21 65.84 191.93 64.45 192.64 63.01 192.94 61.62 193.66 60.22 193.66 58.83 192.26 57.39 191.54 56 191.54 54.6 191.21 53.21 190.53 51.77 190.53 50.38 190.83 48.99 192.26 48.27 193.32 46.87 194.04 45.48 194.71 44.04 193.32 43.71 191.93 43.71 190.53 43.37 189.09 42.99 187.7 42.65 186.31 41.97 184.91 42.65 183.48 42.99 182.08 42.99 180.69 43.37 179.29 43.37 177.86 42.65 176.46 42.65 175.07 42.99 173.68 42.65 172.24 42.99 171.9 44.38 171.52 44.72"/><polyline id="polyline24" class="cls-1" points="190.19 69.39 191.59 69.73 193.36 70.4 194.8 69.73 196.19 68.67 197.59 69.01 198.98 68.67 200.42 69.39 201.81 69.73 203.2 68.67 206.71 64.11 207.43 62.72 208.44 61.28 209.54 59.55 210.55 58.15 211.65 56.76 211.27 55.36 210.93 53.93 209.54 53.93 209.16 55.36 208.82 53.93 207.77 52.53 206.33 51.48 204.94 50.42 203.92 49.03 202.49 47.63 201.09 46.54 199.7 46.54 198.3 45.86 197.59 44.42 195.47 45.14 194.04 45.48 193.32 46.87 192.26 48.27 190.83 48.99 190.53 50.38 190.53 51.77 191.21 53.21 191.54 54.6 191.54 56 192.26 57.39 193.66 58.83 193.66 60.22 192.94 61.62 192.64 63.01 191.93 64.45 191.21 65.84 190.83 67.23 189.43 68.25 190.19 69.39"/><polyline id="polyline26" class="cls-1" points="89.07 214.74 91.18 217.24 91.56 218.97 91.85 220.36 92.57 221.76 93.97 223.15 95.36 224.25 96.8 225.26 96.08 226.66 95.36 228.47 95.74 229.87 95.06 231.26 95.36 232.65 95.74 234.09 96.08 235.48 97.18 236.88 98.19 238.27 98.57 239.71 98.57 241.1 98.91 242.5 99.58 243.89 100.3 245.33 100.68 246.72 100.98 248.12 99.58 249.13 100.68 250.56 102.08 250.94 103.47 251.62 104.86 251.24 105.92 249.51 106.3 248.12 107.69 247.74 109.09 246.72 109.43 245.33 110.82 244.95 111.54 243.51 112.93 243.51 114.33 244.23 115.76 244.95 117.16 245.33 118.55 244.95 119.94 244.61 121.38 244.61 122.78 245.62 122.78 247.06 123.49 248.45 124.89 248.83 124.89 247.4 125.27 246 125.94 244.61 126.66 243.22 128.06 243.22 129.79 243.22 131.56 243.22 133 243.22 134.39 244.23 134.73 243.51 136.5 236.16 136.5 231.26 140.01 224.92 145.63 224.25 150.87 222.85 157.5 222.85 163.88 225.64 165.61 229.49 167.38 227.37 165.27 225.64 165.61 224.25 166.33 222.85 166.71 221.42 167 220.02 167.72 218.63 168.1 217.24 168.78 215.8 169.5 214.41 168.44 213.01 167.38 211.62 165.99 210.52 164.59 209.13 163.16 208.41 162.82 207.01 162.1 205.62 162.48 204.22 163.16 202.79 163.88 201.4 163.5 201.06 150.87 200.38 148.75 192.99 150.15 192.99 150.87 191.55 150.87 190.16 149.85 188.76 150.53 187.37 150.53 185.94 149.47 184.54 148.04 183.82 146.64 183.53 145.25 182.81 143.85 182.09 142.42 182.09 141.02 182.43 139.63 182.43 138.24 181.41 136.8 180.02 135.41 180.02 134.01 179.64 132.62 178.92 131.18 177.91 130.17 176.47 128.77 176.47 127.38 175.8 125.94 175.42 124.55 175.42 123.16 175.42 121.72 174.7 120.66 173.3 119.27 172.29 117.88 171.57 116.44 170.18 115.05 169.08 114.71 167.69 115.05 166.29 115.05 164.9 114.71 163.46 114.03 162.07 113.31 160.67 114.03 159.28 114.71 157.84 114.71 156.45 114.03 155.06 112.59 155.44 111.2 155.44 109.81 155.77 108.41 155.77 106.98 156.11 105.58 157.17 104.53 158.56 103.09 159.66 101.7 159.96 100.3 160.67 99.25 162.07 97.85 162.79 96.46 163.17 95.36 164.56 94.35 165.95 92.95 165.95 91.56 165.28 90.12 164.9 88.73 165.28 87.33 165.57 86.19 165.87 92.53 175.71 90.75 181.71 90.75 184.16 91.43 188.38 89.7 190.12 89.02 194.34 89.32 195.74 88.64 196.79 87.92 198.23 87.25 197.13 85.81 196.45 85.52 198.23 86.53 199.62 85.14 199.96 83.7 200.34 85.14 201.01 86.53 201.73 87.92 202.07 89.32 203.13 90.75 202.75 91.14 204.14 91.43 205.58 90.04 206.25 88.64 206.97 87.25 207.69 86.53 209.08 86.91 210.48 87.92 211.87 88.31 213.31 89.07 214.74"/><polyline id="polyline28" class="cls-1" points="165.61 229.49 163.88 225.64 157.5 222.85 150.87 222.85 145.63 224.25 140.01 224.92 136.5 231.26 136.5 236.16 134.73 243.51 134.39 244.23 135.41 244.95 136.8 246 137.9 247.4 138.62 248.83 140.01 249.85 141.4 251.24 142.8 252.68 144.23 253.35 145.63 254.45 147.02 254.45 148.42 255.13 149.85 256.52 151.2 256.52 152.26 257.96 153.65 258.25 155.09 259.35 156.48 260.75 157.88 261.46 159.27 262.14 160.71 262.86 162.1 262.86 163.5 263.19 164.89 263.57 166.33 264.59 167.72 265.69 167.72 267.08 166.71 268.48 165.99 269.87 164.59 271.31 164.21 272.7 163.5 274.43 162.48 275.83 162.1 277.22 161.76 278.66 161.76 280.05 163.16 279.71 164.59 279.71 165.99 280.05 167.38 280.73 168.78 281.11 170.21 281.11 171.61 281.44 173 281.44 174.4 281.44 175.83 281.82 177.22 280.73 178.62 281.11 180.01 281.11 181.45 280.05 182.13 278.66 183.18 277.22 184.57 276.21 185.97 275.49 187.07 274.09 187.07 272.7 186.69 271.31 187.07 269.87 187.74 268.48 187.74 267.08 187.74 265.69 187.74 264.25 187.74 262.86 187.74 261.08 188.46 259.69 188.8 258.25 188.46 256.86 187.07 256.52 185.29 256.52 183.86 256.18 182.46 255.13 182.13 253.73 181.75 252.34 182.13 250.94 181.45 249.51 181.07 248.12 181.45 246.72 180.73 245.33 179.34 244.61 177.94 243.89 176.51 243.22 175.11 243.22 173.72 243.51 172.32 243.51 170.89 243.51 169.5 244.23 168.1 243.89 166.33 243.22 166.71 241.78 167 240.38 167 238.99 166.33 237.6 167 236.16 167 234.77 166.33 233.37 166.33 231.98 166.33 230.54 165.61 229.49"/><polyline id="polyline30" class="cls-1" points="88.31 213.31 89.07 214.74 91.18 217.24 91.56 218.97 91.85 220.36 92.57 221.76 93.97 223.15 95.36 224.25 96.8 225.26 96.08 226.66 95.36 228.47 95.74 229.87 95.06 231.26 95.36 232.65 95.74 234.09 96.08 235.48 97.18 236.88 98.19 238.27 98.57 239.71 98.57 241.1 98.91 242.5 99.58 243.89 100.3 245.33 100.68 246.72 100.98 248.12 99.58 249.13 100.68 250.56 102.08 250.94 103.47 251.62 104.86 251.24 105.92 249.51 106.3 250.23 106.3 251.62 105.92 258.25 99.25 262.48 98.19 264.59 98.57 265.98 98.57 267.42 97.47 268.81 97.47 270.21 97.85 271.6 98.57 273.04 98.91 274.43 98.19 275.83 98.19 277.22 99.25 278.66 99.58 280.05 98.19 281.11 98.19 282.54 96.8 283.94 95.74 285.33 95.06 286.72 94.68 288.16 93.97 289.55 93.29 290.95 92.95 292.34 92.57 294.07 92.23 295.47 91.56 296.9 90.84 298.3 91.18 299.69 91.56 301.09 92.23 302.52 92.57 303.92 91.85 305.31 91.18 306.7 91.18 308.14 91.56 309.54 90.46 310.93 89.07 311.31 88.73 312.7 89.74 314.14 91.18 315.53 92.57 316.93 91.56 318.32 92.23 319.76 92.95 321.15 93.63 322.55 93.29 323.94 93.63 324.66 94.35 326.05 95.36 327.44 95.74 328.88 95.74 330.28 96.08 331.67 96.08 333.06 95.74 333.78 94.35 334.5 94.35 335.89 93.63 337.29 93.29 338.68 91.85 339.4 91.56 340.79 91.85 342.19 92.57 343.62 93.29 345.02 92.57 346.41 92.23 347.81 91.18 349.24 90.12 350.64 90.12 352.03 90.46 353.42 90.84 354.86 90.12 356.25 90.12 357.65 90.84 359.04 91.56 360.48 92.23 361.87 92.57 363.27 92.95 364.66 91.56 366.1 90.12 367.11 90.12 368.5 90.12 369.9 89.74 371.33 89.45 372.73 89.07 374.12 89.07 375.52 89.07 376.95 89.07 378.35 89.07 379.74 89.07 381.13 89.07 382.57 89.45 383.96 90.12 385.36 90.84 386.75 91.56 388.19 91.56 389.58 91.18 390.98 90.12 392.08 90.12 393.47 90.46 394.86 91.85 395.92 92.57 397.31 92.57 398.71 92.57 400.1 92.95 401.54 93.29 402.93 93.29 404.33 94.68 405.04 96.08 404.33 97.47 405.04 98.19 406.44 96.8 407.49 95.06 407.83 93.63 407.83 92.23 408.21 93.63 409.23 95.06 409.94 96.46 410.66 96.8 412.06 95.36 413.45 95.06 414.84 95.06 416.28 94.68 418.05 95.36 418.31 95.36 419.74 96.46 421.14 96.08 422.53 95.36 423.93 95.06 425.36 95.06 426.76 94.35 428.15 93.97 429.54 93.97 430.98 93.97 432.37 95.06 433.77 95.06 435.16 94.35 436.6 93.29 437.99 92.57 439.39 92.23 440.78 91.85 442.22 91.85 443.61 91.85 445 91.56 446.4 92.57 447.79 93.63 449.23 95.06 449.52 96.46 448.85 97.85 447.79 98.57 449.23 98.57 450.62 98.19 452.02 98.57 453.41 99.25 454.85 99.58 456.24 99.96 457.63 101.36 458.35 102.79 458.35 104.19 457.97 105.58 457.63 106.98 457.63 108.41 457.63 109.81 457.63 111.54 457.63 112.21 459.03 111.2 460.46 109.81 460.46 108.41 460.76 106.98 461.86 106.3 463.25 106.6 464.65 106.6 466.08 106.6 467.48 106.6 468.87 106.3 470.27 104.86 470.27 103.47 469.59 102.08 468.87 100.98 467.48 102.41 466.38 103.81 466.76 105.2 464.65 105.58 463.25 105.2 461.86 103.81 462.2 103.47 463.59 102.79 464.99 100.98 464.99 99.96 466.38 99.96 468.2 98.57 467.48 98.19 466.08 98.91 464.65 98.91 463.25 99.58 461.86 98.19 461.14 97.85 462.58 98.19 463.97 97.18 465.37 95.74 465.37 96.08 463.97 96.08 462.58 94.68 462.58 94.35 461.14 95.74 460.08 95.36 458.69 93.63 457.97 92.95 456.58 92.95 455.14 91.85 453.75 91.18 452.02 91.56 450.62 90.12 449.23 89.74 447.79 88.35 446.74 88.01 445.34 88.35 443.95 88.35 442.51 88.01 441.12 87.67 439.73 87.33 438.33 86.62 436.6 86.62 435.16 85.22 434.11 85.56 432.71 85.94 431.28 84.5 429.54 84.5 428.15 84.12 426.76 85.56 426.04 85.56 424.64 84.84 423.25 83.45 422.87 82.73 424.26 81.33 423.93 79.94 422.53 79.22 423.93 79.6 425.36 78.21 425.66 77.49 424.26 77.49 422.87 78.5 421.48 79.22 420.04 79.22 418.65 79.22 417.25 80.62 416.91 82.05 416.91 83.45 417.63 83.45 419.03 83.11 420.42 84.5 420.42 85.94 421.14 86.24 419.74 86.24 418.31 85.56 416.91 86.62 415.52 85.94 414.13 86.24 412.69 86.62 411.3 87.67 409.9 89.07 409.18 89.45 407.79 89.45 406.4 88.01 405.3 86.62 405 86.24 403.56 86.24 402.17 86.24 400.4 85.56 399 85.94 397.57 86.62 396.17 86.24 394.78 86.95 393.38 86.62 391.95 85.56 390.56 86.95 391.27 87.67 389.88 86.24 389.16 86.24 387.77 86.62 386.33 85.22 385.32 83.83 386.04 83.45 387.43 82.05 387.77 80.32 387.77 79.6 386.33 78.21 385.32 78.21 383.92 78.21 382.53 78.5 381.09 78.5 379.7 78.21 378.31 78.21 376.91 78.21 375.09 78.5 373.7 79.22 372.31 79.22 370.91 79.6 369.52 79.22 368.08 78.5 366.69 77.83 365.29 77.49 363.9 77.49 362.46 77.49 361.07 77.49 359.68 77.11 358.28 76.44 356.85 76.77 354.73 78.21 353.34 78.89 351.95 79.6 350.55 79.94 349.12 79.94 347.72 79.6 346.33 79.6 344.93 80.62 343.5 81 342.1 81.33 340.71 82.05 338.98 82.73 337.58 82.73 336.15 82.73 334.75 83.11 333.36 83.11 331.96 83.11 330.57 83.83 329.13 84.5 327.74 83.83 326.35 83.45 324.95 83.83 323.52 84.84 322.12 84.12 320.73 83.83 319.33 84.12 317.9 84.12 316.5 83.83 315.11 82.39 313.72 82.05 310.89 81.72 309.49 81.33 308.1 81.33 306.28 81.72 304.89 82.39 303.49 82.73 302.1 81.72 300.66 82.39 299.27 82.39 297.88 82.05 296.48 81.72 295.09 81.72 293.65 82.05 292.26 82.39 290.86 82.39 289.47 82.73 288.03 82.73 286.64 82.73 285.25 83.45 283.85 83.83 282.42 83.83 280.68 84.5 278.91 85.22 277.51 85.22 276.12 84.12 274.69 83.45 272.95 83.83 271.18 84.5 269.79 84.84 268.39 84.5 267 84.5 265.56 84.5 264.17 84.84 262.77 84.84 261.38 84.84 259.65 85.22 258.21 85.22 256.82 84.84 255.42 83.83 254.03 83.83 252.59 85.22 251.2 85.22 249.8 85.56 248.41 85.94 246.97 85.94 245.58 85.94 244.19 86.24 242.79 85.94 241.02 85.56 239.58 84.5 238.19 84.5 236.79 84.5 235.06 84.5 233.29 84.5 231.85 84.5 230.46 84.84 228.73 84.5 226.95 84.12 225.56 83.11 224.16 82.73 222.73 82.39 221 82.73 219.6 82.69 218.93 84.08 218.54 85.52 218.21 86.91 217.49 87.59 216.09 87.25 214.7 88.31 213.31"/><polyline id="polyline32" class="cls-1" points="79.22 388.82 79.22 390.22 79.22 391.65 79.22 393.05 79.22 394.44 78.5 395.83 78.5 397.27 78.5 398.67 78.89 400.06 80.32 399.68 81.72 399.68 82.39 398.29 82.39 396.89 82.39 395.5 81 394.44 81.33 393.05 82.39 391.65 82.05 390.22 81.72 388.82 80.32 389.16 79.22 388.82"/><polyline id="polyline34" class="cls-1" points="118.21 473.81 116.82 474.11 115.42 475.21 114.33 473.81 112.93 473.81 111.54 473.43 110.14 472.72 108.71 473.81 106.98 474.49 105.58 474.11 104.19 475.21 105.58 475.55 106.98 474.83 107.31 476.22 108.71 476.22 110.14 477.32 110.48 475.88 111.92 475.55 113.31 475.55 114.71 476.22 116.1 476.94 118.17 475.88 118.21 473.81"/><polyline id="polyline36" class="cls-1" points="98.57 468.87 97.47 470.27 97.85 471.7 99.25 471.7 100.68 472 101.7 470.6 100.3 469.21 98.57 468.87"/><polyline id="polyline38" class="cls-1" points="113.65 460.08 112.59 461.48 112.59 462.87 110.82 462.87 109.43 462.2 108.71 463.59 108.71 464.99 109.09 466.38 110.48 467.1 111.92 466.08 112.59 467.48 111.2 468.2 110.82 469.59 111.2 470.98 112.59 472 114.03 472.38 115.42 472.38 116.82 473.1 118.21 473.1 118.21 471.32 117.88 469.21 117.54 466.76 117.16 465.37 117.16 463.25 117.16 461.86 117.16 460.46 115.76 461.48 114.33 461.14 113.65 460.08"/><polyline id="polyline40" class="cls-1" points="96.46 468.2 95.36 466.76 93.97 466.08 92.57 466.08 91.18 465.37 89.74 464.31 89.74 465.7 90.84 467.1 92.23 467.48 93.63 467.48 95.06 467.48 96.46 468.2"/><polyline id="polyline42" class="cls-1" points="84.5 436.6 83.11 437.27 81.72 437.27 82.05 438.67 82.73 440.11 81.33 441.12 81.72 442.51 82.39 443.95 83.83 443.23 84.84 444.63 85.56 446.02 86.95 446.4 86.95 444.63 86.62 443.23 86.24 441.84 85.56 440.11 85.56 438.67 84.5 436.6"/><polyline id="polyline44" class="cls-1" points="119.65 475.88 120.33 477.32 121.72 478.33 123.16 478.71 124.55 477.62 124.17 476.22 122.78 475.88 119.65 475.88"/><polyline id="polyline46" class="cls-1" points="118.93 477.62 117.54 477.45 116.1 477.45 114.71 478 114.03 479.43 115.42 480.45 116.82 479.43 118.21 479.43 119.65 479.73 120.33 478.33 118.93 477.62"/><polyline id="polyline48" class="cls-1" points="188.46 269.07 189.85 268.39 191.25 268.77 192.31 270.17 192.31 271.56 192.98 272.95 192.98 274.39 192.98 275.78 192.69 277.18 192.69 278.57 191.59 280.01 190.19 281.02 188.8 281.02 187.36 281.74 185.97 282.8 184.57 283.51 183.86 284.91 182.46 285.63 181.07 285.92 179.68 286.64 178.24 288.03 177.56 289.47 176.51 290.86 175.11 292.26 174.06 293.65 172.62 295.09 171.61 296.48 170.51 297.88 169.5 299.27 168.44 300.66 167.38 302.1 166.71 303.49 166.33 304.89 165.99 306.28 165.61 307.72 165.27 309.11 165.27 310.51 164.59 311.9 164.21 313.34 163.88 314.73 163.88 316.12 163.5 317.52 163.5 318.95 163.5 320.35 163.16 321.74 162.1 323.14 161.76 324.57 161.38 325.97 161.38 327.36 161.76 328.75 162.1 330.19 162.1 331.58 162.48 332.98 163.88 333.7 165.27 334.37 166.71 335.09 168.1 335.81 169.5 336.49 170.51 337.88 170.21 339.31 169.11 340.71 169.11 342.1 170.51 343.5 171.94 344.6 172.62 345.99 172.62 347.38 172.32 348.82 171.61 350.21 170.89 351.61 169.5 353 168.44 354.44 167.72 355.83 167 357.23 165.99 358.62 164.59 358.62 163.16 358.96 161.38 360.06 159.99 360.35 158.6 360.73 157.2 361.45 155.77 362.17 154.37 362.17 152.6 362.84 151.2 363.18 149.85 363.56 148.42 363.56 147.02 364.58 145.63 363.56 144.23 364.24 142.8 363.18 141.02 362.17 140.35 363.56 140.69 364.96 142.12 365.97 142.42 367.41 142.12 368.8 140.69 369.86 140.69 371.29 140.35 372.69 140.01 374.08 141.02 375.47 141.4 376.91 140.01 378.31 138.24 378.98 136.8 378.98 135.41 378.98 134.01 379.7 132.62 379.7 131.18 378.31 129.79 377.59 128.39 377.21 127 376.91 126.28 378.31 125.94 379.7 126.28 381.09 127 382.53 127 383.92 127 385.32 128.39 386.33 129.79 386.71 131.18 387.77 132.62 386.71 134.01 386.04 134.39 387.43 134.73 388.82 135.07 390.22 133.67 390.94 132.28 390.94 131.56 389.54 130.17 389.54 128.77 389.54 127.38 390.22 127.67 391.65 129.11 392.33 130.5 392.33 130.5 393.76 129.11 394.06 127.67 394.78 126.28 395.83 126.28 397.27 126.28 398.67 126.66 400.06 127 401.45 127.67 402.89 127 404.28 125.56 404.62 125.56 406.01 125.56 407.41 124.17 407.79 122.78 407.41 121.38 407.41 120.66 408.8 119.27 409.18 117.88 410.24 117.16 411.63 116.82 413.03 116.44 414.42 116.44 415.86 116.82 417.25 117.16 418.65 118.55 419.74 119.94 420.42 121.38 421.81 122.78 422.15 124.17 421.81 125.56 421.14 126.66 422.53 127 423.93 127 425.36 125.94 426.76 125.94 428.15 124.55 429.54 123.16 430.26 121.72 431.28 120.33 432.71 118.93 434.11 118.21 435.5 117.16 436.89 118.55 436.89 118.93 438.33 117.88 439.73 117.16 441.12 117.16 442.51 115.76 442.89 114.33 441.5 113.65 442.89 114.33 444.29 113.65 445.72 112.93 447.12 110.82 450.62 112.21 450.24 113.31 451.64 113.65 453.07 113.65 454.85 115.05 455.52 116.44 456.24 117.54 457.63 116.82 459.03 115.42 459.03 113.65 458.35 112.21 459.03 111.54 457.63 109.81 457.63 108.41 457.63 106.98 457.63 105.58 457.63 104.19 457.97 102.79 458.35 101.36 458.35 99.96 457.63 99.58 456.24 99.25 454.85 98.57 453.41 98.19 452.02 98.57 450.62 98.57 449.23 97.85 447.79 96.46 448.85 95.06 449.52 93.63 449.23 92.57 447.79 91.56 446.4 91.85 445 91.85 443.61 91.85 442.22 92.23 440.78 92.57 439.39 93.29 437.99 94.35 436.6 95.06 435.16 95.06 433.77 93.97 432.37 93.97 430.98 93.97 429.54 94.35 428.15 95.06 426.76 95.06 425.36 95.36 423.93 96.08 422.53 96.46 421.14 95.36 419.74 95.36 418.31 94.68 418.05 95.06 416.28 95.06 414.84 95.36 413.45 96.8 412.06 96.46 410.66 95.06 409.94 93.63 409.23 92.23 408.21 93.63 407.83 95.06 407.83 96.8 407.49 98.19 406.44 97.47 405.04 96.08 404.33 94.68 405.04 93.29 404.33 93.29 402.93 92.95 401.54 92.57 400.1 92.57 398.71 92.57 397.31 91.85 395.92 90.46 394.86 90.12 393.47 90.12 392.08 91.18 390.98 91.56 389.58 91.56 388.19 90.84 386.75 90.12 385.36 89.45 383.96 89.07 382.57 89.07 381.13 89.07 379.74 89.07 378.35 89.07 376.95 89.07 375.52 89.07 374.12 89.45 372.73 89.74 371.33 90.12 369.9 90.12 368.5 90.12 367.11 91.56 366.1 92.95 364.66 92.57 363.27 92.23 361.87 91.56 360.48 90.84 359.04 90.12 357.65 90.12 356.25 90.84 354.86 90.46 353.42 90.12 352.03 90.12 350.64 91.18 349.24 92.23 347.81 92.57 346.41 93.29 345.02 92.57 343.62 91.85 342.19 91.56 340.79 91.85 339.4 93.29 338.68 93.63 337.29 94.35 335.89 94.35 334.5 95.74 333.78 96.08 333.06 96.08 331.67 95.74 330.28 95.74 328.88 95.36 327.44 94.35 326.05 93.63 324.66 93.29 323.94 93.63 322.55 92.95 321.15 92.23 319.76 91.56 318.32 92.57 316.93 91.18 315.53 89.74 314.14 88.73 312.7 89.07 311.31 90.46 310.93 91.56 309.54 91.18 308.14 91.18 306.7 91.85 305.31 92.57 303.92 92.23 302.52 91.56 301.09 91.18 299.69 90.84 298.3 91.56 296.9 92.23 295.47 92.57 294.07 92.95 292.34 93.29 290.95 93.97 289.55 94.68 288.16 95.06 286.72 95.74 285.33 96.8 283.94 98.19 282.54 98.19 281.11 99.58 280.05 99.25 278.66 98.19 277.22 98.19 275.83 98.91 274.43 98.57 273.04 97.85 271.6 97.47 270.21 97.47 268.81 98.57 267.42 98.57 265.98 98.19 264.59 99.25 262.48 105.92 258.25 106.3 251.62 106.3 250.23 105.92 249.51 106.3 248.12 107.69 247.74 109.09 246.72 109.43 245.33 110.82 244.95 111.54 243.51 112.93 243.51 114.33 244.23 115.76 244.95 117.16 245.33 118.55 244.95 119.94 244.61 121.38 244.61 122.78 245.62 122.78 247.06 123.49 248.45 124.89 248.83 124.89 247.4 125.27 246 125.94 244.61 126.66 243.22 128.06 243.22 129.79 243.22 131.56 243.22 133 243.22 134.39 244.23 135.41 244.95 136.8 246 137.9 247.4 138.62 248.83 140.01 249.85 141.4 251.24 142.8 252.68 144.23 253.35 145.63 254.45 147.02 254.45 148.42 255.13 149.85 256.52 151.2 256.52 152.26 257.96 153.65 258.25 155.09 259.35 156.48 260.75 157.88 261.46 159.27 262.14 160.71 262.86 162.1 262.86 163.5 263.19 164.89 263.57 166.33 264.59 167.72 265.69 167.72 267.08 166.71 268.48 165.99 269.87 164.59 271.31 164.21 272.7 163.5 274.43 162.48 275.83 162.1 277.22 161.76 278.66 161.76 280.05 163.16 279.71 164.59 279.71 165.99 280.05 167.38 280.73 168.78 281.11 170.21 281.11 171.61 281.44 173 281.44 174.4 281.44 175.83 281.82 177.22 280.73 178.62 281.11 180.01 281.11 181.45 280.05 182.13 278.66 183.18 277.22 184.57 276.21 185.97 275.49 187.07 274.09 187.07 272.7 186.69 271.31 187.07 269.87 188.46 269.07"/><polyline id="polyline50" class="cls-1" points="118.93 473.43 120.33 474.49 121.72 475.21 123.16 475.21 124.55 475.21 125.94 475.55 127.38 476.22 129.11 475.88 130.5 475.55 131.9 475.21 133.29 474.83 133 473.43 131.56 473.43 130.17 473.1 128.77 473.1 127.67 471.7 126.28 471.32 124.89 470.98 123.49 470.27 122.78 468.87 121.38 468.2 120.33 466.76 119.65 465.37 118.21 465.37 118.55 463.97 118.55 462.58 117.54 461.14 117.16 460.46 117.16 461.86 117.16 463.25 117.16 465.37 117.54 466.76 117.88 469.21 118.21 471.32 118.21 473.1 118.93 473.43"/><polyline id="polyline52" class="cls-1" points="167.38 302.1 166.71 303.49 166.33 304.89 165.99 306.28 165.61 307.72 165.27 309.11 165.27 310.51 164.59 311.9 164.21 313.34 163.88 314.73 163.88 316.12 163.5 317.52 163.5 318.95 163.5 320.35 163.16 321.74 162.1 323.14 162.48 324.95 162.48 326.35 162.82 327.74 163.16 329.13 164.59 330.19 165.99 331.25 167.38 331.25 168.78 330.87 170.21 331.25 171.23 332.64 171.94 334.08 173.34 334.75 174.73 334.75 176.13 334.75 177.56 334.08 178.96 334.37 180.35 334.75 181.75 335.09 183.18 335.47 184.57 335.47 185.97 334.75 187.07 333.36 188.46 332.98 189.85 331.96 190.19 330.57 191.25 329.13 192.69 328.08 192.69 326.69 191.97 325.25 191.25 323.86 191.97 322.46 192.69 321.07 194.08 321.07 194.08 319.63 192.69 318.24 191.59 316.84 190.57 315.45 189.47 314.01 188.08 313 186.69 311.9 185.29 311.22 183.86 310.17 182.46 309.11 181.75 307.72 180.73 306.28 179.34 306.66 177.94 305.99 176.84 304.55 175.45 303.16 174.06 302.1 173.34 300.66 171.94 300.66 170.51 301.38 169.11 301.76 167.38 302.1"/></svg>