<svg id="Capa_1" data-name="Capa 1" xmlns="http://www.w3.org/2000/svg" viewBox="0 0 375.32 553.54"><defs><style>.cls-1{fill:none;stroke:#fff200;stroke-miterlimit:10;stroke-width:0.28px;}</style></defs><title>4</title><polyline id="polyline10" class="cls-1" points="244.54 64.04 246.15 65.3 246.97 66.91 248.58 67.74 248.19 69.34 248.58 70.95 248.58 72.55 249.41 74.21 250.23 75.81 249.8 77.42 250.57 79.02 250.23 80.68 251.01 82.28 252.23 83.89 253.83 83.89 255.44 84.72 257.05 85.89 257.87 87.49 258.31 89.1 256.7 90.36 255.44 91.97 253.83 93.57 252.23 95.23 250.23 96.83 248.58 97.66 247.36 99.27 245.76 100.43 244.54 102.04 244.54 103.69 243.76 105.3 242.5 106.9 240.89 108.51 239.68 110.16 241.33 110.16 245.37 108.95 246.97 108.51 247.8 106.9 247.8 105.3 249.41 104.47 250.57 106.13 251.84 107.73 252.23 106.13 251.01 104.47 251.4 102.86 252.67 101.26 254.27 100.43 255.88 100.43 257.48 100.43 259.14 100.87 260.74 100.87 262.35 100.43 263.95 100.04 265.61 99.27 267.21 99.27 268.82 99.65 271.25 101.26 269.99 102.86 269.65 104.47 269.21 106.13 268.38 107.73 267.21 109.34 265.61 110.94 263.95 111.38 262.35 110.94 260.74 112.21 259.14 112.98 257.48 112.6 255.88 112.21 254.27 112.6 252.67 112.98 251.01 112.98 249.41 112.98 247.8 112.21 245.76 111.77 244.1 112.6 244.1 114.2 246.15 112.98 247.8 113.81 249.41 114.2 251.01 114.64 252.67 114.64 254.27 113.81 255.88 114.2 257.48 114.2 259.14 114.64 260.74 114.64 262.35 113.81 262.74 115.42 264.34 114.2 264.78 112.6 266.39 112.21 267.99 110.94 269.65 110.94 269.99 109.34 271.25 107.73 272.08 106.13 273.25 104.47 274.85 103.69 276.46 104.47 278.11 104.91 279.72 106.13 281.32 106.51 282.93 106.9 284.58 108.17 286.19 108.95 288.23 109.77 290.23 110.6 291.83 110.16 293.49 110.94 295.09 112.21 295.53 113.81 297.14 112.98 298.74 113.38 300.35 114.64 301.56 116.25 301.56 117.85 301.18 119.46 301.56 121.11 301.18 123.11 301.18 124.71 299.96 126.32 301.56 126.75 302.78 125.15 303.17 123.54 303.61 121.89 305.21 121.45 306.43 123.11 308.47 122.72 309.25 121.11 310.08 119.46 311.69 120.28 313.29 121.11 314.94 122.28 316.55 123.11 318.16 123.54 319.76 125.15 321.42 125.54 323.02 124.32 324.63 125.15 326.23 125.93 327.89 127.14 329.49 126.32 331.1 126.75 332.31 128.36 333.92 127.58 335.53 126.75 337.13 126.75 339.18 127.92 340.83 129.19 342.44 129.19 344.04 130.35 345.65 131.62 346.86 133.23 348.08 134.83 349.73 135.66 351.34 136.44 352.12 138.09 353.33 139.7 354.11 141.3 355.77 142.91 357.37 143.74 358.98 144.56 360.63 145.73 362.24 146.56 363.84 148.16 364.28 149.77 366.71 149.38 368.71 150.21 370.31 150.6 371.92 151.03 372.75 152.64 373.57 154.25 373.19 155.85 373.19 157.5 373.96 159.11 374.79 160.72 374.79 162.32 375.18 163.98 375.18 165.58 375.18 167.19 374.79 168.79 374.35 170.45 374.79 172.05 374.79 173.66 373.96 175.26 373.19 176.92 373.19 178.52 372.75 180.13 372.36 181.74 371.58 183.39 370.31 184.95 369.15 186.55 367.49 186.99 365.89 186.99 366.71 188.6 365.89 190.2 364.67 191.86 363.45 193.46 361.85 194.63 360.24 195.89 358.59 195.89 357.37 197.5 355.77 198.67 354.94 200.32 354.11 201.93 353.33 203.58 352.51 205.19 349.73 207.62 348.47 209.27 346.86 210.05 344.87 209.62 343.26 208.84 342.82 210.44 342.82 212.05 342.44 213.65 341.17 215.31 340 216.91 339.56 218.52 340 220.12 341.61 219.35 341.61 220.95 341.61 222.56 340 223.82 339.18 225.43 340 227.03 340 228.64 340 230.29 340.39 231.9 340.39 233.5 340 235.11 340 236.76 339.18 238.37 338.79 239.98 337.96 241.58 337.57 243.24 336.35 244.84 335.96 246.45 335.53 248.05 335.14 249.71 335.14 251.31 333.92 252.92 332.7 254.52 331.93 256.18 331.49 257.78 331.49 259.39 331.1 261 331.1 262.65 330.66 264.25 329.88 265.86 328.23 266.69 326.62 269.46 325.02 270.73 324.63 272.33 324.63 273.94 323.02 274.33 321.42 275.93 319.76 276.37 319.76 277.98 318.55 279.63 317.38 281.24 317.38 282.84 317.38 284.45 317.38 286.1 315.72 287.71 314.12 288.53 312.51 288.87 310.91 290.14 310.91 291.75 309.25 292.57 307.65 292.13 306.04 292.13 304.44 292.13 302.78 292.13 301.18 291.75 299.57 292.13 297.96 292.57 296.31 291.31 294.7 291.75 293.1 292.57 291.49 292.57 289.84 293.74 288.23 295 286.63 295.35 285.02 296.61 284.19 298.22 282.59 298.22 280.16 298.22 278.55 299.04 276.9 299.82 275.29 299.82 273.69 300.21 272.08 301.04 270.43 302.25 269.21 303.86 267.6 305.08 265.95 306.29 264.78 307.9 263.95 309.55 262.35 310.33 260.74 309.89 259.48 311.55 259.48 313.15 259.14 314.76 258.7 316.36 258.7 318.02 259.14 319.62 259.48 321.23 259.14 324.05 259.14 325.66 257.48 325.66 257.48 327.26 257.48 328.92 258.31 330.52 259.14 333.39 258.31 335 257.05 336.61 255.44 336.99 252.23 337.43 251.01 339.04 249.8 340.64 248.19 341.91 247.8 343.51 246.97 345.12 246.15 346.73 245.37 348.38 244.93 349.99 244.1 351.59 243.76 353.2 242.94 354.85 241.33 356.46 239.68 357.62 238.46 359.23 236.85 360.45 235.2 361.66 233.59 362.49 232.81 360.88 234.42 360.45 236.03 359.23 237.29 357.62 237.29 356.02 238.46 354.41 240.06 353.58 240.89 351.98 241.33 349.99 241.33 348.38 239.68 348.38 238.07 347.55 238.07 349.16 238.46 350.76 238.07 352.42 236.47 353.58 236.03 355.19 234.42 356.46 233.21 358.06 231.6 359.62 230.38 361.22 230.38 362.88 230.38 364.48 230.38 366.09 230.38 367.69 229.56 369.35 229.17 370.95 228.39 372.56 227.12 374.17 225.52 374.99 223.91 375.43 222.26 374.99 221.92 373.39 222.69 371.78 224.35 370.13 225.96 368.96 227.56 367.36 227.95 365.7 227.95 364.1 226.34 364.48 225.13 366.09 223.91 367.69 223.52 368.13 221.92 366.53 220.65 364.92 219.48 363.32 218.22 361.66 216.61 360.49 215.01 359.23 213.4 358.45 211.75 357.24 210.14 356.02 209.31 354.41 208.15 352.76 206.54 353.2 204.94 352.42 203.67 350.76 202.06 349.16 200.46 347.94 199.63 346.29 198.03 346.29 196.37 347.11 194.77 347.55 192.77 347.94 193.99 346.29 195.21 344.68 196.37 343.08 197.64 341.47 198.81 339.87 200.46 338.21 201.68 336.61 203.28 335 204.5 333.39 205.28 331.74 206.93 330.13 208.54 329.31 210.14 328.97 211.75 328.14 212.57 326.53 214.18 325.71 215.79 324.49 217.44 323.66 219.05 323.66 220.65 322.5 221.92 320.84 221.92 319.24 222.26 317.63 222.26 316.02 222.26 314.37 221.48 312.76 221.48 311.16 220.26 309.55 218.66 309.12 217.05 309.89 215.45 310.82 216.22 309.21 216.22 307.61 216.22 306 216.22 304.35 216.22 302.74 216.22 300.7 217.05 299.09 217.44 297.44 217.05 295.83 215.45 295.44 213.4 295.44 211.75 295.05 210.14 293.84 209.75 292.23 209.31 290.63 209.75 289.02 208.97 287.37 208.54 285.76 208.97 284.15 208.15 282.55 206.54 281.72 204.94 280.89 203.28 280.12 201.68 280.12 200.07 280.46 198.47 280.46 196.81 280.46 195.21 281.28 193.6 280.89 191.56 280.12 191.99 278.46 192.33 276.86 192.33 275.25 191.56 273.64 192.33 271.99 192.33 270.38 191.56 268.78 191.56 267.17 191.56 265.52 190.73 264.3 192.77 261.87 190.34 259.88 190.73 258.27 191.56 256.66 191.99 255.01 192.33 253.4 193.16 251.8 193.6 250.19 194.38 248.54 195.21 246.93 193.99 245.33 192.77 243.72 191.17 242.46 189.56 240.85 187.91 240.02 187.52 238.42 186.69 236.81 187.13 235.21 187.91 233.55 188.73 231.95 188.3 231.56 173.75 230.78 171.31 222.26 172.92 222.26 173.75 220.61 173.75 219 172.58 217.4 173.36 215.79 173.36 214.14 172.14 212.53 170.49 211.71 168.88 211.37 167.28 210.54 165.67 209.71 164.02 209.71 162.41 210.1 160.81 210.1 159.2 208.93 157.55 207.33 155.94 207.33 154.34 206.89 152.73 206.06 151.07 204.9 149.91 203.24 148.3 203.24 146.7 202.46 145.04 202.02 143.44 202.02 141.83 202.02 140.18 201.2 138.96 199.59 137.35 198.42 135.75 197.6 134.09 195.99 132.49 194.73 132.1 193.12 132.49 191.51 132.49 189.91 132.1 188.25 131.32 186.65 130.49 185.04 131.32 183.44 132.1 181.78 132.1 180.18 131.32 178.57 129.67 179.01 128.06 179.01 126.45 179.4 124.85 179.4 123.19 179.79 121.59 181 120.37 182.61 118.72 183.88 117.11 184.22 115.51 185.04 114.29 186.65 112.69 187.48 111.08 187.91 109.81 189.52 108.65 191.13 107.04 191.13 105.44 190.35 103.78 189.91 102.18 190.35 100.57 190.69 99.26 191.03 97.21 190.64 95.61 191.47 94 192.25 92.35 192.25 90.74 191.86 89.92 190.2 90.35 188.6 90.35 182.56 89.92 180.96 89.92 179.3 88.36 178.91 86.75 180.13 85.15 180.96 83.54 182.13 82.28 183.73 80.67 184.17 79.06 184.56 77.41 184.56 76.24 182.95 74.64 181.3 72.93 180.13 71.33 179.69 69.72 180.13 68.12 180.13 68.51 178.52 68.12 176.48 67.29 174.83 65.69 173.22 64.47 171.62 64.03 170.01 63.69 168.4 62.04 167.19 61.26 165.58 62.04 163.98 62.42 162.32 62.86 160.72 63.25 159.11 64.03 157.5 66.12 156.68 67.73 155.07 67.29 153.47 66.9 151.81 66.9 150.21 67.73 148.6 68.9 147 69.72 145.34 70.5 143.74 71.77 142.13 72.93 140.52 74.64 139.7 76.24 138.87 77.85 138.43 79.84 138.43 81.45 138.43 83.1 136.83 84.71 136.05 86.75 135.22 88.36 135.22 89.92 136.05 91.57 135.22 93.17 135.22 93.61 134.39 95.61 123.11 96.39 112.98 96.39 112.21 96.82 110.6 96.82 108.95 95.61 107.34 94.39 105.74 93.17 104.13 91.57 103.74 91.57 102.14 91.57 100.48 91.57 98.88 91.57 97.27 92.01 95.66 93.61 95.66 95.22 94.4 96.82 95.66 98.48 94.84 98.04 93.23 96.39 91.53 94.78 90.75 93.17 91.19 92.79 85.89 94.39 85.89 96.39 85.89 98.04 85.89 99.65 85.89 101.25 85.89 102.86 85.89 104.95 86.32 106.56 85.06 106.56 83.45 108.55 83.89 110.16 83.06 111.76 82.67 113.42 82.67 114.19 83.45 115.02 85.06 115.85 86.71 117.45 88.32 118.67 89.92 120.33 90.75 120.67 92.36 122.32 92.79 123.92 93.57 125.53 94.4 127.14 94.4 128.79 93.23 129.57 91.53 131.18 92.79 132.44 90.75 133.27 89.1 134.87 87.93 136.48 86.71 138.08 85.89 138.91 84.28 140.52 82.67 142.12 82.28 143.78 81.85 145.38 81.02 144.94 79.41 143.34 79.02 141.73 79.02 140.08 79.02 138.47 78.25 138.47 76.59 138.91 74.99 138.08 73.38 138.08 71.78 137.65 69.73 136.48 68.08 134.87 67.3 133.27 66.08 133.27 64.48 134.87 64.48 136.48 64.86 138.08 64.48 139.74 65.3 141.34 65.64 142.95 66.47 144.56 66.91 146.21 67.74 147.81 68.08 149.42 66.91 150.59 65.3 152.24 65.3 153.85 65.3 155.45 64.48 157.06 64.48 158.71 64.04 160.32 63.26 161.93 62.04 163.53 62.04 165.62 60.83 167.62 60 168.83 58.39 168.1 56.69 169.66 55.96 171.27 55.13 172.87 55.13 174.48 55.96 174.48 58.83 172.87 60 172.87 61.61 174.09 63.26 175.31 64.86 175.69 66.47 175.31 68.08 174.87 69.73 174.48 71.34 174.48 72.94 174.48 74.55 174.48 76.2 174.48 77.81 175.31 79.41 175.69 81.02 176.13 82.67 176.91 84.28 178.56 85.06 180.17 85.5 182.16 86.71 183.82 87.1 185.43 87.1 187.08 86.32 188.69 85.5 190.29 84.77 193.11 84.77 194.72 84.77 196.32 83.06 197.98 82.28 199.58 82.28 201.63 81.85 202.02 82.28 203.62 82.28 205.23 83.45 207.27 83.06 208.93 81.85 208.93 80.24 207.27 79.02 207.66 77.42 209.27 77.81 210.92 78.25 212.53 77.81 214.13 76.98 215.74 76.98 216.56 78.59 218.17 78.59 219.05 79.9 220.65 80.29 222.69 81.07 224.35 80.29 225.96 79.07 227.56 79.46 229.17 79.07 230.82 79.9 232.43 80.29 234.03 79.07 238.07 73.82 238.9 72.21 240.06 70.56 241.33 68.56 242.5 66.96 243.76 65.35 243.32 63.75 244.54 64.04"/><polyline id="polyline12" class="cls-1" points="74.2 7.45 75.81 6.63 77.41 5.8 79.06 5.8 80.67 4.63 81.45 3.02 81.11 1.37 79.45 0.15 77.85 0.59 76.24 1.37 74.2 3.02 72.93 4.63 71.77 6.24 70.16 6.63 68.51 7.45 66.9 8.23 65.34 9.93 63.69 10.71 62.04 10.71 60.43 10.71 58.39 10.71 56.78 11.1 55.56 12.71 54.35 14.31 52.74 15.97 51.53 14.31 49.92 13.92 48.31 14.7 47.05 16.31 46.27 17.96 45.44 19.57 44.62 21.17 44.28 22.78 44.28 24.43 44.28 26.04 42.62 26.04 41.02 26.48 40.24 28.08 39.41 29.69 38.15 31.34 36.54 32.12 34.94 33.34 34.55 34.94 35.37 36.55 35.37 38.2 35.37 39.86 33.77 39.86 33.77 38.2 32.5 36.55 31.33 34.94 29.68 34.94 30.07 36.55 30.07 38.2 29.68 39.86 28.9 41.46 28.07 43.07 26.47 42.63 26.03 44.24 26.03 45.89 27.3 47.5 27.64 49.1 29.29 49.49 29.68 51.1 29.29 53.14 29.68 54.79 30.51 56.4 29.68 58.01 28.9 59.61 29.68 61.27 29.68 62.87 29.68 64.48 29.68 66.08 29.68 67.74 29.29 69.34 29.29 70.95 30.07 72.55 31.68 72.55 31.68 74.21 30.07 75.38 28.9 76.98 27.64 78.59 27.3 80.24 26.86 81.85 26.47 83.45 24.86 83.89 23.21 83.89 21.6 84.77 20 84.28 19.61 85.89 19.61 87.49 20.43 89.1 20.82 90.75 19.17 91.53 17.57 91.53 17.13 93.23 18.39 96 17.13 93.57 20 96.44 21.6 98.05 23.21 98.44 24.86 98.88 26.47 99.27 28.07 98.88 29.68 100.04 31.33 101.7 32.94 102.48 34.55 102.48 36.15 103.3 37.8 102.48 38.15 100.87 39.8 101.7 41.41 102.48 43.01 102.91 44.62 104.13 46.27 104.52 48.7 104.52 50.31 104.91 51.91 105.74 53.52 106.95 55.17 107.78 55.95 109.34 57.22 110.94 58.82 111.38 60.43 112.21 62.04 112.6 62.86 114.2 64.47 115.42 66.12 116.25 65.69 117.85 66.46 119.46 65.69 121.11 67.29 121.45 68.12 123.11 70.16 121.89 71.77 122.28 73.37 121.45 74.98 120.67 76.63 119.85 78.24 119.46 79.84 119.85 81.45 121.45 83.1 120.67 84.32 119.07 85.92 119.07 87.58 119.46 89.14 119.46 90.74 120.28 91.18 121.89 93.17 122.28 85.54 131.96 88.75 130.35 90.35 129.58 91.18 130.35 91.18 131.96 93.61 134.39 95.61 123.11 96.39 112.98 96.39 112.21 96.82 110.6 96.82 108.95 95.61 107.34 94.39 105.74 93.17 104.13 91.57 103.74 91.57 102.14 91.57 100.48 91.57 98.88 91.57 97.27 92.01 95.66 93.61 95.66 95.22 94.4 96.82 95.66 98.48 94.84 98.04 93.23 96.39 91.53 94.78 90.75 93.17 91.19 92.79 85.89 94.39 85.89 96.39 85.89 98.04 85.89 99.65 85.89 101.25 85.89 102.86 85.89 104.95 86.32 106.56 85.06 106.56 83.45 108.55 83.89 110.16 83.06 111.76 82.67 113.42 82.67 113.42 81.02 112.59 79.41 111.42 77.81 110.16 76.2 111.42 74.55 112.59 72.94 113.03 71.34 112.59 69.73 111.42 68.08 110.59 66.47 109.77 64.86 109.33 63.26 109.33 61.61 109.33 60 109.33 58.39 109.33 56.79 110.16 55.13 111.76 53.53 111.42 51.92 111.76 50.32 111.42 48.66 109.77 48.32 108.16 49.1 106.56 49.49 104.12 49.49 102.52 49.1 100.86 48.66 99.26 49.1 97.65 49.93 96.05 49.93 94.78 48.32 93.17 47.06 91.57 45.45 89.92 44.67 88.36 44.24 86.75 43.46 85.15 43.07 83.54 42.63 81.45 42.63 79.84 42.63 78.24 42.24 76.63 42.63 74.98 43.46 73.37 43.46 72.59 41.85 70.94 40.63 70.5 39.03 70.94 37.42 70.94 35.72 70.5 34.12 69.72 32.51 68.51 30.9 68.12 29.25 67.29 27.64 67.29 26.04 65.69 26.04 64.47 27.64 62.86 27.64 64.03 25.65 65.34 24.04 65.69 22.44 65.34 20.39 65.69 18.74 66.46 17.14 67.29 15.53 68.12 13.92 69.72 12.32 70.5 10.71 72.16 9.93 73.81 9.06 74.2 7.45"/><polyline id="polyline14" class="cls-1" points="113.37 82.58 113.37 80.97 112.54 79.36 111.37 77.76 110.11 76.11 111.37 74.5 112.54 72.89 112.98 71.29 112.54 69.63 111.37 68.03 110.55 66.42 109.72 64.82 109.28 63.16 109.28 61.56 109.28 59.95 109.28 58.35 109.28 56.69 110.11 55.09 111.71 53.48 111.37 51.88 111.71 50.22 111.37 48.62 109.72 48.23 108.11 49.05 106.51 49.44 104.07 49.44 102.47 49.05 100.81 48.62 99.21 49.05 97.6 49.88 96 49.88 94.73 48.23 93.13 47.01 91.52 45.4 89.87 44.63 88.31 44.19 86.7 43.41 85.1 43.02 83.44 42.58 81.4 42.58 79.8 42.58 78.19 42.19 76.58 42.58 74.93 43.41 73.32 43.41 72.5 41.8 70.89 40.59 70.45 38.98 70.89 37.38 70.89 35.67 70.45 34.07 69.67 32.46 68.46 30.86 68.02 29.2 67.24 27.6 67.24 25.99 65.64 25.99 64.42 27.6 62.81 27.6 63.98 25.6 65.34 24 65.64 22.39 65.34 20.3 65.64 18.69 66.42 17.09 67.24 15.48 68.02 13.83 69.67 12.27 70.45 10.66 72.11 9.84 73.76 9.01 74.15 7.36 75.76 6.58 77.36 5.75 78.97 5.75 78.68 6.63 77.07 7.45 75.81 9.06 74.64 10.71 75.81 12.32 76.63 13.92 77.41 15.53 77.41 17.14 75.81 18.74 74.64 20.39 73.81 22 74.98 23.61 75.81 25.21 76.63 26.87 78.24 27.64 79.84 26.87 81.45 26.04 82.28 24.43 82.28 22.78 81.89 21.17 81.11 19.57 79.45 18.74 79.45 17.14 79.06 15.53 79.06 13.92 79.45 12.32 81.11 11.93 82.71 10.27 84.32 9.93 85.92 9.5 87.58 9.06 89.14 9.06 90.35 7.45 91.57 5.8 89.92 5.02 88.36 3.37 89.92 1.76 91.57 2.2 92.01 3.8 93.17 5.46 94 7.06 95.61 7.84 97.21 7.45 98.82 7.45 100.47 8.23 102.08 9.06 103.69 10.27 104.95 11.93 106.56 13.53 108.16 13.92 109.77 14.31 111.42 14.31 113.03 14.31 114.63 14.31 116.24 14.31 117.89 13.53 119.5 13.92 121.1 13.92 122.71 13.92 124.36 15.14 125.97 15.53 127.57 15.97 129.18 16.31 130.83 16.31 132.44 16.75 134.04 16.75 135.65 16.31 137.31 16.31 138.91 14.7 140.52 14.7 142.12 14.7 140.52 13.53 138.91 13.14 140.52 12.32 142.12 12.32 143.78 12.32 145.38 12.71 146.99 12.32 148.59 11.93 151.85 11.54 153.46 11.54 155.06 11.54 156.72 12.32 158.32 11.93 157.06 13.53 155.45 14.31 153.85 13.53 152.24 13.14 150.59 13.14 151.41 14.7 152.68 16.31 154.29 17.57 155.89 17.57 157.5 18.4 159.15 18.74 160.76 19.18 162.36 18.74 163.97 19.57 165.62 20.39 167.23 20.78 168.1 22.44 168.4 24.04 168.4 25.65 166.79 26.87 166.4 28.47 168.1 28.47 169.66 28.08 171.27 28.08 172.87 27.64 174.48 28.08 175.31 29.69 175.31 31.34 173.7 32.95 172.09 33.73 170.44 34.12 168.83 35.72 168.83 37.42 168.83 39.03 170.44 40.2 171.27 41.85 169.66 43.07 168.1 43.07 166.4 43.07 164.79 43.07 163.53 44.67 163.53 46.23 163.19 47.88 162.75 49.49 162.75 51.1 164.36 52.36 165.96 53.53 167.23 55.13 168.1 56.79 168.83 58.39 167.62 60 165.62 60.83 163.53 62.04 161.93 62.04 160.32 63.26 158.71 64.04 157.06 64.48 155.45 64.48 153.85 65.3 152.24 65.3 150.59 65.3 149.42 66.91 147.81 68.08 146.21 67.74 144.56 66.91 142.95 66.47 141.34 65.64 139.74 65.3 138.08 64.48 136.48 64.86 134.87 64.48 133.27 64.48 133.27 66.08 134.87 67.3 136.48 68.08 137.65 69.73 138.08 71.78 138.08 73.38 138.91 74.99 138.47 76.59 138.47 78.25 140.08 79.02 141.73 79.02 143.34 79.02 144.94 79.41 145.38 81.02 143.78 81.85 142.12 82.28 140.52 82.67 138.91 84.28 138.08 85.89 136.48 86.71 134.87 87.93 133.27 89.1 132.44 90.75 131.18 92.79 129.57 91.53 128.79 93.23 127.14 94.4 125.53 94.4 123.92 93.57 122.32 92.79 120.67 92.36 120.33 90.75 118.67 89.92 117.45 88.32 115.85 86.71 115.02 85.06 114.19 83.45 113.37 82.58"/><polyline id="polyline16" class="cls-1" points="17.13 93.57 18.39 96 16.74 96.83 15.13 96.83 13.09 97.27 11.48 98.05 9.88 99.7 9.49 101.31 8.66 102.91 9.49 104.52 9.05 106.17 7.88 107.78 6.62 109.34 6.23 110.94 6.23 112.6 5.01 114.2 3.41 115.81 3.02 117.41 3.79 119.07 3.41 120.67 3.41 122.28 3.79 123.88 3.02 125.54 3.02 127.14 4.62 127.92 6.23 128.75 8.22 127.92 10.27 127.58 11.92 127.14 13.53 126.75 13.92 128.36 13.09 129.97 12.26 131.62 10.66 132.4 9.05 133.62 7.88 135.22 6.23 136.83 5.45 138.43 3.79 139.7 2.19 141.3 0.97 142.91 0.58 144.56 0.15 146.17 0.58 147.77 2.19 148.6 4.18 148.6 5.79 148.16 6.62 146.56 8.22 144.9 9.88 144.13 11.48 143.74 13.09 144.9 14.69 144.9 15.96 146.56 17.57 147 19.17 147.34 20 145.73 21.21 144.13 22.04 142.52 22.87 140.87 23.21 138.87 23.65 137.26 24.47 135.66 24.86 134.05 26.47 135.22 27.3 133.62 27.3 131.96 28.46 130.35 30.07 129.58 32.11 128.75 34.11 127.92 35.76 127.14 37.8 126.32 39.8 125.15 41.41 123.88 43.01 122.28 44.28 120.67 45.44 119.07 45.88 117.41 46.71 115.81 47.05 114.2 47.49 112.6 47.49 110.94 49.09 110.6 47.88 108.17 46.27 106.95 47.88 106.17 48.61 104.47 46.27 104.52 44.62 104.13 43.01 102.91 41.41 102.48 39.8 101.7 38.15 100.87 37.8 102.48 36.15 103.3 34.55 102.48 32.94 102.48 31.33 101.7 29.68 100.04 28.07 98.88 26.47 99.27 24.86 98.88 23.21 98.44 21.6 98.05 20 96.44 17.13 93.57"/><polyline id="polyline18" class="cls-1" points="93.56 134.34 91.13 131.91 91.13 130.31 90.3 129.53 88.7 130.31 85.44 131.91 93.13 122.23 91.13 121.84 90.69 120.23 89.09 119.41 87.53 119.41 85.88 118.97 84.27 118.97 83.06 120.62 81.4 121.4 79.8 119.8 78.19 119.41 76.58 119.8 74.93 120.62 73.32 121.4 71.72 122.23 70.11 121.84 68.02 123.06 67.24 121.4 65.64 121.06 66.42 119.41 65.64 117.8 66.03 116.2 64.42 115.37 62.81 114.15 61.99 112.5 60.38 112.16 58.78 111.33 57.17 110.89 55.91 109.29 55.08 107.73 53.47 106.9 51.87 105.69 50.26 104.86 48.61 104.47 47.83 106.13 46.22 106.9 47.83 108.12 49.05 110.5 47.44 110.89 47.44 112.5 47 114.15 46.61 115.76 45.83 117.36 45.4 118.97 44.23 120.62 42.96 122.23 41.36 123.84 39.75 125.1 37.76 126.27 35.66 127.09 34.06 127.87 32.06 128.7 30.02 129.53 28.41 130.31 27.2 131.91 27.2 133.57 26.42 135.17 24.81 133.96 24.43 135.61 23.6 137.22 23.16 138.82 22.82 140.82 21.99 142.42 21.16 144.08 19.95 145.68 19.12 147.29 17.52 146.9 15.91 146.51 14.65 144.85 13.04 144.85 11.43 143.69 9.78 144.08 8.17 144.85 6.57 146.51 5.74 148.12 4.14 148.55 2.14 148.55 1.75 148.99 1.75 150.6 2.58 152.2 4.18 152.2 5.01 153.81 3.79 155.85 2.19 156.68 2.58 158.28 4.18 159.11 5.79 159.5 8.22 159.94 9.88 160.72 11.48 161.54 13.09 163.15 14.35 164.75 15.13 166.41 15.96 168.01 16.35 169.62 18 170.79 19.61 172.05 22.43 174.05 22.87 175.65 23.21 177.26 23.65 178.91 24.47 180.52 25.3 182.13 26.47 183.73 27.3 185.38 28.46 186.99 29.29 189.03 29.68 190.64 30.9 192.25 31.68 193.9 32.11 195.5 33.33 197.11 34.94 198.33 36.54 199.93 37.37 201.54 37.8 203.19 38.97 204.85 40.24 206.45 41.84 208.06 42.62 209.66 43.45 211.66 44.62 213.31 46.27 213.31 47.05 214.92 46.27 216.52 45.44 218.13 45.44 219.78 46.71 221.39 47.05 223 48.7 224.26 50.31 225.04 51.91 225.87 53.52 227.47 55.17 228.3 56.39 229.9 57.56 231.51 59.21 232.34 60.82 232.73 62.42 233.12 64.03 233.94 65.69 234.72 67.29 235.5 68.9 236.33 70.5 237.1 72.16 237.1 73.81 238.37 75.42 239.2 77.07 239.54 78.68 239.54 80.28 240.37 81.89 241.19 83.54 241.97 85.15 243.24 86.75 244.84 87.58 246.45 89.14 247.66 90.74 248.44 92.01 250.05 93.61 251.31 95.22 252.14 96.82 251.7 98.48 251.31 100.08 250.49 100.86 248.88 100.47 247.27 101.69 245.67 101.25 244.01 100.08 242.41 99.65 240.8 100.47 239.2 102.08 238.37 103.69 237.54 105.29 236.76 104.95 235.11 104.51 233.5 102.86 233.94 101.25 232.73 99.65 232.34 98.04 231.51 96.39 230.73 98.04 230.29 99.65 229.9 98.48 228.3 98.82 226.25 100.47 227.03 101.25 228.3 102.08 226.64 102.86 225.43 102.52 223.82 103.3 218.96 105.29 216.96 104.51 212.1 104.51 209.27 106.56 202.37 99.26 191.03 97.21 190.64 95.61 191.47 94 192.25 92.35 192.25 90.74 191.86 89.92 190.2 90.35 188.6 90.35 182.56 89.92 180.96 89.92 179.3 88.36 178.91 86.75 180.13 85.15 180.96 83.54 182.13 82.28 183.73 80.67 184.17 79.06 184.56 77.41 184.56 76.24 182.95 74.64 181.3 72.93 180.13 71.33 179.69 69.72 180.13 68.12 180.13 68.51 178.52 68.12 176.48 67.29 174.83 65.69 173.22 64.47 171.62 64.03 170.01 63.69 168.4 62.04 167.19 61.26 165.58 62.04 163.98 62.42 162.32 62.86 160.72 63.25 159.11 64.03 157.5 66.12 156.68 67.73 155.07 67.29 153.47 66.9 151.81 66.9 150.21 67.73 148.6 68.9 147 69.72 145.34 70.5 143.74 71.77 142.13 72.93 140.52 74.64 139.7 76.24 138.87 77.85 138.43 79.84 138.43 81.45 138.43 83.1 136.83 84.71 136.05 86.75 135.22 88.36 135.22 89.92 136.05 91.57 135.22 93.17 135.22 93.56 134.34"/><polyline id="polyline20" class="cls-1" points="175.69 28.91 177.3 30.08 178.91 30.08 180.56 30.08 182.16 31.34 182.16 32.95 182.94 34.55 184.65 36.16 186.25 37.81 186.64 39.42 186.64 41.02 186.25 42.63 185.81 44.24 185.81 45.89 187.08 44.24 187.86 42.63 189.51 42.63 191.12 43.46 192.72 44.24 193.89 45.89 195.16 47.5 196.76 48.32 197.15 49.93 197.59 51.53 197.15 53.14 197.15 54.79 196.76 56.4 195.16 57.57 192.72 58.01 192.29 59.61 191.9 61.27 191.12 62.87 191.12 64.48 191.51 66.08 191.9 67.74 193.11 69.34 193.89 70.95 195.55 72.11 197.15 73.77 197.59 75.38 198.37 76.98 199.58 78.59 200.36 80.24 201.63 81.85 199.58 82.28 197.98 82.28 196.32 83.06 194.72 84.77 193.11 84.77 190.29 84.77 188.69 85.5 187.08 86.32 185.43 87.1 183.82 87.1 182.16 86.71 180.17 85.5 178.56 85.06 176.91 84.28 176.13 82.67 175.69 81.02 175.31 79.41 174.48 77.81 174.48 76.2 174.48 74.55 174.48 72.94 174.48 71.34 174.87 69.73 175.31 68.08 175.69 66.47 175.31 64.86 174.09 63.26 172.87 61.61 172.87 60 174.48 58.83 174.48 55.96 172.87 55.13 171.27 55.13 169.66 55.96 168.1 56.69 167.18 55.09 165.91 53.48 164.31 52.31 162.7 51.05 162.7 49.44 163.14 47.84 163.48 46.18 163.48 44.63 164.75 43.02 166.35 43.02 168.1 43.02 169.61 43.02 171.22 41.8 170.39 40.15 168.78 38.98 168.78 37.38 168.78 35.67 170.39 34.07 172 33.68 173.65 32.9 175.26 31.25 175.26 29.64 175.69 28.91"/><polyline id="polyline22" class="cls-1" points="197.54 51.48 197.1 53.09 197.1 54.7 196.71 56.35 195.11 57.52 192.68 57.96 192.24 59.56 191.85 61.17 191.07 62.82 191.07 64.43 191.41 66.03 191.85 67.64 193.06 69.29 193.84 70.9 195.5 72.07 197.1 73.72 197.54 75.33 198.32 76.93 199.53 78.54 200.31 80.19 201.58 81.8 202.02 82.28 203.62 82.28 205.23 83.45 207.27 83.06 208.93 81.85 208.93 80.24 207.27 79.02 207.66 77.42 209.27 77.81 210.92 78.25 212.53 77.81 214.13 76.98 215.74 76.98 216.56 78.59 218.17 78.59 219.78 77.42 220.21 75.81 221.04 74.21 221.87 72.55 222.21 70.95 223.04 69.34 223.04 67.74 221.43 66.08 220.6 64.48 220.6 62.87 220.21 61.27 219.44 59.61 219.44 58.01 219.78 56.4 221.43 55.57 222.65 53.97 223.47 52.36 224.25 50.71 222.65 50.32 221.04 50.32 219.44 49.93 217.78 49.49 216.18 49.1 214.57 48.32 212.96 49.1 211.31 49.49 209.7 49.49 208.1 49.93 206.49 49.93 204.84 49.1 203.23 49.1 201.63 49.49 200.02 49.1 198.37 49.49 197.98 51.1 197.54 51.48"/><polyline id="polyline24" class="cls-1" points="219.05 79.9 220.65 80.29 222.69 81.07 224.35 80.29 225.96 79.07 227.56 79.46 229.17 79.07 230.82 79.9 232.43 80.29 234.03 79.07 238.07 73.82 238.9 72.21 240.06 70.56 241.33 68.56 242.5 66.96 243.76 65.35 243.32 63.75 242.94 62.09 241.33 62.09 240.89 63.75 240.5 62.09 239.29 60.49 237.63 59.27 236.03 58.05 234.86 56.45 233.21 54.84 231.6 53.58 229.99 53.58 228.39 52.8 227.56 51.15 225.13 51.97 223.47 52.36 222.65 53.97 221.43 55.57 219.78 56.4 219.44 58.01 219.44 59.61 220.21 61.27 220.6 62.87 220.6 64.48 221.43 66.08 223.04 67.74 223.04 69.34 222.21 70.95 221.87 72.55 221.04 74.21 220.21 75.81 219.78 77.42 218.17 78.59 219.05 79.9"/><polyline id="polyline26" class="cls-1" points="102.56 247.32 105 250.19 105.44 252.19 105.78 253.79 106.6 255.4 108.21 257 109.81 258.27 111.47 259.44 110.64 261.04 109.81 263.13 110.25 264.74 109.47 266.35 109.81 267.95 110.25 269.61 110.64 271.21 111.91 272.82 113.08 274.42 113.51 276.08 113.51 277.68 113.9 279.29 114.68 280.89 115.51 282.55 115.95 284.15 116.29 285.76 114.68 286.93 115.95 288.58 117.55 289.02 119.16 289.8 120.76 289.36 121.98 287.37 122.42 285.76 124.02 285.32 125.63 284.15 126.02 282.55 127.62 282.11 128.45 280.46 130.06 280.46 131.66 281.28 133.32 282.11 134.92 282.55 136.53 282.11 138.13 281.72 139.79 281.72 141.39 282.89 141.39 284.54 142.22 286.15 143.82 286.59 143.82 284.93 144.26 283.33 145.04 281.72 145.87 280.12 147.47 280.12 149.47 280.12 151.51 280.12 153.17 280.12 154.77 281.28 155.16 280.46 157.21 271.99 157.21 266.35 161.24 259.05 167.72 258.27 173.75 256.66 181.39 256.66 188.73 259.88 190.73 264.3 192.77 261.87 190.34 259.88 190.73 258.27 191.56 256.66 191.99 255.01 192.33 253.4 193.16 251.8 193.6 250.19 194.38 248.54 195.21 246.93 193.99 245.33 192.77 243.72 191.17 242.46 189.56 240.85 187.91 240.02 187.52 238.42 186.69 236.81 187.13 235.21 187.91 233.55 188.73 231.95 188.3 231.56 173.75 230.78 171.31 222.26 172.92 222.26 173.75 220.61 173.75 219 172.58 217.4 173.36 215.79 173.36 214.14 172.14 212.53 170.49 211.71 168.88 211.37 167.28 210.54 165.67 209.71 164.02 209.71 162.41 210.1 160.81 210.1 159.2 208.93 157.55 207.33 155.94 207.33 154.34 206.89 152.73 206.06 151.07 204.9 149.91 203.24 148.3 203.24 146.7 202.46 145.04 202.02 143.44 202.02 141.83 202.02 140.18 201.2 138.96 199.59 137.35 198.42 135.75 197.6 134.09 195.99 132.49 194.73 132.1 193.12 132.49 191.51 132.49 189.91 132.1 188.25 131.32 186.65 130.49 185.04 131.32 183.44 132.1 181.78 132.1 180.18 131.32 178.57 129.67 179.01 128.06 179.01 126.45 179.4 124.85 179.4 123.19 179.79 121.59 181 120.37 182.61 118.72 183.88 117.11 184.22 115.51 185.04 114.29 186.65 112.69 187.48 111.08 187.91 109.81 189.52 108.65 191.13 107.04 191.13 105.44 190.35 103.78 189.91 102.18 190.35 100.57 190.69 99.26 191.03 106.56 202.37 104.51 209.27 104.51 212.1 105.29 216.96 103.3 218.96 102.52 223.82 102.86 225.43 102.08 226.64 101.25 228.3 100.47 227.03 98.82 226.25 98.48 228.3 99.65 229.9 98.04 230.29 96.39 230.73 98.04 231.51 99.65 232.34 101.25 232.73 102.86 233.94 104.51 233.5 104.95 235.11 105.29 236.76 103.69 237.54 102.08 238.37 100.47 239.2 99.65 240.8 100.08 242.41 101.25 244.01 101.69 245.67 102.56 247.32"/><polyline id="polyline28" class="cls-1" points="190.73 264.3 188.73 259.88 181.39 256.66 173.75 256.66 167.72 258.27 161.24 259.05 157.21 266.35 157.21 271.99 155.16 280.46 154.77 281.28 155.94 282.11 157.55 283.33 158.81 284.93 159.64 286.59 161.24 287.75 162.85 289.36 164.46 291.01 166.11 291.79 167.72 293.06 169.32 293.06 170.93 293.84 172.58 295.44 174.14 295.44 175.35 297.1 176.96 297.44 178.61 298.7 180.22 300.31 181.82 301.13 183.43 301.91 185.09 302.74 186.69 302.74 188.3 303.13 189.9 303.57 191.56 304.74 193.16 306 193.16 307.61 191.99 309.21 191.17 310.82 189.56 312.47 189.12 314.08 188.3 316.07 187.13 317.68 186.69 319.28 186.3 320.94 186.3 322.54 187.91 322.15 189.56 322.15 191.17 322.54 192.77 323.32 194.38 323.76 196.03 323.76 197.64 324.15 199.24 324.15 200.85 324.15 202.5 324.59 204.11 323.32 205.71 323.76 207.32 323.76 208.97 322.54 209.75 320.94 210.97 319.28 212.57 318.12 214.18 317.29 215.45 315.68 215.45 314.08 215.01 312.47 215.45 310.82 216.22 309.21 216.22 307.61 216.22 306 216.22 304.35 216.22 302.74 216.22 300.7 217.05 299.09 217.44 297.44 217.05 295.83 215.45 295.44 213.4 295.44 211.75 295.05 210.14 293.84 209.75 292.23 209.31 290.63 209.75 289.02 208.97 287.37 208.54 285.76 208.97 284.15 208.15 282.55 206.54 281.72 204.94 280.89 203.28 280.12 201.68 280.12 200.07 280.46 198.47 280.46 196.81 280.46 195.21 281.28 193.6 280.89 191.56 280.12 191.99 278.46 192.33 276.86 192.33 275.25 191.56 273.64 192.33 271.99 192.33 270.38 191.56 268.78 191.56 267.17 191.56 265.52 190.73 264.3"/><polyline id="polyline30" class="cls-1" points="101.69 245.67 102.56 247.32 105 250.19 105.44 252.19 105.78 253.79 106.6 255.4 108.21 257 109.81 258.27 111.47 259.44 110.64 261.04 109.81 263.13 110.25 264.74 109.47 266.35 109.81 267.95 110.25 269.61 110.64 271.21 111.91 272.82 113.08 274.42 113.51 276.08 113.51 277.68 113.9 279.29 114.68 280.89 115.51 282.55 115.95 284.15 116.29 285.76 114.68 286.93 115.95 288.58 117.55 289.02 119.16 289.8 120.76 289.36 121.98 287.37 122.42 288.19 122.42 289.8 121.98 297.44 114.29 302.3 113.08 304.74 113.51 306.34 113.51 308 112.25 309.6 112.25 311.21 112.69 312.81 113.51 314.47 113.9 316.07 113.08 317.68 113.08 319.28 114.29 320.94 114.68 322.54 113.08 323.76 113.08 325.41 111.47 327.02 110.25 328.63 109.47 330.23 109.04 331.88 108.21 333.49 107.43 335.1 107.04 336.7 106.6 338.7 106.22 340.3 105.44 341.96 104.61 343.56 105 345.17 105.44 346.77 106.22 348.43 106.6 350.03 105.78 351.64 105 353.25 105 354.9 105.44 356.5 104.17 358.11 102.56 358.55 102.18 360.15 103.34 361.81 105 363.41 106.6 365.02 105.44 366.63 106.22 368.28 107.04 369.88 107.82 371.49 107.43 373.1 107.82 373.92 108.65 375.53 109.81 377.13 110.25 378.79 110.25 380.39 110.64 382 110.64 383.61 110.25 384.43 108.65 385.26 108.65 386.87 107.82 388.47 107.43 390.08 105.78 390.9 105.44 392.51 105.78 394.12 106.6 395.77 107.43 397.38 106.6 398.98 106.22 400.59 105 402.24 103.78 403.85 103.78 405.45 104.17 407.06 104.61 408.71 103.78 410.32 103.78 411.92 104.61 413.53 105.44 415.18 106.22 416.79 106.6 418.39 107.04 420 105.44 421.65 103.78 422.82 103.78 424.43 103.78 426.03 103.34 427.69 103 429.29 102.56 430.9 102.56 432.5 102.56 434.16 102.56 435.76 102.56 437.37 102.56 438.98 102.56 440.63 103 442.24 103.78 443.84 104.61 445.45 105.44 447.1 105.44 448.71 105 450.31 103.78 451.58 103.78 453.18 104.17 454.79 105.78 456 106.6 457.61 106.6 459.22 106.6 460.82 107.04 462.48 107.43 464.08 107.43 465.69 109.04 466.51 110.64 465.69 112.25 466.51 113.08 468.12 111.47 469.34 109.47 469.73 107.82 469.73 106.22 470.16 107.82 471.33 109.47 472.16 111.08 472.99 111.47 474.59 109.81 476.2 109.47 477.8 109.47 479.46 109.04 481.5 109.81 481.79 109.81 483.45 111.08 485.05 110.64 486.66 109.81 488.26 109.47 489.92 109.47 491.52 108.65 493.13 108.21 494.73 108.21 496.39 108.21 497.99 109.47 499.6 109.47 501.2 108.65 502.86 107.43 504.46 106.6 506.07 106.22 507.68 105.78 509.33 105.78 510.94 105.78 512.54 105.44 514.15 106.6 515.75 107.82 517.41 109.47 517.75 111.08 516.97 112.69 515.75 113.51 517.41 113.51 519.01 113.08 520.62 113.51 522.22 114.29 523.88 114.68 525.48 115.12 527.09 116.72 527.92 118.38 527.92 119.98 527.48 121.59 527.09 123.19 527.09 124.85 527.09 126.45 527.09 128.45 527.09 129.23 528.7 128.06 530.35 126.45 530.35 124.85 530.69 123.19 531.96 122.42 533.56 122.76 535.17 122.76 536.82 122.76 538.43 122.76 540.03 122.42 541.64 120.76 541.64 119.16 540.86 117.55 540.03 116.29 538.43 117.94 537.16 119.55 537.6 121.15 535.17 121.59 533.56 121.15 531.96 119.55 532.35 119.16 533.95 118.38 535.56 116.29 535.56 115.12 537.16 115.12 539.25 113.51 538.43 113.08 536.82 113.9 535.17 113.9 533.56 114.68 531.96 113.08 531.13 112.69 532.78 113.08 534.39 111.91 535.99 110.25 535.99 110.64 534.39 110.64 532.78 109.04 532.78 108.65 531.13 110.25 529.91 109.81 528.31 107.82 527.48 107.04 525.87 107.04 524.22 105.78 522.61 105 520.62 105.44 519.01 103.78 517.41 103.34 515.75 101.74 514.54 101.35 512.93 101.74 511.33 101.74 509.67 101.35 508.07 100.96 506.46 100.57 504.85 99.74 502.86 99.74 501.2 98.14 499.99 98.53 498.38 98.97 496.73 97.31 494.73 97.31 493.13 96.87 491.52 98.53 490.7 98.53 489.09 97.7 487.49 96.09 487.05 95.27 488.65 93.66 488.26 92.06 486.66 91.23 488.26 91.67 489.92 90.06 490.26 89.23 488.65 89.23 487.05 90.4 485.44 91.23 483.79 91.23 482.18 91.23 480.57 92.83 480.19 94.49 480.19 96.09 481.01 96.09 482.62 95.7 484.23 97.31 484.23 98.97 485.05 99.31 483.45 99.31 481.79 98.53 480.19 99.74 478.58 98.97 476.98 99.31 475.32 99.74 473.71 100.96 472.11 102.56 471.28 103 469.68 103 468.07 101.35 466.81 99.74 466.46 99.31 464.81 99.31 463.21 99.31 461.16 98.53 459.56 98.97 457.9 99.74 456.3 99.31 454.69 100.13 453.08 99.74 451.43 98.53 449.82 100.13 450.65 100.96 449.05 99.31 448.22 99.31 446.61 99.74 444.96 98.14 443.79 96.53 444.62 96.09 446.23 94.49 446.61 92.49 446.61 91.67 444.96 90.06 443.79 90.06 442.19 90.06 440.58 90.4 438.93 90.4 437.32 90.06 435.71 90.06 434.11 90.06 432.02 90.4 430.41 91.23 428.81 91.23 427.2 91.67 425.6 91.23 423.94 90.4 422.33 89.62 420.73 89.23 419.12 89.23 417.47 89.23 415.86 89.23 414.26 88.8 412.65 88.02 411 88.41 408.57 90.06 406.96 90.84 405.36 91.67 403.75 92.06 402.1 92.06 400.49 91.67 398.88 91.67 397.28 92.83 395.62 93.27 394.02 93.66 392.41 94.49 390.42 95.27 388.81 95.27 387.16 95.27 385.55 95.7 383.95 95.7 382.34 95.7 380.74 96.53 379.08 97.31 377.48 96.53 375.87 96.09 374.26 96.53 372.61 97.7 371 96.87 369.4 96.53 367.79 96.87 366.14 96.87 364.53 96.53 362.93 94.88 361.32 94.49 358.06 94.1 356.46 93.66 354.85 93.66 352.76 94.1 351.15 94.88 349.55 95.27 347.94 94.1 346.29 94.88 344.68 94.88 343.08 94.49 341.47 94.1 339.87 94.1 338.21 94.49 336.61 94.88 335 94.88 333.39 95.27 331.74 95.27 330.13 95.27 328.53 96.09 326.92 96.53 325.27 96.53 323.27 97.31 321.23 98.14 319.62 98.14 318.02 96.87 316.36 96.09 314.37 96.53 312.33 97.31 310.72 97.7 309.12 97.31 307.51 97.31 305.86 97.31 304.25 97.7 302.64 97.7 301.04 97.7 299.04 98.14 297.39 98.14 295.78 97.7 294.18 96.53 292.57 96.53 290.92 98.14 289.31 98.14 287.71 98.53 286.1 98.97 284.45 98.97 282.84 98.97 281.24 99.31 279.63 98.97 277.59 98.53 275.93 97.31 274.33 97.31 272.72 97.31 270.73 97.31 268.68 97.31 267.03 97.31 265.42 97.7 263.43 97.31 261.38 96.87 259.78 95.7 258.17 95.27 256.52 94.88 254.52 95.27 252.92 95.22 252.14 96.82 251.7 98.48 251.31 100.08 250.49 100.86 248.88 100.47 247.27 101.69 245.67"/><polyline id="polyline32" class="cls-1" points="91.23 447.83 91.23 449.44 91.23 451.09 91.23 452.7 91.23 454.3 90.4 455.91 90.4 457.56 90.4 459.17 90.84 460.77 92.49 460.33 94.1 460.33 94.88 458.73 94.88 457.12 94.88 455.52 93.27 454.3 93.66 452.7 94.88 451.09 94.49 449.44 94.1 447.83 92.49 448.22 91.23 447.83"/><polyline id="polyline34" class="cls-1" points="136.14 545.73 134.53 546.07 132.93 547.33 131.66 545.73 130.06 545.73 128.45 545.29 126.84 544.46 125.19 545.73 123.19 546.5 121.59 546.07 119.98 547.33 121.59 547.72 123.19 546.89 123.58 548.5 125.19 548.5 126.84 549.76 127.23 548.11 128.89 547.72 130.49 547.72 132.1 548.5 133.71 549.33 136.09 548.11 136.14 545.73"/><polyline id="polyline36" class="cls-1" points="113.51 540.03 112.25 541.64 112.69 543.29 114.29 543.29 115.95 543.63 117.11 542.03 115.51 540.42 113.51 540.03"/><polyline id="polyline38" class="cls-1" points="130.88 529.91 129.67 531.52 129.67 533.12 127.62 533.12 126.02 532.35 125.19 533.95 125.19 535.56 125.63 537.16 127.23 537.99 128.89 536.82 129.67 538.43 128.06 539.25 127.62 540.86 128.06 542.47 129.67 543.63 131.32 544.07 132.93 544.07 134.53 544.9 136.14 544.9 136.14 542.85 135.75 540.42 135.36 537.6 134.92 535.99 134.92 533.56 134.92 531.96 134.92 530.35 133.32 531.52 131.66 531.13 130.88 529.91"/><polyline id="polyline40" class="cls-1" points="111.08 539.25 109.81 537.6 108.21 536.82 106.6 536.82 105 535.99 103.34 534.78 103.34 536.38 104.61 537.99 106.22 538.43 107.82 538.43 109.47 538.43 111.08 539.25"/><polyline id="polyline42" class="cls-1" points="97.31 502.86 95.7 503.64 94.1 503.64 94.49 505.24 95.27 506.9 93.66 508.07 94.1 509.67 94.88 511.33 96.53 510.5 97.7 512.1 98.53 513.71 100.13 514.15 100.13 512.1 99.74 510.5 99.31 508.89 98.53 506.9 98.53 505.24 97.31 502.86"/><polyline id="polyline44" class="cls-1" points="137.79 548.11 138.57 549.76 140.18 550.93 141.83 551.37 143.44 550.1 143 548.5 141.39 548.11 137.79 548.11"/><polyline id="polyline46" class="cls-1" points="136.97 550.1 135.36 549.91 133.71 549.91 132.1 550.54 131.32 552.2 132.93 553.36 134.53 552.2 136.14 552.2 137.79 552.54 138.57 550.93 136.97 550.1"/><polyline id="polyline48" class="cls-1" points="217.05 309.89 218.66 309.12 220.26 309.55 221.48 311.16 221.48 312.76 222.26 314.37 222.26 316.02 222.26 317.63 221.92 319.24 221.92 320.84 220.65 322.5 219.05 323.66 217.44 323.66 215.79 324.49 214.18 325.71 212.57 326.53 211.75 328.14 210.14 328.97 208.54 329.31 206.93 330.13 205.28 331.74 204.5 333.39 203.28 335 201.68 336.61 200.46 338.21 198.81 339.87 197.64 341.47 196.37 343.08 195.21 344.68 193.99 346.29 192.77 347.94 191.99 349.55 191.56 351.15 191.17 352.76 190.73 354.41 190.34 356.02 190.34 357.62 189.56 359.23 189.12 360.88 188.73 362.49 188.73 364.1 188.3 365.7 188.3 367.36 188.3 368.96 187.91 370.57 186.69 372.17 186.3 373.83 185.86 375.43 185.86 377.04 186.3 378.64 186.69 380.3 186.69 381.9 187.13 383.51 188.73 384.34 190.34 385.11 191.99 385.94 193.6 386.77 195.21 387.55 196.37 389.15 196.03 390.81 194.77 392.41 194.77 394.02 196.37 395.62 198.03 396.89 198.81 398.49 198.81 400.1 198.47 401.75 197.64 403.36 196.81 404.96 195.21 406.57 193.99 408.23 193.16 409.83 192.33 411.44 191.17 413.04 189.56 413.04 187.91 413.43 185.86 414.7 184.26 415.04 182.65 415.48 181.05 416.3 179.39 417.13 177.79 417.13 175.74 417.91 174.14 418.3 172.58 418.74 170.93 418.74 169.32 419.9 167.72 418.74 166.11 419.51 164.46 418.3 162.41 417.13 161.63 418.74 162.02 420.34 163.68 421.51 164.02 423.16 163.68 424.77 162.02 425.98 162.02 427.64 161.63 429.24 161.24 430.85 162.41 432.45 162.85 434.11 161.24 435.71 159.2 436.49 157.55 436.49 155.94 436.49 154.34 437.32 152.73 437.32 151.07 435.71 149.47 434.89 147.86 434.45 146.26 434.11 145.43 435.71 145.04 437.32 145.43 438.93 146.26 440.58 146.26 442.19 146.26 443.79 147.86 444.96 149.47 445.4 151.07 446.61 152.73 445.4 154.34 444.62 154.77 446.23 155.16 447.83 155.55 449.44 153.94 450.26 152.34 450.26 151.51 448.66 149.91 448.66 148.3 448.66 146.7 449.44 147.04 451.09 148.69 451.87 150.3 451.87 150.3 453.52 148.69 453.86 147.04 454.69 145.43 455.91 145.43 457.56 145.43 459.17 145.87 460.77 146.26 462.38 147.04 464.03 146.26 465.64 144.6 466.03 144.6 467.63 144.6 469.24 143 469.68 141.39 469.24 139.79 469.24 138.96 470.84 137.35 471.28 135.75 472.5 134.92 474.1 134.53 475.71 134.09 477.32 134.09 478.97 134.53 480.57 134.92 482.18 136.53 483.45 138.13 484.23 139.79 485.83 141.39 486.22 143 485.83 144.6 485.05 145.87 486.66 146.26 488.26 146.26 489.92 145.04 491.52 145.04 493.13 143.44 494.73 141.83 495.56 140.18 496.73 138.57 498.38 136.97 499.99 136.14 501.6 134.92 503.2 136.53 503.2 136.97 504.85 135.75 506.46 134.92 508.07 134.92 509.67 133.32 510.11 131.66 508.5 130.88 510.11 131.66 511.71 130.88 513.37 130.06 514.98 127.62 519.01 129.23 518.58 130.49 520.18 130.88 521.84 130.88 523.88 132.49 524.66 134.09 525.48 135.36 527.09 134.53 528.7 132.93 528.7 130.88 527.92 129.23 528.7 128.45 527.09 126.45 527.09 124.85 527.09 123.19 527.09 121.59 527.09 119.98 527.48 118.38 527.92 116.72 527.92 115.12 527.09 114.68 525.48 114.29 523.88 113.51 522.22 113.08 520.62 113.51 519.01 113.51 517.41 112.69 515.75 111.08 516.97 109.47 517.75 107.82 517.41 106.6 515.75 105.44 514.15 105.78 512.54 105.78 510.94 105.78 509.33 106.22 507.68 106.6 506.07 107.43 504.46 108.65 502.86 109.47 501.2 109.47 499.6 108.21 497.99 108.21 496.39 108.21 494.73 108.65 493.13 109.47 491.52 109.47 489.92 109.81 488.26 110.64 486.66 111.08 485.05 109.81 483.45 109.81 481.79 109.04 481.5 109.47 479.46 109.47 477.8 109.81 476.2 111.47 474.59 111.08 472.99 109.47 472.16 107.82 471.33 106.22 470.16 107.82 469.73 109.47 469.73 111.47 469.34 113.08 468.12 112.25 466.51 110.64 465.69 109.04 466.51 107.43 465.69 107.43 464.08 107.04 462.48 106.6 460.82 106.6 459.22 106.6 457.61 105.78 456 104.17 454.79 103.78 453.18 103.78 451.58 105 450.31 105.44 448.71 105.44 447.1 104.61 445.45 103.78 443.84 103 442.24 102.56 440.63 102.56 438.98 102.56 437.37 102.56 435.76 102.56 434.16 102.56 432.5 102.56 430.9 103 429.29 103.34 427.69 103.78 426.03 103.78 424.43 103.78 422.82 105.44 421.65 107.04 420 106.6 418.39 106.22 416.79 105.44 415.18 104.61 413.53 103.78 411.92 103.78 410.32 104.61 408.71 104.17 407.06 103.78 405.45 103.78 403.85 105 402.24 106.22 400.59 106.6 398.98 107.43 397.38 106.6 395.77 105.78 394.12 105.44 392.51 105.78 390.9 107.43 390.08 107.82 388.47 108.65 386.87 108.65 385.26 110.25 384.43 110.64 383.61 110.64 382 110.25 380.39 110.25 378.79 109.81 377.13 108.65 375.53 107.82 373.92 107.43 373.1 107.82 371.49 107.04 369.88 106.22 368.28 105.44 366.63 106.6 365.02 105 363.41 103.34 361.81 102.18 360.15 102.56 358.55 104.17 358.11 105.44 356.5 105 354.9 105 353.25 105.78 351.64 106.6 350.03 106.22 348.43 105.44 346.77 105 345.17 104.61 343.56 105.44 341.96 106.22 340.3 106.6 338.7 107.04 336.7 107.43 335.1 108.21 333.49 109.04 331.88 109.47 330.23 110.25 328.63 111.47 327.02 113.08 325.41 113.08 323.76 114.68 322.54 114.29 320.94 113.08 319.28 113.08 317.68 113.9 316.07 113.51 314.47 112.69 312.81 112.25 311.21 112.25 309.6 113.51 308 113.51 306.34 113.08 304.74 114.29 302.3 121.98 297.44 122.42 289.8 122.42 288.19 121.98 287.37 122.42 285.76 124.02 285.32 125.63 284.15 126.02 282.55 127.62 282.11 128.45 280.46 130.06 280.46 131.66 281.28 133.32 282.11 134.92 282.55 136.53 282.11 138.13 281.72 139.79 281.72 141.39 282.89 141.39 284.54 142.22 286.15 143.82 286.59 143.82 284.93 144.26 283.33 145.04 281.72 145.87 280.12 147.47 280.12 149.47 280.12 151.51 280.12 153.17 280.12 154.77 281.28 155.94 282.11 157.55 283.33 158.81 284.93 159.64 286.59 161.24 287.75 162.85 289.36 164.46 291.01 166.11 291.79 167.72 293.06 169.32 293.06 170.93 293.84 172.58 295.44 174.14 295.44 175.35 297.1 176.96 297.44 178.61 298.7 180.22 300.31 181.82 301.13 183.43 301.91 185.09 302.74 186.69 302.74 188.3 303.13 189.9 303.57 191.56 304.74 193.16 306 193.16 307.61 191.99 309.21 191.17 310.82 189.56 312.47 189.12 314.08 188.3 316.07 187.13 317.68 186.69 319.28 186.3 320.94 186.3 322.54 187.91 322.15 189.56 322.15 191.17 322.54 192.77 323.32 194.38 323.76 196.03 323.76 197.64 324.15 199.24 324.15 200.85 324.15 202.5 324.59 204.11 323.32 205.71 323.76 207.32 323.76 208.97 322.54 209.75 320.94 210.97 319.28 212.57 318.12 214.18 317.29 215.45 315.68 215.45 314.08 215.01 312.47 215.45 310.82 217.05 309.89"/><polyline id="polyline50" class="cls-1" points="136.97 545.29 138.57 546.5 140.18 547.33 141.83 547.33 143.44 547.33 145.04 547.72 146.7 548.5 148.69 548.11 150.3 547.72 151.9 547.33 153.51 546.89 153.17 545.29 151.51 545.29 149.91 544.9 148.3 544.9 147.04 543.29 145.43 542.85 143.82 542.47 142.22 541.64 141.39 540.03 139.79 539.25 138.57 537.6 137.79 535.99 136.14 535.99 136.53 534.39 136.53 532.78 135.36 531.13 134.92 530.35 134.92 531.96 134.92 533.56 134.92 535.99 135.36 537.6 135.75 540.42 136.14 542.85 136.14 544.9 136.97 545.29"/><polyline id="polyline52" class="cls-1" points="192.77 347.94 191.99 349.55 191.56 351.15 191.17 352.76 190.73 354.41 190.34 356.02 190.34 357.62 189.56 359.23 189.12 360.88 188.73 362.49 188.73 364.1 188.3 365.7 188.3 367.36 188.3 368.96 187.91 370.57 186.69 372.17 187.13 374.26 187.13 375.87 187.52 377.48 187.91 379.08 189.56 380.3 191.17 381.51 192.77 381.51 194.38 381.08 196.03 381.51 197.2 383.12 198.03 384.77 199.63 385.55 201.24 385.55 202.84 385.55 204.5 384.77 206.1 385.11 207.71 385.55 209.31 385.94 210.97 386.38 212.57 386.38 214.18 385.55 215.45 383.95 217.05 383.51 218.66 382.34 219.05 380.74 220.26 379.08 221.92 377.86 221.92 376.26 221.09 374.6 220.26 373 221.09 371.39 221.92 369.79 223.52 369.79 223.52 368.13 221.92 366.53 220.65 364.92 219.48 363.32 218.22 361.66 216.61 360.49 215.01 359.23 213.4 358.45 211.75 357.24 210.14 356.02 209.31 354.41 208.15 352.76 206.54 353.2 204.94 352.42 203.67 350.76 202.06 349.16 200.46 347.94 199.63 346.29 198.03 346.29 196.37 347.11 194.77 347.55 192.77 347.94"/></svg>