<svg id="Capa_1" data-name="Capa 1" xmlns="http://www.w3.org/2000/svg" viewBox="0 0 202.13 174.62"><defs><style>.cls-1{fill:#019746;}</style></defs><title>comillas</title><path class="cls-1" d="M-641.81,181A48.12,48.12,0,0,0-593.7,229.1,48.12,48.12,0,0,0-545.58,181a48.12,48.12,0,0,0-48.12-48.12,47.93,47.93,0,0,0-15.58,2.63C-598.45,73.4-550,33.35-594.92,66.31c-49.78,36.55-47,113.21-46.89,114.61C-641.81,180.94-641.81,181-641.81,181Z" transform="translate(641.86 -54.48)"/><path class="cls-1" d="M-536,181a48.12,48.12,0,0,0,48.12,48.12A48.12,48.12,0,0,0-439.72,181a48.12,48.12,0,0,0-48.12-48.12,47.92,47.92,0,0,0-15.58,2.63c10.83-62.1,59.26-102.15,14.36-69.19-49.78,36.55-47,113.21-46.89,114.61C-536,180.94-536,181-536,181Z" transform="translate(641.86 -54.48)"/></svg>