<svg viewBox="0 0 87 72" version="1.1" xmlns="http://www.w3.org/2000/svg" xmlns:xlink="http://www.w3.org/1999/xlink">
    <g stroke="none" stroke-width="1" fill="none" fill-rule="evenodd">
        <g transform="translate(-678.000000, -3027.000000)" fill="#E6DECF" fill-rule="nonzero">
            <g transform="translate(260.000000, 3027.000000)">
                <g transform="translate(418.000000, 0.000000)">
                    <path d="M66.2189781,72 C61.2846469,72 57.0146166,69.5433317 53.4087591,64.6299213 C49.8029017,59.7165109 48,53.7638145 48,46.7716535 C48,39.7794926 50.5620182,32.1732694 55.6861314,23.9527559 C60.8102446,15.7322424 67.8320722,7.74807024 76.7518248,0 L85.2919708,4.2519685 L86.1459854,7.93700787 C81.7810001,12.094509 78.3175311,16.6771403 75.7554745,21.6850394 C73.1934178,26.6929384 71.9124088,31.370057 71.9124088,35.7165354 C71.9124088,39.8740365 73.2883074,43.7952572 76.040146,47.480315 C78.7919846,51.1653728 82.3503431,53.8582592 86.7153285,55.5590551 L87,59.5275591 C80.1678491,67.8425613 73.240911,72 66.2189781,72 Z M18.2189781,72 C13.2846469,72 9.01461657,69.5433317 5.40875912,64.6299213 C1.80290168,59.7165109 0,53.7638145 0,46.7716535 C0,39.7794926 2.56201818,32.1732694 7.68613139,23.9527559 C12.8102446,15.7322424 19.8320722,7.74807024 28.7518248,0 L37.2919708,4.2519685 L38.1459854,7.93700787 C33.7810001,12.094509 30.3175311,16.6771403 27.7554745,21.6850394 C25.1934178,26.6929384 23.9124088,31.370057 23.9124088,35.7165354 C23.9124088,39.8740365 25.2883074,43.7952572 28.040146,47.480315 C30.7919846,51.1653728 34.3503431,53.8582592 38.7153285,55.5590551 L39,59.5275591 C32.1678491,67.8425613 25.240911,72 18.2189781,72 Z" id="“"></path>
                </g>
            </g>
        </g>
    </g>
</svg>