<svg id="Capa_1" data-name="Capa 1" xmlns="http://www.w3.org/2000/svg" viewBox="0 0 512 384"><defs><style>.cls-1{fill:#fdab00;}</style></defs><title>email</title><path class="cls-1" d="M427.3-954.2a6,6,0,0,1,9.7,4.7V-745a48,48,0,0,1-48,48H-27a48,48,0,0,1-48-48V-949.4a6,6,0,0,1,9.7-4.7c22.4,17.4,52.1,39.5,154.1,113.6,21.1,15.4,56.7,47.8,92.2,47.6,35.7,0.3,72-32.8,92.3-47.6C375.3-914.6,404.9-936.8,427.3-954.2ZM181-825c23.2,0.4,56.6-29.2,73.4-41.4,132.7-96.3,142.8-104.7,173.4-128.7A23.93,23.93,0,0,0,437-1014v-19a48,48,0,0,0-48-48H-27a48,48,0,0,0-48,48v19a24.08,24.08,0,0,0,9.2,18.9c30.6,23.9,40.7,32.4,173.4,128.7,16.8,12.2,50.2,41.8,73.4,41.4h0Z" transform="translate(75 1081)"/></svg>