<svg id="Capa_1" data-name="Capa 1" xmlns="http://www.w3.org/2000/svg" viewBox="0 0 240 104.66"><defs><style>.cls-1{fill:#019746;}.cls-2{fill:#fdab00;}.cls-3{fill:#009746;}.cls-4{fill:#009646;}.cls-5{fill:#fcec01;}.cls-6{fill:#079549;}.cls-7{fill:#049547;}.cls-8{fill:#96af4a;}.cls-9{fill:#fdec00;}.cls-10{fill:#fcec00;}.cls-11{fill:#faab02;}.cls-12{fill:#e6ab08;}.cls-13{fill:#bca918;}</style></defs><title>logo</title><path class="cls-1" d="M391.78-480.76a28.2,28.2,0,0,1,6.78-3.47,9.7,9.7,0,0,1,2.82-.49c1.23,0,2.36.12,2.52,1.94a15.9,15.9,0,0,1,6.23-4.34,18.17,18.17,0,0,1,8.93-1.17,2.18,2.18,0,0,1,1.88,3.37,47.54,47.54,0,0,1-2.56,4.73,15.42,15.42,0,0,1-6.21,5.77,2.63,2.63,0,0,1-.93.61,15.71,15.71,0,0,1,3.68,1.23,2.12,2.12,0,0,1,1.58,1.9,2.51,2.51,0,0,1-1.26,2.63,35.61,35.61,0,0,1-6.72,3.15,24.75,24.75,0,0,1-4,1,2.12,2.12,0,0,1,.87,2.39,2.26,2.26,0,0,1-1.37,1.71,30.84,30.84,0,0,1-10.4,4,2.08,2.08,0,0,0,1,.48c0.77,0.32,1.61.53,1.68,1.62a2.68,2.68,0,0,1-1.25,2.86,38.14,38.14,0,0,1-11.33,4.78c2,0.66,2.56,2.38,1.24,4.13a40.24,40.24,0,0,1-8.26,8.18,51.49,51.49,0,0,1,7-1.62c0.42,0,1-.29,1.18.2s-0.46.65-.84,0.81c-2.79,1.21-5.53,2.52-8.27,3.82a83.1,83.1,0,0,0-13.54,7.91,40,40,0,0,1-6.83,4,0.54,0.54,0,0,1-.11.05c-0.48.19-1.06,0.58-1.45,0.15s0.11-.95.37-1.38a15.35,15.35,0,0,1,3.66-3.91,68.64,68.64,0,0,1,7.59-5.43,6.37,6.37,0,0,0,1.16-.69,8.52,8.52,0,0,1-5,.2,0.92,0.92,0,0,0-1,.37,50.1,50.1,0,0,0-7.15,10.46,7.74,7.74,0,0,1-1.19,2.07,2.3,2.3,0,0,1-1.71,0,1.91,1.91,0,0,1,.3-1.37,48,48,0,0,1,7.08-11.2c0.22-.25.65-0.52,0.37-0.89a0.93,0.93,0,0,0-1-.07,5.61,5.61,0,0,0-2.87,2.06,54,54,0,0,0-5.78,9.22c-0.37.74-.17,1.59-0.65,2.27a20.41,20.41,0,0,1-4.82,0,2.41,2.41,0,0,1-.34-1.72,49.78,49.78,0,0,0-.46-9.19,31,31,0,0,0-1.61-5.88,2.73,2.73,0,0,0-1.39-1.68,1.87,1.87,0,0,0,.3,1.23,30.2,30.2,0,0,1,1.51,16.12,1.82,1.82,0,0,1-.42,1.1,2.33,2.33,0,0,1-1.49.06,2.55,2.55,0,0,1-.14-1.87,27.85,27.85,0,0,0,0-8.91,15.49,15.49,0,0,0-2.74-6.68,4.11,4.11,0,0,0-1.85-1.63c-4.87-2.07-7.64-6-9.43-10.77a0.55,0.55,0,0,1-.06-0.23c0.24-2.14-1.4-3.14-2.66-4.37a8.21,8.21,0,0,1-1.75-1.78,53.47,53.47,0,0,0-7.9-6.52,81.49,81.49,0,0,0-20.31-10.86l6.16-.66a16.39,16.39,0,0,0,2.26-.23,9.21,9.21,0,0,1,7,1.33c1.18,0.66,2.4,1.25,3.57,1.93,0.5,0.29.79,0.33,0.88-.31,0.21-1.53,1.07-2.22,2.93-1.89-2.09-2.3-2.68-4.85-3.09-7.47a2.1,2.1,0,0,1,2.43-2.47,11.19,11.19,0,0,1,7,4.31,1.3,1.3,0,0,0,1.45.73,4.18,4.18,0,0,1,3.14,1.25,11.74,11.74,0,0,1,3.63,4.22c0.28,0.62.6,0.67,1.08,0.27,0.69-.59,1.27-0.3,1.93.13,0.91,0.59,1.62,1.41,2.47,2.06a2.81,2.81,0,0,1,1.3,1.36,13.05,13.05,0,0,1,1.87,3.61c0.25,0.87.55,1.43,1.63,1.1a1.57,1.57,0,0,1,1.29.52,5.88,5.88,0,0,1,1.69,2.15c1.17,2.47,1.94,5,1.08,7.74A1.15,1.15,0,0,0,345-449a2.18,2.18,0,0,1,1.47,2c0.42,1.8.39,3.64,0.8,5.44,0.46,2-.21,4-0.61,5.9a18.3,18.3,0,0,1-1.66,4.61,1.8,1.8,0,0,0,0,1.62,55.35,55.35,0,0,1,2.53,8,0.83,0.83,0,0,0,.36-0.46,2.82,2.82,0,0,0,.33-3.63c-0.93-1.49-.54-3.36-0.67-5.05a29.85,29.85,0,0,1,2.93-15.21c1-2.21,2.09-4.41,3.27-6.54a2.34,2.34,0,0,1,2.28-1.41,2.07,2.07,0,0,1,2.17,1.35c0.16,0.41.39,0.79,0.6,1.25,0-1.53,0-3,0-4.48a16.75,16.75,0,0,1,3.76-10.38,16.08,16.08,0,0,1,3.58-3.5,3.54,3.54,0,0,1,2.58-.74,1.73,1.73,0,0,1,1.59,1.26,17.53,17.53,0,0,1,.56,2.39,5.21,5.21,0,0,1,.69-1.83,22,22,0,0,1,13.93-11.79,2.47,2.47,0,0,1,3.05,2.82C389.41-478.71,390.16-480.17,391.78-480.76Z" transform="translate(-270.08 488.4)"/><path class="cls-2" d="M352.29-416.8a21.6,21.6,0,0,1,2.59-5.25,62.54,62.54,0,0,1,5.05-7,1.92,1.92,0,0,1,2.42-.85,7.08,7.08,0,0,0,3.56-.12,3.59,3.59,0,0,1,1.73-.11c-5.12,3.27-10.47,6.15-13.77,11.49A17.23,17.23,0,0,0,359-421c3.79-2.2,7.15-5,11.06-7.08,4.44-2.32,8.94-4.5,13.54-6.47a10.39,10.39,0,0,0,1.26-.72,68.44,68.44,0,0,0-9.39,2.06,43.48,43.48,0,0,0,9.41-9.08,2.05,2.05,0,0,0-1.12-3.39,0.93,0.93,0,0,1-.81-0.61,34.68,34.68,0,0,0,4.53-1.23,40.49,40.49,0,0,0,8-4c1-.66.76-2.77-0.37-3.26L392.37-456a27.77,27.77,0,0,0,4.84-1.1,33.9,33.9,0,0,0,6.91-3.2,2,2,0,0,0,.09-3.42c-0.17-.12-0.5-0.09-0.5-0.55a18.08,18.08,0,0,0,4.89-1,30.82,30.82,0,0,0,7-3.48c1-.65.76-2.73-0.3-3.28a18.67,18.67,0,0,0-4.84-1.66,2.24,2.24,0,0,1,1.67-.75,75.9,75.9,0,0,1,24.36,18.81,3.93,3.93,0,0,1,.36.6c0,0.54-.41.51-0.74,0.58-2.3.45-4.61,0.87-6.9,1.41a117.61,117.61,0,0,0-17.51,5.71A148,148,0,0,0,394.84-439a218.67,218.67,0,0,0-18.48,11.78c-4.53,3.2-9,6.49-13.3,10a3.18,3.18,0,0,1-1.19.55Z" transform="translate(-270.08 488.4)"/><path class="cls-2" d="M320.71-453c1.79,1.11,3,2.81,4.59,4.18a0.56,0.56,0,0,1,.16.44c-0.45,2.38,1.07,4.14,2.11,5.94a13.88,13.88,0,0,0,7.72,6.48,1.6,1.6,0,0,1,.81.66c1.53,2.28,3,4.5,3.4,7.38a67.52,67.52,0,0,1,.35,6.91c0.05,1.45-.56,2.81-0.54,4.26-10.86,0-21.72,0-32.59,0-1.1,0-1.17-.33-1-1.31a73.59,73.59,0,0,1,14.48-34.37A7.7,7.7,0,0,1,320.71-453Z" transform="translate(-270.08 488.4)"/><path class="cls-3" d="M361.87-416.73c3-2.54,6.12-4.85,9.26-7.17A210.11,210.11,0,0,1,405.65-445a122.83,122.83,0,0,1,15.86-6.22,76.36,76.36,0,0,1,10-2.57c1.81-.31,3.6-0.79,5.4-1.2,2.5-.25,5-0.52,7.49-0.76a97.9,97.9,0,0,1,17.48,0,111.12,111.12,0,0,1,14.09,2.05c0.39,0.08.76,0.21,1.38,0.39a188.35,188.35,0,0,0-20.33.09c-19,1.16-36.44,6.7-51.76,18.28a145.76,145.76,0,0,0-19,17.42,2.53,2.53,0,0,1-2.06.93c-7.08,0-14.15,0-21.23,0C362.58-416.66,362.23-416.71,361.87-416.73Z" transform="translate(-270.08 488.4)"/><path class="cls-2" d="M391.78-480.76a20.25,20.25,0,0,0-3.69,4.39A0.44,0.44,0,0,1,388-477c0.79-1.24.06-2.06-.78-2.84s-1.53-.23-2.32,0a21.89,21.89,0,0,0-12.61,10.42,17.48,17.48,0,0,0-1.55,3.77c-0.19-.92-0.43-1.83-0.57-2.76a1.88,1.88,0,0,0-3-1.52,15.85,15.85,0,0,0-6.18,6.6c-2.07,3.61-2.14,7.57-1.93,11.57,0,0.4,0,.8,0,1.19a0.69,0.69,0,0,1-.22.19,20.07,20.07,0,0,1-1.18-2.36c-0.31-.89-1-0.78-1.65-0.84a1.53,1.53,0,0,0-1.74.7,57.23,57.23,0,0,0-5.62,12.66,25.27,25.27,0,0,0-.8,10.19c0.19,1.42-.09,2.9.55,4.25a1.43,1.43,0,0,0,.12.45c1.6,0.93.54,1.86,0,2.75-0.36.57-.41,1.35-1.2,1.73a49.61,49.61,0,0,0-1.68-6,6,6,0,0,0-.57-1.66c-1.14-1.49-.41-2.79.18-4.19,1.39-3.29,2.26-6.66,1.48-10.3a37,37,0,0,1-.53-3.89,2,2,0,0,0-1.89-2.15c-0.61-.08-0.69-0.34-0.63-0.86a19.25,19.25,0,0,0,.51-3.41,12.18,12.18,0,0,0-2.06-6.22c-0.64-.93-1.49-1.94-2.94-1.14-0.22.12-.65,0.28-0.73-0.26a13.51,13.51,0,0,0-2.93-5.94,3.88,3.88,0,0,1-.23-0.42,49.37,49.37,0,0,1,7.62-5,70.3,70.3,0,0,1,15.64-6.59,41.82,41.82,0,0,1,5.88-1.43c0.45,0,1.16-.36.8,0.64-1.78,2-3.5,4.13-5.19,6.26A49.59,49.59,0,0,0,352.31-460a83,83,0,0,0-2.92,9.86,22.06,22.06,0,0,0-.13,4.12,14.08,14.08,0,0,0,1.81-3.15c1.42-3.09,2.45-6.32,3.6-9.51a102,102,0,0,1,7.24-15.12c1-1.85,2-3.74,3.2-5.48,0.44-.44.51-1.21,1.24-1.39a72.22,72.22,0,0,1,12.48-1.16,83.11,83.11,0,0,1,11.93.75A6.47,6.47,0,0,1,391.78-480.76Z" transform="translate(-270.08 488.4)"/><path class="cls-3" d="M479.2-452.27c-6.2.9-12.35,1.89-18.4,3.33-11.43,2.73-22.24,6.83-31.36,14.54a63.86,63.86,0,0,0-13.74,16.74,1.51,1.51,0,0,1-1.42,1c-6.68,0-13.35,0-20,0a8.29,8.29,0,0,1-.83-0.1,59.17,59.17,0,0,1,4.67-5.55,88.83,88.83,0,0,1,31.67-22.57,97.36,97.36,0,0,1,24.92-6.52,133.27,133.27,0,0,1,23.09-1Z" transform="translate(-270.08 488.4)"/><path class="cls-1" d="M412.88-390a2.39,2.39,0,0,0,1.32.14c4.52,0,9,0,13.55,0,1.09,0,1.38.32,1.3,1.35a31.29,31.29,0,0,0,0,3.48,0.71,0.71,0,0,1-.86.9q-12.59,0-25.19,0c-0.67,0-.85-0.25-0.77-0.83a0.78,0.78,0,0,0,0-.12c-0.09-4.57-.07-4.55,3.34-7.68,4.14-3.81,8.23-7.66,12.34-11.49,0.17-.15.3-0.34,0.6-0.69h-5.4c-3.32,0-6.64,0-10,0-0.75,0-1-.21-0.93-0.94,0.06-1.32,0-2.64,0-4a0.6,0.6,0,0,1,.74-0.74q12.65,0,25.31,0a0.62,0.62,0,0,1,.77.74c0,1.36,0,2.72,0,4.08a1.73,1.73,0,0,1-.85,1.36l-14.52,13.55C413.41-390.59,413.16-390.29,412.88-390Z" transform="translate(-270.08 488.4)"/><path class="cls-3" d="M474.45-449c-14.9,4.12-26,12.85-32.87,26.85-0.75,1.54-1.43,3.11-2.1,4.68a1.08,1.08,0,0,1-1.13.81c-4.75,0-9.51,0-14.44,0a37.61,37.61,0,0,1,2.82-4.47,66.15,66.15,0,0,1,14.95-16.31,57.55,57.55,0,0,1,19.62-9.09,117.21,117.21,0,0,1,12.47-2.67C474-449.26,474.37-449.55,474.45-449Z" transform="translate(-270.08 488.4)"/><path class="cls-4" d="M342.49-397.48c0-4,0-8.07,0-12.11a0.8,0.8,0,0,1,1-1c4.24,0,8.47,0,12.71,0a13.89,13.89,0,0,1,4.59.77c2.79,1,4,3.16,4.21,6,0.11,1.47.07,3,.13,4.43a0.63,0.63,0,0,1-.78.75c-2,0-4,0-6,0a0.61,0.61,0,0,1-.74-0.77,10,10,0,0,0-.28-3.09,2.94,2.94,0,0,0-2.52-2.25c-1.41-.23-3.11-0.74-4.2,0-0.83.56-.25,2.31-0.26,3.53q0,8,0,15.95c0,0.88-.2,1.17-1.12,1.13-1.92-.08-3.84-0.06-5.75,0a0.8,0.8,0,0,1-1-1C342.51-389.25,342.49-393.36,342.49-397.48Z" transform="translate(-270.08 488.4)"/><path class="cls-4" d="M315.6-397.38c0-4,0-8.07,0-12.11,0-.93.27-1.11,1.14-1.1,4.08,0.05,8.15,0,12.23,0a16,16,0,0,1,4.38.59c3,0.86,4.51,2.88,4.8,6.52,0.1,1.31,0,2.64.09,4a0.67,0.67,0,0,1-.8.85q-3,0-6,0c-0.62,0-.72-0.27-0.71-0.79a9.68,9.68,0,0,0-.2-2.74,3,3,0,0,0-3-2.62c-1-.1-2-0.07-3-0.18s-1.13.26-1.12,1.14c0,6.07,0,12.15.05,18.22,0,1.25-.33,1.54-1.52,1.48-1.79-.1-3.6-0.07-5.39,0-0.81,0-1-.25-1-1C315.62-389.23,315.6-393.3,315.6-397.38Z" transform="translate(-270.08 488.4)"/><path class="cls-1" d="M469.69-402.15c0-5.68,0-11.36,0-17,0-1,.28-1.22,1.21-1.18,1.76,0.07,3.52.08,5.28,0,1.06,0,1.42.22,1.41,1.36-0.05,9.12,0,18.24,0,27.36,0,2-.09,4,0,6,0.08,1.32-.39,1.59-1.59,1.52a44.09,44.09,0,0,0-4.92,0c-1,.05-1.42-0.19-1.4-1.34C469.73-391,469.69-396.59,469.69-402.15Z" transform="translate(-270.08 488.4)"/><path class="cls-1" d="M487.47-385.59h-1.68c-1.55,0-1.94-.55-1.57-2.06,0.14-.55.51-0.41,0.83-0.41,1.24,0,2.48,0,3.71,0s1.81-.5,1.81-1.69-0.47-1.73-1.86-1.77c-0.56,0-1.12,0-1.68,0a2.79,2.79,0,0,1-3.06-2.3,6.37,6.37,0,0,1,0-3.66,2.72,2.72,0,0,1,3.06-2.26c1.44,0,2.88.06,4.31,0,1.08-.07,1,0.53,1,1.25s0.07,1.41-1.08,1.32c-1.31-.1-2.63,0-4,0a1.23,1.23,0,0,0-1.34,1.44c0,0.89.24,1.6,1.28,1.67,0.84,0.05,1.68,0,2.51.07a2.73,2.73,0,0,1,2.83,2.27,6.57,6.57,0,0,1-.08,4.12,2.62,2.62,0,0,1-2.83,2.07c-0.76,0-1.52,0-2.28,0h0Z" transform="translate(-270.08 488.4)"/><path class="cls-5" d="M348-416.77c-0.34-1.65.7-2.86,1.36-4.19a39,39,0,0,1,4.9-7.53c1-1.21,2.13-2.26,3.85-2.26a0.79,0.79,0,0,1,.86.23,0.71,0.71,0,0,1-.34.8,49.48,49.48,0,0,0-8.06,12.91Z" transform="translate(-270.08 488.4)"/><path class="cls-5" d="M340.78-416.8a53.46,53.46,0,0,0,.53-6.55A29.26,29.26,0,0,0,339-434.73c-0.14-.33-0.47-0.8-0.12-1.1s0.74,0.17,1,.36a4.2,4.2,0,0,1,1.38,2.16c2,5.35,2.1,10.92,1.91,16.52Z" transform="translate(-270.08 488.4)"/><path class="cls-6" d="M495.94-387c-0.12.59,0.4,1.46-.92,1.44s-0.84-.8-0.84-1.37-0.39-1.48.89-1.47S495.82-387.55,495.94-387Z" transform="translate(-270.08 488.4)"/><path class="cls-7" d="M508.28-387c0.11-.61-0.34-1.42.88-1.4,1.4,0,.78,1,0.86,1.6s0.22,1.22-.86,1.22C507.82-385.55,508.46-386.46,508.28-387Z" transform="translate(-270.08 488.4)"/><path class="cls-3" d="M474.45-449a1.06,1.06,0,0,0-.7-0.22,14,14,0,0,1,3.83-.55Z" transform="translate(-270.08 488.4)"/><path class="cls-8" d="M366.35-480.65c-0.39.45-.38,1.17-1,1.44a0.45,0.45,0,0,1-.28-0.51c0.22-.74-0.45-0.3-0.65-0.48A4.62,4.62,0,0,1,366.35-480.65Z" transform="translate(-270.08 488.4)"/><path class="cls-9" d="M384.25-444a31.9,31.9,0,0,1-4.08,4.93,24.28,24.28,0,0,1-12.27,7.26,14.36,14.36,0,0,1-7.12.16c-0.52-.15-0.76-0.29-0.62-0.88a14.32,14.32,0,0,1,10.45-11.17,25.47,25.47,0,0,1,11.11-1A13.85,13.85,0,0,1,384.25-444Z" transform="translate(-270.08 488.4)"/><path class="cls-9" d="M355.92-452.58a20.67,20.67,0,0,1,2.59,5.68,21.05,21.05,0,0,1,1,4.66c0.39,4.3-1.47,7.79-4.09,10.94a29.52,29.52,0,0,1-4.85,4.66c-0.7.53-1,.42-1.05-0.37-0.69-5.82-.45-11.52,2-17a74.17,74.17,0,0,1,3.65-7.44C355.39-451.78,355.63-452.13,355.92-452.58Z" transform="translate(-270.08 488.4)"/><path class="cls-9" d="M371.52-459.91c-0.14-9.44,6.31-16.05,14.16-18.66,0.4-.13,1.41-0.65,1.11.56a40.38,40.38,0,0,1-4.63,12.14,26.45,26.45,0,0,1-9.4,8.61c-1,.58-1.22.39-1.24-0.74C371.51-458.63,371.52-459.27,371.52-459.91Z" transform="translate(-270.08 488.4)"/><path class="cls-9" d="M369.48-459.33c0.16,6.12-2.53,10.95-6.76,15.07-0.29.28-.57,0.83-1,0.64s-0.2-.71-0.26-1.09a46.45,46.45,0,0,1-.91-12,15.5,15.5,0,0,1,6.73-11.48c1.09-.79,1.33-0.66,1.57.69A54.12,54.12,0,0,1,369.48-459.33Z" transform="translate(-270.08 488.4)"/><path class="cls-9" d="M395.14-453.08a35.42,35.42,0,0,1-9.18,4.57,21.62,21.62,0,0,1-11.67.52,16,16,0,0,1-2.67-1c-0.86-.36-1-0.76-0.36-1.52A13.63,13.63,0,0,1,380-455.3a29.88,29.88,0,0,1,14.2,1.64A5.73,5.73,0,0,1,395.14-453.08Z" transform="translate(-270.08 488.4)"/><path class="cls-9" d="M416.73-487c0.84,0,1.68.06,2.51,0.16,0.4,0,1,.15.62,0.82-1.49,2.91-2.86,5.91-5.31,8.19a10.19,10.19,0,0,1-8.36,2.58c-0.32,0-.63-0.09-0.95-0.12-2.24-.21-2.57-0.78-1.92-3a10.94,10.94,0,0,1,6.49-7.08A15,15,0,0,1,416.73-487Z" transform="translate(-270.08 488.4)"/><path class="cls-9" d="M389.91-457.21c-2.82-.24-5.28-0.51-7.56-1.75-0.87-.48-0.72-0.83-0.23-1.39a11.91,11.91,0,0,1,8.6-4.2,27.6,27.6,0,0,1,12.7,2.13c0.6,0.26.67,0.51,0.16,0.81C399.27-459,394.72-457.2,389.91-457.21Z" transform="translate(-270.08 488.4)"/><path class="cls-9" d="M415.38-470.35c-5,3.43-10.12,5.35-16,4.52a11.57,11.57,0,0,1-4.15-1.42c-0.61-.35-0.92-0.71-0.3-1.48a10.94,10.94,0,0,1,8.3-4.21A24.38,24.38,0,0,1,414-471C414.44-470.87,414.81-470.65,415.38-470.35Z" transform="translate(-270.08 488.4)"/><path class="cls-9" d="M386.62-467.91c1.12-6.62,4.2-11.52,10.38-14.17a11.6,11.6,0,0,1,4.58-1.18c0.85,0,1.2.14,0.72,1.16a27,27,0,0,1-14.56,13.9,3.64,3.64,0,0,1-.46.13Z" transform="translate(-270.08 488.4)"/><path class="cls-9" d="M338.45-438.37c0,1.58-.5,1.89-2.18,1.31a13.35,13.35,0,0,1-6.08-4.15,21.61,21.61,0,0,1-3.3-5.84c-0.24-.61-0.31-1,0.63-1,4.49,0,9.6,3.83,10.74,8.12A10.93,10.93,0,0,1,338.45-438.37Z" transform="translate(-270.08 488.4)"/><path class="cls-10" d="M344.37-447.88c1.37,5.27,1.74,10.45-.73,15.5-0.29.6-.59,0.54-0.93,0a15.16,15.16,0,0,1-2.78-7c-0.23-2.56,1-4.67,2.51-6.62A6.21,6.21,0,0,1,344.37-447.88Z" transform="translate(-270.08 488.4)"/><path class="cls-9" d="M331-464.77c0-.91.13-1.83,0.14-2.75s0.45-.84,1-0.41c4.79,3.8,6.15,8.56,4.29,14-0.19.55-.43,0.79-1,0.2a14.72,14.72,0,0,1-4.25-8.91c-0.06-.72-0.09-1.43-0.13-2.15H331Z" transform="translate(-270.08 488.4)"/><path class="cls-9" d="M339.46-443.68a12.34,12.34,0,0,1-2.19-8,24.33,24.33,0,0,1,2.16-6.9c0.37-.89.82-0.9,1.36-0.11a9.62,9.62,0,0,1,1.32,9A46.85,46.85,0,0,1,339.46-443.68Z" transform="translate(-270.08 488.4)"/><path class="cls-11" d="M369.12-450.15c0.38-1.23.72-2.48,1.16-3.69a10.49,10.49,0,0,0,.35-1.77c2.11,0.55,3.63-.72,5.07-1.76,3.63-2.62,6.93-5.58,8.81-9.79,0.23-.53.47-0.62,0.79-0.06a1.39,1.39,0,0,0,2.12.67,45.15,45.15,0,0,0,4.83-2.39,0.75,0.75,0,0,1,.78-0.15,0.49,0.49,0,0,1,0,.65c-0.37,1,.27,1.63,1,2.32a17.57,17.57,0,0,0-9.18,1.77,14,14,0,0,0-4.18,3.55,1.66,1.66,0,0,0,.57,2.8,12.3,12.3,0,0,1,1.23.76c-1.67.5-3.3,0.52-4.87,1a14.37,14.37,0,0,0-8,5.62,1,1,0,0,1-.5.47h0Z" transform="translate(-270.08 488.4)"/><path class="cls-9" d="M322.16-455.09c4.09-.77,10.74.92,12.53,4.66,0.24,0.5.71,1,.45,1.51a1.55,1.55,0,0,1-1.54.41,13.88,13.88,0,0,1-9.17-4c-0.84-.77-1.74-1.47-2.62-2.2Z" transform="translate(-270.08 488.4)"/><path class="cls-9" d="M321.61-471.26c0,1.77-.29,1.92-2.08,1.54-3.37-.73-4.91-3-5.59-6.17a16.75,16.75,0,0,0-.34-1.75c-0.34-1,.12-1.26,1-1,3.07,0.85,5.54,2.43,6.8,5.53A5.43,5.43,0,0,1,321.61-471.26Z" transform="translate(-270.08 488.4)"/><path class="cls-9" d="M318.31-461.87c3.68-.31,7.07-0.06,10.1,2a6.22,6.22,0,0,1,2,2.33c0.57,1.07.44,1.33-.74,1.41a11.55,11.55,0,0,1-7.51-2.18A16.45,16.45,0,0,1,318.31-461.87Z" transform="translate(-270.08 488.4)"/><path class="cls-5" d="M313.43-468.49c3.2-.93,9.1.16,10.73,3.18,0.31,0.58,1,1.23.65,1.78-0.22.36-1.17,0.37-1.79,0.37C318.86-463.17,316-465.43,313.43-468.49Z" transform="translate(-270.08 488.4)"/><path class="cls-5" d="M329.54-463.92c-0.11.39,0.3,1.23-.3,1.46s-0.94-.59-1.36-1a15.22,15.22,0,0,1-4.82-8.9c-0.07-.39-0.34-1,0.1-1.21a1.5,1.5,0,0,1,1.32.34A10.09,10.09,0,0,1,329.54-463.92Z" transform="translate(-270.08 488.4)"/><path class="cls-11" d="M369.11-450.16c0,2.19,1.9,2.46,3.34,3.11,0.73,0.33,1.55.47,2.38,0.79-5.6,1-10.68,2.88-14,8a1.63,1.63,0,0,1-.09-0.38,9.31,9.31,0,0,1,2.2-4,24.1,24.1,0,0,0,5.67-7.09,1,1,0,0,1,.48-0.48h0Z" transform="translate(-270.08 488.4)"/><path class="cls-12" d="M398.17-473.3l3.4-4.5c0.45,1.07-.3,2.29.55,3.2a0.51,0.51,0,0,1-.2.22Z" transform="translate(-270.08 488.4)"/><path class="cls-13" d="M334.53-447.1c1.54-.62,1.54-0.62,2.25,1.48C335.83-445.78,335.38-446.56,334.53-447.1Z" transform="translate(-270.08 488.4)"/><path class="cls-1" d="M365.05-479.72a0.62,0.62,0,0,1,.28.51c-2.78,4.88-5.54,9.78-7.93,14.87a92,92,0,0,0-3.66,9.41,40.55,40.55,0,0,1-4.66,9.93,17.72,17.72,0,0,1,.43-7.17c0.84-2.82,1.66-5.65,2.71-8.41a50,50,0,0,1,7.54-12.9A62,62,0,0,1,365.05-479.72Z" transform="translate(-270.08 488.4)"/><path class="cls-4" d="M308.14-391.87q-6.12-13.76-12.23-27.52a1.37,1.37,0,0,0-1.5-1c-2.48.05-5,0-7.44,0a1.28,1.28,0,0,0-1.43.9c-1.6,3.73-3.29,7.43-4.94,11.14q-5.13,11.51-10.28,23c-0.4.89-.36,1.21,0.74,1.17,2.56-.07,5.12,0,7.68,0a1,1,0,0,0,1.15-.75c1-2.27,2-4.51,3-6.77a1.23,1.23,0,0,1,1.31-.9q6.48,0.07,13,0a1.24,1.24,0,0,1,1.35.87c1,2.23,2,4.45,2.94,6.67a1.08,1.08,0,0,0,1.08.89c3,0,5.91,0,9,0ZM285.2-399c1.83-4,3.63-8.29,5.51-12.6,1.87,4.29,3.66,8.6,5.5,12.6h-11Z" transform="translate(-270.08 488.4)"/><path class="cls-4" d="M462.26-401.53c-0.37-5.47-3.65-8.79-9.13-9-5.63-.16-11.27-0.06-16.91-0.1a0.66,0.66,0,0,0-.82.82c0,1.08,0,2.16,0,3.24,0,1.77-.24,1.54,1.62,1.57,4.68,0.07,9.36-.18,14,0.16a3.49,3.49,0,0,1,3.51,3.38c0.08,0.91-.13,1.21-1.12,1.21-4.28,0-8.56-.22-12.83.2a8.44,8.44,0,0,0-3.93,1.3,8.22,8.22,0,0,0-3.13,8.48,7.26,7.26,0,0,0,6.61,5.82c3.78,0.46,7.59.14,10.73,0.24,4,0,7.29,0,10.61,0,0.63,0,.93-0.1.92-0.84C462.33-390.5,462.63-396,462.26-401.53Zm-8.4,11.68H449v-0.07c-2,0-3.41.05-5.08,0s-2.49-.88-2.52-2.17a2.28,2.28,0,0,1,2.35-2.48c3.43-.1,6.86,0,10.29,0a0.48,0.48,0,0,1,.55.59c0,1.2,0,2.4,0,3.59C454.64-389.79,454.27-389.84,453.86-389.84Z" transform="translate(-270.08 488.4)"/><path class="cls-4" d="M390.29-409.91a20,20,0,0,0-9.93-.87c-6.84,1-11.18,5.13-11.84,11.78-0.62,6.17,1.44,11.19,7.09,13.75a19.66,19.66,0,0,0,10.45,1.34c7.66-.83,12.38-5.89,12.36-13.25C398.41-403.27,395.45-408,390.29-409.91ZM390-394.07c-0.91,3.29-2.95,4.71-6.56,4.7-4.09,0-6.48-2.12-7-6.17a11.34,11.34,0,0,1,1.11-7.08,4.82,4.82,0,0,1,2.68-2.26,8.76,8.76,0,0,1,6.75.23,5.53,5.53,0,0,1,3,4A13,13,0,0,1,390-394.07Z" transform="translate(-270.08 488.4)"/><path class="cls-1" d="M506.92-386.63c-1.12-4-2.3-8-3.38-12.08-0.23-.87-0.57-1.26-1.47-1.05-1-.24-1.36.2-1.61,1.15-1,3.85-2.15,7.67-3.22,11.5-0.44,1.59-.43,1.53,1.23,1.55a1,1,0,0,0,1-1q0.24-.86.5-1.72a0.74,0.74,0,0,1,.73-0.62c2.92-.28,3-0.24,3.84,2.5a1.35,1.35,0,0,0,.16.45c0.62,0.78,1.49.37,2.19,0.3S507-386.31,506.92-386.63Zm-4-4.74h-0.24c-2,.16-2.05.16-1.56-1.77,0.25-1,.53-1.91.85-3.05a34.13,34.13,0,0,1,1.31,4.37A0.31,0.31,0,0,1,502.91-391.38Z" transform="translate(-270.08 488.4)"/></svg>