<svg id="Capa_1" data-name="Capa 1" xmlns="http://www.w3.org/2000/svg" viewBox="0 0 239.8 104.35"><defs><style>.cls-1{fill:#fff;}.cls-2{fill:#fdec00;}.cls-3{fill:none;stroke:#fff;stroke-miterlimit:10;}</style></defs><title>logo-white</title><path class="cls-1" d="M185.35-345.6c3.2-.32,6.18-0.51,9.13-1a8.14,8.14,0,0,1,5.13,1.06c1.7,0.87,3.4,1.76,5.21,2.69,0.26-1.62.81-3,3.15-2.66a12.34,12.34,0,0,1-3-6.73,4.28,4.28,0,0,1-.06-1.77,1.9,1.9,0,0,1,2.43-1.27,11.12,11.12,0,0,1,7.16,4.81c4.29,0.22,6.25,3.16,8.26,6.28,1.67-1.54,2.75-.14,3.94.83a13.63,13.63,0,0,1,4.49,7.41c2.22-.39,2.73-0.16,3.87,1.76a11.35,11.35,0,0,1,1,9.51,2.34,2.34,0,0,0,.83.41c1.47,0,1.65,1.14,1.86,2.2,1.11,5.41,1.08,10.71-1.61,15.74a1.93,1.93,0,0,0,0,1.36c1,2.94,2,5.87,3,8.79L242-299.6c-1.79-1.3-1.49-3.31-1.69-5.1-0.85-7.86,1.76-14.86,5.44-21.59a10,10,0,0,0,.7-1.25,2.05,2.05,0,0,1,2.34-1.35,1.77,1.77,0,0,1,1.68,1.39,15.38,15.38,0,0,0,1.3,2.34c-0.1-1.07-.23-2.14-0.31-3.21a18,18,0,0,1,6.89-16,5.55,5.55,0,0,1,1.44-.82c1.67-.67,2.83,0,3.06,1.82,0.1,0.79.17,1.58,0.27,2.58a33,33,0,0,1,1.78-4.18,21.9,21.9,0,0,1,13.22-10.35,2,2,0,0,1,2.57,2.5c0,0.19,0,.39,0,0.74a2.47,2.47,0,0,0,.41-0.34c2.87-4.15,7-6.23,11.79-7.36,2-.47,2.69-0.09,3.88,2a4.35,4.35,0,0,1,.58-1,16.94,16.94,0,0,1,14.79-4.51,1.94,1.94,0,0,1,1.46,2.6,89.71,89.71,0,0,1-4.75,7.73c-1.37,1.92-3.51,3-5.8,3.78,1.58,0.58,3.08,1.11,4.57,1.68a1.68,1.68,0,0,1,1.36,1.6,2.1,2.1,0,0,1-1.05,2.18,29.29,29.29,0,0,1-10.14,4.11,10.33,10.33,0,0,0-1,.25,0.46,0.46,0,0,0-.15.16,2.22,2.22,0,0,1-.24,4,33.31,33.31,0,0,1-11.23,4.15c1,0.35,1.66.62,2.37,0.86a1.72,1.72,0,0,1,1.21,1.56,1.9,1.9,0,0,1-1.09,2.23A36,36,0,0,1,275-321.43c0.58,0.14.82,0.21,1.08,0.26,1.86,0.37,2.6,2.07,1.42,3.54a55.5,55.5,0,0,1-4.11,4.67c-1.46,1.46-3.1,2.74-4.8,4.21l9.23-2.12,0.1,0.32L273-308.43A111.37,111.37,0,0,0,252.76-297a45.82,45.82,0,0,1-5.45,3,3.93,3.93,0,0,1-.76.23l-0.26-.25a25.27,25.27,0,0,1,2.48-3.2,54.6,54.6,0,0,1,11-7.92c-0.56-.06-0.84-0.12-1.12-0.12a11,11,0,0,1-2.39,0c-2.3-.5-3.62.61-4.92,2.34a54.5,54.5,0,0,0-6,9.74,1.44,1.44,0,0,1-2,.92,49.54,49.54,0,0,1,8.7-13.65,4.29,4.29,0,0,0-1.74-.17,9.81,9.81,0,0,0-3.09,1.91,39.87,39.87,0,0,0-6.44,10.33,8.35,8.35,0,0,0-.35,1.6H236a6.92,6.92,0,0,1-.07-0.88,44.27,44.27,0,0,0-1.34-13.43,16.06,16.06,0,0,0-1.43-3.53,5.7,5.7,0,0,0-1.6-1.31l-0.28.29c0.53,1.6,1.13,3.19,1.59,4.81a31.9,31.9,0,0,1,.65,13c-0.12.91-.46,1.44-1.59,1.07,0.1-1.17.18-2.39,0.32-3.59a23.15,23.15,0,0,0-.7-9.5,24.16,24.16,0,0,0-3-5.39,2.89,2.89,0,0,0-1.33-.73c-5-2.08-7.52-6.2-9.33-11,0.57-2-1.16-2.73-2.19-3.76A79.69,79.69,0,0,0,186-345.27,6.83,6.83,0,0,1,185.35-345.6ZM261.86-326a4.12,4.12,0,0,0,.71-0.57,14.33,14.33,0,0,1,8.36-5.2c1.34-.28,2.71-0.43,4.19-0.65l-0.49-.26c-2.45-1.38-2.62-2.24-.72-4.29a13.21,13.21,0,0,1,9.66-4.34c1,0,2,0,3.27,0-1.4-.93-1.86-1.9-0.82-3.32-2.14,1-3.91,1.93-5.72,2.75-1.46.66-2.17,0.33-2.78-1.27-2,4.64-5.45,7.9-9.41,10.68-1.29.91-2.6,1.86-4.33,1.85a1.23,1.23,0,0,0-.7.78c-0.44,1.28-.8,2.58-1.19,3.88a26.26,26.26,0,0,1-5.62,7.52,25.78,25.78,0,0,1-2.64,1.82l-0.27,3.17c3.35-5.24,8.32-7.14,14.19-8l-2-.59C262.67-322.88,261.78-323.84,261.86-326Zm15,6.74a3.41,3.41,0,0,0-.63-0.31C270-321,264-320.3,258.51-316.82c-3,1.93-4.71,4.92-5.66,8.34-0.28,1,0,1.61,1.12,1.7l0.84,0.07c6.32,0.42,11.63-1.91,16.27-6A35.44,35.44,0,0,0,276.88-319.3Zm-34.5,18a27.22,27.22,0,0,0,8-8.8,15.14,15.14,0,0,0,1.45-3.89c0.71-3.27,0-6.42-1.2-9.48-0.56-1.49-1.29-2.92-2.07-4.65C243.54-319.69,240.14-311.27,242.37-301.34Zm21.94-30.87c6.94-2.12,15.52-14.66,14.94-21.73C270.92-353.9,261.88-340.82,264.32-332.22Zm-10.17,13.55c4.36-3.09,7.74-9.13,7.78-14.12,0-3.22-.25-6.45-0.45-9.67-0.11-1.71-.59-1.95-1.94-0.94a16.25,16.25,0,0,0-6.26,9.74c-0.76,3.35-.15,6.68.15,10C253.57-322,253.88-320.44,254.14-318.67Zm33.68-9.77c-0.38-.2-0.55-0.31-0.73-0.39a29.68,29.68,0,0,0-13.4-1.95,13.17,13.17,0,0,0-8.62,3.67,17.4,17.4,0,0,0-1.69,2.23,16.53,16.53,0,0,0,2.62,1.33,20.56,20.56,0,0,0,12.72-.32A35.23,35.23,0,0,0,287.82-328.44Zm24.85-33.43c-0.64-.14-1.1-0.28-1.57-0.34a16.1,16.1,0,0,0-11.41,3,9.61,9.61,0,0,0-4.06,6.91,1.58,1.58,0,0,0,.5,1.31c4.13,1.06,8,.79,11.26-2.38C309.8-355.68,311.21-358.68,312.67-361.87Zm-16,24.49a23.22,23.22,0,0,0-9.07-2.45c-2.86-.23-5.75-0.33-8.49.89a10.36,10.36,0,0,0-5,4.07C279.22-331.1,289.22-332,296.7-337.38Zm-9.8-5.89c4.51,4,17.14,2.45,20.86-2.46-2.81-1.88-9.31-3-13.3-2.39A10.69,10.69,0,0,0,286.9-343.27Zm8.22-15.13c-6.31-1.56-16.71,8.48-15.77,15.14C285.24-344.49,294.12-353,295.12-358.4Zm-75.85,35.07a2,2,0,0,0,0,.52c0.3,0.74.57,1.49,0.92,2.21,1.95,4.1,4.75,7.26,9.36,8.39,1.3,0.32,1.46.19,1.46-1.17,0-3.58-1.77-6.1-4.79-7.86A13.09,13.09,0,0,0,219.27-323.34ZM235.83-307c2.94-5.31,2.52-10.68,1.13-16.24C231.41-318.31,231.22-313.13,235.83-307Zm-7.22-21.59a11.33,11.33,0,0,0-4.78-15C222.34-339.38,224.95-331.07,228.62-328.6Zm3.66,9.54a73.36,73.36,0,0,0,2.7-7.13,9.09,9.09,0,0,0-1.58-7.85c-0.62-.87-0.93-0.83-1.38.13s-0.76,1.76-1.13,2.64A11.7,11.7,0,0,0,232.28-319.06Zm-4.47-5.12c-0.45-4.08-8.54-7.92-13.15-6.25C217.8-325.73,224.05-322.82,227.81-324.18Zm-21.52-30-0.32.32c0.36,1.49.63,3,1.1,4.46a6.1,6.1,0,0,0,5.19,4.36c1.72,0.29,2,.12,2-1.61-0.08-3.42-2.3-5.28-5.05-6.65A17.4,17.4,0,0,0,206.29-354.16Zm17.08,22.33c-1.22-4-8.15-6.89-12.29-5.26C214.09-332.79,220-330.46,223.37-331.83Zm-17.29-12c2.9,4.59,9.26,6.56,11.36,4.9C216.6-342.7,210.35-345.43,206.08-343.87Zm15.9,6.43c0.82-5.49-2.83-11.77-6.55-11.41A15.84,15.84,0,0,0,222-337.44Zm72-15.2-3.07,3.94,3.56-1ZM228.66-322.7l-1.43.3,2.05,1.43Z" transform="translate(-162.64 363.58)"/><path class="cls-1" d="M368.41-328.89c-4.72,0-9.43-.07-14.15,0-24.55.44-46.26,8.26-64.45,25-3.82,3.52-7.42,7.28-11.15,10.89a2.66,2.66,0,0,1-1.6.79c-7.28.05-14.55,0-21.83,0-0.14,0-.29,0-0.74-0.1,1.51-1.17,2.81-2.19,4.12-3.2a233.34,233.34,0,0,1,33.94-22.14,126.89,126.89,0,0,1,23.77-9.69,90.46,90.46,0,0,1,12.46-2.84c8.55-1.18,17.16-1.86,25.79-.87,4.63,0.53,9.24,1.16,13.87,1.74Z" transform="translate(-162.64 363.58)"/><path class="cls-1" d="M203.88-259.56c-3,0-5.85,0-8.69,0a1.6,1.6,0,0,1-1.06-.86c-1-2.16-2-4.35-2.94-6.55a1.33,1.33,0,0,0-1.44-.94q-6.48.05-13,0a1.32,1.32,0,0,0-1.42.95c-0.92,2.17-1.94,4.29-2.87,6.46a1.39,1.39,0,0,1-1.5,1c-2.71-.06-5.43,0-8.36,0,0.2-.52.32-0.91,0.49-1.28q7.47-16.79,14.92-33.59a1.57,1.57,0,0,1,1.68-1.13c2.4,0.06,4.8,0,7.2,0a1.37,1.37,0,0,1,1.47.92q7.61,17.19,15.25,34.36A7.25,7.25,0,0,1,203.88-259.56Zm-15-14.75-5.63-12.91-5.65,12.91h11.28Z" transform="translate(-162.64 363.58)"/><path class="cls-1" d="M286.17-292.11c0.39-.53.59-0.82,0.81-1.09,13.23-16.14,29.79-27,50.24-31.61a99.84,99.84,0,0,1,17.87-2.53c5.31-.22,10.62-0.29,15.91-0.36-5.94,1.13-11.91,2.12-17.82,3.42a83.07,83.07,0,0,0-20.36,7.23c-10.59,5.45-18.56,13.6-24.5,23.82a2,2,0,0,1-2,1.14c-6.24,0-12.48,0-18.71,0h-1.48Z" transform="translate(-162.64 363.58)"/><path class="cls-1" d="M347.11-275.47c0.37-2.88-.76-4.56-3.43-4.68-4.51-.21-9-0.17-13.54-0.24-2.17,0-2,.34-2-2,0-1.08,0-2.15,0-3.36,0.49,0,.87-0.06,1.25-0.06,4.8,0,9.6,0,14.4,0a20.37,20.37,0,0,1,3.82.33,8.48,8.48,0,0,1,7.09,8.46c0.16,5.48.09,11,.14,16.44a0.86,0.86,0,0,1-1.08,1c-6.72-.08-13.44-0.08-20.15-0.22-4.55-.1-7.53-3.13-7.56-7.45,0-4.65,2.91-7.84,7.55-8,4-.16,8-0.16,12-0.23h1.49ZM341.54-270h0c-1.64,0-3.28-.05-4.91,0s-2.75,1.06-2.76,2.53,0.76,2.26,2.58,2.34c3.31,0.14,6.63.12,9.94,0.19a0.78,0.78,0,0,0,.91-0.94c0-1,0-2.08,0-3.12a0.87,0.87,0,0,0-1.08-1C344.66-270,343.1-270,341.54-270Z" transform="translate(-162.64 363.58)"/><path class="cls-1" d="M276.18-286.31c1.62,0.22,3.27.3,4.85,0.68a12.7,12.7,0,0,1,9.9,12.26c0.4,8.94-5.8,13.77-13.36,14.11a19.94,19.94,0,0,1-8.94-1.22,11.61,11.61,0,0,1-7.39-10.06,13.91,13.91,0,0,1,2.41-10.33c2.43-3.26,5.85-4.69,9.77-5.15,0.91-.11,1.83-0.12,2.75-0.18v-0.09Zm7,13.61h-0.1c0-.44,0-0.88,0-1.32-0.22-3.93-2.2-6.29-6-6.75-4-.49-7.17,1-8,5.36a17.33,17.33,0,0,0-.08,5c0.42,3.71,3,5.84,6.9,5.92s6.25-1.89,6.9-5.59C283-271,283.1-271.84,283.2-272.71Z" transform="translate(-162.64 363.58)"/><path class="cls-1" d="M294.89-259.64c0-1.69-.05-3.28,0-4.87a2.1,2.1,0,0,1,.77-1.12q7.22-6.76,14.47-13.49a5.88,5.88,0,0,1,1.25-.69l-0.41-.56H295v-5.35h26.45c0,1.68,0,3.34,0,5a2,2,0,0,1-.77,1q-7.22,6.76-14.47,13.49a5.72,5.72,0,0,1-1.14.65l0.34,0.5c0.41,0,.83.07,1.24,0.07,4.52,0,9,0,13.55,0,1.08,0,1.39.34,1.33,1.37-0.08,1.3,0,2.61,0,4H294.89Z" transform="translate(-162.64 363.58)"/><path class="cls-1" d="M316.58-292.55c2.84-3.8,5.56-7.7,8.55-11.38,8-9.86,18.62-15.48,30.82-18.34,3.53-.83,7.08-1.54,10.68-2.07-1.29.42-2.59,0.83-3.87,1.28C348-317.9,338.1-307.79,332.25-293.5a1.87,1.87,0,0,1-2.07,1.42c-4-.08-8,0-12,0h-1.29Z" transform="translate(-162.64 363.58)"/><path class="cls-1" d="M242.73-259.56c-2.44,0-4.67,0-6.9,0a1.26,1.26,0,0,1-.66-0.73,2.11,2.11,0,0,1,0-.83q0-11.57,0-23.13c0-.44,0-0.87,0-1.44,0.46,0,.84-0.07,1.22-0.07,3.84,0,7.67,0,11.51,0a21.58,21.58,0,0,1,3.46.29c4.08,0.71,5.8,2.59,6.19,6.84,0.13,1.42,0,2.87,0,4.41h-7.14c-0.12-1.15-.2-2.26-0.37-3.35a2.88,2.88,0,0,0-2.64-2.55c-1.14-.17-2.31-0.14-3.45-0.27s-1.21.37-1.21,1.26c0,4.59,0,9.19,0,13.78C242.73-263.49,242.73-261.62,242.73-259.56Z" transform="translate(-162.64 363.58)"/><path class="cls-1" d="M208.26-285.8c2.4,0,4.63,0,6.86,0,2.79,0,5.59.06,8.38,0.23,4.62,0.29,6.76,2.44,7.13,7.05,0.11,1.38,0,2.78,0,4.28h-7.29c0-.64,0-1.3,0-2-0.08-2.58-1-3.64-3.47-4-0.82-.14-1.68-0.06-2.5-0.17-1.2-.15-1.59.28-1.57,1.51,0.07,5.28,0,10.55,0,15.83,0,1.11,0,2.22,0,3.5-2.44,0-4.74,0-7,0a1.27,1.27,0,0,1-.52-1c0-2.08,0-4.16,0-6.23q0-8.75,0-17.51v-1.5Z" transform="translate(-162.64 363.58)"/><path class="cls-1" d="M369.94-259.56c-2.45,0-4.68,0-6.91,0a1.11,1.11,0,0,1-.65-0.63,2.06,2.06,0,0,1,0-.83c0-11,0-22,0-33,0-1.21.32-1.63,1.54-1.55a43,43,0,0,0,4.67,0c1.1-.05,1.43.33,1.43,1.43,0,8.91,0,17.82,0,26.73C369.94-264.84,369.94-262.29,369.94-259.56Z" transform="translate(-162.64 363.58)"/><path class="cls-1" d="M258.67-355.68c-0.77,1.33-1.56,2.64-2.31,4A129.31,129.31,0,0,0,247.26-333c-1.38,3.77-3,7.45-4.57,11.16a6.74,6.74,0,0,1-.69,1.12,1.35,1.35,0,0,1-.35.23,11.82,11.82,0,0,1,.12-5.88c1.4-5.63,3.13-11.14,6.14-16.14a75.23,75.23,0,0,1,9.44-12.34c0.33-.36.73-0.66,1.09-1Z" transform="translate(-162.64 363.58)"/><path class="cls-1" d="M384.71-274.85v2.14c-1.52,0-3,0-4.53,0-1.29,0-1.71.55-1.67,1.81a1.48,1.48,0,0,0,1.56,1.6c0.8,0.05,1.6,0,2.4,0a2.49,2.49,0,0,1,2.57,1.92,6.92,6.92,0,0,1,0,4.46,2.48,2.48,0,0,1-2.39,1.85c-1.83.06-3.66,0-5.59,0v-2.29c1.49,0,2.92,0,4.34,0s2-.73,1.87-2.15a1.5,1.5,0,0,0-1.54-1.51c-0.6,0-1.2,0-1.8,0-2,0-3-.77-3.34-2.69a7.84,7.84,0,0,1,0-2.62c0.37-2,1.29-2.72,3.41-2.72,1.48,0,3,0,4.44,0A1.13,1.13,0,0,1,384.71-274.85Z" transform="translate(-162.64 363.58)"/><path class="cls-1" d="M399.6-261.12c-2,.37-2,0.36-2.56-1.41-0.19-.61-0.47-1.58-0.86-1.66a9.13,9.13,0,0,0-3.31,0c-0.29.05-.5,0.92-0.65,1.43-0.56,1.87-.55,1.87-2.58,1.65a6.56,6.56,0,0,1,.13-0.9c1.13-4,2.3-8,3.39-12a1.28,1.28,0,0,1,1.48-1.11A1.19,1.19,0,0,1,396-274c1.11,4.07,2.28,8.13,3.42,12.19C399.51-261.57,399.55-261.35,399.6-261.12Zm-6.47-5.64h3l-1.37-4.75-0.3,0Z" transform="translate(-162.64 363.58)"/><path class="cls-1" d="M388.28-261h-1.37v-2.41h1.37V-261Z" transform="translate(-162.64 363.58)"/><path class="cls-1" d="M402.44-263.4v2.34H401v-2.34h1.42Z" transform="translate(-162.64 363.58)"/><path class="cls-2" d="M276.88-319.3a35.44,35.44,0,0,1-5.8,6.56c-4.64,4.12-9.95,6.45-16.27,6l-0.84-.07c-1.1-.08-1.4-0.68-1.12-1.7,1-3.42,2.62-6.41,5.66-8.34C264-320.3,270-321,276.25-319.6A3.41,3.41,0,0,1,276.88-319.3Z" transform="translate(-162.64 363.58)"/><path class="cls-2" d="M242.37-301.34c-2.24-9.92,1.16-18.35,6.21-26.81,0.78,1.73,1.5,3.16,2.07,4.65,1.15,3.06,1.91,6.21,1.2,9.48a15.14,15.14,0,0,1-1.45,3.89A27.22,27.22,0,0,1,242.37-301.34Z" transform="translate(-162.64 363.58)"/><path class="cls-2" d="M264.32-332.22c-2.44-8.6,6.61-21.68,14.94-21.73C279.84-346.88,271.25-334.34,264.32-332.22Z" transform="translate(-162.64 363.58)"/><path class="cls-2" d="M254.14-318.67c-0.26-1.77-.57-3.37-0.72-5-0.3-3.33-.91-6.66-0.15-10a16.25,16.25,0,0,1,6.26-9.74c1.35-1,1.84-.77,1.94.94,0.2,3.22.48,6.45,0.45,9.67C261.88-327.8,258.51-321.76,254.14-318.67Z" transform="translate(-162.64 363.58)"/><path class="cls-2" d="M287.82-328.44a35.23,35.23,0,0,1-9.1,4.57,20.56,20.56,0,0,1-12.72.32,16.53,16.53,0,0,1-2.62-1.33,17.4,17.4,0,0,1,1.69-2.23,13.17,13.17,0,0,1,8.62-3.67,29.68,29.68,0,0,1,13.4,1.95C287.27-328.75,287.44-328.65,287.82-328.44Z" transform="translate(-162.64 363.58)"/><path class="cls-2" d="M312.67-361.87c-1.46,3.19-2.87,6.19-5.27,8.55-3.22,3.16-7.13,3.44-11.26,2.38a1.58,1.58,0,0,1-.5-1.31,9.61,9.61,0,0,1,4.06-6.91,16.1,16.1,0,0,1,11.41-3C311.58-362.15,312-362,312.67-361.87Z" transform="translate(-162.64 363.58)"/><path class="cls-2" d="M296.7-337.38c-7.49,5.4-17.49,6.28-22.52,2.51a10.36,10.36,0,0,1,5-4.07c2.74-1.22,5.63-1.12,8.49-.89A23.22,23.22,0,0,1,296.7-337.38Z" transform="translate(-162.64 363.58)"/><path class="cls-2" d="M286.9-343.27a10.69,10.69,0,0,1,7.56-4.85c4-.64,10.49.51,13.3,2.39C304-340.82,291.42-339.27,286.9-343.27Z" transform="translate(-162.64 363.58)"/><path class="cls-2" d="M295.12-358.4c-1,5.43-9.88,13.91-15.77,15.14C278.41-349.92,288.81-360,295.12-358.4Z" transform="translate(-162.64 363.58)"/><path class="cls-2" d="M219.27-323.34a13.09,13.09,0,0,1,7,2.09c3,1.77,4.78,4.28,4.79,7.86,0,1.36-.16,1.49-1.46,1.17-4.61-1.13-7.41-4.29-9.36-8.39-0.34-.72-0.62-1.47-0.92-2.21A2,2,0,0,1,219.27-323.34Z" transform="translate(-162.64 363.58)"/><path class="cls-2" d="M235.83-307c-4.61-6.12-4.42-11.29,1.13-16.24C238.35-317.7,238.77-312.33,235.83-307Z" transform="translate(-162.64 363.58)"/><path class="cls-2" d="M228.62-328.6c-3.67-2.47-6.27-10.78-4.78-15A11.33,11.33,0,0,1,228.62-328.6Z" transform="translate(-162.64 363.58)"/><path class="cls-2" d="M232.28-319.06a11.7,11.7,0,0,1-1.39-12.2c0.36-.89.72-1.77,1.13-2.64s0.76-1,1.38-.13a9.09,9.09,0,0,1,1.58,7.85A73.36,73.36,0,0,1,232.28-319.06Z" transform="translate(-162.64 363.58)"/><path class="cls-2" d="M227.81-324.18c-3.76,1.37-10-1.54-13.15-6.25C219.27-332.11,227.36-328.26,227.81-324.18Z" transform="translate(-162.64 363.58)"/><path class="cls-2" d="M206.29-354.16a17.4,17.4,0,0,1,2.87.88c2.75,1.38,5,3.24,5.05,6.65,0,1.73-.24,1.9-2,1.61a6.1,6.1,0,0,1-5.19-4.36c-0.46-1.45-.74-3-1.1-4.46Z" transform="translate(-162.64 363.58)"/><path class="cls-2" d="M223.37-331.83c-3.36,1.37-9.28-1-12.29-5.26C215.21-338.72,222.14-335.8,223.37-331.83Z" transform="translate(-162.64 363.58)"/><path class="cls-2" d="M206.08-343.87c4.27-1.56,10.52,1.17,11.36,4.9C215.34-337.31,209-339.28,206.08-343.87Z" transform="translate(-162.64 363.58)"/><path class="cls-2" d="M222-337.44a15.84,15.84,0,0,1-6.55-11.41C219.14-349.22,222.8-342.93,222-337.44Z" transform="translate(-162.64 363.58)"/><path class="cls-3" d="M243.25-291.89a21.6,21.6,0,0,1,2.59-5.25,62.54,62.54,0,0,1,5-7,1.92,1.92,0,0,1,2.42-.85,7.08,7.08,0,0,0,3.56-.12,3.59,3.59,0,0,1,1.73-.11c-5.12,3.27-10.47,6.15-13.77,11.49a17.23,17.23,0,0,0,5.13-2.36c3.79-2.2,7.15-5,11.06-7.08,4.44-2.32,8.94-4.5,13.54-6.47a10.39,10.39,0,0,0,1.26-.72,68.44,68.44,0,0,0-9.39,2.06,43.48,43.48,0,0,0,9.41-9.08,2,2,0,0,0-.14-2.9,2,2,0,0,0-1-.49,0.93,0.93,0,0,1-.81-0.61,34.68,34.68,0,0,0,4.53-1.23,40.49,40.49,0,0,0,8-4,2.08,2.08,0,0,0-.37-3.26l-2.74-1.22a27.77,27.77,0,0,0,4.84-1.1,33.9,33.9,0,0,0,6.91-3.2,2,2,0,0,0,.75-2.73,2,2,0,0,0-.66-0.69,0.58,0.58,0,0,1-.5-0.55,18.08,18.08,0,0,0,4.89-1,30.82,30.82,0,0,0,7-3.48c1-.65.76-2.73-0.3-3.28a18.67,18.67,0,0,0-4.84-1.66,2.24,2.24,0,0,1,1.67-.75,75.9,75.9,0,0,1,24.36,18.81,3.93,3.93,0,0,1,.36.6c0,0.54-.41.51-0.74,0.58-2.3.45-4.61,0.87-6.9,1.41a117.61,117.61,0,0,0-17.51,5.71,148,148,0,0,0-16.86,8.33,218.67,218.67,0,0,0-18.48,11.78c-4.53,3.2-9,6.49-13.3,10a3.18,3.18,0,0,1-1.19.55Z" transform="translate(-162.64 363.58)"/><path class="cls-3" d="M213.67-328.09c1.79,1.11,3,2.81,4.59,4.18a0.56,0.56,0,0,1,.16.44c-0.45,2.38,1.07,4.14,2.11,5.94a13.88,13.88,0,0,0,7.72,6.48,1.6,1.6,0,0,1,.81.66c1.53,2.28,3,4.5,3.4,7.38a67.52,67.52,0,0,1,.35,6.91c0,1.45-.56,2.81-0.54,4.26H199.68c-1.1,0-1.17-.33-1-1.31a73.59,73.59,0,0,1,14.48-34.37Q213.4-327.81,213.67-328.09Z" transform="translate(-162.64 363.58)"/><path class="cls-3" d="M284.74-355.85a20.25,20.25,0,0,0-3.69,4.39,0.44,0.44,0,0,1-.1-0.61v0c0.79-1.24.06-2.06-.78-2.84s-1.53-.23-2.32,0a21.89,21.89,0,0,0-12.61,10.42,17.48,17.48,0,0,0-1.55,3.77c-0.19-.92-0.43-1.83-0.57-2.76a1.88,1.88,0,0,0-1.87-1.89,1.88,1.88,0,0,0-1.13.37,15.85,15.85,0,0,0-6.18,6.6c-2.07,3.61-2.14,7.57-1.93,11.57v1.19a0.69,0.69,0,0,1-.22.19,20.07,20.07,0,0,1-1.18-2.36c-0.31-.89-1-0.78-1.65-0.84a1.53,1.53,0,0,0-1.74.7,57.23,57.23,0,0,0-5.62,12.66,25.27,25.27,0,0,0-.8,10.19c0.19,1.42-.09,2.9.55,4.25a1.43,1.43,0,0,0,.12.45c1.6,0.93.54,1.86,0,2.75-0.36.57-.41,1.35-1.2,1.73a49.61,49.61,0,0,0-1.68-6,6,6,0,0,0-.57-1.66c-1.14-1.49-.41-2.79.18-4.19,1.39-3.29,2.26-6.66,1.48-10.3a37,37,0,0,1-.53-3.89,2,2,0,0,0-1.84-2.15h0a0.62,0.62,0,0,1-.63-0.86,19.25,19.25,0,0,0,.51-3.41,12.18,12.18,0,0,0-2.06-6.22c-0.64-.93-1.49-1.94-2.94-1.14-0.22.12-.65,0.28-0.73-0.26a13.51,13.51,0,0,0-2.93-5.94,3.89,3.89,0,0,1-.23-0.42,49.37,49.37,0,0,1,7.62-5A70.3,70.3,0,0,1,251.52-354a41.82,41.82,0,0,1,5.88-1.43c0.45,0,1.16-.36.8,0.64-1.78,2-3.5,4.13-5.19,6.26a49.59,49.59,0,0,0-7.74,13.41,83,83,0,0,0-2.92,9.86,22.06,22.06,0,0,0-.13,4.12,14.08,14.08,0,0,0,1.81-3.15c1.42-3.09,2.45-6.32,3.6-9.51a102,102,0,0,1,7.24-15.12,58.87,58.87,0,0,1,3.2-5.48c0.44-.44.51-1.21,1.24-1.39a72.22,72.22,0,0,1,12.48-1.16,83.11,83.11,0,0,1,11.93.75A6.47,6.47,0,0,1,284.74-355.85Z" transform="translate(-162.64 363.58)"/></svg>