<svg id="Capa_1" data-name="Capa 1" xmlns="http://www.w3.org/2000/svg" viewBox="0 0 298 398"><defs><style>.cls-1{fill:#fdab00;}.cls-2{fill:#019746;}.cls-3{fill:#009746;}.cls-4{fill:#009646;}.cls-5{fill:#fcec01;}.cls-6{fill:#079549;}.cls-7{fill:#049547;}.cls-8{fill:#96af4a;}.cls-9{fill:#fdec00;}.cls-10{fill:#fcec00;}.cls-11{fill:#faab02;}.cls-12{fill:#e6ab08;}.cls-13{fill:#bca918;}</style></defs><title>map-logo-svg</title><path class="cls-1" d="M1128.28,1535c-82.29,0-149,66.82-149,149.25,0,60.18,20.93,77,133.69,240.72a18.61,18.61,0,0,0,30.62,0c112.76-163.74,133.69-180.54,133.69-240.72C1277.28,1601.82,1210.57,1535,1128.28,1535Zm0,259a110,110,0,1,1,110-110A110,110,0,0,1,1128.28,1794Z" transform="translate(-979.28 -1535)"/><path class="cls-2" d="M1137.79,1638.14a20.21,20.21,0,0,1,4.86-2.49,7,7,0,0,1,2-.35c0.88,0,1.69.09,1.81,1.39a11.39,11.39,0,0,1,4.46-3.11,13,13,0,0,1,6.4-.84,1.56,1.56,0,0,1,1.35,2.42,34.07,34.07,0,0,1-1.83,3.39,11.05,11.05,0,0,1-4.45,4.14,1.88,1.88,0,0,1-.67.44,11.26,11.26,0,0,1,2.64.88,1.52,1.52,0,0,1,1.13,1.36,1.8,1.8,0,0,1-.9,1.88,25.52,25.52,0,0,1-4.82,2.26,17.74,17.74,0,0,1-2.87.72,1.52,1.52,0,0,1,.62,1.71,1.62,1.62,0,0,1-1,1.23,22.1,22.1,0,0,1-7.45,2.87,1.49,1.49,0,0,0,.72.34,1.39,1.39,0,0,1,1.2,1.16,1.92,1.92,0,0,1-.9,2A27.33,27.33,0,0,1,1132,1663a1.74,1.74,0,0,1,.89,3,28.84,28.84,0,0,1-5.92,5.86,36.9,36.9,0,0,1,5-1.16c0.3,0,.72-0.21.85,0.14s-0.33.47-.6,0.58c-2,.87-4,1.81-5.93,2.74a59.55,59.55,0,0,0-9.7,5.67,28.67,28.67,0,0,1-4.89,2.87l-0.08,0a0.91,0.91,0,0,1-1,.11c-0.28-.31.08-0.68,0.27-1a11,11,0,0,1,2.62-2.8,49.19,49.19,0,0,1,5.44-3.89,4.56,4.56,0,0,0,.83-0.49,6.11,6.11,0,0,1-3.58.14,0.66,0.66,0,0,0-.72.27,35.9,35.9,0,0,0-5.12,7.5,5.55,5.55,0,0,1-.85,1.48,1.65,1.65,0,0,1-1.23,0,1.37,1.37,0,0,1,.21-1,34.4,34.4,0,0,1,5.07-8c0.16-.18.47-0.37,0.27-0.64a0.67,0.67,0,0,0-.72-0.05,4,4,0,0,0-2.06,1.48,38.7,38.7,0,0,0-4.14,6.61,10.91,10.91,0,0,1-.47,1.63,14.63,14.63,0,0,1-3.45,0,1.73,1.73,0,0,1-.24-1.23,35.67,35.67,0,0,0-.33-6.59,22.22,22.22,0,0,0-1.15-4.21,2,2,0,0,0-1-1.2,1.34,1.34,0,0,0,.21.88,21.64,21.64,0,0,1,1.08,11.55,1.3,1.3,0,0,1-.3.79,1.67,1.67,0,0,1-1.07,0,1.83,1.83,0,0,1-.1-1.34,20,20,0,0,0,0-6.39,11.1,11.1,0,0,0-2-4.79,3,3,0,0,0-1.33-1.17c-3.49-1.48-5.48-4.3-6.76-7.72a0.39,0.39,0,0,1,0-.16c0.17-1.53-1-2.25-1.91-3.13a5.88,5.88,0,0,1-1.25-1.28,38.32,38.32,0,0,0-5.66-4.67,58.4,58.4,0,0,0-14.56-7.78l4.41-.47a11.75,11.75,0,0,0,1.62-.16,6.6,6.6,0,0,1,5,1c0.85,0.47,1.72.9,2.56,1.38,0.36,0.21.57,0.24,0.63-.22,0.15-1.1.77-1.59,2.1-1.35a9.54,9.54,0,0,1-2.21-5.35,1.5,1.5,0,0,1,1.74-1.77,8,8,0,0,1,5,3.09,0.93,0.93,0,0,0,1,.52,3,3,0,0,1,2.25.9,8.41,8.41,0,0,1,2.6,3c0.2,0.44.43,0.48,0.77,0.19a1,1,0,0,1,1.38.09c0.65,0.42,1.16,1,1.77,1.48a2,2,0,0,1,.93,1,9.35,9.35,0,0,1,1.34,2.59c0.18,0.62.39,1,1.17,0.79a1.13,1.13,0,0,1,.92.37,4.21,4.21,0,0,1,1.21,1.54,7.4,7.4,0,0,1,.77,5.55,0.82,0.82,0,0,0,.4,1.1l0.21,0.07a1.56,1.56,0,0,1,1.05,1.43c0.3,1.29.28,2.61,0.57,3.9a9.82,9.82,0,0,1-.44,4.23,13.11,13.11,0,0,1-1.19,3.3,1.29,1.29,0,0,0,0,1.16,39.67,39.67,0,0,1,1.81,5.73,0.59,0.59,0,0,0,.26-0.33,2,2,0,0,0,.24-2.6c-0.67-1.07-.39-2.41-0.48-3.62a21.39,21.39,0,0,1,2.1-10.9c0.72-1.58,1.5-3.16,2.34-4.69a1.68,1.68,0,0,1,1.63-1,1.48,1.48,0,0,1,1.56,1c0.11,0.29.28,0.57,0.43,0.9v-3.21a12,12,0,0,1,2.69-7.44,11.52,11.52,0,0,1,2.57-2.51,2.54,2.54,0,0,1,1.85-.53,1.24,1.24,0,0,1,1.14.9,12.56,12.56,0,0,1,.4,1.71,3.73,3.73,0,0,1,.49-1.31,15.77,15.77,0,0,1,10-8.45,1.77,1.77,0,0,1,2.19,2A5.11,5.11,0,0,1,1137.79,1638.14Z" transform="translate(-979.28 -1535)"/><path class="cls-1" d="M1109.49,1684a15.48,15.48,0,0,1,1.86-3.76,44.82,44.82,0,0,1,3.62-5,1.38,1.38,0,0,1,1.73-.61,5.07,5.07,0,0,0,2.55-.09,2.57,2.57,0,0,1,1.24-.08c-3.67,2.34-7.5,4.41-9.87,8.23a12.35,12.35,0,0,0,3.68-1.69c2.72-1.58,5.12-3.58,7.93-5.07,3.18-1.66,6.41-3.22,9.7-4.64a7.44,7.44,0,0,0,.9-0.52,49,49,0,0,0-6.73,1.48,31.16,31.16,0,0,0,6.74-6.51,1.47,1.47,0,0,0-.8-2.43,0.67,0.67,0,0,1-.58-0.44,24.85,24.85,0,0,0,3.25-.88,29,29,0,0,0,5.73-2.87,1.49,1.49,0,0,0-.27-2.34l-2-.87a19.9,19.9,0,0,0,3.47-.79,24.29,24.29,0,0,0,5-2.29,1.43,1.43,0,0,0,.06-2.45,0.41,0.41,0,0,1-.36-0.39,13,13,0,0,0,3.5-.72,22.09,22.09,0,0,0,5-2.49,1.53,1.53,0,0,0-.21-2.35,13.38,13.38,0,0,0-3.47-1.19,1.61,1.61,0,0,1,1.2-.54,54.39,54.39,0,0,1,17.46,13.48,2.82,2.82,0,0,1,.26.43c0,0.39-.29.37-0.53,0.42-1.65.32-3.3,0.62-4.94,1a84.28,84.28,0,0,0-12.55,4.09,106.07,106.07,0,0,0-12.08,6,156.71,156.71,0,0,0-13.24,8.44c-3.25,2.29-6.45,4.65-9.53,7.17a2.28,2.28,0,0,1-.85.39Z" transform="translate(-979.28 -1535)"/><path class="cls-1" d="M1086.85,1658a28.21,28.21,0,0,1,3.29,3,0.4,0.4,0,0,1,.11.32c-0.32,1.71.77,3,1.51,4.26a10,10,0,0,0,5.53,4.64,1.15,1.15,0,0,1,.58.47,12.52,12.52,0,0,1,2.44,5.29,48.39,48.39,0,0,1,.25,5c0,1-.4,2-0.39,3.05h-23.36c-0.79,0-.84-0.24-0.72-0.94a52.74,52.74,0,0,1,10.38-24.63Q1086.66,1658.23,1086.85,1658Z" transform="translate(-979.28 -1535)"/><path class="cls-3" d="M1116.35,1684c2.15-1.82,4.39-3.48,6.64-5.14a150.57,150.57,0,0,1,24.74-15.12,88,88,0,0,1,11.37-4.46,54.72,54.72,0,0,1,7.17-1.84c1.3-.22,2.58-0.57,3.87-0.86l5.37-.54a70.16,70.16,0,0,1,12.53,0,79.64,79.64,0,0,1,10.1,1.47c0.28,0.06.54,0.15,1,.28a135,135,0,0,0-14.57.06c-13.62.83-26.11,4.8-37.09,13.1a104.46,104.46,0,0,0-13.62,12.48,1.81,1.81,0,0,1-1.48.67h-15.21A6.42,6.42,0,0,0,1116.35,1684Z" transform="translate(-979.28 -1535)"/><path class="cls-1" d="M1137.79,1638.14a14.51,14.51,0,0,0-2.64,3.15,0.32,0.32,0,0,1-.07-0.44h0c0.57-.89,0-1.48-0.56-2s-1.1-.16-1.66,0a15.69,15.69,0,0,0-9,7.47,12.53,12.53,0,0,0-1.11,2.7c-0.14-.66-0.31-1.31-0.41-2a1.35,1.35,0,0,0-2.15-1.09,11.36,11.36,0,0,0-4.43,4.73c-1.48,2.59-1.53,5.43-1.38,8.29v0.85a0.49,0.49,0,0,1-.16.14,14.38,14.38,0,0,1-.85-1.69,1,1,0,0,0-1.18-.6,1.1,1.1,0,0,0-1.25.5,41,41,0,0,0-4,9.07,18.11,18.11,0,0,0-.57,7.3,9.7,9.7,0,0,0,.39,3,1,1,0,0,0,.09.32c1.15,0.67.39,1.33,0,2a2.35,2.35,0,0,1-.86,1.24,35.55,35.55,0,0,0-1.2-4.3,4.3,4.3,0,0,0-.41-1.19c-0.82-1.07-.29-2,0.13-3a12.06,12.06,0,0,0,1.06-7.38,26.51,26.51,0,0,1-.38-2.79,1.43,1.43,0,0,0-1.32-1.54h0a0.45,0.45,0,0,1-.45-0.62,13.79,13.79,0,0,0,.37-2.44,8.73,8.73,0,0,0-1.48-4.46c-0.46-.67-1.07-1.39-2.11-0.82-0.16.09-.47,0.2-0.52-0.19a9.68,9.68,0,0,0-2.1-4.26,2.78,2.78,0,0,1-.16-0.3,35.38,35.38,0,0,1,5.46-3.58,50.38,50.38,0,0,1,11.21-4.72,30,30,0,0,1,4.21-1c0.32,0,.83-0.26.57,0.46-1.28,1.43-2.51,3-3.72,4.49a35.54,35.54,0,0,0-5.55,9.61,59.48,59.48,0,0,0-2.09,7.07,15.81,15.81,0,0,0-.09,3,10.09,10.09,0,0,0,1.3-2.26c1-2.21,1.76-4.53,2.58-6.82a73.1,73.1,0,0,1,5.19-10.84,42.19,42.19,0,0,1,2.29-3.93,2.18,2.18,0,0,1,.89-1,51.75,51.75,0,0,1,8.94-.83,59.56,59.56,0,0,1,8.55.54A4.64,4.64,0,0,1,1137.79,1638.14Z" transform="translate(-979.28 -1535)"/><path class="cls-3" d="M1200.44,1658.56c-4.44.64-8.85,1.35-13.19,2.39-8.19,2-15.94,4.89-22.47,10.42a45.77,45.77,0,0,0-9.85,12,1.08,1.08,0,0,1-1,.72h-14.33a5.94,5.94,0,0,1-.59-0.07,42.4,42.4,0,0,1,3.35-4,63.66,63.66,0,0,1,22.7-16.17,69.77,69.77,0,0,1,17.86-4.67,95.51,95.51,0,0,1,16.55-.72Z" transform="translate(-979.28 -1535)"/><path class="cls-2" d="M1152.91,1703.18a1.71,1.71,0,0,0,.95.1h9.71c0.78,0,1,.23.93,1a22.43,22.43,0,0,0,0,2.49,0.51,0.51,0,0,1-.62.64h-18.05c-0.48,0-.61-0.18-0.55-0.59a0.56,0.56,0,0,0,0-.09c-0.06-3.28-.05-3.26,2.39-5.5,3-2.73,5.9-5.49,8.84-8.23a5.81,5.81,0,0,0,.43-0.49h-11c-0.54,0-.72-0.15-0.67-0.67,0-.95,0-1.89,0-2.87a0.43,0.43,0,0,1,.53-0.53h18.14a0.44,0.44,0,0,1,.55.53v2.92a1.24,1.24,0,0,1-.61,1l-10.41,9.71A6.19,6.19,0,0,1,1152.91,1703.18Z" transform="translate(-979.28 -1535)"/><path class="cls-3" d="M1197,1660.9c-10.68,3-18.63,9.21-23.56,19.24-0.54,1.1-1,2.23-1.5,3.35a0.77,0.77,0,0,1-.81.58h-10.35a27,27,0,0,1,2-3.2,47.41,47.41,0,0,1,10.71-11.69,41.24,41.24,0,0,1,14.06-6.51,84,84,0,0,1,8.94-1.91C1196.71,1660.71,1197,1660.51,1197,1660.9Z" transform="translate(-979.28 -1535)"/><path class="cls-4" d="M1102.46,1697.82v-8.68a0.57,0.57,0,0,1,.72-0.72h9.11a10,10,0,0,1,3.29.55,4.48,4.48,0,0,1,3,4.3c0.08,1.05.05,2.15,0.09,3.17a0.45,0.45,0,0,1-.56.54h-4.3a0.44,0.44,0,0,1-.53-0.55,7.17,7.17,0,0,0-.2-2.21,2.11,2.11,0,0,0-1.81-1.61c-1-.16-2.23-0.53-3,0-0.59.4-.18,1.66-0.19,2.53v11.43c0,0.63-.14.84-0.8,0.81-1.38-.06-2.75,0-4.12,0a0.57,0.57,0,0,1-.72-0.72C1102.48,1703.72,1102.46,1700.77,1102.46,1697.82Z" transform="translate(-979.28 -1535)"/><path class="cls-4" d="M1083.19,1697.89v-8.68c0-.67.19-0.8,0.82-0.79,2.92,0,5.84,0,8.76,0a11.47,11.47,0,0,1,3.14.42c2.15,0.62,3.23,2.06,3.44,4.67,0.07,0.94,0,1.89.06,2.87a0.48,0.48,0,0,1-.57.61h-4.3c-0.44,0-.52-0.19-0.51-0.57a6.94,6.94,0,0,0-.14-2,2.15,2.15,0,0,0-2.15-1.88c-0.72-.07-1.43-0.05-2.15-0.13s-0.81.19-.8,0.82c0,4.35,0,8.71,0,13.06,0,0.9-.24,1.1-1.09,1.06-1.28-.07-2.58-0.05-3.86,0a0.58,0.58,0,0,1-.72-0.72C1083.21,1703.73,1083.19,1700.82,1083.19,1697.89Z" transform="translate(-979.28 -1535)"/><path class="cls-2" d="M1193.62,1694.47v-12.18c0-.72.2-0.87,0.87-0.85,1.26,0.05,2.52.06,3.78,0,0.76,0,1,.16,1,1,0,6.54,0,13.07,0,19.61,0,1.43-.06,2.87,0,4.3,0.06,0.95-.28,1.14-1.14,1.09a31.59,31.59,0,0,0-3.53,0,0.78,0.78,0,0,1-1-1C1193.65,1702.47,1193.62,1698.46,1193.62,1694.47Z" transform="translate(-979.28 -1535)"/><path class="cls-2" d="M1206.36,1706.34h-1.2c-1.11,0-1.39-.39-1.13-1.48,0.1-.39.37-0.29,0.59-0.29h2.66a1.09,1.09,0,0,0,1.3-1.21,1.12,1.12,0,0,0-1.33-1.27H1206a2,2,0,0,1-2.19-1.65,4.57,4.57,0,0,1,0-2.62,2,2,0,0,1,2.19-1.62c1,0,2.06,0,3.09,0,0.77-.05.72,0.38,0.72,0.9s0.05,1-.77.95-1.88,0-2.87,0a0.88,0.88,0,0,0-1,1,1,1,0,0,0,.92,1.2c0.6,0,1.2,0,1.8.05a2,2,0,0,1,2,1.63,4.71,4.71,0,0,1-.06,3,1.88,1.88,0,0,1-2,1.48h-1.63Z" transform="translate(-979.28 -1535)"/><path class="cls-5" d="M1106.41,1684c-0.24-1.18.5-2,1-3a28,28,0,0,1,3.51-5.4,3.57,3.57,0,0,1,2.76-1.62,0.57,0.57,0,0,1,.62.16,0.51,0.51,0,0,1-.24.57,35.46,35.46,0,0,0-5.78,9.25Z" transform="translate(-979.28 -1535)"/><path class="cls-5" d="M1101.24,1684a38.31,38.31,0,0,0,.38-4.69,21,21,0,0,0-1.66-8.16c-0.1-.24-0.34-0.57-0.09-0.79s0.53,0.12.72,0.26a3,3,0,0,1,1,1.55c1.43,3.83,1.5,7.83,1.37,11.84h-1.71Z" transform="translate(-979.28 -1535)"/><path class="cls-6" d="M1212.43,1705.33c-0.09.42,0.29,1-.66,1s-0.6-.57-0.6-1-0.28-1.06.64-1.05S1212.35,1704.94,1212.43,1705.33Z" transform="translate(-979.28 -1535)"/><path class="cls-7" d="M1221.28,1705.33c0.08-.44-0.24-1,0.63-1s0.56,0.72.62,1.15,0.16,0.87-.62.87C1220.95,1706.37,1221.41,1705.72,1221.28,1705.33Z" transform="translate(-979.28 -1535)"/><path class="cls-3" d="M1197,1660.9a0.76,0.76,0,0,0-.5-0.16,10,10,0,0,1,2.74-.39Z" transform="translate(-979.28 -1535)"/><path class="cls-8" d="M1119.56,1638.22a2.56,2.56,0,0,1-.72,1,0.32,0.32,0,0,1-.2-0.37c0.16-.53-0.32-0.21-0.47-0.34A3.31,3.31,0,0,1,1119.56,1638.22Z" transform="translate(-979.28 -1535)"/><path class="cls-9" d="M1132.39,1664.48a22.86,22.86,0,0,1-2.92,3.53,17.4,17.4,0,0,1-8.79,5.2,10.29,10.29,0,0,1-5.1.11c-0.37-.11-0.54-0.21-0.44-0.63a10.26,10.26,0,0,1,7.49-8,18.25,18.25,0,0,1,8-.72A9.93,9.93,0,0,1,1132.39,1664.48Z" transform="translate(-979.28 -1535)"/><path class="cls-9" d="M1112.09,1658.33a14.81,14.81,0,0,1,1.86,4.07,15.09,15.09,0,0,1,.72,3.34c0.28,3.08-1.05,5.58-2.93,7.84a21.16,21.16,0,0,1-3.48,3.34c-0.5.38-.72,0.3-0.75-0.27a22.59,22.59,0,0,1,1.43-12.18,53.15,53.15,0,0,1,2.62-5.33Z" transform="translate(-979.28 -1535)"/><path class="cls-9" d="M1123.27,1653.08c-0.1-6.77,4.52-11.5,10.15-13.37,0.29-.09,1-0.47.8,0.4a28.94,28.94,0,0,1-3.32,8.7,19,19,0,0,1-6.74,6.17c-0.72.42-.87,0.28-0.89-0.53C1123.26,1654,1123.27,1653.54,1123.27,1653.08Z" transform="translate(-979.28 -1535)"/><path class="cls-9" d="M1121.8,1653.5c0.11,4.39-1.81,7.85-4.84,10.8-0.21.2-.41,0.59-0.72,0.46a0.79,0.79,0,0,1-.19-0.78,33.29,33.29,0,0,1-.65-8.6,11.11,11.11,0,0,1,4.82-8.23c0.78-.57,1-0.47,1.13.49A38.78,38.78,0,0,1,1121.8,1653.5Z" transform="translate(-979.28 -1535)"/><path class="cls-9" d="M1140.19,1658a25.38,25.38,0,0,1-6.58,3.28,15.49,15.49,0,0,1-8.36.37,11.46,11.46,0,0,1-1.91-.72c-0.62-.26-0.72-0.54-0.26-1.09a9.77,9.77,0,0,1,6.26-3.43,21.41,21.41,0,0,1,10.18,1.18A4.11,4.11,0,0,1,1140.19,1658Z" transform="translate(-979.28 -1535)"/><path class="cls-9" d="M1155.67,1633.67a15.06,15.06,0,0,1,1.8.11c0.29,0,.72.11,0.44,0.59-1.07,2.09-2,4.24-3.81,5.87a7.3,7.3,0,0,1-6,1.85c-0.23,0-.45-0.06-0.68-0.09-1.61-.15-1.84-0.56-1.38-2.15a7.84,7.84,0,0,1,4.65-5.07A10.75,10.75,0,0,1,1155.67,1633.67Z" transform="translate(-979.28 -1535)"/><path class="cls-9" d="M1136.45,1655a13.26,13.26,0,0,1-5.42-1.25c-0.62-.34-0.52-0.59-0.16-1a8.54,8.54,0,0,1,6.16-3,19.78,19.78,0,0,1,9.1,1.53c0.43,0.19.48,0.37,0.11,0.58A19,19,0,0,1,1136.45,1655Z" transform="translate(-979.28 -1535)"/><path class="cls-9" d="M1154.7,1645.6c-3.58,2.46-7.25,3.83-11.47,3.24a8.29,8.29,0,0,1-3-1c-0.44-.25-0.66-0.51-0.21-1.06a7.84,7.84,0,0,1,5.95-3,17.47,17.47,0,0,1,7.72,1.39A5.61,5.61,0,0,1,1154.7,1645.6Z" transform="translate(-979.28 -1535)"/><path class="cls-9" d="M1134.09,1647.35c0.8-4.74,3-8.26,7.44-10.15a8.31,8.31,0,0,1,3.28-.85c0.61,0,.86.1,0.52,0.83a19.35,19.35,0,0,1-10.43,10l-0.33.09Z" transform="translate(-979.28 -1535)"/><path class="cls-9" d="M1099.57,1668.52c0,1.13-.36,1.35-1.56.94a9.57,9.57,0,0,1-4.36-3,15.49,15.49,0,0,1-2.36-4.19c-0.17-.44-0.22-0.72.45-0.72a8.69,8.69,0,0,1,7.7,5.82A7.83,7.83,0,0,1,1099.57,1668.52Z" transform="translate(-979.28 -1535)"/><path class="cls-10" d="M1103.81,1661.7c1,3.78,1.25,7.49-.52,11.11-0.21.43-.42,0.39-0.67,0a10.86,10.86,0,0,1-2-5,6.74,6.74,0,0,1,1.8-4.74A4.45,4.45,0,0,1,1103.81,1661.7Z" transform="translate(-979.28 -1535)"/><path class="cls-9" d="M1094.23,1649.6c0-.65.09-1.31,0.1-2s0.32-.6.72-0.29c3.43,2.72,4.41,6.13,3.07,10-0.14.39-.31,0.57-0.72,0.14a10.55,10.55,0,0,1-3-6.39c0-.52-0.06-1-0.09-1.54h0Z" transform="translate(-979.28 -1535)"/><path class="cls-9" d="M1100.29,1664.71a8.84,8.84,0,0,1-1.57-5.73,17.44,17.44,0,0,1,1.55-4.94c0.27-.64.59-0.64,1-0.08a6.89,6.89,0,0,1,.95,6.45A33.57,33.57,0,0,1,1100.29,1664.71Z" transform="translate(-979.28 -1535)"/><path class="cls-11" d="M1121.55,1660.08c0.27-.88.52-1.78,0.83-2.64a7.52,7.52,0,0,0,.25-1.27c1.51,0.39,2.6-.52,3.63-1.26,2.6-1.88,5-4,6.31-7,0.16-.38.34-0.44,0.57,0a1,1,0,0,0,1.52.48,32.36,32.36,0,0,0,3.46-1.71,0.54,0.54,0,0,1,.56-0.11,0.35,0.35,0,0,1,0,.47,1.5,1.5,0,0,0,.72,1.66,12.59,12.59,0,0,0-6.58,1.27,10,10,0,0,0-3,2.54,1.19,1.19,0,0,0,.41,2,8.82,8.82,0,0,1,.88.54c-1.2.36-2.36,0.37-3.49,0.72a10.3,10.3,0,0,0-5.73,4,0.72,0.72,0,0,1-.36.34h0Z" transform="translate(-979.28 -1535)"/><path class="cls-9" d="M1087.89,1656.54c2.93-.55,7.7.66,9,3.34a1.29,1.29,0,0,1,.32,1.08,1.11,1.11,0,0,1-1.1.29,10,10,0,0,1-6.57-2.87c-0.6-.55-1.25-1.05-1.88-1.58Z" transform="translate(-979.28 -1535)"/><path class="cls-9" d="M1087.5,1644.95c0,1.27-.21,1.38-1.49,1.1-2.42-.52-3.52-2.15-4-4.42a12,12,0,0,0-.24-1.25c-0.24-.72.09-0.9,0.72-0.72a6.74,6.74,0,0,1,4.87,4A3.89,3.89,0,0,1,1087.5,1644.95Z" transform="translate(-979.28 -1535)"/><path class="cls-9" d="M1085.13,1651.68c2.64-.22,5.07,0,7.24,1.43a4.46,4.46,0,0,1,1.43,1.67c0.41,0.77.32,1-.53,1a8.28,8.28,0,0,1-5.38-1.56A11.79,11.79,0,0,1,1085.13,1651.68Z" transform="translate(-979.28 -1535)"/><path class="cls-5" d="M1081.64,1646.93c2.29-.67,6.52.11,7.69,2.28,0.22,0.42.72,0.88,0.47,1.28a1.87,1.87,0,0,1-1.28.27C1085.53,1650.74,1083.48,1649.12,1081.64,1646.93Z" transform="translate(-979.28 -1535)"/><path class="cls-5" d="M1093.18,1650.21c-0.08.28,0.21,0.88-.21,1s-0.67-.42-1-0.72a10.91,10.91,0,0,1-3.45-6.38c-0.05-.28-0.24-0.72.07-0.87a1.07,1.07,0,0,1,.95.24A7.23,7.23,0,0,1,1093.18,1650.21Z" transform="translate(-979.28 -1535)"/><path class="cls-11" d="M1121.54,1660.07c0,1.57,1.36,1.76,2.39,2.23,0.52,0.24,1.11.34,1.71,0.57-4,.72-7.65,2.06-10,5.73a1.17,1.17,0,0,1-.06-0.27,6.67,6.67,0,0,1,1.58-2.87,17.27,17.27,0,0,0,4.06-5.08,0.72,0.72,0,0,1,.34-0.34h0v0Z" transform="translate(-979.28 -1535)"/><path class="cls-12" d="M1142.37,1643.48l2.44-3.22c0.32,0.77-.21,1.64.39,2.29a0.37,0.37,0,0,1-.14.16Z" transform="translate(-979.28 -1535)"/><path class="cls-13" d="M1096.76,1662.26c1.1-.44,1.1-0.44,1.61,1.06A4.7,4.7,0,0,1,1096.76,1662.26Z" transform="translate(-979.28 -1535)"/><path class="cls-2" d="M1118.63,1638.88a0.44,0.44,0,0,1,.2.37c-2,3.5-4,7-5.68,10.66a65.94,65.94,0,0,0-2.62,6.74,29.06,29.06,0,0,1-3.34,7.12,12.7,12.7,0,0,1,.31-5.14c0.6-2,1.19-4,1.94-6a35.83,35.83,0,0,1,5.4-9.24A44.44,44.44,0,0,1,1118.63,1638.88Z" transform="translate(-979.28 -1535)"/><path class="cls-4" d="M1077.85,1701.84l-8.76-19.72a1,1,0,0,0-1.07-.72c-1.78,0-3.58,0-5.33,0a0.92,0.92,0,0,0-1,.64c-1.15,2.67-2.36,5.32-3.54,8q-3.68,8.25-7.37,16.48c-0.29.64-.26,0.87,0.53,0.84,1.83-.05,3.67,0,5.5,0a0.72,0.72,0,0,0,.82-0.54l2.15-4.85a0.88,0.88,0,0,1,.94-0.64q4.64,0.05,9.32,0a0.89,0.89,0,0,1,1,.62c0.72,1.6,1.43,3.19,2.11,4.78a0.77,0.77,0,0,0,.77.64h6.45Zm-16.44-5.11c1.31-2.87,2.6-5.94,3.95-9,1.34,3.07,2.62,6.16,3.94,9h-7.89Z" transform="translate(-979.28 -1535)"/><path class="cls-4" d="M1188.3,1694.92c-0.27-3.92-2.62-6.3-6.54-6.45s-8.08,0-12.12-.07a0.47,0.47,0,0,0-.59.59v2.32c0,1.27-.17,1.1,1.16,1.13,3.35,0.05,6.71-.13,10,0.11a2.5,2.5,0,0,1,2.52,2.42c0.06,0.65-.09.87-0.8,0.87-3.07,0-6.13-.16-9.19.14a6,6,0,0,0-2.82.93,5.89,5.89,0,0,0-2.24,6.08,5.2,5.2,0,0,0,4.74,4.17c2.71,0.33,5.44.1,7.69,0.17h7.6c0.45,0,.67-0.07.66-0.6C1188.35,1702.82,1188.56,1698.88,1188.3,1694.92Zm-6,8.37h-3.48v-0.05c-1.43,0-2.44,0-3.64,0a1.58,1.58,0,0,1-1.81-1.56,1.63,1.63,0,0,1,1.48-1.77h0.2c2.46-.07,4.92,0,7.37,0a0.34,0.34,0,0,1,.39.42v2.57c0,0.43-.23.39-0.52,0.39h0Z" transform="translate(-979.28 -1535)"/><path class="cls-4" d="M1136.72,1688.91a14.33,14.33,0,0,0-7.12-.62c-4.9.72-8,3.68-8.49,8.44-0.44,4.42,1,8,5.08,9.85a14.09,14.09,0,0,0,7.49,1c5.49-.59,8.87-4.22,8.86-9.5C1142.54,1693.67,1140.42,1690.28,1136.72,1688.91Zm-0.21,11.35c-0.65,2.36-2.11,3.38-4.7,3.37-2.93,0-4.64-1.52-5-4.42a8.13,8.13,0,0,1,.8-5.07,3.45,3.45,0,0,1,1.92-1.62,6.28,6.28,0,0,1,4.84.16,4,4,0,0,1,2.15,2.87A9.32,9.32,0,0,1,1136.51,1700.27Z" transform="translate(-979.28 -1535)"/><path class="cls-2" d="M1220.3,1705.6c-0.8-2.87-1.65-5.73-2.42-8.66-0.16-.62-0.41-0.9-1.05-0.75-0.72-.17-1,0.14-1.15.82-0.72,2.76-1.54,5.5-2.31,8.24-0.32,1.14-.31,1.1.88,1.11a0.72,0.72,0,0,0,.72-0.72q0.17-.62.36-1.23a0.53,0.53,0,0,1,.52-0.44c2.09-.2,2.15-0.17,2.75,1.79a1,1,0,0,0,.11.32c0.44,0.56,1.07.27,1.57,0.21S1220.36,1705.83,1220.3,1705.6Zm-2.87-3.4h-0.17c-1.43.11-1.47,0.11-1.12-1.27,0.18-.72.38-1.37,0.61-2.19a24.46,24.46,0,0,1,.94,3.13,0.22,0.22,0,0,1-.27.32h0Z" transform="translate(-979.28 -1535)"/></svg>