<svg id="Capa_1" data-name="Capa 1" xmlns="http://www.w3.org/2000/svg" viewBox="0 0 299.52 322.58"><defs><style>.cls-1{fill:#e5e5e5;stroke:#888889;stroke-miterlimit:10;stroke-width:0.28px;}</style></defs><title>mapa-2</title><path id="PY-7" class="cls-1" d="M490.21,367.73h0l1.21,3.84,0.74,0.71,2.64-.13,0.7,0,0.29,0.06,0.35,0.1,0.9,0.39,1.15,0.29,0.37,0.22,0.55,0.42,0.29,0.14,0.22,0,0.14-.09,0.09-.08,0.07-.09,0.11-.28,0.14-.18,0.23-.25,1.18-.11,0.48-.11,0.22-.09,0.24-.16,0.24-.24,0.15-.18,0.54-1,0.25-.39,0.2-.24,0.17-.13,0.22-.09h0.16l0.11,0.05,0.07,0.11,0,0.18,0,0.2-0.15.57,0,0.27,0.09,0.21,0.33,0.27,0.27,0.09h0.27l0.2-.09,0.21-.14,0.48-.41,0.3-.16,0.29-.09h0.55l0.68,0.14,0.52,0.2,0.68,0.35,0.18,0.13,0.14,0.14,0.09,0.12,0,0.16v0.2l0,0.28v0.25l0.07,0.25,0.21,0.24,0.4,0.1,2,0.16h0.09l0,0.2,0.09,0.78v1.79L512,377.9l0,0.22-0.11.22-0.34,2.43-0.16.65L511,382l-1.09,1.25-1,.83-0.53.65-0.34.72,0,0.56,0.19,0.56,0.11,0.74,0,0.91-0.13,1-0.29.88-0.49.65-0.37.18-0.2-.1-0.16-.21-0.27-.15h-1.58l-0.85.22-0.59.56L503,392l-0.47,1.83-0.26.7-0.35.59-0.51.62-0.59.27-1.74.15-0.72.27-2.31,2.33-0.24.68,0.49,1.57-0.12.87-0.58.48-0.82.15-1.41-.08-0.55-.17-0.66-.36-0.76-.31H490.6l-1.74,1-1.67.22-0.72.22-0.63.42-0.6.66-0.42.76-0.22.81-0.09,1.84-0.38.63-0.87.09-1-.1-0.71.08-0.41.63-0.15.82-0.21.72-0.58.31-0.94.24,0,0.6,0.86,1.64,0.15,0.47,0.07,0.43-0.08.42-0.47.81,0,0.27,0.09,0.33,0,0.55-0.35.91L479,418l-0.75.43-0.88.15-1,.78-1.27,1.52-1.33,1.05-2.15-1.18-1-.27-0.43-.24-0.3-.41-0.54-1.5-0.53-.75-0.72-.28-0.83,0-0.86.13h-0.2l-0.67,0-0.78-.16h0l-2.38-.94h0l-0.88-.17-0.91-.07-0.91.52-0.67.52-1.3,1.5-0.8.36-1,.28-0.82.46-0.2.87,0.14,1.1-0.14.9-0.41.8-0.69.78-0.69,1-0.49,1.24-0.63,1-1.14.25h0l-1.11-.46-1.07-.86-0.92-1.07L447,424.21l-1.43-1.81h0l-2.35-.35-0.89.27v0l-0.18-2.8,0-.23,0.15-.31,0.1-.17,0.12-.24v-0.21l-0.14-.31-0.17-.23L441,416.59l-0.25-.3-0.22-.34-0.07-.66,0.11-.86,0.48-1.64,0.32-.63,0.35-.41,0.35-.2,0.3-.28,0.92-1,0.33-.21,0.26-.1,1.81-.23L446,409l0.08-1.38-1.43-14.52,2.68,0.59,0.23,0.14,1.11,0.92,0.53,0.35,0.56,0.14h0.61l4.12-1.62,3.05-1.66,2.17-.71,1.09-.17,0.57-.24,0.27-.29,0.33-1.23,0.22-.37,0.3-.34,0.51-.43,0.41-.48,0.35-.53,0.33-1,0.17-.39,0.79-1.2,0.53-.4,1.78-.58,2.47-.46,0.62-.29,0.56-.39,1.66-1.77,0.67-.56,0.24-.31,0.3-.79,0.37-.46,2.09-.9,1.5-.44,0.74-.09h0.63l0.5,0.12,0.49,0,0.74-.14,2.42-.92,0.64-.36,3-2.38,1.48-1.44,0.29-.34,0.22-.35,0.1-.34,0-1.9,0.05-.33,0.08-.27,0-.24V368l0.06-.31,0.08-.12,0.12,0,0.14,0.05,0.14,0.08,0.46,0.1h0Z" transform="translate(-228.15 -105.25)"/><path id="PY-14" class="cls-1" d="M490.88,285.92h0l1.26,0.47,1.28,0.27,1.26-.1,1.22-.63h0l0.91-.46,2.25,0,1.1-.33,0.6-.29,1.19-.05,0.62-.1,0.6-.36,0.78-1,0.46-.48,2.29-1.31,4.64-1.63,0.61-.33,0.9-1,0.55-.27,0.95,0.26,6,3.46,0.72,0.54,2,2.76,3.34,2,1,0.54h0l-0.74.6-1.24.93-0.84,1.1-0.35,1.2,0.1,0.63,0.46,1.24L525,295l0.28,0.49,0.84,1.12,0.29,0.9,0.48,1.22,0,1.13-0.34,1.2-0.44.86L524.68,304l-0.41,1.26v1.2l0.5,2.69,0,1.27-1.32,4h0l-0.8-.35-0.5-.07h-0.92l-0.84.09h-0.88l-0.84-.18-1-.42-1-.31-2.73-.41-0.34-.15-0.24-.28-0.21-.33-0.37-1-0.15-.17-0.17-.06-0.31,0-0.52.16-0.23,0L511,311l-0.27-.1-0.4-.2-0.31-.08-0.43,0-0.26.19-0.17.17-0.23.36-0.16.2-0.18.18-0.19.12-0.18.08L508,312l-0.18-.1-0.19-.28v-0.34l0-.23v-0.18l-0.13-.12-0.29-.13-0.5-.07-1.3,0-0.3,0-0.28-.1-0.24-.24-0.07-.21,0-.2,0.08-.21,0-.22,0-.28-0.07-.35-0.41-.42-0.68-.39-2.73-.88h-0.3l-0.53.09-0.84.35-0.43.09-0.47-.08-0.52-.23-0.52-.51-0.17-.47,0-.43,0.15-1.44-0.76-.2-3.94,1.36-9.33,1.59-0.72.24-0.46.27-3.9,4.22-1.77,1.37-0.5.58-1,1.57-0.94,1.15-1.9-1.14-0.36-.31-0.23-.41-0.26-.56-0.31-.91-0.69-.74-0.6-.5-1-.67-0.4-.55-0.37-.85-0.52-1.63-0.76-1.57L464.53,304l-0.74-1.72-0.17-.24-0.21-.2-0.27-.14-0.67-.23-0.33-.16-0.29-.21-0.3-.29-0.24-.31-0.2-.37-0.19-.47-0.15-.61-0.15-1.27-0.09-.44-0.15-.36-0.2-.22-0.76-.67-0.07-.49v-0.75l0.21-1.82,0-.87,0.16-.6,0.11-.2,0.69-.94,0.15-.12,0.16-.1,0.18-.09,0.87-.2,0.18-.08,0.15-.12,0.46-.61,0.81-.79,0.45-.62,0.54-.53,0.16-.09,0.15-.07H465l0.22,0.05,0.07-.28-0.18-.89L462.89,280l0.42,0.29,0.53,0.25,0.22,0.07,0.23,0,0.2,0,0.19-.08,0.29-.16,0.28-.11,1.27-.11,0.88-.21,0.91-.37,0.34-.23,0.22-.24,0.5-.89,0.36-.35,1.52-.86,3.68-2.72,0.76-.46,0.52-.22,1,0,0.33-.08,0.3-.12,1.46-.86,0.4-.38,0.24-.4,0.29-1.5,0.63-1.74,0.35-.57,0.34-.25,0,0,0,0.14,0,1.4,0.12,1.3,0.68,1,1.58,1.7,0.77,2.42,0.54,7.51,0.34,1,0.8,0.87,1.1,0.5,2.24,0.17,1.12,0.24h0Z" transform="translate(-228.15 -105.25)"/><path id="PY-6" class="cls-1" d="M485.32,364.84h0l0.47-.23,0.3,0,0.86,0,1-.07,0.63-.12,1.13-.34,0.21,0,0.22,0.16,0.15,0.17,0.12,0.16,0.19,0.21,0.22,0.18,0.28,0.1,0.68,0.05,0.27,0.07,0.23,0.14,0.22,0.29V366l-0.16.37-0.29.28-1.86,1.11-0.46-.1-0.14-.08-0.14-.05-0.12,0-0.08.12-0.06.31v0.26l0,0.24-0.08.27-0.05.33,0,1.9-0.1.34-0.22.35-0.29.34L487,373.45l-3,2.38-0.64.36-2.42.92-0.74.14-0.49,0-0.5-.12h-0.63l-0.74.09-1.5.44-2.09.9-0.37.46-0.3.79-0.24.31-0.67.56L471,382.48l-0.56.39-0.62.29-2.47.46-1.78.58-0.53.4-0.79,1.2-0.17.39-0.33,1-0.35.53-0.41.48-0.51.43-0.3.34-0.22.37-0.33,1.23-0.27.29-0.57.24-1.09.17-2.17.71-3.05,1.66-4.12,1.62h-0.61l-0.56-.14-0.53-.35-1.11-.92-0.23-.14-2.68-.59-0.07-.34v-0.09l0-.2,0.16-.43,0.08-.34-0.07-.35-0.31-.33-0.61-.18-1.12,0-0.52-.11-0.53-.24-1.51-1-0.59-.55L439,387.85l-0.29-.56-0.31-.49-0.21-.26-1-.65,0.36-.9,0.49-.42,0.43-.28,0.68-.6,0.31-.47,0.16-.5,0-.45,0.14-.46,0.22-.32,0.47-.49,0.16-.42,0-.39-0.09-.36,0-.38,0.07-.24,0.14-.21,0.73-.53,0.17-.3,0.09-.36,0.12-1.43,0.36-1.49,0.27-.47,1.23-1.42,0.17-.35,0.27-1.27h1.14l0.9,0.11,0.5-.2L447,371l0.24-1.75,0.23-.68,0.38-.65,0.38-.31,0.5-.16,1.74-.08,0.58-.21,0.29-.3,0.14-.44,0.05-.47,0.13-.46,0.29-.5,0.29-.15h0.23l0.23,0.14,0.25,0.07,0.34,0,1.75-.78,0.52-.14H456l0.29,0.15,0.16,0.11,1,0.8,1.42,0.93,0.66,0.08,2-1,0.88-.6,0.06-.09,0-.07,0.11-.33,0.75-3.06,0.18-.37,0.31-.41,0.44-.21,1.17-.33,0.46-.28,0.67-.59,0.42-.18,1.27-.27,0.4-.18,0.87-.68,0.48-.29,3.18-1.32,0.47-.27,0.18-.22,0.37-.78,0.26-.35,0.53-.46,0.36-.1,0.34,0,0.31,0.11,0.33,0,0.43-.12,0.33-.34,0.22-.4,0.46-1.26,0.27-.55,0.1-.17,0.21-.43,0.9,0.29,1.75-.68,0.4-.23,0.34-.29,0.2-.28,0.34-.39,0.17-.27,0.08-.29v-0.18l0.08-.49,0.59-.93,1.27-.36,0.33,0,0.49,0.14,0.18,0.2,0.08,0.23v0.3l0.06,0.33,0.15,0.37,0.46,0.61,0.16,0.27,0,0.29-0.07.27-0.21.31-0.9.83-0.27.41-0.21.53-0.05.9-0.12.54L484,354.79l-0.15.37-0.22.28-0.74.63-0.11.15-0.71,1.57-0.23.71v0.42l0.18,0.32,0.17,0.24,0.11,0.39-0.12.43v0.39l0.23,0.8v0.37L482.32,363l0.12,0.43,0.21,0.3,0.17,0.13,1.47,0.6,0.48,0.26,0.28,0.11,0.27,0h0Z" transform="translate(-228.15 -105.25)"/><path id="PY-5" class="cls-1" d="M491.27,326.37h0.23l0.65-.09,0.21,0,0.17,0.08,0.14,0.13,0.12,0.15,0.14,0.12,0.17,0.07h0.2l0.21,0h0.2l0.16,0.08L494,327l0.21,0.31,2.87,2.73,3,2.16,0.14,0.13,0.1,0.16,0,0.22,0,0.24-0.22.76V334l0.08,0.17,0.11,0.15,0.13,0.11,0.19,0.11,0.95,0.38,0.16,0.11,0.1,0.16,0,0.21-0.08.72v0.24l0,0.21,0.08,0.18,0.1,0.17,0.23,0.32,0.09,0.17,0.07,0.2,0,0.22v0.49l-0.81.24-0.94,0-0.91-.13-0.48-.85-0.07-.54-0.14-.44-0.28-.35-0.5-.21-0.61-.11-0.28-.1-0.28-.19-0.22-.26-0.34-.55-0.22-.24,0,0.41,0.19,0.78,0,0.38-0.4,0-0.45-.11-0.85-.31-0.37-.21-0.91-.92-0.66-.47h-0.41l-1.05,1.18-8.28,11.59-0.59.93-0.08.49v0.18l-0.08.29-0.17.27-0.34.39-0.2.28-0.34.29-0.4.23-1.75.68-0.9-.29-0.41-.51-0.19-.07-0.32,0-2.14.9-2.16.67-1.12.15-0.91-.07-0.48-.27-0.46-.41-0.74-.91-0.41-.41-0.48-.35-0.73-.3-0.66-.11-3.82.11-0.55-.11-0.43-.22-0.29-.3-0.4-.22-2.88-.11-1-.19-0.52,0-1,.09-4-.18-0.71.07-0.61.19-1.08.69-0.41.18L449,349l-1.12.2-0.61.22-0.48.31-1.69,1.61-0.36.22-2,.95L442,353l-1.14-.15-0.21-.1-0.3-.18-0.77-1-1.11-.82-0.13-.3,0-.09-2.06-4.28-0.18-.5,0-.37,0.2-.27,8.73-6.18,0.71-2.45,1.75-10.43,2.59-2.69,0.37-.25,1.09-.6,0.35-.37,0.27-.45,0.16-.41,0.21-.39,0.38-.34,1.54-.91,0.47-.48,0.33-.54,0.17-.47,0.24-.48,0.29-.41,0.34-.36,0.39-.21,0.32,0,0.46,0.41,0.15,0.48,0,0.42-0.14.6,0,0.29,0,0.32,0.1,0.29,0.25,0.27,0.36,0.25,1.63,0.62,0.22,0.13,0.23,0.19,1.22,1.38,1.65,1.56,0.31,0.14,0.3-.28,0.31-.46,1.56-3.11,0.52-.64,0.73-.6,2.86-1.19,4.2-1.13,0.94-1.15,1-1.57,0.5-.58,1.77-1.37,3.9-4.22,0.46-.27,0.72-.24,9.33-1.59-0.92,1.32-1.08,1.28-0.17.27-0.11.33,0,0.38,0,0.59,0.22,0.87,0,0.4,0,0.34-0.38.67-0.15.37,0,1.61-0.08.47-0.23.46-0.25.23-0.27.18-0.14.24-0.08.43,0.16,0.74,0.31,0.93,0,0.35-0.05.36-0.37.57-0.24.26,0,0.42,0,0.27,0.07,0.24,0.07,0.18,0,0.21v0.25l0,0.61v0.26l0,0.23L489,322l0,0.25v0.31l-0.14.48,0,0.37,0.08,0.25,0.44,0.63,0.17,0.35,0.14,0.36h0l0.15,0.4,0.1,0.16,0.11,0.15,0.25,0.28,0.15,0.12,0.17,0.11,0.2,0.08,0.22,0.05,0.24,0h0Z" transform="translate(-228.15 -105.25)"/><path id="PY-10" class="cls-1" d="M498.75,307.51h0l0.43-.09,0.84-.35,0.53-.09h0.3l2.73,0.88,0.68,0.39,0.41,0.42,0.07,0.35,0,0.28,0,0.22-0.08.21,0,0.2,0.07,0.21,0.24,0.24,0.28,0.1,0.3,0,1.3,0,0.5,0.07,0.29,0.13,0.13,0.12v0.18l0,0.23v0.34l0.19,0.28L508,312l0.22,0,0.18-.08,0.19-.12,0.18-.18,0.16-.2,0.23-.36,0.17-.17,0.26-.19,0.43,0,0.31,0.08,0.4,0.2L511,311l0.29,0,0.23,0,0.52-.16,0.31,0,0.17,0.06,0.15,0.17,0.37,1,0.21,0.33,0.24,0.28,0.34,0.15,2.73,0.41,1,0.31,1,0.42,0.84,0.18h0.88l0.84-.09h0.92l0.5,0.07,0.8,0.35h0L523,315.85l-1,1.5-0.27.64L520,325.12l-0.32,1.35-0.07.73,0,0.66,0.29,0.76,0.91,1.51,0.11,0.74-0.33.69-1.2,1.12-0.43.7L518.25,336l-0.88,1.41-0.66.88-1,.93-0.79,1.46L514.47,342l-0.07.44,0,0.85,0.14,0.87,0.35,0.72,0.25,0.74-0.09.94-0.21.95v0.09l-0.07.69,0.57,1.27,0.1,0.8-0.54.35-1.25-.07-0.33.37v1l0.65,2.07,0.1,0.78,0.17,0.53,0.8,1,0.24,0.48-0.06.87-0.34.71-0.39.62-0.18.65,0.28,1.78,0,0.74-0.31.6-0.3.1-0.86.05-0.29.14-0.22.43,0,0.4,0.12,0.41,0.18,1.2,0.38,1.27,0,0.89-0.73,2.53,0.14,0.6,0.65,0.78,0.12,0.51-0.23.44-0.41.59-0.29.53,0,0.1h-0.09l-2-.16-0.4-.1-0.21-.24-0.07-.25v-0.25l0-.28v-0.2l0-.16-0.09-.12-0.14-.14-0.18-.13-0.68-.35-0.52-.2-0.68-.14h-0.55l-0.29.09-0.3.16-0.48.41-0.21.14-0.2.09h-0.27l-0.27-.09-0.33-.27-0.09-.21,0-.27,0.15-.57,0-.2,0-.18-0.07-.11-0.11-.05h-0.16l-0.22.09-0.17.13-0.2.24-0.25.39-0.54,1-0.15.18-0.24.24-0.24.16-0.22.09-0.48.11-1.18.11-0.23.25-0.14.18-0.11.28-0.07.09-0.09.08-0.14.09-0.22,0-0.29-.14-0.55-.42-0.37-.22-1.15-.29-0.9-.39-0.35-.1-0.29-.06-0.7,0-2.64.13-0.74-.71-1.21-3.84,1.86-1.11,0.29-.28,0.16-.37v-0.33l-0.22-.29-0.23-.14-0.27-.07-0.68-.05-0.28-.1-0.22-.18-0.19-.21-0.12-.16-0.15-.17-0.22-.16-0.21,0-1.13.34-0.63.12-1,.07-0.86,0-0.3,0-0.47.23-0.27,0-0.28-.11-0.48-.26-1.47-.6-0.17-.13-0.21-.3-0.12-.43,0.12-1.09V361.5l-0.23-.8v-0.39l0.12-.43-0.11-.39-0.17-.24-0.18-.32V358.5l0.23-.71,0.71-1.57,0.11-.15,0.74-.63,0.22-.28,0.15-.37,0.56-1.75,0.12-.54,0.05-.9,0.21-.53,0.27-.41,0.9-.83,0.21-.31,0.07-.27,0-.29-0.16-.27-0.46-.61-0.15-.37-0.06-.33v-0.3l-0.08-.23-0.18-.2-0.49-.14-0.33,0-1.27.36,8.28-11.59,1.05-1.18h0.41l0.66,0.47,0.91,0.92,0.37,0.21,0.85,0.31,0.45,0.11,0.4,0,0-.38-0.19-.78,0-.41,0.22,0.24,0.34,0.55,0.22,0.26,0.28,0.19,0.28,0.1,0.61,0.11,0.5,0.21,0.28,0.35,0.14,0.44,0.07,0.54,0.48,0.85,0.91,0.13,0.94,0,0.81-.24v-0.49l0-.22-0.07-.2-0.09-.17-0.23-.32-0.1-.17-0.08-.18,0-.21v-0.24l0.08-.72,0-.21-0.1-.16-0.16-.11-0.95-.38-0.19-.11-0.13-.11-0.11-.15-0.08-.17v-0.2l0.22-.76,0-.24,0-.22-0.1-.16-0.14-.13-3-2.16-2.87-2.73L494,327l-0.12-.14-0.16-.08h-0.2l-0.21,0h-0.2l-0.17-.07-0.14-.12-0.12-.15-0.14-.13-0.17-.08-0.21,0-0.65.09h-0.23l-0.24,0-0.22-.05-0.2-.08-0.17-.11-0.15-.12-0.25-.28-0.11-.15-0.1-.16-0.15-.4h0l-0.14-.36-0.17-.35-0.44-.63-0.08-.25,0-.37,0.14-.48v-0.31l0-.25-0.06-.2,0-.23v-0.26l0-.61v-0.25l0-.21-0.07-.18-0.07-.24,0-.27,0-.42,0.24-.26,0.37-.57,0.05-.36,0-.35-0.31-.93-0.16-.74,0.08-.43,0.14-.24,0.27-.18,0.25-.23,0.23-.46,0.08-.47,0-1.61,0.15-.37,0.38-.67,0-.34,0-.4-0.22-.87,0-.59,0-.38,0.11-.33,0.17-.27,1.08-1.28,0.92-1.32,3.94-1.36,0.76,0.2L497,305.79l0,0.43,0.17,0.47,0.52,0.51,0.52,0.23,0.47,0.08h0Z" transform="translate(-228.15 -105.25)"/><path id="PY-13" class="cls-1" d="M464.12,219.62h0l0.47-.14,0.46-.25,0.48,0.23,0.51,0.41,0.55,0.29,2.22,0.21,0.66,0.41,0.08-.28,0.39-.8,1.79,2.45,1.44,1.09,0.35,0.41,0.31,0.93,0.12,3.26,0.25,1.39,0.61,1.25,0.93,1,1.18,0.66,0.72,0.27,0.47,0.28,0.27,0.46,0.11,0.8,0,0.3-0.2.64,0,0.33,0.08,0.34,0.23,0.62,0,0.34-0.36,1.29-0.62,1.12-0.47,1.17,0.09,1.44,0.79,3v0.67l-0.2,1.3,0.08,0.66,0.94,1.1,0.39,0.6,0.2,0.75L479.22,251l0,0.64,0.39,0.5,1,0.61,0.13,0.34,0.78,2.88,0,0.65-0.83,1.76-0.11.64,0.23,0.87L481.9,261l0.39,0.73L482.24,263l-1,2.16,0.09,1.35,0.22,1.16,0,0-0.34.25-0.35.57-0.63,1.74-0.29,1.5-0.24.4-0.4.38-1.46.86-0.3.12-0.33.08-1,0-0.52.22-0.76.46L471.25,277l-1.52.86-0.36.35-0.5.89-0.22.24-0.34.23-0.91.37-0.88.21-1.27.11-0.28.11-0.29.16-0.19.08-0.2,0-0.23,0-0.22-.07-0.53-.25-0.42-.29,0.28,0,0.33-.15,1.2-.89,0.08-.08,0.07-.14L465,278l0.62-1.17,0.15-.39,0.05-.21,0-.24v-1l-0.1-.94-0.17-.6,0-.19,0.07-.17,0.79-1.06,0.38-.42,0.22-.31,0.24-.56,0-.21,0-.23-0.13-1.43,0-.5,0.08-.44v-0.18l-0.09-.15-0.36-.05-0.49,0-2.18.43-0.31.14-0.15.12,0,0.21,0,0.56,0,0.34-0.09.25-0.12.18-0.2.13-0.4.2-0.25.17-0.55.46-0.2.1h-0.18l-0.36-.26-0.44-.49L460.3,269l-0.29-.65-0.18-.51-0.09-.34v-0.27l0.12-.2,2.94-2.44,0.3-.35,0.24-.35,0.08-.21,0-.21v-0.14l-0.05-.22-0.11-.27-0.15-.24-0.14-.16-0.6-.53-0.16-.24,0-.19,0.05-.21,0.18-.39,0.09-.25v-0.22l-0.08-.25-0.17-.27-0.28-.26-0.31-.18-0.51-.14-1.5-.08-0.47-.08-0.56-.17-0.18,0-0.33.17-0.4.1-0.74.11-0.67.18-0.83.44-0.4.29-0.29.15-0.15,0-0.37-.27,0.17-.15,0.07-.09,0.07-.14,0-.1,0.09-.38,0.11-.95,0-.21L455,258l0.11-.16,0.12-.14,0.15-.12,0.33-.2,0.12-.15,0.16-.37,0.1-.17,0.13-.13,0.14-.12,0.31-.22,1.37-.74,0.15-.11,0.07-.21v-0.31l-0.14-.55V254l0-.27,0-.21,0.08-.2,0.1-.16,0.15-.12,0.17-.08,0.14-.1,0-.17-0.07-.41V252l0-.22,0.1-.16,0.14-.09,0.17,0,0.35,0.17,0.19,0.05h0.21l0.17-.08,0.13-.14,0.08-.18,0-.22,0-1.38,0.07-.43,0-.24-5.11-13.34-0.12-.22-0.17-.21-0.52-.21-0.22-.05h-0.18l-0.19,0-0.17.09-0.9.7-0.16.1-0.18.08-0.41.09-0.19.08-0.16.11-0.14.14-0.11.16-0.42.72-0.23.32-0.14.14-0.15.11-0.35.17-0.2.06-1.88.34-0.18.07-0.18.09-0.3.23-0.22.23,0,0.07,0,0.08-0.12.34-0.06.23-0.11.75-0.07.22-0.1.18-0.37.48-0.28.58-0.13.14-0.17.09-0.41.09-0.69.31-0.19,0-0.21,0-0.23,0-0.22-.06-0.22-.15-0.23-.18-0.31-.34-0.23-.16-0.23,0-0.16.09-0.28.27-0.16.1-0.19.07-0.66.07h-0.48l-0.21,0-0.14,0,0-.13,0.09-.47,0.2-.3,0.23-.27,0.79-.52,0.17-.26,0-.4-0.22-.69-0.28-1.56L441,237l-0.3-.49-0.23-.27-0.18-.15-0.2-.12-0.17-.17-0.08-.27L440,235V234.7l-0.07-.29-0.33-.43-0.17-.28-0.07-.36,0.07-.43,0.1-.31,0.06-.36,0-.44-0.09-.73,0-.73,0-.22-0.18-.78v-0.28l0.09-.21,0.35-.24,0.12-.22,0-.29-0.17-.84,0-.27,0.1-.23,0.14-.21,0.2-.2,1.14-.78,0.26-.22,1.52-2.18,0.2-.14,0.83-.44,0.14-.12-1.44-.57L435.32,220l-0.31-.35,0.83-.91,0.23-.36,0-.25,0.13-.07,0.49,0.17,0.27,0,1.16-.35,0.27,0,0,0.17,0.08,0.08,0.37-.24,0.16-.25,0.29-.69,0.18-.16,0.6,0.31,1.21,1.41,0.56,0.14,0.17-.31-0.38-.69,0.23-.23,0.4-.12,0.29-.14,1.19-.9,0.39-.42,0.61-1.09,0.09-.09,0.26-.14,0.12-.16,0.2-.61,0.11-.24,0.54-.81,0.32-.35,0.37-.33,0.62-.18,2.56-.47,0.5,0.05,0.37,0.4,0.94,2.35,0.84,1.27,1.09,1,2,1.19,1.05,1,0.61,0.39,0.62,0.15,6.13,0.31h0Z" transform="translate(-228.15 -105.25)"/><path id="PY-9" class="cls-1" d="M429.4,346.27h0l2.65-.16h0.37l0.46,0.11,0.21,0.28,0.13,0.34,0.19,1,0.1,0.3,0.22,0.47,0,0.15v0.17l0,0.18-0.1.2-0.43.48-0.44.4-0.12.15,0,0.16,0.1,0.26,0.25,0.15,0.29,0.1,1.09,0.08,0.25,0,0.27-.07,0.25-.14,0.23-.15,0.25-.21,0.34-.23,0.4-.2,0.37,0,0.27,0,1.49,0.59,1.11,0.82,0.77,1,0.3,0.18,0.21,0.1L442,353l-0.6.56-0.25.71-0.07.65,0,0.69,0.21,1.21,0.36,1.23,0.24,0.6,0.27,0.46,0.85,1.1,0.3,0.59,0.34,1.1v0.59l-0.17.41-0.35.19-1.52.38-0.24.14-0.2.27,0,0.25,0,0.21,0,0.09,0.2,1.51,0.15,0.58,0.21,0.52,2.38,4.41-0.27,1.27-0.17.35-1.23,1.42-0.27.47-0.36,1.49-0.12,1.43-0.09.36-0.17.3-0.73.53-0.14.21-0.07.24,0,0.38,0.09,0.36,0,0.39-0.16.42-0.47.49-0.22.32-0.14.46,0,0.45-0.16.5-0.31.47-0.68.6-0.43.28-0.49.42-0.36.9-1.27-2-0.31-.15-0.44-.15-0.42.12L434,383.6l-0.67-.42-1.18-1-0.75-.52-2.12-1.11-0.26-.09-0.31-.06h-0.33l-0.36,0-0.37.1-0.27.11-0.22.12-0.56.44-0.41.44-0.33.52-0.2.48-0.1.37-0.14.29-0.17.22-0.39.19-0.19.25-0.11.2-0.06.18-0.14.16-0.25.21-0.52.21-0.3.24-0.2.36-0.05.53v0.61l-0.05.46-0.24.39-0.47.31-1.83.65-3.14.7-0.94-.09-0.78-.35-0.58-.41-0.95-.25-0.5-.27-0.36-.36-0.24-.34-0.47-.25-2.59-.58-0.48-.25-0.27-.32-0.22-.35-0.24-.27-0.9-.53-0.23-.28-0.12-.28-0.25-.71-0.18-.37-0.21-.28-0.41-.23-0.24-.17-0.59-.84-1.21-.62L405,380l0.76-.59,0.42-.62,1.37-2.69,4.73-4.75,0.15-.29,0-.41-1-5.78,1.67-1.6,0.81-1.05,1-1.83,0.14-.86-0.07-.7-0.83-2.71,0-.88,0.13-1.17,0.44-1.36,0.39-.79,0.42-.6,1.27-1.24,1.16-1.36,3-4.84,0.24-.3,1-.94,1.45-.91,1.75,3.28,0.33,0.31,0.54,0.39,1,0,0.42,0.08,0.82,0.28,0.63,0.14,0.3,0h0Z" transform="translate(-228.15 -105.25)"/><path id="PY-12" class="cls-1" d="M403.17,357.1h0l0.22,0,0.75-.17h0.22l0.24,0.11,0.28,0.24,0.48,0.65,0.48,0.52,0.78,0.69,0.84,0.54,0.94,0.81,0.37,0.21L409.5,361l0.15,0.18,0.12,0.24,0.05,0.42,0.1,0.34,0.2,0.39,0.9,1.18,0.47,1.12,1,5.78,0,0.41-0.15.29-4.73,4.75-1.37,2.69-0.42.62L405,380l-0.7.81,2.52,14.66,0.22,0.7,0.32,0.78,3,4.22L414.4,406l0.27,0.14,6.48,1,1,0.29,0.28,0.62-0.22,1.53L419,418.65l-0.65,2.66,0,0-0.58-.58-0.31-.21-0.75-.21-0.14,0h-0.94l-3.59.52-0.92-.09-0.23-.08-0.56-.2-5.77-3h0l-0.4-.15-3.64-.76h0l-1.52-.52h0l-1.58-.34-0.49-.11-1.09-.47h0l-2.11-.45-0.65-.14h0l-1.12,0-2.15.4-0.53,0-3.9-.5-9.7.86-3.18,1.38-0.14.13v0l0.15-2-0.06-.82-0.44-.76-0.88-.66-0.48-.48-0.22-.52,0.18-1.16,0.51-.81,0.81-.48,1.8-.31,0.18-.42-0.07-.62v-0.72l0.09-.35,0.12-.31,0.17-.29,0.22-.28,0.33-.19h0l0.2,0.17L375,406.1v0.16l0,0.1,0.25,0.17h0l0.29,0.07,0.14-.21,0-.66,0.07-.28,0.12-.31,0.32-.56,0.63-.78,0.28-.56-0.53-.48-0.08-.53,0.29-.5,0.56-.39,1.57-.42,0.77-.31,0.33-.5,0.36-.38,0.83-.07,0.8-.07,0.47-.4-0.22-.69-0.65-.49-0.43-.56,0.44-.87,0.6-.19,0.63,0.21,0.6,0.09,0.49-.52-0.13-.33-0.29-.46,0-.4,0.59-.17h0.43l0.27,0,0.14-.21,0.1-3.1,0.16-.75,0.18-.46,0.11,0,0.18,0.14,1.12,0.22,0.42,0,0.18-.24-0.1-.36-0.21-.31-0.17-.36v-0.47l0.14-.12,0.61-.44,0.23-.25-0.2-.22-0.31-.56-0.22-.3-0.8-.59-0.19-.22-0.14-.68,0.11-.6,0.2-.62,0.1-.69,0.11-.31,0.5-.38,0.11-.41-0.86-.81-0.12-.5,0.24-.63,1.19-2.13,0.18-.56,0.1-.65-0.18-1.27v-0.64l0.29-.28,0.56-.12,0.81-.34,0.61-.48,0-.53-0.52-.37-0.56-.29-0.42-.4-0.09-.71,0.36,0.13,0.28,0.17,0.2,0.22,0.13,0.29,0.31-.43,0.31-.82,0.34-1.33,0.36-.38,2.31-.85,1.19-.68,4.11-3.1,0.47-.63v-0.53l-1.64-.48,0.27-.6,1.24-1,0.22-.3,0.2-.46,0-.41-0.82-.3-0.1-.28,0.1-.28,0.75-.29,0.74-.4,0.48-.36,0.12,0.06,0.86,0.19,0.18-.07,0.2-.12,0-.17V358.1l0-.67,0-.33,0.09-.17,0.14-.12,0.17,0,0.18,0,0.71,0.27,0.24,0h0Z" transform="translate(-228.15 -105.25)"/><path id="PY-8" class="cls-1" d="M434.67,383.68h0l0.42-.12,0.44,0.15,0.31,0.15,1.27,2,1,0.65,0.21,0.26,0.31,0.49,0.29,0.56,0.66,1.07,0.59,0.55,1.51,1,0.53,0.24,0.52,0.11,1.12,0,0.61,0.18,0.31,0.33,0.07,0.35-0.08.34-0.16.43,0,0.2v0.09l0.07,0.34,1.43,14.52L446,409l-0.33.67-1.81.23-0.26.1-0.33.21-0.92,1-0.3.28-0.35.2-0.35.41-0.32.63-0.48,1.64-0.11.86,0.07,0.66,0.22,0.34,0.25,0.3,1.25,1.19,0.17,0.23,0.14,0.31v0.21l-0.12.24-0.1.17-0.15.31,0,0.23,0.18,2.8v0l-1.61.47-1.82,1.43-1.31.25h0l-1.27-.79-2.2-2.22-1.25-.51h0l-1.3.14-1.3.53-3.52,1.95-1.17.27-1.39-.07-0.3,0-0.84,0h0l-0.39-.12-0.33-.21-0.95-.81-0.36-.18h0l-1.62-.45-0.34-.09-0.37-.21-0.25-.25,0,0,0.65-2.66,3.17-9.11,0.22-1.53-0.28-.62-1-.29-6.48-1L414.4,406l-4.09-4.82-3-4.22-0.32-.78-0.22-.7-2.52-14.66,1.21,0.62,0.59,0.84,0.24,0.17,0.41,0.23,0.21,0.28,0.18,0.37,0.25,0.71,0.12,0.28,0.23,0.28,0.9,0.53,0.24,0.27,0.22,0.35,0.27,0.32,0.48,0.25,2.59,0.58,0.47,0.25,0.24,0.34,0.36,0.36,0.5,0.27,0.95,0.25,0.58,0.41,0.78,0.35,0.94,0.09,3.14-.7,1.83-.65,0.47-.31,0.24-.39,0.05-.46v-0.61l0.05-.53,0.2-.36,0.3-.24,0.52-.21,0.25-.21,0.14-.16,0.06-.18,0.11-.2,0.19-.25,0.39-.19,0.17-.22,0.14-.29,0.1-.37,0.2-.48,0.33-.52,0.41-.44,0.56-.44,0.22-.12,0.27-.11,0.37-.1,0.36,0h0.33l0.31,0.06,0.26,0.09,2.12,1.11,0.75,0.52,1.18,1L434,383.6l0.67,0.08h0Z" transform="translate(-228.15 -105.25)"/><path id="PY-4" class="cls-1" d="M456.24,347.93h0l1-.09,0.52,0,1,0.19,2.88,0.11,0.4,0.22,0.29,0.3,0.43,0.22,0.55,0.11,3.82-.11,0.66,0.11,0.73,0.3,0.48,0.35,0.41,0.41,0.74,0.91,0.46,0.41,0.48,0.27,0.91,0.07,1.12-.15,2.16-.67,2.14-.9,0.32,0,0.19,0.07,0.41,0.51-0.21.43-0.1.17-0.27.55L477.31,353l-0.22.4-0.33.34-0.43.12-0.33,0-0.31-.11-0.34,0-0.36.1-0.53.46-0.26.35-0.37.78-0.18.22-0.47.27L470,357.21l-0.48.29-0.87.68-0.4.18-1.27.27-0.42.18-0.67.59-0.46.28-1.17.33-0.44.21-0.31.41-0.18.37-0.75,3.06-0.11.33,0,0.07-0.06.09-0.88.6-2,1-0.66-.08-1.42-.93-1-.8-0.16-.11-0.29-.15h-0.42l-0.52.14-1.75.78-0.34,0-0.25-.07-0.23-.14h-0.23l-0.29.15-0.29.5-0.13.46-0.05.47-0.14.44-0.29.3-0.58.21-1.74.08-0.5.16-0.38.31-0.38.65-0.23.68L447,371l-0.3.33-0.5.2-0.9-.11h-1.14L441.75,367l-0.21-.52-0.15-.58-0.2-1.51,0-.09,0-.21,0-.25,0.2-.27,0.24-.14,1.52-.38,0.35-.19,0.17-.41v-0.59l-0.34-1.1-0.3-.59-0.85-1.1-0.27-.46-0.24-.6-0.36-1.23-0.21-1.21,0-.69,0.07-.65,0.25-.71L442,353l0.78-.47,2-.95,0.36-.22,1.69-1.61,0.48-.31,0.61-.22L449,349l0.46-.14,0.41-.18,1.08-.69,0.61-.19,0.71-.07,4,0.18h0Z" transform="translate(-228.15 -105.25)"/><path id="PY-11" class="cls-1" d="M412.2,329.42h1l0.81,1.2,0.12,0.11,1.43,0.92,0.34,0.34,1.09,1.88,1.07,1.18,0.45,0.68,0.19,0.5,0.1,0.59,0.22,0.75,1.23,2.27,0.36,0.49,0.23,0.18,0.25,0.1h0.24l0.22-.05,0.14-.1,0.25-.23,0.18-.13,0.16,0,0.22,0,0.4,0.45,0.73,1.19-1.45.91-1,.94-0.24.3-3,4.84-1.16,1.36-1.27,1.24-0.42.6-0.39.79-0.44,1.36-0.13,1.17,0,0.88,0.83,2.71,0.07,0.7-0.14.86-1,1.83-0.81,1.05-1.67,1.6L411,363.75l-0.9-1.18-0.2-.39-0.1-.34-0.05-.42-0.12-.24L409.5,361l-0.72-.32-0.37-.21-0.94-.81-0.84-.54-0.78-.69-0.48-.52-0.48-.65-0.28-.24-0.24-.11h-0.22l-0.75.17-0.22,0-0.24,0-0.71-.27-0.18,0-0.17,0-0.14.12-0.09.17,0,0.33,0,0.67v0.28l0,0.17-0.2.12-0.18.07-0.86-.19-0.12-.06,0.24-.18,0.39-.55-0.54-1.34-0.12-.76,0.54-.33,0.65-.23,0.69-.53,0.6-.62,0.38-.5-0.38-.1-0.34-.15-0.28-.23-0.22-.33,0.74-1.14,0.44-.43,0.76-.32,0.4,0,0.37,0,0.35,0,0.33-.23,0.14-.3,0.18-.88,0.07-.18,1,0.14,0.56,0,0.24-.24,0.17-.92,0.39-.28,0.48-.12,0.42-.44,0.19-.71,0.47-3.42,0-.65-0.25-.52-0.48-.54-0.67-.53,0.84-.79,0.88-1,0.35-1.57-0.17-1.47-0.53-1-0.87-.86,0.49-.48,0.54-.81,0.47-1,0.33-1.08,0.13-1,0.17-.53,0.43-.09,1,0.22h0Z" transform="translate(-228.15 -105.25)"/><path id="PY-2" class="cls-1" d="M461.74,270.89h0.18l0.2-.1,0.55-.46,0.25-.17,0.4-.2,0.2-.13,0.12-.18,0.09-.25,0-.34,0-.56,0-.21,0.15-.12,0.31-.14,2.18-.43,0.49,0,0.36,0.05,0.09,0.15V268l-0.08.44,0,0.5,0.13,1.43,0,0.23,0,0.21-0.24.56-0.22.31-0.38.42-0.79,1.06-0.07.17,0,0.19,0.17,0.6,0.1,0.94v1l0,0.24-0.05.21-0.15.39L465,278l-0.19.65-0.07.14-0.08.08-1.2.89-0.33.15-0.28,0,2.19,5.89,0.18,0.89-0.07.28L465,287h-0.24l-0.15.07-0.16.09-0.54.53-0.45.62-0.81.79-0.46.61-0.15.12-0.18.08-0.87.2-0.18.09-0.16.1-0.15.12-0.69.94-0.11.2-0.16.6,0,0.87-0.21,1.82v0.75l0.07,0.49,0.76,0.67,0.2,0.22,0.15,0.36,0.09,0.44,0.15,1.27,0.15,0.61,0.19,0.47,0.2,0.37,0.24,0.31,0.3,0.29,0.29,0.21,0.33,0.16,0.67,0.23,0.27,0.14,0.21,0.2,0.17,0.24,0.74,1.72,1.88,2.65,0.76,1.57,0.52,1.63,0.37,0.85,0.4,0.55,1,0.67,0.6,0.5,0.69,0.74,0.31,0.91,0.26,0.56,0.23,0.41,0.36,0.31,1.9,1.14-4.2,1.13-2.86,1.19-0.73.6-0.52.64L464,323.15l-0.31.46-0.3.28-0.31-.14-1.65-1.56-1.22-1.38-0.23-.19-0.22-.13-1.63-.62-0.36-.25-0.25-.27-0.1-.29,0-.32,0-.29,0.14-.6,0-.42-0.15-.48-0.46-.41-0.32,0-0.39.21-0.34.36-0.29.41-0.24.48-0.17.47-0.33.54-0.47.48-1.54.91-0.38.34-0.21.39-0.16.41-0.27.45-0.35.37-1.09.6-0.37.25-2.59,2.69-1.33-.6-0.17-.15-0.18-.11-1.31-1.5-0.61-.41-3.33-1.35-0.55-.07-2.4.28-1.95.56L430,323.58l-0.48.16-0.28.15-0.33.21-0.11.14-0.07.14,0,0.23v0.35l0.06,0.25v0.15l0,0.17-0.07.2-0.2.23-0.39.28-0.71.25-0.65.05-0.66-.07-1.22-.36L422.47,325l-0.65-.46,0.49-.19,0.17-.24-0.13-.33-0.41-.46-0.31-.44v-0.36l0.12-.36,0.08-.44-0.09-.61-0.23,0-0.31.21-0.31,0-0.3-.36v-0.23l1.83-2.54,0.54-2.24,0.12-.28,0.42-.19,0.31,0.08,0.31,0.14,0.41,0,0.55-.41,0.2-.61,0.16-.74,0.76-1.57-0.24-.62-0.56-.49-0.48-.3-0.26-.49-0.25-.49-0.14-.52,0-.79,0.16-1.61,0.32-1.25,0.05-.38-0.4-1-0.17-.55-0.39-2.78-0.28-1.16-0.21-2.42-0.14-.5-0.39-.73-0.28-.41-0.68-.75-0.15-.29-0.1-.33,0-.5,0-.23,0-.16,0.14-.21,0.65-.74,0.29-.66,0.62-.76,0.33-.76-0.55-.75-0.33-.08-1.27.08-0.35-.14-0.16-.33,0-.4,0.22-.35,0.23-.63-0.28-.67-0.59-.38-0.71.25-0.35-1-0.07-1-0.16-1-0.65-.79-0.36-.07h-0.49l-0.43-.07-0.18-.28,0.12-.46,0.27-.39,0.27-.29,0.12-.2,0.14-.12,0.81-.55,0.15-.39,0.1-1.21,0.25-1.16,0-.3-0.12-.22-0.27-.22-0.27-.28-0.12-.38,0.13-.29,0.63-.25,0.21-.36,0-.41-0.16-.32-0.54-.62-1.09-1-2.57-1.44-1-1.07-0.88-1.71-0.11-.54,0-.42-0.17-.82v-0.47l0.1-.42,0.31-.73,0.07-.44,0.92,0.12,0.43,0.18,0.17,0.1,0.18,0.08,0.91,0.51,0.17,0.06,0.39,0.1,0.24,0,2.37-.17,0.09,0,0.27,0,0.39-.08,0.72-.28,0.6-.33,0.27-.09,0.37,0,1.66,0,2.54-.4,1.57-.5,0.25-.15,0.14-.12,0.16-.11,0.21-.08,0.26,0,0.36,0,0.28,0.07,0.28,0.1H430l0.27-.05,0.69-.32,0.49-.12,0.38-.05,0.9,0.06,0.3,0,0.23-.07,0.23-.17,0.31-.29,0.23-.09,0.31,0,0.86,0.1,1.79,0.42,2.07-.11,0.51,0,0.36,0.06,0.85,0.47,0.35,0h0.47l0.93-.1,0.43,0,0.29,0.08,0.24,0.28,0.33,0,0.54-.06,1.13-.26,0.52-.05h0.34l0.25-.09,1.58-.81,1.42-.39h0.31l0.23,0,0.22,0,0.27,0,0.85-.43,0.48-.46,0.48-.37,0.29-.49,0.44-.54,1.16-.48,0.37,0.27,0.15,0,0.29-.15,0.4-.29,0.83-.44,0.67-.18,0.74-.11,0.4-.1,0.33-.17,0.18,0,0.56,0.17,0.47,0.08,1.5,0.08,0.51,0.14,0.31,0.18,0.28,0.26,0.17,0.27,0.08,0.25v0.22l-0.09.25-0.18.39-0.05.21,0,0.19,0.16,0.24,0.6,0.53,0.14,0.16,0.15,0.24,0.11,0.27,0.05,0.22v0.14l0,0.21-0.08.21-0.24.35-0.3.35L459.87,267l-0.12.2v0.27l0.09,0.34,0.18,0.51L460.3,269l0.63,1.14,0.44,0.49,0.36,0.26h0Z" transform="translate(-228.15 -105.25)"/><path id="PY-15" class="cls-1" d="M352.81,214.81h0l5.49-.21,7.59,0.64,1.86-.21,16.72,1.15,0.91,0.25,0.5,0.38,0.25,1.83,0.29,0.39,0.5,0.33,12.28,5.47,0.2,0.88,0.46,4.36,0.52,1.19,0.91,1.05,0.39,0.64,0.16,0.83-0.34.38-0.79,0-1.54-.27-1.62.23-1.19.83L396,236.14l0.77,1.18,0.34,0.16,0.81,0.22,0.3,0.2,0.2,0.38,0.18,0.91,0.22,0.43,0.32,0.16,0.81,0,0.33,0.15,0.27,0.31,0.11,0.2,0.23,0.67,0.36,0.5,0.15,0.36,0,0.46-0.31.39-0.47.35-0.35.35,0.05,0.38,1.19,1.12,0.47,0.62,0.18,0.81-0.77,1.54,0.53,0.52,1.58,0.77,0.34,0.45,0.23,0.73,0.56,0.21H406l0.66,0.3,0.28,0.48,0,0.65,0,0.81,0.23,0.63,0.57,0.57,0.72,0.47,1.33,0.65,0.23,0.17,0.31,0.29,0.87,1.14,0.37,0.3,0.59,0.59,0.13,0.23v0.84l-0.07.22-0.18.41-0.3.52-0.21.25-0.08.27,0.1,0.55,0.21,0.39,0.63,0.58,0.24,0.43,0.49,0.39,0.11,0.21,0,0.31,0.23,1.16,0.14,0.4v0.28l-0.14.38-0.07.44-0.31.73-0.1.42v0.47l0.17,0.82,0,0.42,0.11,0.54,0.88,1.71,1,1.07,2.57,1.44,1.09,1,0.54,0.62,0.16,0.32,0,0.41-0.21.36-0.63.25-0.13.29,0.12,0.38,0.27,0.28,0.27,0.22,0.12,0.22,0,0.3-0.25,1.16-0.1,1.21-0.15.39-0.81.55-0.14.12-0.12.2-0.27.29-0.27.39-0.12.46,0.18,0.28,0.43,0.07h0.49l0.36,0.07,0.65,0.79,0.16,1,0.07,1,0.35,1,0.71-.25,0.59,0.38,0.28,0.67-0.23.63-0.22.35,0,0.4,0.16,0.33,0.35,0.14,1.27-.08,0.33,0.08,0.55,0.75-0.33.76-0.62.76-0.29.66-0.65.74-0.14.21,0,0.16,0,0.23,0,0.5,0.1,0.33,0.15,0.29,0.68,0.75,0.28,0.41,0.39,0.73,0.14,0.5,0.21,2.42,0.28,1.16,0.39,2.78,0.17,0.55,0.4,1-0.05.38L424.39,307l-0.16,1.61,0,0.79,0.14,0.52,0.25,0.49,0.26,0.49,0.48,0.3,0.56,0.49,0.24,0.62-0.76,1.57-0.16.74-0.2.61-0.55.41-0.41,0-0.31-.14-0.31-.08-0.42.19-0.12.28-0.54,2.24-1.83,2.54V321l0.3,0.36,0.31,0,0.31-.21,0.23,0,0.09,0.61-0.08.44-0.12.36v0.36l0.31,0.44,0.41,0.46,0.13,0.33-0.17.24-0.49.19-0.76-.1-1-.25-0.84.09-0.36.93-1.72,2.31-0.37.29-0.43.25-0.42.19-0.35.07-0.3.17-0.66.74-0.27.17H412.2l-1-.22-0.43.09-0.17.53-0.13,1-0.33,1.08-0.47,1-0.54.81-0.49.48-0.44.23-1,.32-0.53.3-0.4.37-0.76,1-1.08-.74-0.69-1-1.14-2.57-0.43-.51-1.11-.55-0.54-.4-1.57-1.84-0.5-.45-0.71-.26h-2.82l-0.5-.16-0.22-.4-0.14-.44-0.24-.33-0.34-.07-0.79.1-0.35,0-2.47-1.25-0.44,0-0.35-.59-3.21-2.22-0.66,0-0.59.44-1,1.05-0.43.31-0.45.23-0.4.07-0.45-.14-0.19-.22-0.11-.31-0.22-.38-2.28-2.57L378.22,320l-0.43-.43-0.81-.41-7.86-1.54-0.18-.18-0.09-.31-0.22-.16-0.28-.13-0.25-.2-0.51-.15-1.81,0-0.74-.19-6.82-5.19-1.13-.28-0.35-.25-0.71-.71-0.35-.22-0.22,0h-0.67l-0.71-.25-1.33-.88-0.84-.29-1-.73-1.48-.51-0.34-.27-0.2-.27-0.27-.21-0.54-.08-0.34-.12-0.46-.55-1.17-.43-0.59-.73-0.72-1.39-0.34-.38-1.38-1.22-0.86-.4-0.12-.31-0.09-.35-0.12-.27-0.22-.2-0.78-.34-0.81-.47-0.39-.3-0.39-.43-0.28-.21-0.66-.14-0.61-.37-0.89-.12-0.36-.12-0.25-.24-0.63-.86-1.36-1.41-12.81-8.52-0.65-.16-0.73.08-1.67.6-0.85.2-2.66.09-2.79-.43-1.12.06-0.33-.06-0.38-.22-0.7-.63-0.38-.24-0.33-.05-1.26.05-2.2-.43-1.17-.85-0.65-.31-1.27-.06-0.21-.08-0.57-1.24,0-.22-0.33-.07-0.62-.35-0.39-.14-0.41,0-1.63.09-0.35-.09L297,281l-0.34-.11-2.08,0h0l-0.17-5,0-.26,0.11-.25,0.47-.82,0.14-.44,0.24-1.38,0.2-.34,0.32-.33,0.59-.31,0.49-.16,2.56-.42,1.27-.55,1.11-.61,0.48-.2,0.49-.1,11.52-.65,1.24-.24,0.84-.33,3.54-1.91,0.28-.19,0,0,0.33-3.45,0.33-1.52,0.44-1.39,1.61-3.28,0.39-1.13,0.11-.66-0.1-.43-0.29-.69-0.08-.27v-0.25l1-2.64,0.18-.8,0.08-.64-0.25-1.83,0.08-1.77L324,243.76l0.07-.44,0.33-1.22,0.09-.51v-1l0.12-.62,0.34-.76,6.88-10.29,0.22-.48,0.07-.59v-0.16l-0.22-1.78,0.07-.44,0.22-.32,0.53-.27,0.58-.09h2l0.54-.12,0.39-.24,0.25-.5,0-.29-0.05-.24-0.46-.92-0.08-.3v-0.29l0.05-.4,0.07-.22,0.19-.43,0.3-.42,0.48-.46,3.66-2.21,0.5-.18,0.48-.12,0.37,0.19,0.28,0.2,0.33,0.32,0.28,0.21,0.29,0.17,0.23,0.07,0.19,0,0.85-.41,2.21-1.37,0.54-.48,0.12-.22-0.1-.52-1.25-3.8,4,2.22,1.34,0.55,0.84,0.22,0.58,0h0Z" transform="translate(-228.15 -105.25)"/><path id="PY-3" class="cls-1" d="M447.4,325.86h0l-1.75,10.43-0.71,2.45-8.73,6.18-0.2.27,0,0.37,0.18,0.5,2.06,4.28,0,0.09,0.13,0.3-1.49-.59-0.27,0-0.37,0-0.4.2-0.34.23-0.25.21-0.23.15-0.25.14-0.27.07-0.25,0-1.09-.08-0.29-.1-0.25-.15-0.1-.26,0-.16,0.12-.15,0.44-.4,0.43-.48,0.1-.2,0-.18v-0.17l0-.15-0.22-.47-0.1-.3-0.19-1-0.13-.34-0.21-.28-0.46-.11h-0.37l-2.65.16-0.3,0-0.63-.14-0.82-.28-0.42-.08-1,0-0.54-.39-0.33-.31-1.75-3.28-0.73-1.19-0.4-.45-0.22,0-0.16,0-0.18.13-0.25.23-0.14.1-0.22.05h-0.24l-0.25-.1-0.23-.18-0.36-.49L419,337.59l-0.22-.75-0.1-.59-0.19-.5-0.45-.68L417,333.88,415.92,332l-0.34-.34-1.43-.92-0.12-.11-0.81-1.2h1.17l0.27-.17,0.66-.74,0.3-.17,0.35-.07,0.42-.19,0.43-.25,0.37-.29,1.72-2.31,0.36-.93,0.84-.09,1,0.25,0.76,0.1,0.65,0.46,2.32,1.07,1.22,0.36,0.66,0.07,0.65-.05,0.71-.25,0.39-.28,0.2-.23,0.07-.2,0-.17V325.2l-0.06-.25v-0.35l0-.23,0.07-.14,0.11-.14,0.33-.21,0.28-.15,0.48-.16,5.62-1.06,1.95-.56,2.4-.28,0.55,0.07,3.33,1.35,0.61,0.41,1.31,1.5,0.18,0.11,0.17,0.15,1.33,0.6h0Z" transform="translate(-228.15 -105.25)"/><path id="PY-1" class="cls-1" d="M397.16,213.53h0.39l0.61-.27,0.24,0,0.3,0.18,0.5,0.55,0.17,0.13,0.43-.1,0.57-.49h0.36l0.36,0.09,0.28,0,0.43-.22-0.09-.06v-0.21l0.07-.22,0.07-.13,0.14,0,0.34,0.13h0.15l0.71-.27,0.47,0,0.47,0.15,0.72,0,0.4-.11,0.28-.15,0.25-.07,0.33,0.15,0.55,1.54,0.42,0.79,0.47,0.46,0.62,0.16,0.85-.13,0.31-.12,0.15-.11,0.18-.05,0.44,0,0.27,0.11,0.84,0.55,1.38-.33h0.3l0.74,0.29,0.39,0,0.52,0.2,1.17,0.75h0.23l0.13-.24,0.3,0.08,0.55,0.31h0.4l0.18-.2,0.06-.24,0-.11,0.55,0,1.59,0.39,0.68-.12,0.89-.74,0.48-.12L422,216l0.11,0.59,0.24,0.21,0.34,0,0.22-.1,0.21-.14,0.27-.06,0.58,0.09L425,217l0.33,0.17,0,0.08,0,0.17,0.17,0.16,0.63,0.11,0.21,0.07,0.21,0,0.27-.11,0.43-.11,1.13,0.09,0.59,0,0.88,0.29h0.39l0.4-.26,0,0.62,0.18,0.15,0.3,0,0.34,0,0.63,0.32,0.36,0,0.39-1,0.42,0.59,0.36,1,0.08,0.49,0.84,0.12,0.47-.16h0l0.31,0.35,7.52,1.88,1.44,0.57-0.14.12-0.83.44-0.2.14-1.52,2.18-0.26.22-1.14.78-0.2.2-0.14.21-0.1.23,0,0.27,0.17,0.84,0,0.29-0.12.22-0.35.24-0.09.21v0.28l0.18,0.78,0,0.22,0,0.73,0.09,0.73,0,0.44-0.06.36-0.1.31-0.07.43,0.07,0.36,0.17,0.28,0.33,0.43L440,234.7V235l-0.11.58,0.08,0.27,0.17,0.17,0.2,0.12,0.18,0.15,0.23,0.27L441,237l0.29,0.76,0.28,1.56,0.22,0.69,0,0.4-0.17.26-0.79.52-0.23.27-0.2.3-0.09.47,0,0.13,0.14,0,0.21,0h0.48l0.66-.07,0.19-.07,0.16-.1,0.28-.27,0.16-.09,0.23,0,0.23,0.16,0.31,0.34,0.23,0.18,0.22,0.15,0.22,0.06,0.23,0,0.21,0,0.19,0,0.69-.31,0.41-.09,0.17-.09,0.13-.14,0.28-.58,0.37-.48,0.1-.18,0.07-.22,0.11-.75,0.06-.23,0.12-.34,0-.08,0-.07,0.22-.23,0.3-.23,0.18-.09,0.18-.07,1.88-.34,0.2-.06,0.35-.17,0.15-.11,0.14-.14,0.23-.32,0.42-.72,0.11-.16,0.14-.14,0.16-.11,0.19-.08,0.41-.09,0.18-.08,0.16-.1,0.9-.7,0.17-.09,0.19,0h0.18l0.22,0.05,0.52,0.21,0.17,0.21,0.12,0.22,5.11,13.34,0,0.24-0.07.43,0,1.38,0,0.22-0.08.18-0.13.14-0.17.08h-0.21l-0.19-.05-0.35-.17-0.17,0-0.14.09-0.1.16,0,0.22v0.24l0.07,0.41,0,0.17-0.14.1-0.17.08-0.15.12-0.1.16-0.08.2,0,0.21,0,0.27v0.33l0.14,0.55v0.31l-0.07.21-0.15.11-1.37.74-0.31.22-0.14.12-0.13.13-0.1.17-0.16.37-0.12.15-0.33.2-0.15.12-0.12.14L455,258l-0.08.19,0,0.21-0.11.95-0.09.38,0,0.1-0.07.14-0.07.09-0.17.15-1.16.48-0.44.54-0.29.49-0.48.37-0.48.46-0.85.43-0.27,0-0.22,0-0.23,0h-0.31l-1.42.39-1.58.81-0.25.09H446l-0.52.05-1.13.26-0.54.06-0.33,0-0.24-.28-0.29-.08-0.43,0-0.93.1h-0.47l-0.35,0-0.85-.47-0.36-.06-0.51,0-2.07.11-1.79-.42-0.86-.1-0.31,0-0.23.09-0.31.29-0.23.17L433,264l-0.3,0-0.9-.06-0.38.05-0.49.12-0.69.32-0.27.05h-0.23l-0.28-.1-0.28-.07-0.36,0-0.26,0-0.21.08-0.16.11-0.14.12-0.25.15-1.57.5-2.54.4-1.66,0-0.37,0-0.27.09-0.6.33-0.72.28-0.39.08-0.27,0-0.09,0-2.37.17-0.24,0-0.39-.1-0.17-.06-0.91-.51-0.18-.08-0.17-.1-0.43-.18-0.92-.12,0.14-.38v-0.28l-0.14-.4-0.23-1.16,0-.31-0.11-.21-0.49-.39-0.24-.43-0.63-.58-0.21-.39-0.1-.55,0.08-.27,0.21-.25,0.3-.52,0.18-.41,0.07-.22v-0.84l-0.13-.23-0.59-.59-0.37-.3-0.87-1.14-0.31-.29-0.23-.17-1.33-.65-0.72-.47-0.57-.57-0.23-.63,0-.81,0-.65-0.28-.48-0.66-.3h-1.42l-0.56-.21-0.23-.73-0.34-.45-1.58-.77-0.53-.52,0.77-1.54-0.18-.81-0.47-.62-1.19-1.12-0.05-.38,0.35-.35,0.47-.35,0.31-.39,0-.46-0.15-.36-0.36-.5-0.23-.67-0.11-.2-0.27-.31-0.33-.15-0.81,0-0.32-.16-0.22-.43-0.18-.91-0.2-.38-0.3-.2-0.81-.22-0.34-.16L396,236.14l0.39-1.16,1.19-.83,1.62-.23,1.54,0.27,0.79,0,0.34-.38-0.16-.83-0.39-.64-0.91-1.05-0.52-1.19-0.46-4.36-0.2-.88-0.09-.43,0.22-.28,0.66-.61-0.16-.44L398.19,221l-0.35-1.29-0.33-.4-0.67-.15-0.9,0-0.55-.2-0.34-.47-0.28-.87-0.12-.91,0.37-2.39-0.26-.62L394.5,212l0.28-.35h0L395.2,212l0.31,0.61,0.44,0.48,1.2,0.41h0Z" transform="translate(-228.15 -105.25)"/><path id="PY-19" class="cls-1" d="M325.18,210.26h0l3.29-.09,2-.31,12.85,0.5,1,0.33,1.75,1.07,1.25,3.8,0.1,0.52-0.12.22-0.54.48-2.21,1.37-0.85.41-0.19,0-0.23-.07-0.29-.17-0.28-.21-0.33-.32-0.28-.2-0.37-.19-0.48.12-0.5.18-3.66,2.21-0.48.46-0.3.42-0.19.43-0.07.22-0.05.4v0.29l0.08,0.3,0.46,0.92,0.05,0.24,0,0.29-0.25.5-0.39.24-0.54.12h-2l-0.58.09-0.53.27-0.22.32-0.07.44,0.22,1.78v0.16l-0.07.59-0.22.48L325,239.21l-0.34.76-0.12.62v1l-0.09.51-0.33,1.22-0.07.44,0.14,1.95-0.08,1.77,0.25,1.83-0.08.64-0.18.8-1,2.64v0.25l0.08,0.27,0.29,0.69,0.1,0.43-0.11.66-0.39,1.13-1.61,3.28-0.44,1.39L320.73,263l-0.33,3.45,0,0-0.28.19-3.54,1.91-0.84.33-1.24.24-11.52.65-0.49.1-0.48.2-1.11.61-1.27.55-2.56.42-0.49.16-0.59.31-0.32.33-0.2.34-0.24,1.38-0.14.44-0.47.82-0.11.25,0,0.26,0.17,5h0l-1,0-0.74-.09-1-.62-1.19-1-1.31-.65-1.36.4-1.12-.72-0.34-.34-0.52-.86-0.21-.22-0.07-.52-0.43-.81-0.58-.74-0.94-.54-0.61-1-0.33-.36,0.32-.64,0.12-.88-0.12-.79-0.44-.34-0.62-.21-0.53-.48-0.47-.54-0.44-.36-0.27,0-0.71.05-0.24,0-0.33-.23-0.69-.71-0.32-.15-0.74-.22-0.37-.53-0.21-.61-0.28-.49-2.31-1-0.82,0-0.49-.14-0.36-.25-0.42-.39-0.54-.39-0.58-.24-0.65-.13-0.77,0-0.33-.21-0.33-.91-0.57-.37,0-.39,0.16-.44,0.17-.32-0.63,0-0.42-.08-0.32-.16-1.8-1.9L265,258h-1.68l-0.48-.14-0.3-.18-0.56-.62-0.5-.35-0.51-.23-0.4-.34-0.16-.67,0-.72-0.1-.46-0.22-.37-0.38-.46-0.39-.34-0.8-.46-0.42-.38-0.8-1.18-0.29-.29-4-2.43L251.77,247l-0.49-.74V246.1l-0.1-.18,0.18-.9-0.08-.37-0.4-.59-0.67-1.42-0.52-.79-0.75-.8-0.33-.44-0.14-.47h-0.17L248,239.9l-0.3-.28,0-.14-0.25-.12-0.14-.29-0.1-.35-0.13-.29-1-1.08-0.22-.41-0.15-.43-0.24-.33-0.48-.14-0.15-.21,0.44-.91-0.68-.43,0-.5,0.24-.85-0.18-.4-0.13-.07-0.21,0-0.44-.11-0.88-.41-0.47-.39v-0.48l0.5-.7,0.2-.65-0.28-.69-0.79-.92-0.2-.05-0.24,0-0.21-.05-0.09-.28v-0.43l0-.2-0.1-.18L241,227l-0.4-.12-1.27-.17-0.26,0-0.69-.27-2.48-1.73-0.6-.61-0.25-.58-0.3-.27-1.43-.45-0.45-.2L232,221.46,231.4,221l-0.84-.22-0.41,0-0.48-.14-0.43-.25-0.27-.35,0.07-.32,0.23-.34,0.14-.4-0.22-.52h0.24l-0.18-.3-0.25-.25-0.3-.17-0.36-.07,0.81-1.92,1-3.63,0.94-3.42,1.55-5.21,1.3-4.34,1.66-5.55,1.22-4.06,1.3-4.45,1.25-4.26,1.16-3.95,1.14-3.92,0.14-2.5v0l-0.07-5.54,0-3.66,0-3.34,0-3.46,0.3-1,1.3-2,0.78-1.13,0.74-1.08,1.59-2.31,1.6-2.31,1.59-2.31,1.59-2.31,0.59-.9,0.59-.91,0.59-.9,0.6-.91,0.46-1,0.24-.5,0.47,0.42,3.3,2.12,66.46,19.73,2.46,1.05,0.93,0.72-0.72,3V162l0,0.23,0.13,0.22,0.74,1,0.42,0.76,0.2,0.5,0.22,0.9,0,0.35v0.31l-0.14,1,0,0.31,0.1,0.28,0.73,1.3,1.91,2.67,0.2,0.35,0.34,0.82,1.46,9.8v0.36l0,0.33-0.05.26-0.06.2-0.09.16-0.11.13-0.19.16-3.6,2.19-0.54.43-0.52.57-0.21.34-0.16.38-3.21,14.39-0.5,1.52-0.08.49V205l0.58,3.53,0,1.17,0.1,0.39,0.32,0.13h0Z" transform="translate(-228.15 -105.25)"/><path id="PY-16" class="cls-1" d="M388.18,138.6h0l0,0.61,0.21,0.13,0.3,0,0.25,0.08,0.25,0.26,0.34,0.43,0.07,0.4-1.31.46-0.26.63,0.22,0.71,0.69,0.48,0.22-.06,0.17-.22,0.22-.22,0.37,0,0.23,0.14,0.29,0.29,0.17,0.36-0.34,1,0.08,1L390.6,146l0.28,0.64,0.56,0.66,0.76,0.6,0.8,0.43,0.67,0.17,0.53,0.3-0.1.68-0.56,1.1-0.08.77,0,1,0.15,0.92,0.41,0.91,0,0.43,0,0.82,0.1,0.53,0.47,0.74,0.17,0.42,0,0.41-0.27.73,0,0.44,0.22,0.43,0.34,0.27,0.31,0,0.33-1.32,0.47-.29,0.57,0.09,0.49,0.35,0.15,0.23,0.21,0.56,0.14,0.24,0.22,0.21,0.55,0.39,0.31,0.31,0.09,0.36-0.27.29-0.42.19-0.77.16-0.28.21-0.4.45-0.54.4-0.27.34,0.23,0.23,0.92,0.09,0.72,0.15,0.61,0.4,0.39,0.58,0.09,0.69-0.37.4-1.47.82-0.33.49,0.11,0.43,0.24,0.18,0.24,0.07,0.11,0.09h0.18l0.82,0.68,0.81,0.88h0.24l0.15-.67,0.66,0.58,0.05,0.84-0.33.88-1,1.5,0,0.54,0.56,1.16,0.22,1.7L399.74,177l-0.5,1.62-0.81,1.2-1,.74-0.19.3,0,0.48,0.18,0.29,0.22,0.2,0.11,0.21,0.29,0.4,0.57,0.17L399,183l-0.28,1-2.37,3.68-0.54,1.3-0.14.81,0,0.85,0.29,0.68,0.65,0.28,0.34,0.33-0.25.76-0.46.87-0.24.65,0.15,0.65,0.37,0.68L397,196l0.38,0.22,0.2,0.37L396,199.2l0,0.74,0.13,0.7,0,0.73-0.47.84-0.24.66,0.33,0.55,0.5,0.63,0.26,0.88-0.16.48L395.49,207l-0.33.34-0.08.37-0.78,2.25-0.05.53V211l0.07,0.4,0.47,0.25h0l-0.28.35,0.25,1.61,0.26,0.62-0.37,2.39,0.12,0.91,0.28,0.87,0.34,0.47,0.55,0.2,0.9,0,0.67,0.15,0.33,0.4,0.35,1.29,1.65,2.08,0.16,0.44-0.66.61-0.22.28,0.09,0.43-12.28-5.47-0.5-.33-0.29-.39-0.25-1.83-0.5-.38-0.91-.25L367.75,215l-1.86.21-7.59-.64-5.49.21-0.58,0-0.84-.22-1.34-.55-4-2.22-1.75-1.07-1-.33-12.85-.5-2,.31-3.29.09-0.32-.13-0.1-.39,0-1.17L324.15,205v-0.37l0.08-.49,0.5-1.52,3.21-14.39,0.16-.38,0.21-.34,0.52-.57,0.54-.43,3.6-2.19,0.19-.16,0.11-.13,0.09-.16,0.06-.2,0.05-.26,0-.33v-0.36l-1.46-9.8-0.34-.82-0.2-.35-1.91-2.67-0.73-1.3-0.1-.28,0-.31,0.14-1V165.9l0-.35-0.22-.9-0.2-.5-0.42-.76-0.74-1-0.13-.22,0-.23V161.8l0.72-3-0.93-.72-2.46-1.05-66.46-19.73-3.3-2.12-0.47-.42,0.22-.47,0.46-1,0.46-1h0l1-2.78,1-2.78,1-2.78,1-2.78L260,119.4l0.29-.45,0.57-.24,3.17-.48,0.76-.12,1.68-.26,1.68-.25,0.76-.12,12-2.62,12-2.63,12-2.62,12-2.62,5.36-1.17,2.92,0,6.71-.09,6.7-.09,6.71-.09,6.71-.09,2.89,0,0.71,0.18,1.06,0.76,1,0.73,1.79,1.11,3.32,2.07,3.32,2.07,3.32,2.06,3.32,2.07,3.32,2.07,3.31,2.07,3.32,2.07,3.32,2.07,1.39,0.87L388,126l0.11,0.54L388,127.81l0.08,1.22,0.6,2.16,0.12,1.19-0.09.84,0,1.6-0.06.79-0.53,2,0,1h0Z" transform="translate(-228.15 -105.25)"/><path id="PY-ASU" class="cls-1" d="M408.15,340.87h0l-1.54-1.21,0-.48-1.08-2.77,0,0,0.76-1,0.4-.37,0.53-.3,1-.32,0.44-.23,0.87,0.86,0.53,1,0.17,1.47-0.35,1.57-0.88,1-0.84.79h0Z" transform="translate(-228.15 -105.25)"/></svg>