<svg id="Capa_1" data-name="Capa 1" xmlns="http://www.w3.org/2000/svg" viewBox="0 0 218.77 322.63"><defs><style>.cls-1{fill:#e5e5e5;}.cls-1,.cls-2{stroke:#888889;}.cls-1,.cls-2,.cls-3{stroke-miterlimit:10;stroke-width:0.28px;}.cls-2{fill:#ecedf0;}.cls-3{fill:#019746;stroke:#a6bb8d;}</style></defs><title>mapa-1</title><polyline id="polyline10" class="cls-1" points="142.53 37.37 143.47 38.11 143.94 39.05 144.88 39.53 144.66 40.46 144.88 41.4 144.88 42.33 145.37 43.3 145.84 44.23 145.59 45.17 146.03 46.1 145.84 47.07 146.29 48 147 48.94 147.94 48.94 148.88 49.42 149.81 50.1 150.29 51.04 150.54 51.97 149.62 52.71 148.88 53.64 147.94 54.58 147 55.54 145.84 56.48 144.88 56.96 144.18 57.9 143.24 58.58 142.53 59.51 142.53 60.48 142.07 61.41 141.34 62.35 140.41 63.28 139.69 64.25 140.66 64.25 143 63.54 143.94 63.28 144.43 62.35 144.43 61.41 145.37 60.93 146.03 61.89 146.78 62.83 147 61.89 146.29 60.93 146.53 59.99 147.25 59.06 148.19 58.58 149.13 58.58 150.06 58.58 151.03 58.83 151.97 58.83 152.91 58.58 153.84 58.35 154.81 57.9 155.74 57.9 156.68 58.12 158.09 59.06 157.35 59.99 157.16 60.93 156.9 61.89 156.41 62.83 155.74 63.76 154.81 64.7 153.84 64.95 152.91 64.7 151.97 65.44 151.03 65.89 150.06 65.66 149.13 65.44 148.19 65.66 147.25 65.89 146.29 65.89 145.37 65.89 144.43 65.44 143.24 65.18 142.28 65.66 142.28 66.6 143.47 65.89 144.43 66.37 145.37 66.6 146.29 66.85 147.25 66.85 148.19 66.37 149.13 66.6 150.06 66.6 151.03 66.85 151.97 66.85 152.91 66.37 153.13 67.31 154.06 66.6 154.31 65.66 155.25 65.44 156.19 64.7 157.16 64.7 157.35 63.76 158.09 62.83 158.56 61.89 159.25 60.93 160.19 60.48 161.13 60.93 162.09 61.18 163.03 61.89 163.96 62.12 164.9 62.35 165.85 63.08 166.78 63.54 167.99 64.02 169.15 64.5 170.07 64.25 171.04 64.7 171.97 65.44 172.24 66.37 173.16 65.89 174.1 66.12 175.03 66.85 175.75 67.79 175.75 68.72 175.53 69.66 175.75 70.62 175.53 71.79 175.53 72.72 174.81 73.66 175.75 73.91 176.46 72.98 176.69 72.04 176.94 71.08 177.88 70.82 178.59 71.79 179.78 71.56 180.22 70.62 180.71 69.66 181.65 70.14 182.57 70.62 183.54 71.3 184.47 71.79 185.41 72.04 186.34 72.98 187.31 73.2 188.25 72.49 189.19 72.98 190.12 73.43 191.09 74.14 192.01 73.66 192.96 73.91 193.66 74.85 194.59 74.39 195.53 73.91 196.47 73.91 197.66 74.59 198.63 75.33 199.56 75.33 200.5 76.01 201.43 76.75 202.13 77.68 202.84 78.62 203.81 79.1 204.75 79.55 205.21 80.52 205.91 81.45 206.37 82.39 207.32 83.32 208.26 83.8 209.19 84.29 210.16 84.97 211.09 85.45 212.03 86.38 212.28 87.32 213.71 87.09 214.87 87.58 215.81 87.8 216.74 88.06 217.22 88.99 217.71 89.93 217.47 90.86 217.47 91.83 217.93 92.76 218.41 93.7 218.41 94.63 218.63 95.6 218.63 96.53 218.63 97.47 218.41 98.4 218.16 99.37 218.41 100.3 218.41 101.24 217.93 102.17 217.47 103.14 217.47 104.07 217.22 105.01 217 105.94 216.53 106.91 215.81 107.81 215.13 108.75 214.16 109 213.22 109 213.71 109.94 213.22 110.88 212.51 111.84 211.81 112.78 210.87 113.45 209.94 114.19 208.97 114.19 208.26 115.13 207.32 115.81 206.84 116.77 206.37 117.71 205.91 118.67 205.43 119.61 203.81 121.02 203.07 121.99 202.13 122.44 200.97 122.19 200.03 121.73 199.78 122.67 199.78 123.6 199.56 124.54 198.82 125.5 198.15 126.44 197.88 127.37 198.15 128.31 199.07 127.86 199.07 128.79 199.07 129.73 198.15 130.46 197.66 131.4 198.15 132.33 198.15 133.27 198.15 134.23 198.37 135.17 198.37 136.1 198.15 137.04 198.15 138 197.66 138.94 197.44 139.87 196.96 140.81 196.72 141.77 196.01 142.71 195.78 143.64 195.53 144.58 195.31 145.54 195.31 146.48 194.59 147.41 193.88 148.35 193.44 149.31 193.19 150.25 193.19 151.18 192.96 152.12 192.96 153.08 192.69 154.02 192.25 154.95 191.28 155.44 190.34 157.05 189.41 157.79 189.19 158.72 189.19 159.66 188.25 159.89 187.31 160.82 186.34 161.08 186.34 162.01 185.65 162.98 184.97 163.91 184.97 164.85 184.97 165.78 184.97 166.75 184 167.68 183.06 168.16 182.13 168.36 181.19 169.1 181.19 170.03 180.22 170.52 179.29 170.26 178.35 170.26 177.43 170.26 176.46 170.26 175.53 170.03 174.59 170.26 173.66 170.52 172.69 169.78 171.75 170.03 170.81 170.52 169.88 170.52 168.91 171.2 167.99 171.93 167.04 172.13 166.12 172.87 165.63 173.8 164.69 173.8 163.28 173.8 162.34 174.29 161.38 174.74 160.44 174.74 159.5 174.97 158.56 175.45 157.6 176.16 156.9 177.09 155.97 177.8 155 178.51 154.31 179.44 153.84 180.41 152.91 180.86 151.97 180.61 151.22 181.57 151.22 182.51 151.03 183.44 150.78 184.38 150.78 185.34 151.03 186.28 151.22 187.21 151.03 188.86 151.03 189.79 150.06 189.79 150.06 190.73 150.06 191.69 150.54 192.63 151.03 194.3 150.54 195.23 149.81 196.17 148.88 196.4 147 196.65 146.29 197.59 145.59 198.52 144.66 199.26 144.43 200.19 143.94 201.13 143.47 202.07 143 203.03 142.75 203.97 142.28 204.9 142.07 205.84 141.59 206.8 140.66 207.74 139.69 208.41 138.99 209.35 138.04 210.06 137.09 210.77 136.15 211.25 135.69 210.31 136.63 210.06 137.56 209.35 138.31 208.41 138.31 207.48 138.99 206.54 139.91 206.06 140.41 205.13 140.66 203.97 140.66 203.03 139.69 203.03 138.75 202.55 138.75 203.48 138.99 204.42 138.75 205.38 137.81 206.06 137.56 207 136.63 207.74 135.93 208.67 134.99 209.58 134.28 210.51 134.28 211.48 134.28 212.41 134.28 213.35 134.28 214.28 133.79 215.25 133.56 216.18 133.12 217.12 132.38 218.05 131.44 218.53 130.5 218.79 129.54 218.53 129.34 217.6 129.79 216.66 130.76 215.7 131.69 215.02 132.63 214.09 132.85 213.12 132.85 212.19 131.93 212.41 131.22 213.35 130.5 214.28 130.28 214.54 129.34 213.6 128.6 212.67 127.92 211.73 127.19 210.77 126.25 210.09 125.31 209.35 124.39 208.9 123.42 208.19 122.48 207.48 122 206.54 121.33 205.58 120.39 205.84 119.45 205.38 118.72 204.42 117.78 203.48 116.84 202.78 116.36 201.81 115.42 201.81 114.47 202.29 113.53 202.55 112.36 202.78 113.08 201.81 113.78 200.88 114.47 199.94 115.19 199 115.89 198.07 116.84 197.1 117.56 196.17 118.48 195.23 119.19 194.3 119.66 193.34 120.61 192.4 121.55 191.92 122.48 191.72 123.42 191.24 123.91 190.3 124.83 189.82 125.78 189.11 126.73 188.63 127.67 188.63 128.6 187.95 129.34 186.99 129.34 186.05 129.54 185.12 129.54 184.18 129.54 183.22 129.09 182.28 129.09 181.34 128.38 180.41 127.44 180.15 126.52 180.61 125.58 181.15 126.03 180.21 126.03 179.28 126.03 178.34 126.03 177.38 126.03 176.44 126.03 175.25 126.52 174.31 126.73 173.35 126.52 172.41 125.58 172.19 124.39 172.19 123.42 171.96 122.48 171.25 122.25 170.32 122 169.38 122.25 168.45 121.81 167.48 121.55 166.55 121.81 165.61 121.33 164.68 120.39 164.19 119.45 163.71 118.48 163.26 117.56 163.26 116.61 163.46 115.69 163.46 114.72 163.46 113.78 163.94 112.84 163.71 111.66 163.26 111.92 162.3 112.11 161.36 112.11 160.43 111.66 159.49 112.11 158.53 112.11 157.59 111.66 156.66 111.66 155.72 111.66 154.76 111.17 154.05 112.36 152.63 110.94 151.47 111.17 150.53 111.66 149.6 111.92 148.63 112.11 147.7 112.59 146.76 112.84 145.83 113.31 144.86 113.78 143.93 113.08 142.99 112.36 142.06 111.42 141.32 110.5 140.38 109.53 139.9 109.31 138.97 108.83 138.03 109.08 137.1 109.53 136.13 110.02 135.2 109.75 134.97 101.28 134.52 99.86 129.56 100.81 129.56 101.28 128.59 101.28 127.66 100.61 126.72 101.06 125.79 101.06 124.82 100.34 123.89 99.39 123.4 98.44 123.21 97.52 122.72 96.58 122.24 95.61 122.24 94.67 122.47 93.75 122.47 92.81 121.79 91.84 120.85 90.91 120.85 89.97 120.6 89.03 120.12 88.08 119.44 87.39 118.47 86.45 118.47 85.53 118.02 84.56 117.76 83.63 117.76 82.69 117.76 81.72 117.28 81.02 116.35 80.08 115.67 79.14 115.18 78.17 114.25 77.25 113.51 77.02 112.58 77.25 111.64 77.25 110.7 77.02 109.74 76.56 108.81 76.08 107.87 76.56 106.94 77.02 105.97 77.02 105.04 76.56 104.1 75.61 104.36 74.67 104.36 73.72 104.58 72.8 104.58 71.83 104.81 70.89 105.52 70.19 106.45 69.22 107.19 68.28 107.39 67.36 107.87 66.64 108.81 65.7 109.29 64.78 109.54 64.03 110.48 63.35 111.41 62.41 111.41 61.48 110.96 60.52 110.7 59.59 110.96 58.65 111.16 57.88 111.36 56.7 111.13 55.76 111.61 54.83 112.07 53.85 112.07 52.92 111.84 52.45 110.88 52.7 109.94 52.7 106.42 52.45 105.49 52.45 104.53 51.53 104.3 50.59 105.01 49.66 105.49 48.73 106.17 47.98 107.11 47.05 107.36 46.12 107.59 45.16 107.59 44.48 106.65 43.55 105.69 42.55 105.01 41.62 104.75 40.67 105.01 39.74 105.01 39.97 104.07 39.74 102.88 39.26 101.92 38.33 100.98 37.62 100.05 37.37 99.11 37.16 98.18 36.2 97.47 35.74 96.53 36.2 95.6 36.42 94.63 36.69 93.7 36.91 92.76 37.37 91.83 38.58 91.34 39.52 90.41 39.26 89.47 39.03 88.51 39.03 87.58 39.52 86.64 40.2 85.7 40.67 84.74 41.13 83.8 41.87 82.87 42.55 81.93 43.55 81.45 44.48 80.97 45.41 80.72 46.58 80.72 47.51 80.72 48.48 79.78 49.41 79.33 50.59 78.84 51.53 78.84 52.45 79.33 53.41 78.84 54.34 78.84 54.59 78.36 55.76 71.79 56.22 65.89 56.22 65.44 56.47 64.5 56.47 63.54 55.76 62.6 55.05 61.67 54.34 60.73 53.41 60.5 53.41 59.57 53.41 58.6 53.41 57.67 53.41 56.73 53.66 55.8 54.59 55.8 55.52 55.06 56.47 55.8 57.42 55.32 57.17 54.38 56.22 53.39 55.27 52.94 54.34 53.19 54.12 50.1 55.05 50.1 56.22 50.1 57.17 50.1 58.12 50.1 59.05 50.1 59.98 50.1 61.2 50.36 62.13 49.62 62.13 48.68 63.3 48.94 64.23 48.46 65.17 48.23 66.14 48.23 66.58 48.68 67.06 49.62 67.55 50.58 68.48 51.52 69.19 52.45 70.16 52.94 70.36 53.87 71.31 54.13 72.25 54.58 73.19 55.06 74.13 55.06 75.08 54.38 75.55 53.39 76.47 54.13 77.22 52.94 77.69 51.97 78.64 51.29 79.56 50.58 80.5 50.1 80.98 49.16 81.92 48.23 82.86 48 83.83 47.75 84.75 47.27 84.5 46.33 83.56 46.1 82.63 46.1 81.67 46.1 80.72 45.65 80.72 44.69 80.98 43.75 80.5 42.81 80.5 41.88 80.25 40.69 79.56 39.73 78.64 39.27 77.69 38.56 77.69 37.63 78.64 37.63 79.56 37.85 80.5 37.63 81.47 38.11 82.41 38.31 83.33 38.79 84.28 39.05 85.23 39.53 86.17 39.73 87.11 39.05 87.78 38.11 88.75 38.11 89.69 38.11 90.63 37.63 91.56 37.63 92.53 37.37 93.45 36.92 94.39 36.21 95.33 36.21 96.55 35.5 97.72 35.02 98.42 34.09 98 33.09 98.91 32.67 99.83 32.19 100.78 32.19 101.7 32.67 101.7 34.34 100.78 35.02 100.78 35.96 101.47 36.92 102.19 37.85 102.42 38.79 102.19 39.73 101.94 40.69 101.7 41.63 101.7 42.56 101.7 43.5 101.7 44.46 101.7 45.4 102.19 46.33 102.42 47.27 102.67 48.23 103.13 49.16 104.08 49.62 105.03 49.87 106.19 50.58 107.14 50.81 108.08 50.81 109.05 50.36 109.98 49.87 110.92 49.45 112.56 49.45 113.5 49.45 114.44 48.46 115.39 48 116.33 48 117.53 47.75 117.75 48 118.69 48 119.63 48.68 120.81 48.46 121.78 47.75 121.78 46.81 120.81 46.1 121.03 45.17 121.97 45.4 122.94 45.65 123.88 45.4 124.81 44.91 125.75 44.91 126.22 45.85 127.17 45.85 127.67 46.61 128.6 46.84 129.79 47.29 130.76 46.84 131.69 46.13 132.63 46.36 133.56 46.13 134.53 46.61 135.47 46.84 136.41 46.13 138.75 43.07 139.24 42.13 139.91 41.17 140.66 40.01 141.34 39.07 142.07 38.14 141.81 37.2 142.53 37.37"/><polyline id="polyline12" class="cls-1" points="43.28 4.41 44.23 3.92 45.16 3.44 46.12 3.44 47.05 2.76 47.51 1.83 47.3 0.86 46.34 0.15 45.41 0.41 44.48 0.86 43.28 1.83 42.55 2.76 41.87 3.7 40.94 3.92 39.97 4.41 39.03 4.86 38.13 5.85 37.16 6.3 36.2 6.3 35.27 6.3 34.08 6.3 33.13 6.53 32.42 7.47 31.71 8.4 30.79 9.37 30.07 8.4 29.14 8.18 28.2 8.63 27.46 9.56 27.02 10.53 26.54 11.46 26.05 12.4 25.86 13.34 25.86 14.3 25.86 15.23 24.89 15.23 23.95 15.49 23.5 16.43 23.02 17.36 22.29 18.32 21.34 18.78 20.41 19.49 20.18 20.42 20.66 21.36 20.66 22.32 20.66 23.29 19.73 23.29 19.73 22.32 19 21.36 18.32 20.42 17.34 20.42 17.57 21.36 17.57 22.32 17.34 23.29 16.89 24.22 16.41 25.16 15.47 24.9 15.22 25.84 15.22 26.8 15.96 27.73 16.16 28.67 17.13 28.9 17.34 29.83 17.13 31.02 17.34 31.99 17.82 32.92 17.34 33.86 16.89 34.79 17.34 35.76 17.34 36.69 17.34 37.63 17.34 38.56 17.34 39.53 17.13 40.46 17.13 41.4 17.57 42.33 18.52 42.33 18.52 43.3 17.57 43.98 16.89 44.91 16.16 45.85 15.96 46.81 15.71 47.75 15.47 48.68 14.54 48.94 13.57 48.94 12.64 49.45 11.71 49.16 11.47 50.1 11.47 51.04 11.96 51.97 12.19 52.94 11.22 53.39 10.29 53.39 10.04 54.38 10.78 56 10.04 54.58 11.71 56.25 12.64 57.19 13.57 57.41 14.54 57.67 15.47 57.9 16.41 57.67 17.34 58.35 18.32 59.31 19.25 59.77 20.18 59.77 21.11 60.25 22.09 59.77 22.29 58.83 23.25 59.31 24.18 59.77 25.11 60.02 26.05 60.73 27.02 60.96 28.43 60.96 29.36 61.18 30.3 61.67 31.23 62.38 32.2 62.86 32.66 63.76 33.4 64.7 34.33 64.95 35.27 65.44 36.2 65.66 36.69 66.6 37.62 67.31 38.58 67.79 38.33 68.72 38.77 69.66 38.33 70.62 39.26 70.82 39.74 71.79 40.94 71.08 41.87 71.3 42.8 70.82 43.73 70.37 44.7 69.89 45.63 69.66 46.58 69.89 47.51 70.82 48.48 70.37 49.19 69.43 50.12 69.43 51.09 69.66 51.98 69.66 52.92 70.14 53.17 71.08 54.34 71.3 49.88 76.94 51.77 76.01 52.7 75.56 53.17 76.01 53.17 76.94 54.59 78.36 55.76 71.79 56.22 65.89 56.22 65.44 56.47 64.5 56.47 63.54 55.76 62.6 55.05 61.67 54.34 60.73 53.41 60.5 53.41 59.57 53.41 58.6 53.41 57.67 53.41 56.73 53.66 55.8 54.59 55.8 55.52 55.06 56.47 55.8 57.42 55.32 57.17 54.38 56.22 53.39 55.27 52.94 54.34 53.19 54.12 50.1 55.05 50.1 56.22 50.1 57.17 50.1 58.12 50.1 59.05 50.1 59.98 50.1 61.2 50.36 62.13 49.62 62.13 48.68 63.3 48.94 64.23 48.46 65.17 48.23 66.14 48.23 66.14 47.27 65.66 46.33 64.97 45.4 64.23 44.46 64.97 43.5 65.66 42.56 65.91 41.63 65.66 40.69 64.97 39.73 64.48 38.79 64 37.85 63.76 36.92 63.76 35.96 63.76 35.02 63.76 34.09 63.76 33.15 64.23 32.19 65.17 31.25 64.97 30.32 65.17 29.38 64.97 28.41 64 28.22 63.08 28.67 62.13 28.9 60.72 28.9 59.78 28.67 58.81 28.41 57.88 28.67 56.95 29.15 56.02 29.15 55.27 28.22 54.34 27.48 53.41 26.55 52.45 26.09 51.53 25.84 50.59 25.38 49.66 25.16 48.73 24.9 47.51 24.9 46.58 24.9 45.63 24.67 44.7 24.9 43.73 25.38 42.8 25.38 42.34 24.45 41.38 23.74 41.13 22.8 41.38 21.87 41.38 20.88 41.13 19.94 40.67 19 39.97 18.07 39.74 17.11 39.26 16.17 39.26 15.23 38.33 15.23 37.62 16.17 36.69 16.17 37.37 15.01 38.13 14.07 38.33 13.14 38.13 11.95 38.33 10.98 38.77 10.05 39.26 9.11 39.74 8.18 40.67 7.24 41.13 6.3 42.09 5.85 43.05 5.34 43.28 4.41"/><polyline id="polyline14" class="cls-1" points="66.11 48.17 66.11 47.24 65.63 46.3 64.94 45.37 64.2 44.4 64.94 43.47 65.63 42.53 65.88 41.6 65.63 40.63 64.94 39.7 64.45 38.76 63.98 37.83 63.73 36.86 63.73 35.93 63.73 34.99 63.73 34.06 63.73 33.09 64.2 32.16 65.14 31.22 64.94 30.29 65.14 29.32 64.94 28.39 63.98 28.16 63.05 28.64 62.1 28.87 60.69 28.87 59.76 28.64 58.8 28.39 57.85 28.64 56.91 29.12 55.98 29.12 55.24 28.16 54.31 27.45 53.38 26.52 52.41 26.06 51.51 25.81 50.58 25.35 49.63 25.13 48.66 24.87 47.48 24.87 46.55 24.87 45.6 24.64 44.67 24.87 43.72 25.35 42.77 25.35 42.3 24.42 41.35 23.71 41.1 22.77 41.35 21.84 41.35 20.85 41.1 19.91 40.65 18.98 39.95 18.04 39.69 17.08 39.23 16.14 39.23 15.21 38.3 15.21 37.59 16.14 36.66 16.14 37.34 14.98 38.13 14.04 38.3 13.11 38.13 11.89 38.3 10.95 38.74 10.02 39.23 9.08 39.69 8.12 40.65 7.21 41.1 6.28 42.06 5.79 43.02 5.31 43.26 4.35 44.2 3.9 45.13 3.41 46.06 3.41 45.9 3.92 44.95 4.41 44.23 5.34 43.55 6.3 44.23 7.24 44.7 8.18 45.16 9.11 45.16 10.05 44.23 10.98 43.55 11.95 43.05 12.88 43.73 13.82 44.23 14.75 44.7 15.72 45.63 16.17 46.58 15.72 47.51 15.23 47.98 14.3 47.98 13.34 47.77 12.4 47.3 11.46 46.34 10.98 46.34 10.05 46.12 9.11 46.12 8.18 46.34 7.24 47.3 7.01 48.24 6.05 49.19 5.85 50.12 5.6 51.09 5.34 51.98 5.34 52.7 4.41 53.41 3.44 52.45 2.99 51.53 2.02 52.45 1.09 53.41 1.34 53.66 2.28 54.34 3.24 54.83 4.18 55.76 4.63 56.7 4.41 57.63 4.41 58.59 4.86 59.52 5.34 60.47 6.05 61.2 7.01 62.13 7.95 63.08 8.18 64 8.4 64.97 8.4 65.91 8.4 66.83 8.4 67.78 8.4 68.75 7.95 69.67 8.18 70.61 8.18 71.55 8.18 72.52 8.88 73.44 9.11 74.39 9.37 75.31 9.56 76.28 9.56 77.22 9.82 78.16 9.82 79.08 9.56 80.06 9.56 80.98 8.63 81.92 8.63 82.86 8.63 81.92 7.95 80.98 7.72 81.92 7.24 82.86 7.24 83.83 7.24 84.75 7.47 85.69 7.24 86.63 7.01 88.53 6.79 89.47 6.79 90.39 6.79 91.36 7.24 92.3 7.01 91.56 7.95 90.63 8.4 89.69 7.95 88.75 7.72 87.78 7.72 88.28 8.63 89 9.56 89.94 10.3 90.88 10.3 91.81 10.78 92.78 10.98 93.72 11.24 94.64 10.98 95.58 11.46 96.55 11.95 97.48 12.17 98 13.14 98.17 14.07 98.17 15.01 97.22 15.72 97 16.65 98 16.65 98.91 16.43 99.83 16.43 100.78 16.17 101.7 16.43 102.19 17.36 102.19 18.32 101.25 19.26 100.31 19.71 99.36 19.94 98.42 20.88 98.42 21.87 98.42 22.8 99.36 23.48 99.83 24.45 98.91 25.16 98 25.16 97 25.16 96.06 25.16 95.33 26.09 95.33 27 95.14 27.96 94.88 28.9 94.88 29.83 95.81 30.57 96.75 31.25 97.48 32.19 98 33.15 98.42 34.09 97.72 35.02 96.55 35.5 95.33 36.21 94.39 36.21 93.45 36.92 92.53 37.37 91.56 37.63 90.63 37.63 89.69 38.11 88.75 38.11 87.78 38.11 87.11 39.05 86.17 39.73 85.23 39.53 84.28 39.05 83.33 38.79 82.41 38.31 81.47 38.11 80.5 37.63 79.56 37.85 78.64 37.63 77.69 37.63 77.69 38.56 78.64 39.27 79.56 39.73 80.25 40.69 80.5 41.88 80.5 42.81 80.98 43.75 80.72 44.69 80.72 45.65 81.67 46.1 82.63 46.1 83.56 46.1 84.5 46.33 84.75 47.27 83.83 47.75 82.86 48 81.92 48.23 80.98 49.16 80.5 50.1 79.56 50.58 78.64 51.29 77.69 51.97 77.22 52.94 76.47 54.13 75.55 53.39 75.08 54.38 74.13 55.06 73.19 55.06 72.25 54.58 71.31 54.13 70.36 53.87 70.16 52.94 69.19 52.45 68.48 51.52 67.55 50.58 67.06 49.62 66.58 48.68 66.11 48.17"/><polyline id="polyline16" class="cls-1" points="10.04 54.58 10.78 56 9.8 56.48 8.88 56.48 7.68 56.73 6.75 57.19 5.82 58.15 5.58 59.09 5.11 60.02 5.58 60.96 5.33 61.92 4.64 62.86 3.92 63.76 3.69 64.7 3.69 65.66 2.98 66.6 2.04 67.53 1.81 68.47 2.27 69.43 2.04 70.37 2.04 71.3 2.27 72.24 1.81 73.2 1.81 74.14 2.75 74.59 3.69 75.07 4.84 74.59 6.04 74.39 7 74.14 7.93 73.91 8.16 74.85 7.68 75.78 7.21 76.75 6.26 77.2 5.33 77.91 4.64 78.84 3.69 79.78 3.23 80.72 2.27 81.45 1.33 82.39 0.63 83.32 0.4 84.29 0.14 85.22 0.4 86.16 1.33 86.64 2.5 86.64 3.42 86.38 3.92 85.45 4.84 84.48 5.82 84.03 6.75 83.8 7.68 84.48 8.62 84.48 9.36 85.45 10.29 85.7 11.22 85.9 11.71 84.97 12.41 84.03 12.89 83.1 13.38 82.13 13.57 80.97 13.84 80.03 14.31 79.1 14.54 78.16 15.47 78.84 15.96 77.91 15.96 76.94 16.64 76.01 17.57 75.56 18.77 75.07 19.93 74.59 20.89 74.14 22.09 73.66 23.25 72.98 24.18 72.24 25.11 71.3 25.86 70.37 26.54 69.43 26.79 68.47 27.27 67.53 27.46 66.6 27.73 65.66 27.73 64.7 28.66 64.5 27.95 63.08 27.02 62.38 27.95 61.92 28.38 60.93 27.02 60.96 26.05 60.73 25.11 60.02 24.18 59.77 23.25 59.31 22.29 58.83 22.09 59.77 21.11 60.25 20.18 59.77 19.25 59.77 18.32 59.31 17.34 58.35 16.41 57.67 15.47 57.9 14.54 57.67 13.57 57.41 12.64 57.19 11.71 56.25 10.04 54.58"/><polyline id="polyline18" class="cls-1" points="54.56 78.33 53.15 76.92 53.15 75.98 52.66 75.53 51.73 75.98 49.84 76.92 54.31 71.28 53.15 71.05 52.9 70.11 51.95 69.63 51.05 69.63 50.09 69.38 49.16 69.38 48.45 70.34 47.48 70.79 46.55 69.86 45.6 69.63 44.67 69.86 43.72 70.34 42.77 70.79 41.84 71.28 40.91 71.05 39.69 71.76 39.23 70.79 38.3 70.59 38.74 69.63 38.3 68.7 38.52 67.76 37.59 67.28 36.66 66.57 36.16 65.61 35.23 65.41 34.3 64.93 33.37 64.67 32.63 63.73 32.15 62.83 31.2 62.35 30.27 61.64 29.34 61.16 28.38 60.93 27.93 61.89 26.98 62.35 27.93 63.05 28.63 64.44 27.7 64.67 27.7 65.61 27.43 66.57 27.21 67.5 26.75 68.44 26.5 69.38 25.82 70.34 25.09 71.28 24.16 72.21 23.21 72.95 22.05 73.63 20.84 74.11 19.89 74.56 18.73 75.05 17.55 75.53 16.61 75.98 15.9 76.92 15.9 77.88 15.45 78.81 14.52 78.11 14.29 79.07 13.8 80.01 13.54 80.94 13.36 82.1 12.87 83.04 12.38 84 11.68 84.94 11.2 85.87 10.27 85.65 9.32 85.42 8.59 84.46 7.66 84.46 6.71 83.78 5.75 84 4.82 84.46 3.88 85.42 3.4 86.36 2.46 86.61 1.3 86.61 1.07 86.87 1.07 87.8 1.55 88.74 2.5 88.74 2.98 89.67 2.27 90.86 1.33 91.34 1.55 92.28 2.5 92.76 3.42 92.99 4.84 93.24 5.82 93.7 6.75 94.18 7.68 95.11 8.41 96.05 8.88 97.01 9.36 97.95 9.59 98.89 10.54 99.56 11.47 100.3 13.13 101.46 13.38 102.4 13.57 103.33 13.84 104.3 14.31 105.23 14.79 106.17 15.47 107.11 15.96 108.07 16.64 109 17.13 110.19 17.34 111.13 18.05 112.07 18.52 113.03 18.77 113.97 19.48 114.9 20.41 115.61 21.34 116.55 21.82 117.48 22.09 118.44 22.77 119.41 23.5 120.34 24.43 121.28 24.89 122.21 25.38 123.38 26.05 124.34 27.02 124.34 27.46 125.28 27.02 126.21 26.54 127.15 26.54 128.11 27.27 129.04 27.46 129.98 28.43 130.72 29.36 131.17 30.3 131.65 31.23 132.59 32.2 133.07 32.91 134.01 33.59 134.94 34.55 135.42 35.48 135.65 36.42 135.88 37.37 136.36 38.33 136.81 39.26 137.27 40.2 137.75 41.13 138.2 42.09 138.2 43.05 138.94 43.99 139.42 44.95 139.62 45.9 139.62 46.83 140.1 47.77 140.58 48.73 141.04 49.66 141.77 50.59 142.71 51.09 143.64 51.98 144.35 52.92 144.81 53.66 145.74 54.59 146.48 55.52 146.96 56.47 146.71 57.42 146.48 58.37 146 58.81 145.06 58.59 144.13 59.3 143.19 59.05 142.23 58.37 141.29 58.12 140.36 58.59 139.42 59.52 138.94 60.47 138.46 61.4 138 61.2 137.04 60.95 136.1 59.98 136.36 59.05 135.65 58.12 135.42 57.17 134.94 56.22 134.49 57.17 134.23 58.12 134.01 57.42 133.07 57.63 131.88 58.59 132.33 59.05 133.07 59.52 132.11 59.98 131.4 59.78 130.46 60.23 127.63 61.4 126.47 60.95 123.63 60.95 121.99 62.13 117.96 57.88 111.36 56.7 111.13 55.76 111.61 54.83 112.07 53.85 112.07 52.92 111.84 52.45 110.88 52.7 109.94 52.7 106.42 52.45 105.49 52.45 104.53 51.53 104.3 50.59 105.01 49.66 105.49 48.73 106.17 47.98 107.11 47.05 107.36 46.12 107.59 45.16 107.59 44.48 106.65 43.55 105.69 42.55 105.01 41.62 104.75 40.67 105.01 39.74 105.01 39.97 104.07 39.74 102.88 39.26 101.92 38.33 100.98 37.62 100.05 37.37 99.11 37.16 98.18 36.2 97.47 35.74 96.53 36.2 95.6 36.42 94.63 36.69 93.7 36.91 92.76 37.37 91.83 38.58 91.34 39.52 90.41 39.26 89.47 39.03 88.51 39.03 87.58 39.52 86.64 40.2 85.7 40.67 84.74 41.13 83.8 41.87 82.87 42.55 81.93 43.55 81.45 44.48 80.97 45.41 80.72 46.58 80.72 47.51 80.72 48.48 79.78 49.41 79.33 50.59 78.84 51.53 78.84 52.45 79.33 53.41 78.84 54.34 78.84 54.56 78.33"/><polyline id="polyline20" class="cls-1" points="102.42 16.91 103.36 17.59 104.28 17.59 105.25 17.59 106.19 18.32 106.19 19.26 106.64 20.2 107.64 21.13 108.56 22.09 108.8 23.03 108.8 23.96 108.56 24.9 108.31 25.84 108.31 26.8 109.05 25.84 109.5 24.9 110.47 24.9 111.41 25.38 112.33 25.84 113.02 26.8 113.75 27.73 114.69 28.22 114.92 29.15 115.17 30.09 114.92 31.02 114.92 31.99 114.69 32.92 113.75 33.6 112.33 33.86 112.08 34.79 111.86 35.76 111.41 36.69 111.41 37.63 111.63 38.56 111.86 39.53 112.56 40.46 113.02 41.4 113.98 42.08 114.92 43.04 115.17 43.98 115.63 44.91 116.33 45.85 116.78 46.81 117.53 47.75 116.33 48 115.39 48 114.44 48.46 113.5 49.45 112.56 49.45 110.92 49.45 109.98 49.87 109.05 50.36 108.08 50.81 107.14 50.81 106.19 50.58 105.03 49.87 104.08 49.62 103.13 49.16 102.67 48.23 102.42 47.27 102.19 46.33 101.7 45.4 101.7 44.46 101.7 43.5 101.7 42.56 101.7 41.63 101.94 40.69 102.19 39.73 102.42 38.79 102.19 37.85 101.47 36.92 100.78 35.96 100.78 35.02 101.7 34.34 101.7 32.67 100.78 32.19 99.83 32.19 98.91 32.67 98 33.09 97.45 32.16 96.72 31.22 95.78 30.54 94.84 29.8 94.84 28.87 95.11 27.93 95.31 26.97 95.31 26.06 96.03 25.13 96.97 25.13 98 25.13 98.88 25.13 99.81 24.42 99.33 23.45 98.39 22.77 98.39 21.84 98.39 20.85 99.33 19.91 100.27 19.68 101.22 19.23 102.17 18.27 102.17 17.33 102.42 16.91"/><polyline id="polyline22" class="cls-2" points="115.14 30.06 114.89 31 114.89 31.93 114.67 32.89 113.72 33.58 112.31 33.83 112.06 34.77 111.83 35.7 111.38 36.66 111.38 37.6 111.58 38.53 111.83 39.47 112.53 40.43 112.98 41.37 113.95 42.05 114.89 43.01 115.14 43.95 115.59 44.88 116.31 45.82 116.75 46.78 117.5 47.72 117.75 48 118.69 48 119.63 48.68 120.81 48.46 121.78 47.75 121.78 46.81 120.81 46.1 121.03 45.17 121.97 45.4 122.94 45.65 123.88 45.4 124.81 44.91 125.75 44.91 126.22 45.85 127.17 45.85 128.09 45.17 128.35 44.23 128.84 43.3 129.31 42.33 129.51 41.4 130 40.46 130 39.53 129.06 38.56 128.57 37.63 128.57 36.69 128.35 35.76 127.89 34.79 127.89 33.86 128.09 32.92 129.06 32.44 129.78 31.5 130.25 30.57 130.71 29.61 129.78 29.38 128.84 29.38 127.89 29.15 126.94 28.9 126 28.67 125.06 28.22 124.13 28.67 123.17 28.9 122.22 28.9 121.3 29.15 120.36 29.15 119.39 28.67 118.45 28.67 117.53 28.9 116.58 28.67 115.63 28.9 115.39 29.83 115.14 30.06"/><polyline id="polyline24" class="cls-1" points="127.67 46.61 128.6 46.84 129.79 47.29 130.76 46.84 131.69 46.13 132.63 46.36 133.56 46.13 134.53 46.61 135.47 46.84 136.41 46.13 138.75 43.07 139.24 42.13 139.91 41.17 140.66 40.01 141.34 39.07 142.07 38.14 141.81 37.2 141.59 36.24 140.66 36.24 140.41 37.2 140.18 36.24 139.47 35.3 138.5 34.59 137.56 33.89 136.88 32.95 135.93 32.02 134.99 31.28 134.06 31.28 133.12 30.82 132.63 29.86 131.22 30.34 130.25 30.57 129.78 31.5 129.06 32.44 128.09 32.92 127.89 33.86 127.89 34.79 128.35 35.76 128.57 36.69 128.57 37.63 129.06 38.56 130 39.53 130 40.46 129.51 41.4 129.31 42.33 128.84 43.3 128.35 44.23 128.09 45.17 127.17 45.85 127.67 46.61"/><polyline id="polyline26" class="cls-1" points="59.81 144.15 61.23 145.83 61.48 146.99 61.69 147.92 62.16 148.86 63.09 149.79 64.03 150.53 65 151.21 64.52 152.15 64.03 153.37 64.28 154.3 63.84 155.24 64.03 156.17 64.28 157.14 64.52 158.07 65.25 159.01 65.94 159.94 66.19 160.91 66.19 161.84 66.42 162.78 66.86 163.71 67.36 164.68 67.61 165.61 67.81 166.55 66.86 167.23 67.61 168.19 68.55 168.45 69.47 168.9 70.42 168.65 71.13 167.48 71.38 166.55 72.31 166.29 73.25 165.61 73.47 164.68 74.41 164.42 74.89 163.46 75.83 163.46 76.77 163.94 77.72 164.42 78.67 164.68 79.59 164.42 80.53 164.19 81.5 164.19 82.44 164.88 82.44 165.84 82.92 166.78 83.84 167.03 83.84 166.07 84.11 165.13 84.56 164.19 85.03 163.26 85.97 163.26 87.14 163.26 88.33 163.26 89.3 163.26 90.22 163.94 90.45 163.46 91.64 158.53 91.64 155.24 94 150.99 97.77 150.53 101.28 149.6 105.73 149.6 110.02 151.47 111.17 154.05 112.36 152.63 110.94 151.47 111.17 150.53 111.66 149.6 111.92 148.63 112.11 147.7 112.59 146.76 112.84 145.83 113.31 144.86 113.78 143.93 113.08 142.99 112.36 142.06 111.42 141.32 110.5 140.38 109.53 139.9 109.31 138.97 108.83 138.03 109.08 137.1 109.53 136.13 110.02 135.2 109.75 134.97 101.28 134.52 99.86 129.56 100.81 129.56 101.28 128.59 101.28 127.66 100.61 126.72 101.06 125.79 101.06 124.82 100.34 123.89 99.39 123.4 98.44 123.21 97.52 122.72 96.58 122.24 95.61 122.24 94.67 122.47 93.75 122.47 92.81 121.79 91.84 120.85 90.91 120.85 89.97 120.6 89.03 120.12 88.08 119.44 87.39 118.47 86.45 118.47 85.53 118.02 84.56 117.76 83.63 117.76 82.69 117.76 81.72 117.28 81.02 116.35 80.08 115.67 79.14 115.18 78.17 114.25 77.25 113.51 77.02 112.58 77.25 111.64 77.25 110.7 77.02 109.74 76.56 108.81 76.08 107.87 76.56 106.94 77.02 105.97 77.02 105.04 76.56 104.1 75.61 104.36 74.67 104.36 73.72 104.58 72.8 104.58 71.83 104.81 70.89 105.52 70.19 106.45 69.22 107.19 68.28 107.39 67.36 107.87 66.64 108.81 65.7 109.29 64.78 109.54 64.03 110.48 63.35 111.41 62.41 111.41 61.48 110.96 60.52 110.7 59.59 110.96 58.65 111.16 57.88 111.36 62.13 117.96 60.95 121.99 60.95 123.63 61.4 126.47 60.23 127.63 59.78 130.46 59.98 131.4 59.52 132.11 59.05 133.07 58.59 132.33 57.63 131.88 57.42 133.07 58.12 134.01 57.17 134.23 56.22 134.49 57.17 134.94 58.12 135.42 59.05 135.65 59.98 136.36 60.95 136.1 61.2 137.04 61.4 138 60.47 138.46 59.52 138.94 58.59 139.42 58.12 140.36 58.37 141.29 59.05 142.23 59.3 143.19 59.81 144.15"/><polyline id="polyline28" class="cls-3" points="111.17 154.05 110.02 151.47 105.73 149.6 101.28 149.6 97.77 150.53 94 150.99 91.64 155.24 91.64 158.53 90.45 163.46 90.22 163.94 90.91 164.42 91.84 165.13 92.58 166.07 93.06 167.03 94 167.71 94.94 168.65 95.86 169.61 96.83 170.06 97.77 170.8 98.7 170.8 99.64 171.25 100.61 172.19 101.5 172.19 102.22 173.15 103.16 173.35 104.11 174.09 105.06 175.02 105.98 175.5 106.92 175.96 107.89 176.44 108.83 176.44 109.75 176.67 110.69 176.92 111.66 177.6 112.59 178.34 112.59 179.28 111.92 180.21 111.42 181.15 110.5 182.11 110.23 183.04 109.75 184.21 109.08 185.14 108.83 186.08 108.59 187.04 108.59 187.98 109.53 187.75 110.5 187.75 111.42 187.98 112.36 188.43 113.31 188.69 114.27 188.69 115.19 188.91 116.14 188.91 117.08 188.91 118.03 189.17 118.97 188.43 119.91 188.69 120.83 188.69 121.81 187.98 122.25 187.04 122.97 186.08 123.91 185.4 124.83 184.92 125.58 183.98 125.58 183.04 125.31 182.11 125.58 181.15 126.03 180.21 126.03 179.28 126.03 178.34 126.03 177.38 126.03 176.44 126.03 175.25 126.52 174.31 126.73 173.35 126.52 172.41 125.58 172.19 124.39 172.19 123.42 171.96 122.48 171.25 122.25 170.32 122 169.38 122.25 168.45 121.81 167.48 121.55 166.55 121.81 165.61 121.33 164.68 120.39 164.19 119.45 163.71 118.48 163.26 117.56 163.26 116.61 163.46 115.69 163.46 114.72 163.46 113.78 163.94 112.84 163.71 111.66 163.26 111.92 162.3 112.11 161.36 112.11 160.43 111.66 159.49 112.11 158.53 112.11 157.59 111.66 156.66 111.66 155.72 111.66 154.76 111.17 154.05"/><polyline id="polyline30" class="cls-1" points="59.3 143.19 59.81 144.15 61.23 145.83 61.48 146.99 61.69 147.92 62.16 148.86 63.09 149.79 64.03 150.53 65 151.21 64.52 152.15 64.03 153.37 64.28 154.3 63.84 155.24 64.03 156.17 64.28 157.14 64.52 158.07 65.25 159.01 65.94 159.94 66.19 160.91 66.19 161.84 66.42 162.78 66.86 163.71 67.36 164.68 67.61 165.61 67.81 166.55 66.86 167.23 67.61 168.19 68.55 168.45 69.47 168.9 70.42 168.65 71.13 167.48 71.38 167.97 71.38 168.9 71.13 173.35 66.64 176.19 65.94 177.6 66.19 178.54 66.19 179.5 65.45 180.44 65.45 181.37 65.7 182.31 66.19 183.27 66.42 184.21 65.94 185.14 65.94 186.08 66.64 187.04 66.86 187.98 65.94 188.69 65.94 189.65 65 190.59 64.28 191.52 63.84 192.46 63.59 193.42 63.09 194.36 62.65 195.29 62.41 196.23 62.16 197.39 61.94 198.32 61.48 199.29 61.01 200.22 61.23 201.16 61.48 202.09 61.94 203.06 62.16 203.99 61.69 204.93 61.23 205.86 61.23 206.83 61.48 207.76 60.74 208.7 59.81 208.95 59.59 209.89 60.27 210.85 61.23 211.79 62.16 212.72 61.48 213.66 61.94 214.62 62.41 215.56 62.88 216.49 62.65 217.43 62.88 217.91 63.35 218.85 64.03 219.78 64.28 220.75 64.28 221.68 64.52 222.62 64.52 223.55 64.28 224.03 63.35 224.52 63.35 225.45 62.88 226.39 62.65 227.32 61.69 227.8 61.48 228.74 61.69 229.68 62.16 230.64 62.65 231.57 62.16 232.51 61.94 233.44 61.23 234.41 60.52 235.34 60.52 236.28 60.74 237.22 61.01 238.18 60.52 239.12 60.52 240.05 61.01 240.99 61.48 241.95 61.94 242.88 62.16 243.82 62.41 244.76 61.48 245.72 60.52 246.4 60.52 247.34 60.52 248.27 60.27 249.23 60.06 250.17 59.81 251.1 59.81 252.04 59.81 253 59.81 253.94 59.81 254.88 59.81 255.81 59.81 256.77 60.06 257.71 60.52 258.64 61.01 259.58 61.48 260.55 61.48 261.48 61.23 262.42 60.52 263.15 60.52 264.09 60.74 265.02 61.69 265.73 62.16 266.67 62.16 267.6 62.16 268.54 62.41 269.5 62.65 270.44 62.65 271.37 63.59 271.86 64.52 271.37 65.45 271.86 65.94 272.79 65 273.5 63.84 273.73 62.88 273.73 61.94 273.98 62.88 274.66 63.84 275.14 64.78 275.63 65 276.56 64.03 277.5 63.84 278.43 63.84 279.39 63.59 280.59 64.03 280.76 64.03 281.72 64.78 282.65 64.52 283.59 64.03 284.53 63.84 285.49 63.84 286.43 63.35 287.36 63.09 288.3 63.09 289.26 63.09 290.19 63.84 291.13 63.84 292.07 63.35 293.03 62.65 293.96 62.16 294.9 61.94 295.84 61.69 296.8 61.69 297.74 61.69 298.67 61.48 299.61 62.16 300.54 62.88 301.5 63.84 301.7 64.78 301.25 65.7 300.54 66.19 301.5 66.19 302.44 65.94 303.38 66.19 304.31 66.64 305.27 66.86 306.21 67.13 307.15 68.06 307.63 69.03 307.63 69.95 307.37 70.89 307.15 71.83 307.15 72.8 307.15 73.72 307.15 74.89 307.15 75.34 308.08 74.67 309.05 73.72 309.05 72.8 309.24 71.83 309.98 71.38 310.92 71.58 311.85 71.58 312.81 71.58 313.75 71.58 314.69 71.38 315.62 70.42 315.62 69.47 315.17 68.55 314.69 67.81 313.75 68.77 313.01 69.7 313.27 70.64 311.85 70.89 310.92 70.64 309.98 69.7 310.21 69.47 311.14 69.03 312.08 67.81 312.08 67.13 313.01 67.13 314.23 66.19 313.75 65.94 312.81 66.42 311.85 66.42 310.92 66.86 309.98 65.94 309.5 65.7 310.46 65.94 311.4 65.25 312.33 64.28 312.33 64.52 311.4 64.52 310.46 63.59 310.46 63.35 309.5 64.28 308.79 64.03 307.86 62.88 307.37 62.41 306.44 62.41 305.47 61.69 304.54 61.23 303.38 61.48 302.44 60.52 301.5 60.27 300.54 59.33 299.83 59.1 298.9 59.33 297.96 59.33 297 59.1 296.06 58.88 295.13 58.65 294.19 58.16 293.03 58.16 292.07 57.23 291.36 57.45 290.42 57.72 289.46 56.74 288.3 56.74 287.36 56.49 286.43 57.45 285.94 57.45 285.01 56.98 284.07 56.05 283.82 55.55 284.75 54.63 284.53 53.69 283.59 53.2 284.53 53.47 285.49 52.52 285.69 52.05 284.75 52.05 283.82 52.73 282.88 53.2 281.92 53.2 280.98 53.2 280.05 54.15 279.82 55.1 279.82 56.05 280.3 56.05 281.24 55.81 282.17 56.74 282.17 57.72 282.65 57.91 281.72 57.91 280.76 57.45 279.82 58.16 278.88 57.72 277.95 57.91 276.99 58.16 276.05 58.88 275.12 59.81 274.63 60.06 273.7 60.06 272.76 59.1 272.02 58.16 271.83 57.91 270.86 57.91 269.93 57.91 268.74 57.45 267.8 57.72 266.84 58.16 265.9 57.91 264.97 58.4 264.03 58.16 263.07 57.45 262.13 58.4 262.61 58.88 261.68 57.91 261.2 57.91 260.26 58.16 259.3 57.23 258.62 56.3 259.1 56.05 260.03 55.1 260.26 53.95 260.26 53.47 259.3 52.52 258.62 52.52 257.68 52.52 256.75 52.73 255.78 52.73 254.85 52.52 253.91 52.52 252.98 52.52 251.76 52.73 250.82 53.2 249.89 53.2 248.95 53.47 248.01 53.2 247.05 52.73 246.12 52.27 245.18 52.05 244.25 52.05 243.28 52.05 242.35 52.05 241.41 51.78 240.47 51.34 239.51 51.56 238.09 52.52 237.16 52.98 236.22 53.47 235.29 53.69 234.32 53.69 233.39 53.47 232.45 53.47 231.52 54.15 230.55 54.4 229.62 54.63 228.68 55.1 227.52 55.55 226.59 55.55 225.62 55.55 224.69 55.81 223.75 55.81 222.81 55.81 221.88 56.3 220.92 56.74 219.98 56.3 219.04 56.05 218.11 56.3 217.15 56.98 216.21 56.49 215.28 56.3 214.34 56.49 213.38 56.49 212.44 56.3 211.5 55.34 210.57 55.1 208.67 54.88 207.74 54.63 206.8 54.63 205.58 54.88 204.65 55.34 203.71 55.55 202.78 54.88 201.81 55.34 200.88 55.34 199.94 55.1 199 54.88 198.07 54.88 197.1 55.1 196.17 55.34 195.23 55.34 194.3 55.55 193.34 55.55 192.4 55.55 191.46 56.05 190.53 56.3 189.56 56.3 188.4 56.74 187.21 57.23 186.28 57.23 185.34 56.49 184.38 56.05 183.22 56.3 182.03 56.74 181.09 56.98 180.15 56.74 179.22 56.74 178.25 56.74 177.32 56.98 176.38 56.98 175.45 56.98 174.29 57.23 173.32 57.23 172.39 56.98 171.45 56.3 170.52 56.3 169.55 57.23 168.62 57.23 167.68 57.45 166.75 57.72 165.78 57.72 164.85 57.72 163.91 57.91 162.98 57.72 161.79 57.45 160.82 56.74 159.89 56.74 158.95 56.74 157.79 56.74 156.6 56.74 155.63 56.74 154.7 56.98 153.54 56.74 152.35 56.49 151.41 55.81 150.47 55.55 149.51 55.34 148.35 55.55 147.41 55.52 146.96 56.47 146.71 57.42 146.48 58.37 146 58.81 145.06 58.59 144.13 59.3 143.19"/><polyline id="polyline32" class="cls-1" points="53.2 260.97 53.2 261.9 53.2 262.87 53.2 263.8 53.2 264.74 52.73 265.68 52.73 266.64 52.73 267.57 52.98 268.51 53.95 268.25 54.88 268.25 55.34 267.32 55.34 266.38 55.34 265.45 54.4 264.74 54.63 263.8 55.34 262.87 55.1 261.9 54.88 260.97 53.95 261.2 53.2 260.97"/><polyline id="polyline34" class="cls-1" points="79.38 318 78.44 318.2 77.5 318.94 76.77 318 75.83 318 74.89 317.75 73.95 317.27 73 318 71.83 318.46 70.89 318.2 69.95 318.94 70.89 319.17 71.83 318.68 72.06 319.62 73 319.62 73.95 320.36 74.19 319.39 75.14 319.17 76.08 319.17 77.02 319.62 77.95 320.1 79.34 319.39 79.38 318"/><polyline id="polyline36" class="cls-1" points="66.19 314.69 65.45 315.62 65.7 316.59 66.64 316.59 67.61 316.78 68.28 315.85 67.36 314.91 66.19 314.69"/><polyline id="polyline38" class="cls-1" points="76.31 308.79 75.61 309.73 75.61 310.66 74.41 310.66 73.47 310.21 73 311.14 73 312.08 73.25 313.01 74.19 313.5 75.14 312.81 75.61 313.75 74.67 314.23 74.41 315.17 74.67 316.1 75.61 316.78 76.56 317.04 77.5 317.04 78.44 317.52 79.38 317.52 79.38 316.33 79.14 314.91 78.92 313.27 78.67 312.33 78.67 310.92 78.67 309.98 78.67 309.05 77.72 309.73 76.77 309.5 76.31 308.79"/><polyline id="polyline40" class="cls-1" points="64.78 314.23 64.03 313.27 63.09 312.81 62.16 312.81 61.23 312.33 60.27 311.63 60.27 312.56 61.01 313.5 61.94 313.75 62.88 313.75 63.84 313.75 64.78 314.23"/><polyline id="polyline42" class="cls-1" points="56.74 293.03 55.81 293.48 54.88 293.48 55.1 294.42 55.55 295.38 54.63 296.06 54.88 297 55.34 297.96 56.3 297.48 56.98 298.42 57.45 299.35 58.4 299.61 58.4 298.42 58.16 297.48 57.91 296.55 57.45 295.38 57.45 294.42 56.74 293.03"/><polyline id="polyline44" class="cls-1" points="80.33 319.39 80.78 320.36 81.72 321.04 82.69 321.29 83.63 320.55 83.36 319.62 82.44 319.39 80.33 319.39"/><polyline id="polyline46" class="cls-1" points="79.86 320.55 78.92 320.44 77.95 320.44 77.02 320.81 76.56 321.77 77.5 322.45 78.44 321.77 79.38 321.77 80.33 321.97 80.78 321.04 79.86 320.55"/><polyline id="polyline48" class="cls-1" points="126.52 180.61 127.44 180.15 128.38 180.41 129.09 181.34 129.09 182.28 129.54 183.22 129.54 184.18 129.54 185.12 129.34 186.05 129.34 186.99 128.6 187.95 127.67 188.63 126.73 188.63 125.78 189.11 124.83 189.82 123.91 190.3 123.42 191.24 122.48 191.72 121.55 191.92 120.61 192.4 119.66 193.34 119.19 194.3 118.48 195.23 117.56 196.17 116.84 197.1 115.89 198.07 115.19 199 114.47 199.94 113.78 200.88 113.08 201.81 112.36 202.78 111.92 203.71 111.66 204.65 111.42 205.58 111.17 206.54 110.94 207.48 110.94 208.41 110.5 209.35 110.23 210.31 110.02 211.25 110.02 212.19 109.75 213.12 109.75 214.09 109.75 215.02 109.53 215.96 108.83 216.89 108.59 217.85 108.33 218.79 108.33 219.73 108.59 220.66 108.83 221.63 108.83 222.56 109.08 223.5 110.02 223.98 110.94 224.43 111.92 224.91 112.84 225.4 113.78 225.85 114.47 226.78 114.27 227.75 113.53 228.68 113.53 229.62 114.47 230.55 115.42 231.29 115.89 232.23 115.89 233.16 115.69 234.13 115.19 235.06 114.72 236 113.78 236.93 113.08 237.9 112.59 238.83 112.11 239.77 111.42 240.7 110.5 240.7 109.53 240.93 108.33 241.67 107.41 241.86 106.47 242.12 105.53 242.6 104.58 243.08 103.64 243.08 102.44 243.54 101.5 243.76 100.61 244.02 99.64 244.02 98.7 244.7 97.77 244.02 96.83 244.47 95.86 243.76 94.67 243.08 94.22 244.02 94.44 244.95 95.42 245.63 95.61 246.6 95.42 247.53 94.44 248.24 94.44 249.21 94.22 250.14 94 251.08 94.67 252.01 94.94 252.98 94 253.91 92.81 254.37 91.84 254.37 90.91 254.37 89.97 254.85 89.03 254.85 88.08 253.91 87.14 253.43 86.2 253.18 85.27 252.98 84.78 253.91 84.56 254.85 84.78 255.78 85.27 256.75 85.27 257.68 85.27 258.62 86.2 259.3 87.14 259.55 88.08 260.26 89.03 259.55 89.97 259.1 90.22 260.03 90.45 260.97 90.69 261.9 89.75 262.39 88.81 262.39 88.33 261.45 87.39 261.45 86.45 261.45 85.53 261.9 85.72 262.87 86.69 263.32 87.61 263.32 87.61 264.29 86.69 264.49 85.72 264.97 84.78 265.68 84.78 266.64 84.78 267.57 85.03 268.51 85.27 269.44 85.72 270.41 85.27 271.35 84.31 271.57 84.31 272.51 84.31 273.44 83.36 273.7 82.44 273.44 81.5 273.44 81.02 274.38 80.08 274.63 79.14 275.34 78.67 276.28 78.44 277.21 78.17 278.15 78.17 279.11 78.44 280.05 78.67 280.98 79.59 281.72 80.53 282.17 81.5 283.11 82.44 283.33 83.36 283.11 84.31 282.65 85.03 283.59 85.27 284.53 85.27 285.49 84.56 286.43 84.56 287.36 83.63 288.3 82.69 288.78 81.72 289.46 80.78 290.42 79.86 291.36 79.38 292.29 78.67 293.23 79.59 293.23 79.86 294.19 79.14 295.13 78.67 296.06 78.67 297 77.72 297.25 76.77 296.32 76.31 297.25 76.77 298.19 76.31 299.15 75.83 300.09 74.41 302.44 75.34 302.19 76.08 303.12 76.31 304.08 76.31 305.27 77.25 305.73 78.17 306.21 78.92 307.15 78.44 308.08 77.5 308.08 76.31 307.63 75.34 308.08 74.89 307.15 73.72 307.15 72.8 307.15 71.83 307.15 70.89 307.15 69.95 307.37 69.03 307.63 68.06 307.63 67.13 307.15 66.86 306.21 66.64 305.27 66.19 304.31 65.94 303.38 66.19 302.44 66.19 301.5 65.7 300.54 64.78 301.25 63.84 301.7 62.88 301.5 62.16 300.54 61.48 299.61 61.69 298.67 61.69 297.74 61.69 296.8 61.94 295.84 62.16 294.9 62.65 293.96 63.35 293.03 63.84 292.07 63.84 291.13 63.09 290.19 63.09 289.26 63.09 288.3 63.35 287.36 63.84 286.43 63.84 285.49 64.03 284.53 64.52 283.59 64.78 282.65 64.03 281.72 64.03 280.76 63.59 280.59 63.84 279.39 63.84 278.43 64.03 277.5 65 276.56 64.78 275.63 63.84 275.14 62.88 274.66 61.94 273.98 62.88 273.73 63.84 273.73 65 273.5 65.94 272.79 65.45 271.86 64.52 271.37 63.59 271.86 62.65 271.37 62.65 270.44 62.41 269.5 62.16 268.54 62.16 267.6 62.16 266.67 61.69 265.73 60.74 265.02 60.52 264.09 60.52 263.15 61.23 262.42 61.48 261.48 61.48 260.55 61.01 259.58 60.52 258.64 60.06 257.71 59.81 256.77 59.81 255.81 59.81 254.88 59.81 253.94 59.81 253 59.81 252.04 59.81 251.1 60.06 250.17 60.27 249.23 60.52 248.27 60.52 247.34 60.52 246.4 61.48 245.72 62.41 244.76 62.16 243.82 61.94 242.88 61.48 241.95 61.01 240.99 60.52 240.05 60.52 239.12 61.01 238.18 60.74 237.22 60.52 236.28 60.52 235.34 61.23 234.41 61.94 233.44 62.16 232.51 62.65 231.57 62.16 230.64 61.69 229.68 61.48 228.74 61.69 227.8 62.65 227.32 62.88 226.39 63.35 225.45 63.35 224.52 64.28 224.03 64.52 223.55 64.52 222.62 64.28 221.68 64.28 220.75 64.03 219.78 63.35 218.85 62.88 217.91 62.65 217.43 62.88 216.49 62.41 215.56 61.94 214.62 61.48 213.66 62.16 212.72 61.23 211.79 60.27 210.85 59.59 209.89 59.81 208.95 60.74 208.7 61.48 207.76 61.23 206.83 61.23 205.86 61.69 204.93 62.16 203.99 61.94 203.06 61.48 202.09 61.23 201.16 61.01 200.22 61.48 199.29 61.94 198.32 62.16 197.39 62.41 196.23 62.65 195.29 63.09 194.36 63.59 193.42 63.84 192.46 64.28 191.52 65 190.59 65.94 189.65 65.94 188.69 66.86 187.98 66.64 187.04 65.94 186.08 65.94 185.14 66.42 184.21 66.19 183.27 65.7 182.31 65.45 181.37 65.45 180.44 66.19 179.5 66.19 178.54 65.94 177.6 66.64 176.19 71.13 173.35 71.38 168.9 71.38 167.97 71.13 167.48 71.38 166.55 72.31 166.29 73.25 165.61 73.47 164.68 74.41 164.42 74.89 163.46 75.83 163.46 76.77 163.94 77.72 164.42 78.67 164.68 79.59 164.42 80.53 164.19 81.5 164.19 82.44 164.88 82.44 165.84 82.92 166.78 83.84 167.03 83.84 166.07 84.11 165.13 84.56 164.19 85.03 163.26 85.97 163.26 87.14 163.26 88.33 163.26 89.3 163.26 90.22 163.94 90.91 164.42 91.84 165.13 92.58 166.07 93.06 167.03 94 167.71 94.94 168.65 95.86 169.61 96.83 170.06 97.77 170.8 98.7 170.8 99.64 171.25 100.61 172.19 101.5 172.19 102.22 173.15 103.16 173.35 104.11 174.09 105.06 175.02 105.98 175.5 106.92 175.96 107.89 176.44 108.83 176.44 109.75 176.67 110.69 176.92 111.66 177.6 112.59 178.34 112.59 179.28 111.92 180.21 111.42 181.15 110.5 182.11 110.23 183.04 109.75 184.21 109.08 185.14 108.83 186.08 108.59 187.04 108.59 187.98 109.53 187.75 110.5 187.75 111.42 187.98 112.36 188.43 113.31 188.69 114.27 188.69 115.19 188.91 116.14 188.91 117.08 188.91 118.03 189.17 118.97 188.43 119.91 188.69 120.83 188.69 121.81 187.98 122.25 187.04 122.97 186.08 123.91 185.4 124.83 184.92 125.58 183.98 125.58 183.04 125.31 182.11 125.58 181.15 126.52 180.61"/><polyline id="polyline50" class="cls-1" points="79.86 317.75 80.78 318.46 81.72 318.94 82.69 318.94 83.63 318.94 84.56 319.17 85.53 319.62 86.69 319.39 87.61 319.17 88.56 318.94 89.48 318.68 89.3 317.75 88.33 317.75 87.39 317.52 86.45 317.52 85.72 316.59 84.78 316.33 83.84 316.1 82.92 315.62 82.44 314.69 81.5 314.23 80.78 313.27 80.33 312.33 79.38 312.33 79.59 311.4 79.59 310.46 78.92 309.5 78.67 309.05 78.67 309.98 78.67 310.92 78.67 312.33 78.92 313.27 79.14 314.91 79.38 316.33 79.38 317.52 79.86 317.75"/><polyline id="polyline52" class="cls-1" points="112.36 202.78 111.92 203.71 111.66 204.65 111.42 205.58 111.17 206.54 110.94 207.48 110.94 208.41 110.5 209.35 110.23 210.31 110.02 211.25 110.02 212.19 109.75 213.12 109.75 214.09 109.75 215.02 109.53 215.96 108.83 216.89 109.08 218.11 109.08 219.04 109.31 219.98 109.53 220.92 110.5 221.63 111.42 222.33 112.36 222.33 113.31 222.08 114.27 222.33 114.94 223.27 115.42 224.23 116.36 224.69 117.3 224.69 118.23 224.69 119.19 224.23 120.14 224.43 121.06 224.69 122 224.91 122.97 225.17 123.91 225.17 124.83 224.69 125.58 223.75 126.52 223.5 127.44 222.81 127.67 221.88 128.38 220.92 129.34 220.21 129.34 219.27 128.87 218.31 128.38 217.37 128.87 216.44 129.34 215.5 130.28 215.5 130.28 214.54 129.34 213.6 128.6 212.67 127.92 211.73 127.19 210.77 126.25 210.09 125.31 209.35 124.39 208.9 123.42 208.19 122.48 207.48 122 206.54 121.33 205.58 120.39 205.84 119.45 205.38 118.72 204.42 117.78 203.48 116.84 202.78 116.36 201.81 115.42 201.81 114.47 202.29 113.53 202.55 112.36 202.78"/></svg>