<svg id="Capa_1" data-name="Capa 1" xmlns="http://www.w3.org/2000/svg" viewBox="0 0 511.99 511.99"><defs><style>.cls-1{fill:#fdab00;}</style></defs><title>phone</title><path class="cls-1" d="M-796.66-783.2l-112-48a24,24,0,0,0-28,6.9l-49.6,60.6a370.66,370.66,0,0,1-177.19-177.19l60.6-49.6a23.94,23.94,0,0,0,6.9-28l-48-112a24.16,24.16,0,0,0-27.5-13.9l-104,24A24,24,0,0,0-1294-1097c0,256.5,207.9,464,464,464a24,24,0,0,0,23.4-18.6l24-104a24.29,24.29,0,0,0-14-27.6h0Z" transform="translate(1294.05 1145)"/></svg>