<svg id="Capa_1" data-name="Capa 1" xmlns="http://www.w3.org/2000/svg" viewBox="0 0 100.4 87.4"><defs><style>.cls-1,.cls-3{fill:none;}.cls-2{fill:#fdab00;}.cls-3{stroke:#fdab00;stroke-miterlimit:10;stroke-width:3px;}</style></defs><title>vision</title><path class="cls-1" d="M-759.06,362.06v-87.4h100v87.4h-100Z" transform="translate(759.47 -274.66)"/><path class="cls-2" d="M-738.77,336.35l-20.09,20a2,2,0,0,0-.54,1.93A2,2,0,0,0-758,359.7a2,2,0,0,0,1.93-.54l22.55-22.31Zm78.63,1.15-18.76-18.74a2,2,0,0,0-1.43-.57,1.92,1.92,0,0,0-1.37.57l-8,8.5L-707,309.45V293.18l16.06-6.52a1.76,1.76,0,0,0,1-1.79,2.07,2.07,0,0,0-1.27-1.85l-17.86-8.18a2,2,0,0,0-.8-0.18,2,2,0,0,0-1.47.55,2,2,0,0,0-.64,1.42v32.81l-4.53,4.56,3.11,2.46,3.42-3.41,18.12,18.1a2.12,2.12,0,0,0,.57.58l3.06,3,2.83,2.84,21.53,21.53a2,2,0,0,0,1.93.54,2,2,0,0,0,1.41-1.41,2,2,0,0,0-.54-1.93l-26.3-26.29,7.09-7.1,17.37,17.35a2,2,0,0,0,1.93.54,2,2,0,0,0,1.41-1.41A2,2,0,0,0-660.14,337.5ZM-707,279.73l10.79,4.95L-707,288.94v-9.21Z" transform="translate(759.47 -274.66)"/><path class="cls-3" d="M-756.42,323.77s7-12.47,24.14-13a26.77,26.77,0,0,1,24.21,13s-9,12.25-24.18,12.58S-756.42,323.77-756.42,323.77Z" transform="translate(759.47 -274.66)"/><circle class="cls-3" cx="27.23" cy="48.89" r="11.07"/><circle class="cls-3" cx="27.23" cy="48.89" r="3.63"/></svg>