<?xml version="1.0" standalone="no"?>
<!DOCTYPE svg PUBLIC "-//W3C//DTD SVG 20010904//EN"
 "http://www.w3.org/TR/2001/REC-SVG-20010904/DTD/svg10.dtd">
<svg version="1.0" xmlns="http://www.w3.org/2000/svg"
 width="1496.000000pt" height="1496.000000pt" viewBox="0 0 1496.000000 1496.000000"
 preserveAspectRatio="xMidYMid meet">
<metadata>
Created by potrace 1.14, written by Peter Selinger 2001-2017
</metadata>
<g transform="translate(0.000000,1496.000000) scale(0.100000,-0.100000)"
fill="#000000" stroke="none">
<path d="M9715 10329 c-155 -27 -346 -96 -475 -170 -54 -31 -208 -150 -255
-198 -43 -44 -76 -67 -62 -43 11 16 -39 97 -71 115 -60 35 -253 23 -367 -22
-11 -5 -47 -19 -80 -31 -116 -45 -278 -128 -388 -202 -57 -37 -60 -38 -100
-26 -54 15 -59 16 -137 24 -36 3 -76 8 -90 9 -14 2 -56 6 -95 9 -38 4 -90 9
-115 11 -146 14 -735 27 -746 16 -2 -3 -41 -6 -87 -7 -133 -5 -313 -20 -437
-38 -19 -3 -57 -8 -85 -12 -65 -8 -74 -9 -110 -17 -16 -4 -61 -11 -100 -16
-38 -6 -101 -17 -140 -25 -38 -8 -81 -17 -95 -20 -82 -15 -258 -58 -327 -81
-44 -14 -89 -27 -99 -29 -24 -5 -352 -113 -379 -125 -11 -5 -63 -26 -115 -46
-213 -85 -514 -227 -660 -312 -19 -11 -62 -35 -95 -53 -33 -18 -107 -62 -165
-97 -58 -35 -114 -69 -125 -76 -11 -7 -22 -15 -25 -18 -3 -3 -30 -22 -60 -42
-96 -63 -195 -144 -192 -157 4 -17 -23 2 -92 65 -84 77 -163 128 -201 130 -11
0 -39 -10 -62 -22 -23 -13 -48 -23 -55 -23 -8 0 -33 33 -55 73 -60 104 -140
196 -249 287 -107 88 -156 110 -258 116 -76 5 -115 23 -140 65 -24 40 -111
128 -176 176 -96 72 -211 125 -345 159 -67 17 -128 4 -178 -37 -21 -17 -36
-34 -33 -37 3 -3 2 -10 -4 -17 -14 -17 -19 -76 -10 -126 5 -24 11 -60 14 -79
21 -136 97 -320 173 -421 l51 -67 -52 0 c-92 0 -146 -37 -167 -115 -16 -60
-27 -87 -37 -87 -4 0 -42 20 -85 44 -42 24 -77 42 -77 39 0 -2 -13 5 -29 16
-16 12 -32 21 -35 21 -3 0 -43 21 -88 48 -101 57 -118 65 -188 90 -104 37
-261 48 -380 26 -36 -7 -101 -15 -145 -19 -44 -3 -93 -8 -110 -9 -16 -2 -61
-7 -100 -11 -38 -3 -81 -8 -95 -10 -22 -4 -102 -12 -185 -20 -17 -2 -34 -4
-40 -5 -6 0 10 -8 35 -16 25 -8 54 -19 65 -24 11 -5 45 -19 75 -31 30 -12 69
-27 85 -34 17 -7 57 -24 90 -38 139 -58 383 -177 536 -262 45 -25 83 -45 84
-45 2 0 51 -29 110 -65 59 -36 109 -65 110 -65 1 0 33 -20 71 -45 38 -25 76
-49 84 -55 41 -26 433 -302 445 -312 22 -20 37 -32 75 -58 19 -13 40 -29 46
-35 6 -5 30 -26 53 -45 83 -68 125 -106 204 -181 l80 -76 -79 -106 c-128 -172
-184 -254 -184 -266 0 -6 -3 -11 -8 -11 -7 0 -76 -108 -131 -203 -13 -23 -27
-44 -30 -47 -4 -3 -12 -16 -18 -30 -7 -14 -33 -61 -58 -105 -44 -77 -199 -387
-244 -489 -32 -70 -104 -249 -135 -336 -15 -41 -30 -82 -33 -90 -4 -8 -7 -17
-8 -20 -1 -3 -4 -12 -8 -20 -11 -28 -69 -215 -94 -305 -43 -157 -43 -156 -58
-222 -3 -13 -7 -31 -10 -40 -7 -30 -55 -256 -60 -288 -3 -16 -7 -41 -10 -55
-6 -35 -16 -100 -20 -130 -2 -14 -6 -42 -9 -63 -4 -29 -1 -42 14 -57 20 -20
44 -20 1353 -22 732 -2 1359 -2 1392 -1 33 1 102 3 153 5 50 2 92 0 92 -4 0
-4 96 -5 213 -3 201 4 298 4 447 2 36 0 83 0 105 2 22 1 608 -1 1303 -5 1156
-6 1266 -5 1305 10 30 11 65 42 122 104 165 180 640 647 799 785 12 10 35 31
51 45 63 56 171 149 190 165 11 9 54 44 95 79 42 35 107 88 145 118 39 30 72
57 75 60 3 3 64 49 135 103 72 53 135 101 141 106 55 46 612 401 629 401 2 0
32 16 67 36 34 20 144 77 243 126 99 49 188 94 199 99 34 19 368 159 378 159
5 0 22 7 36 15 30 16 299 114 331 120 11 2 28 8 38 13 10 6 21 11 25 11 4 1
13 3 20 6 26 8 223 67 233 69 6 1 16 5 23 9 6 5 12 6 12 3 0 -2 15 0 33 5 17
6 39 12 47 14 8 1 35 8 60 15 25 7 52 14 60 15 8 2 42 11 75 20 33 9 73 18 88
20 16 2 56 11 90 19 34 8 82 18 107 21 24 4 48 9 52 12 5 2 21 6 36 9 15 2 43
7 62 10 19 3 44 8 55 9 11 2 48 9 83 15 34 6 79 13 99 16 20 2 48 6 62 9 30 5
101 14 151 20 73 7 136 15 165 20 17 2 64 7 105 10 41 3 93 8 115 10 39 4 156
13 280 20 298 18 1005 25 1385 13 113 -4 163 -3 140 3 -19 5 -42 11 -50 13
-38 10 -134 31 -190 41 -62 12 -97 18 -120 22 -14 2 -41 6 -60 9 -19 4 -48 8
-65 9 -16 2 -32 4 -35 6 -3 1 -9 3 -15 4 -5 2 -12 3 -15 4 -3 1 -18 4 -35 6
-46 5 -117 14 -145 19 -14 3 -68 10 -120 15 -52 6 -115 13 -140 16 -25 3 -72
7 -105 10 -33 2 -82 6 -110 9 -67 8 -187 16 -298 22 -161 8 -617 10 -617 2 0
-4 -11 -3 -24 2 -13 5 -26 7 -27 5 -2 -2 -56 -6 -119 -10 -125 -7 -193 -11
-285 -20 -33 -2 -82 -7 -110 -9 -79 -7 -178 -17 -204 -21 -35 -6 -182 -19
-213 -20 -16 0 -28 -2 -28 -5 0 -3 -16 -5 -35 -5 -26 1 -39 7 -52 25 -55 82
-263 301 -493 521 -109 104 -343 300 -485 405 -44 32 -82 61 -85 64 -18 18
-291 200 -301 200 -5 0 -9 4 -9 9 0 5 -8 11 -17 15 -10 3 -62 33 -116 66 -55
33 -103 60 -108 60 -5 0 -9 4 -9 9 0 5 -12 14 -27 20 -16 6 -53 24 -83 41 -94
53 -195 104 -202 102 -3 -1 -11 5 -17 12 -10 11 -5 16 22 25 19 6 43 21 55 32
12 11 22 17 22 14 0 -4 13 4 29 17 16 12 41 32 57 43 47 32 194 179 194 192 0
7 4 13 9 13 4 0 21 19 37 43 16 23 31 44 35 47 3 3 25 40 50 83 24 43 54 94
67 113 12 19 22 41 22 49 0 7 4 15 8 17 9 3 97 181 107 216 21 71 -30 168
-105 200 -58 25 -356 26 -495 1z"/>
<path d="M14107 7474 c-1 -1 -78 -5 -172 -9 -93 -4 -195 -9 -225 -11 -219 -14
-337 -24 -369 -29 -13 -2 -58 -7 -100 -10 -42 -4 -87 -8 -101 -11 -14 -2 -45
-6 -70 -9 -25 -3 -61 -8 -80 -11 -19 -3 -53 -7 -75 -9 -22 -3 -51 -7 -65 -10
-14 -3 -50 -8 -80 -11 -30 -3 -57 -7 -60 -9 -3 -2 -26 -6 -50 -10 -25 -3 -90
-14 -145 -25 -55 -11 -113 -22 -130 -25 -16 -3 -106 -23 -200 -46 -93 -22
-177 -41 -185 -43 -9 -1 -21 -6 -28 -10 -7 -4 -16 -5 -19 -2 -3 3 -11 2 -17
-3 -6 -5 -24 -12 -41 -15 -72 -13 -432 -128 -615 -196 -47 -17 -98 -36 -115
-41 -16 -6 -39 -15 -50 -20 -11 -4 -42 -17 -70 -28 -27 -11 -77 -32 -110 -47
-33 -15 -69 -29 -79 -31 -11 -2 -27 -10 -35 -17 -9 -8 -26 -17 -39 -21 -29 -8
-334 -161 -427 -213 -140 -78 -172 -96 -258 -149 -49 -29 -92 -53 -98 -53 -5
0 -9 -4 -9 -8 0 -5 -12 -15 -27 -23 -41 -21 -358 -233 -373 -249 -3 -3 -21
-17 -40 -30 -19 -14 -44 -32 -54 -42 -11 -10 -28 -20 -38 -24 -10 -3 -18 -10
-18 -15 0 -5 -8 -13 -17 -16 -9 -4 -24 -14 -33 -22 -10 -9 -46 -38 -81 -66
-35 -27 -66 -52 -69 -55 -3 -3 -32 -27 -65 -55 -33 -27 -65 -54 -71 -60 -223
-199 -426 -395 -550 -531 -91 -100 -191 -208 -201 -219 -35 -37 -143 -167
-212 -255 -42 -55 -47 -66 -33 -71 27 -10 1692 -7 1692 2 0 5 6 9 13 9 16 0
48 35 65 70 7 14 17 34 24 45 7 11 37 61 67 110 60 99 164 253 220 327 20 26
52 68 71 94 19 26 40 52 45 58 6 6 23 28 38 49 16 20 39 48 53 62 13 13 24 27
24 30 0 3 10 16 23 29 12 13 52 56 88 97 121 135 341 349 450 439 24 19 61 50
83 67 23 18 48 39 56 46 36 32 221 163 335 237 33 22 187 114 205 123 8 4 42
23 75 42 33 19 81 44 108 56 26 12 47 25 47 30 0 5 6 9 13 9 7 0 39 13 72 29
98 48 239 113 250 115 6 2 24 9 40 16 17 7 45 19 63 27 126 55 654 235 727
248 11 2 36 9 55 15 49 15 210 58 243 64 15 2 30 7 35 10 8 5 17 7 86 21 16 3
33 8 37 11 4 2 27 7 51 10 24 4 50 10 59 15 9 4 19 6 21 3 3 -2 18 0 33 6 15
6 46 13 68 16 22 2 43 7 47 9 4 3 25 7 45 11 43 7 54 9 115 23 25 5 61 12 80
16 19 3 46 7 60 10 14 3 39 7 55 10 17 3 41 7 55 10 13 2 40 7 60 10 20 3 47
8 60 10 14 3 41 7 60 10 19 3 46 7 60 10 14 3 43 8 65 10 22 3 63 9 90 14 28
6 68 12 90 15 22 3 49 7 60 10 21 4 125 18 157 21 31 2 32 15 2 16 -16 0 -49
3 -74 5 -46 4 -719 11 -723 8z"/>
<path d="M14769 7256 c-2 -2 -34 -7 -71 -11 -37 -3 -93 -13 -125 -21 -32 -8
-69 -17 -83 -19 -14 -2 -35 -6 -46 -9 -12 -2 -39 -7 -60 -11 -22 -3 -54 -8
-73 -11 -18 -3 -43 -8 -55 -11 -11 -2 -30 -6 -41 -8 -58 -10 -332 -67 -345
-72 -8 -3 -23 -8 -32 -9 -16 -4 -198 -48 -240 -59 -10 -3 -26 -7 -35 -10 -305
-80 -553 -163 -758 -255 -27 -12 -75 -33 -105 -46 -30 -14 -62 -29 -70 -33 -8
-5 -62 -33 -120 -62 -58 -29 -128 -68 -157 -86 -29 -18 -54 -33 -57 -33 -3 0
-38 -21 -78 -47 -84 -55 -107 -69 -128 -79 -8 -4 -17 -10 -20 -14 -3 -3 -27
-22 -55 -40 -63 -43 -47 -30 -200 -157 -71 -59 -150 -125 -174 -147 -91 -84
-309 -305 -376 -380 -38 -44 -75 -84 -80 -90 -6 -6 -30 -36 -55 -66 -25 -30
-49 -60 -55 -67 -5 -6 -20 -24 -32 -40 -11 -15 -41 -53 -65 -85 -23 -31 -50
-66 -58 -78 -8 -12 -22 -32 -31 -44 -9 -11 -40 -57 -70 -101 -29 -44 -57 -84
-61 -90 -45 -57 -218 -336 -218 -351 0 -9 145 -12 590 -11 657 0 617 -5 650
71 9 22 29 66 42 96 13 30 33 75 43 100 11 25 24 48 30 52 5 4 7 8 3 8 -4 0
11 36 32 79 22 44 40 84 40 89 0 5 7 15 15 22 8 7 13 16 10 20 -3 4 2 13 10
20 8 7 15 17 15 22 0 5 31 62 68 126 91 157 96 164 105 176 4 6 40 58 79 116
40 58 76 110 80 115 5 6 36 46 70 90 35 44 65 82 68 85 3 3 34 39 70 80 104
121 423 430 444 430 4 0 43 31 75 60 15 14 156 117 205 149 59 40 155 101 186
119 19 11 62 35 95 54 33 19 105 56 160 84 55 27 103 53 106 58 4 5 12 5 18 2
6 -4 11 -3 11 2 0 5 8 12 18 15 9 3 84 33 166 67 129 53 378 141 471 165 44
12 45 12 48 15 3 3 64 17 107 25 14 2 46 11 72 19 26 7 50 11 54 7 4 -3 4 0 0
7 -7 12 -19 16 -27 8z"/>
</g>
</svg>
