<svg id="Capa_1" data-name="Capa 1" xmlns="http://www.w3.org/2000/svg" viewBox="0 0 512 512"><defs><style>.cls-1{fill:#fc0;}</style></defs><title>apoyo-nosotros</title><path class="cls-1" d="M164.75,295.63V266.21H71.26v63.07H94.05a24.35,24.35,0,0,1,22.45-33.65h48.25ZM266.2,347.28v93.49h63.07V417.95a23.92,23.92,0,0,1-9.33,1.87,24.39,24.39,0,0,1-24.32-24.32V347.28H266.2Zm-15,93.49V347.28h-7.57a34.45,34.45,0,0,1-15-3.15,31.81,31.81,0,0,1-14.06-13.21,40.57,40.57,0,0,0-15.17-14.85,42.07,42.07,0,0,0-20.86-5.44H116.51a9.28,9.28,0,0,0-6.58,2.75,9.31,9.31,0,0,0,0,13.15,9.28,9.28,0,0,0,6.58,2.75h54.65a7.5,7.5,0,0,1,0,15H46.74A9.28,9.28,0,0,0,40.17,347a9.33,9.33,0,0,0,6.58,15.9h83.51a7.5,7.5,0,1,1,0,15H24.32a9.3,9.3,0,0,0-6.58,15.9,9.4,9.4,0,0,0,6.58,2.75H130.25a7.5,7.5,0,1,1,0,15H35.8a9.34,9.34,0,0,0-9.33,9.33,9.28,9.28,0,0,0,2.75,6.58,9.38,9.38,0,0,0,6.58,2.72h94.45a7.51,7.51,0,1,1,0,15H75.18a9.34,9.34,0,0,0-9.33,9.3,9.39,9.39,0,0,0,9.33,9.33h41.5a7.5,7.5,0,1,1,0,15H75.18a24.27,24.27,0,0,1-22.45-33.62H35.8a24.3,24.3,0,0,1-21.43-35.8,24.32,24.32,0,0,1,9.92-46.49,24.21,24.21,0,0,1,5.27-26.51,24.21,24.21,0,0,1,17.18-7.14h9.5V242.34a19.57,19.57,0,0,0-2.15-9,35.43,35.43,0,0,0-6.75-8.93,51.66,51.66,0,0,1-10.43-15.08,42.15,42.15,0,0,1-3.74-17.18V150.66a7.5,7.5,0,1,1,15,0v41.47a27.12,27.12,0,0,0,2.41,11.08A36.46,36.46,0,0,0,58,213.82a50.8,50.8,0,0,1,9.53,12.84,34.62,34.62,0,0,1,3.74,15.68v8.87h93.49v-7.57a34.81,34.81,0,0,1,3.12-15,31.73,31.73,0,0,1,13.24-14.06A40.79,40.79,0,0,0,196,199.45a42.34,42.34,0,0,0,5.41-20.86V116.51a9.32,9.32,0,0,0-15.9-6.58,9.38,9.38,0,0,0-2.72,6.58v54.65a7.51,7.51,0,0,1-15,0V46.74a9.28,9.28,0,0,0-15.87-6.58,9.28,9.28,0,0,0-2.75,6.58v83.51a7.5,7.5,0,1,1-15,0V24.32a9.4,9.4,0,0,0-2.75-6.58,9.33,9.33,0,0,0-15.9,6.58V130.25a7.5,7.5,0,1,1-15,0V35.8a9.33,9.33,0,0,0-18.65,0v94.45a7.5,7.5,0,1,1-15,0V75.18a9.33,9.33,0,0,0-18.65,0v41.5a7.5,7.5,0,1,1-15,0V75.18A24.3,24.3,0,0,1,66.82,52.73V35.8a24.28,24.28,0,0,1,35.77-21.43,23.8,23.8,0,0,1,5-7.23,24.32,24.32,0,0,1,41.5,17.15,24.35,24.35,0,0,1,33.65,22.45v9.5h86.91a19.5,19.5,0,0,0,9-2.15,36.08,36.08,0,0,0,9-6.75,51.29,51.29,0,0,1,15.08-10.43,42,42,0,0,1,17.15-3.74h41.5a7.5,7.5,0,0,1,0,15h-41.5a27,27,0,0,0-11.05,2.41A36.2,36.2,0,0,0,298.18,58a50.18,50.18,0,0,1-12.81,9.53,34.66,34.66,0,0,1-15.7,3.74h-8.87v93.49h7.57a35,35,0,0,1,15,3.12,31.82,31.82,0,0,1,14,13.24A41,41,0,0,0,312.55,196a42.42,42.42,0,0,0,20.86,5.41H395.5a9.28,9.28,0,0,0,6.58-2.75,9.18,9.18,0,0,0,2.75-6.58,9.28,9.28,0,0,0-2.75-6.58,9.38,9.38,0,0,0-6.58-2.72H340.87a7.51,7.51,0,0,1,0-15H465.26a9.38,9.38,0,0,0,6.58-2.72,9.28,9.28,0,0,0,2.75-6.58,9.18,9.18,0,0,0-2.75-6.58,9.29,9.29,0,0,0-6.58-2.75H381.75a7.5,7.5,0,1,1,0-15H487.68a9.39,9.39,0,0,0,9.33-9.33,9.39,9.39,0,0,0-9.33-9.33H381.75a7.5,7.5,0,1,1,0-15h94.48a9.34,9.34,0,0,0,9.3-9.33,9.38,9.38,0,0,0-2.72-6.58,9.28,9.28,0,0,0-6.58-2.75H381.75a7.5,7.5,0,1,1,0-15h55.08a9.33,9.33,0,0,0,0-18.65h-41.5a7.5,7.5,0,0,1,0-15h41.5A24.36,24.36,0,0,1,459.3,66.82h16.92a24.28,24.28,0,0,1,21.43,35.77,24.33,24.33,0,0,1-10,46.52,23.72,23.72,0,0,1,1.87,9.33,24.39,24.39,0,0,1-24.32,24.32h-9.5v86.91a19.85,19.85,0,0,0,2.15,9,36.75,36.75,0,0,0,6.75,9,50.75,50.75,0,0,1,10.43,15.08,42,42,0,0,1,3.74,17.15v41.5a7.5,7.5,0,0,1-15,0v-41.5a27,27,0,0,0-2.41-11.06A35.69,35.69,0,0,0,454,298.18a50.67,50.67,0,0,1-9.5-12.81,34.29,34.29,0,0,1-3.74-15.7v-8.87H347.28v7.57a34.65,34.65,0,0,1-3.15,15,31.91,31.91,0,0,1-13.21,14,40.77,40.77,0,0,0-14.85,15.17,42.13,42.13,0,0,0-5.44,20.86V395.5a9.33,9.33,0,0,0,18.65,0V340.87a7.5,7.5,0,1,1,15,0V465.26a9.3,9.3,0,0,0,15.9,6.58,9.41,9.41,0,0,0,2.75-6.58V381.75a7.5,7.5,0,1,1,15,0V487.68a9.3,9.3,0,0,0,15.9,6.58,9.35,9.35,0,0,0,2.75-6.58V381.75a7.5,7.5,0,1,1,15,0v94.48a9.31,9.31,0,0,0,18.62,0V381.75a7.51,7.51,0,0,1,15,0v55.08a9.31,9.31,0,0,0,18.62,0v-41.5a7.5,7.5,0,0,1,15,0v41.5a24.33,24.33,0,0,1-33.62,22.48v16.92a24.3,24.3,0,0,1-35.8,21.43,25,25,0,0,1-5,7.23,24.32,24.32,0,0,1-41.5-17.18,23.92,23.92,0,0,1-9.33,1.87,24.39,24.39,0,0,1-24.32-24.32v-9.5H242.34a20,20,0,0,0-9,2.15,36.13,36.13,0,0,0-8.93,6.75,51.11,51.11,0,0,1-15.08,10.43,42.15,42.15,0,0,1-17.18,3.74H150.66a7.5,7.5,0,1,1,0-15h41.47a27.12,27.12,0,0,0,11.08-2.41,35.94,35.94,0,0,0,10.6-7.43,51.34,51.34,0,0,1,12.84-9.5,34.27,34.27,0,0,1,15.68-3.74h8.87Zm-5.41-276V71.26h-63V94.05a24.31,24.31,0,0,1,33.62,22.45v48.25h29.42Zm101.48,81h93.49v-63H417.94a23.68,23.68,0,0,1,1.87,9.3,24.34,24.34,0,0,1-24.32,24.32H347.28V245.8h0Zm-51.65,86.49a57.12,57.12,0,0,1,7.43-27,55.61,55.61,0,0,1,20.3-20.72,17.32,17.32,0,0,0,7.26-7.51,20.46,20.46,0,0,0,1.67-8.65v-52a57.42,57.42,0,0,1-27-7.4,55.82,55.82,0,0,1-20.72-20.3,17.16,17.16,0,0,0-7.51-7.26,20,20,0,0,0-8.65-1.67h-52a57.61,57.61,0,0,1-7.4,27,56,56,0,0,1-20.3,20.72,17.26,17.26,0,0,0-7.26,7.48,20.1,20.1,0,0,0-1.67,8.65v52a57.3,57.3,0,0,1,27,7.43,55.81,55.81,0,0,1,20.72,20.3,17.42,17.42,0,0,0,7.48,7.26,20.54,20.54,0,0,0,8.65,1.67h52Z"/></svg>