<svg id="Capa_1" data-name="Capa 1" xmlns="http://www.w3.org/2000/svg" viewBox="0 0 512 512"><defs><style>.cls-1{fill:#fff;}</style></defs><title>chat</title><path class="cls-1" d="M-5510.46-3642.34h-192a16,16,0,0,0-16,16,16,16,0,0,0,16,16h192a16,16,0,0,0,16-16A16,16,0,0,0-5510.46-3642.34Z" transform="translate(5814.46 3738.34)"/><path class="cls-1" d="M-5574.46-3578.34h-128a16,16,0,0,0-16,16,16,16,0,0,0,16,16h128a16,16,0,0,0,16-16A16,16,0,0,0-5574.46-3578.34Z" transform="translate(5814.46 3738.34)"/><path class="cls-1" d="M-5462.46-3738.34h-288a64.06,64.06,0,0,0-64,64v320a16,16,0,0,0,9.22,14.5,16.23,16.23,0,0,0,6.78,1.5,16,16,0,0,0,10.24-3.71l91.55-76.29h234.21a64.06,64.06,0,0,0,64-64v-192A64.06,64.06,0,0,0-5462.46-3738.34Zm32,256a32,32,0,0,1-32,32h-240a16,16,0,0,0-10.24,3.71l-69.76,58.14v-285.86a32,32,0,0,1,32-32h288a32,32,0,0,1,32,32v192Z" transform="translate(5814.46 3738.34)"/><path class="cls-1" d="M-5366.46-3610.34a16,16,0,0,0-16,16,16,16,0,0,0,16,16,32,32,0,0,1,32,32v270.69l-54-43.2a16.12,16.12,0,0,0-10-3.49h-224a32,32,0,0,1-32-32v-16a16,16,0,0,0-16-16,16,16,0,0,0-16,16v16a64.06,64.06,0,0,0,64,64h218.37l75.62,60.51a16.16,16.16,0,0,0,10,3.49,16.26,16.26,0,0,0,6.94-1.57,16.05,16.05,0,0,0,9.06-14.43v-304A64.06,64.06,0,0,0-5366.46-3610.34Z" transform="translate(5814.46 3738.34)"/></svg>