<svg id="Capa_1" data-name="Capa 1" xmlns="http://www.w3.org/2000/svg" viewBox="0 0 460.76 512"><defs><style>.cls-1{fill:#fc0;}</style></defs><title>crecimiento-nosotros</title><path class="cls-1" d="M457.09,800l-21.88-19.27,21.88-19.26a10.8,10.8,0,0,0-7.14-18.91H359.41v-3.89a7.5,7.5,0,0,0-15,0v101.2l-61.63,33.46a23.74,23.74,0,0,0-2.44-7.88l-8.68-17a23.74,23.74,0,0,0-31.91-10.3L233,841.68a23.71,23.71,0,0,0-10.3,31.92l8.68,17a23.57,23.57,0,0,0,8.55,9.29c-4.61,6.21-6.8,13.84-9,21.77l-1.62,5.73a7.5,7.5,0,0,0,5.18,9.26,7.39,7.39,0,0,0,2,.29,7.51,7.51,0,0,0,7.22-5.46l1.62-5.71c3.29-11.6,5.31-17.81,11.74-21.3l11.53-6.26,1.42-.73c0.47-.24.91-0.52,1.36-0.79L353.56,852a31.76,31.76,0,0,1-15.15,25.5L285,910l-0.18.11-16.63,10.1a7.5,7.5,0,0,0,7.17,13.16L262.73,971.5l-9.22,3.78-25.08,10.28L235.65,960a7.51,7.51,0,1,0-14.45-4.09L209.79,996.3a7.2,7.2,0,0,0-.27,1.63l-3,54.89c-0.09,2.09.36,6.05-.61,8.09l-33.19,69.82H148.61A25.65,25.65,0,0,0,123,1156.36V1178a25.42,25.42,0,0,0-10.61-2.31H51.14a25.64,25.64,0,0,0-25.62,25.62v26.88H7.5a7.5,7.5,0,0,0,0,15H449.94a7.5,7.5,0,1,0,0-15H430.43V1034.78a25.65,25.65,0,0,0-25.62-25.62h-45.4V878.25a46.8,46.8,0,0,0,7.54-40.11,7.51,7.51,0,0,0-7.54-5.51v-13.7h90.54A10.8,10.8,0,0,0,457.09,800ZM235.55,860.12a8.64,8.64,0,0,1,4.32-5.08l6.71-3.44a8.71,8.71,0,0,1,11.71,3.78l8.69,17a8.72,8.72,0,0,1-2.89,11.19l-2.45,1.32-5.16,2.64a8.71,8.71,0,0,1-11.71-3.78l-8.69-17A8.65,8.65,0,0,1,235.55,860.12ZM220.47,1133a25.47,25.47,0,0,0-8.24-2.2l8.24-10.94V1133Zm35.63-60.46c3.61-4.32,4.61-9.37,5.41-13.45,0.2-1,3.91-21.2,3.91-21.2s3.5,2.18,3.87,2.34a0.8,0.8,0,0,1,.46.66l4.08,41.5H248.68Zm44.38-41.42-6.34,51.23h-5.23l-4.22-42.93a15.81,15.81,0,0,0-8.84-12.69L268.3,1022l5-27.86s21.18,25.16,21.67,25.8C299.38,1025.63,300.88,1027.91,300.47,1031.16Zm-81.05,36.32a40.68,40.68,0,0,0,2.1-13.93l2.73-50.06L259,989.27l-6.31,34.95c0,0.09,0,.19-0.05.29l-5.22,28.89c-0.68,3-1.27,7.53-3.14,10l-50.71,67.35h-4.18ZM40.53,1201.32a10.62,10.62,0,0,1,10.61-10.61h61.25A10.62,10.62,0,0,1,123,1201.32v26.88H40.53v-26.88Zm97.47,0v-45a10.62,10.62,0,0,1,10.61-10.61h61.25a10.62,10.62,0,0,1,10.61,10.61v71.84H138v-26.88h0Zm277.42-166.54V1228.2H333v-45a7.51,7.51,0,0,0-15,0v45H235.48V1108a10.62,10.62,0,0,1,10.61-10.61h61.25A10.62,10.62,0,0,1,317.94,1108v37.62a7.5,7.5,0,1,0,15,0V1034.78a10.62,10.62,0,0,1,10.61-10.61H404.8A10.63,10.63,0,0,1,415.42,1034.78Zm-71.86-25.62a25.65,25.65,0,0,0-25.62,25.62v50a25.4,25.4,0,0,0-8.7-2.23l6.12-49.5c1.2-9.65-3.72-16-8.48-22.23-0.5-.66-29.67-35.29-29.67-35.29l17.89-54.1,49.29-29.95v117.72h-0.84Zm15.85-205.23V757.61H438.8l-17.1,15.05a10.8,10.8,0,0,0,0,16.21l17.1,15.05H359.41Z" transform="translate(0 -731.21)"/></svg>