<svg id="Capa_1" data-name="Capa 1" xmlns="http://www.w3.org/2000/svg" viewBox="0 0 512.01 512"><defs><style>.cls-1{fill:#fc0;}</style></defs><title>edificio</title><path class="cls-1" d="M-1579.37-226a42.5,42.5,0,0,0,16.1-33.39,42.07,42.07,0,0,0-8-24.8,18.19,18.19,0,0,1-2.05-16.26,34.42,34.42,0,0,0,.76-17.51,34.13,34.13,0,0,0-37-26.62,34.13,34.13,0,0,0-30.42,34,33.53,33.53,0,0,0,1.6,10.31,18,18,0,0,1-2.15,16.21,42.6,42.6,0,0,0-5.31,39.7,42.58,42.58,0,0,0,30,26.54c0.49,0.11,1,.15,1.47.25v35h-25.6v-25.6a8.53,8.53,0,0,0-8.53-8.53h-17.07V-634.84a8.53,8.53,0,0,0-8.53-8.53h-25.6V-669a8.53,8.53,0,0,0-8.53-8.53H-1930.2a8.53,8.53,0,0,0-8.53,8.53v25.6h-25.6a8.53,8.53,0,0,0-8.53,8.53v418.13h-17.07a8.53,8.53,0,0,0-8.53,8.53v25.6h-25.6v-35.1a42.49,42.49,0,0,0,31.19-26.13,42.47,42.47,0,0,0-5.09-40.37,18.19,18.19,0,0,1-2.05-16.26,34.42,34.42,0,0,0,.76-17.51,34.13,34.13,0,0,0-37-26.62,34.13,34.13,0,0,0-30.42,34,33.53,33.53,0,0,0,1.6,10.31,18,18,0,0,1-2.15,16.21,42.6,42.6,0,0,0-5.31,39.7,42.58,42.58,0,0,0,30,26.54c0.49,0.11,1,.15,1.47.25v35h-34.13v17.07h512v-17.07h-34.13v-35.1A42.32,42.32,0,0,0-1579.37-226Zm-483.9-22.11a29.23,29.23,0,0,1,5-24.7,40,40,0,0,0,5.63-37.1,19.07,19.07,0,0,1-1-6.07,19.9,19.9,0,0,1,7.57-15.53,21.25,21.25,0,0,1,13.46-4.68,24.39,24.39,0,0,1,4.06.36,21,21,0,0,1,14,9.48,19.54,19.54,0,0,1,2,16.35,40.21,40.21,0,0,0,5.55,37.17,28.88,28.88,0,0,1,5.91,17.52A29.77,29.77,0,0,1-2013-231.56a31.43,31.43,0,0,1-9.11,4.68v-48.63h-21v48.84a30.59,30.59,0,0,1-20.16-21.4h0Zm385.17-358v389.35h-22V-632h22v26Zm-209.43-20.25v17.07h-34.13v-17.07h34.13Zm-34.13,34.13h34.13V-558h-34.13v-34.13Zm0,51.2h34.13v17.07h-34.13V-541Zm0,34.13h34.13v34.13h-34.13v-34.13Zm0,51.2h34.13v17.07h-34.13v-17.07Zm0,34.13h34.13v34.13h-34.13v-34.13Zm0,51.2h34.13v17.07h-34.13v-17.07Zm0,34.13h34.13V-302h-34.13v-34.13Zm0,51.2h34.13v17.07h-34.13V-285Zm0,34.13h34.13v34.13h-34.13v-34.13ZM-1872.93-632h22v417.69h-22V-632Zm70.73,5.71v17.07h-34.13v-17.07h34.13Zm-34.13,34.13h34.13V-558h-34.13v-34.13Zm0,51.2h34.13v17.07h-34.13V-541Zm0,34.13h34.13v34.13h-34.13v-34.13Zm0,51.2h34.13v17.07h-34.13v-17.07Zm0,34.13h34.13v34.13h-34.13v-34.13Zm0,51.2h34.13v17.07h-34.13v-17.07Zm0,34.13h34.13V-302h-34.13v-34.13Zm0,51.2h34.13v17.07h-34.13V-285Zm0,34.13h34.13v34.13h-34.13v-34.13Zm48.73-375.47h22v409.6h-22v-409.6Zm70.73,0v17.07H-1751v-17.07h34.13ZM-1751-592.17h34.13V-558H-1751v-34.13Zm0,51.2h34.13v17.07H-1751V-541Zm0,34.13h34.13v34.13H-1751v-34.13Zm0,51.2h34.13v17.07H-1751v-17.07Zm0,34.13h34.13v34.13H-1751v-34.13Zm0,51.2h34.13v17.07H-1751v-17.07Zm0,34.13h34.13V-302H-1751v-34.13Zm0,51.2h34.13v17.07H-1751V-285Zm0,34.13h34.13v34.13H-1751v-34.13Zm-170.67-416.07h204.8v22h-204.8v-22ZM-1958.27-260V-632h22v415.31h-22V-260Zm284.07,77.86h-307.2v-22h324.27v22h-17.07Zm37.6-66a29.23,29.23,0,0,1,5-24.7,40,40,0,0,0,5.63-37.11,19.07,19.07,0,0,1-1-6.07,19.9,19.9,0,0,1,7.57-15.53,21.25,21.25,0,0,1,13.46-4.68,24.39,24.39,0,0,1,4.06.36,21,21,0,0,1,14,9.48,19.54,19.54,0,0,1,2,16.35,40.21,40.21,0,0,0,5.55,37.17,28.88,28.88,0,0,1,5.91,17.52,29.77,29.77,0,0,1-11.91,23.74,31.43,31.43,0,0,1-9.11,4.68v-48.63h-21v48.84A30.59,30.59,0,0,1-1636.6-248.08Z" transform="translate(2075.28 677.51)"/></svg>