<svg id="Capa_1" data-name="Capa 1" xmlns="http://www.w3.org/2000/svg" viewBox="0 0 310.32 512"><defs><style>.cls-1{fill:#fc0;}</style></defs><title>excelencia</title><path class="cls-1" d="M-2300.92-461.49A65.34,65.34,0,0,0-2311-488.73l45.43-64.83c17.17-24.51,19.18-55,5.37-81.54s-39.93-42.4-69.86-42.4h-71.67l-0.23,0-0.18,0c-29.93,0-56,15.85-69.86,42.4s-11.81,57,5.37,81.54l45.43,64.83a65.32,65.32,0,0,0-10.09,27.31,155.2,155.2,0,0,0-88.84,122c-11.06,91,62.33,173.9,154,173.9a155.35,155.35,0,0,0,116.28-52.41c6.42-7.25-4.8-17.22-11.24-9.95a140.27,140.27,0,0,1-122,46.32c-76.72-9.33-131.55-79.33-122.22-156.05s79.33-131.55,156.05-122.22,131.55,79.33,122.22,156.05a148.45,148.45,0,0,1-17.09,52.28c-4.67,8.5,8.48,15.72,13.15,7.23a163.78,163.78,0,0,0,18.83-57.7c8.32-68.42-29.45-132-88.85-159.54h0ZM-2458.7-628.18a62.6,62.6,0,0,1,51-34.1l33.7,111.28-10.59,35a65.76,65.76,0,0,0-26.72,15.36l-43.1-61.51A62.73,62.73,0,0,1-2458.7-628.18Zm92.59,51.3L-2392-662.5h51.86Zm45.15,76.21a65.51,65.51,0,0,0-45.15-18c-0.66,0-1.31,0-2,.05l43.51-143.65a62.6,62.6,0,0,1,51,34.1,62.73,62.73,0,0,1-4.34,66Zm-45.15-3a50.85,50.85,0,0,1,48.43,35.56,155.32,155.32,0,0,0-29.7-6.61,154.24,154.24,0,0,0-67.17,6.64A50.85,50.85,0,0,1-2366.11-503.67Z" transform="translate(2521.25 677.51)"/><path class="cls-1" d="M-2366.11-427a106.47,106.47,0,0,0-106.35,106.35,106.47,106.47,0,0,0,106.35,106.35,106.47,106.47,0,0,0,106.35-106.35A106.47,106.47,0,0,0-2366.11-427h0Zm0,197.7a91.45,91.45,0,0,1-91.34-91.34A91.45,91.45,0,0,1-2366.11-412a91.45,91.45,0,0,1,91.34,91.34,91.45,91.45,0,0,1-91.34,91.34h0Z" transform="translate(2521.25 677.51)"/><path class="cls-1" d="M-2314.74-335.68l-23-12.56a2.08,2.08,0,0,1-.83-0.83l-12.56-23a17.1,17.1,0,0,0-15-8.89,17.1,17.1,0,0,0-15,8.9l-12.57,23a2.08,2.08,0,0,1-.83.83l-23,12.56a17.1,17.1,0,0,0-8.9,15,17.09,17.09,0,0,0,8.9,15l23,12.57a2.08,2.08,0,0,1,.83.83l12.56,23a17.09,17.09,0,0,0,15,8.9,17.09,17.09,0,0,0,15-8.9l12.57-23a2.08,2.08,0,0,1,.83-0.83l23-12.56a17.1,17.1,0,0,0,8.9-15,17.1,17.1,0,0,0-8.9-15h0Zm-7.2,16.84-23,12.56a17,17,0,0,0-6.8,6.8l-12.56,23a2,2,0,0,1-1.84,1.09,2,2,0,0,1-1.84-1.09l-12.56-23a17.05,17.05,0,0,0-6.8-6.8l-23-12.56a2,2,0,0,1-1.09-1.84,2,2,0,0,1,1.09-1.84l23-12.56a17,17,0,0,0,6.8-6.8l12.56-23a2,2,0,0,1,1.84-1.09,2,2,0,0,1,1.84,1.09l12.56,23a17,17,0,0,0,6.8,6.8l23,12.56a2,2,0,0,1,1.09,1.84,2,2,0,0,1-1.09,1.83h0Z" transform="translate(2521.25 677.51)"/></svg>