<svg id="Capa_1" data-name="Capa 1" xmlns="http://www.w3.org/2000/svg" viewBox="0 0 841.89 595.28"><defs><style>.cls-1{fill:#d0c9d8;}.cls-2{fill:#202b52;}.cls-3{fill:#ffcd04;}.cls-4{fill:none;}</style></defs><title>inarco-logo</title><polygon class="cls-1" points="230.51 77.39 281.58 30.21 332.65 77.39 332.65 261.56 281.58 305.61 230.51 262.77 230.51 77.39"/><polygon class="cls-2" points="281.58 34.93 281.58 305.61 230.51 262.76 230.51 77.39 281.58 30.21 281.58 34.93"/><path class="cls-3" d="M88.27,1739.62v77.88s-19.87,19.15-26.13,26.44c-3.24,3.77-7,13.07-.4,20.35,16.56,18.19,53.2,52,72.78,67.12,5.18,4,11.77,8.37,23,0,14.94-11.16,42-37,56-49.23,5-4.4,7.8-8.23,19.72-8.23h52.63c4.82,0,9,5.55,5.11,9.65-29.36,31.28-81.79,89-125.55,113.77-8.42,4.77-25.07,9.59-39.65-.21C87.71,1971.57,12.31,1905-3.58,1877.72c-3.34-5.73-13.69-26.88.5-47.6,0,0,20.57-29.37,91.36-90.51" transform="translate(135.29 -1636.86)"/><rect class="cls-2" x="112.27" y="391.88" width="25.75" height="79.59"/><polygon class="cls-2" points="155.18 391.88 155.18 471.46 177.59 471.46 177.59 411.46 225.26 471.46 263.71 471.46 263.71 391.88 241.29 391.88 241.29 451.04 193.63 391.88 155.18 391.88"/><path class="cls-2" d="M209.71,2028.74H177.65l-43.41,79.58h26.53l8.23-15.18H218.5l7.66,15.18H253Zm-33.05,48.94,17-30.64,16.81,30.64H176.65Z" transform="translate(135.29 -1636.86)"/><path class="cls-2" d="M348,2079.38l-6.49-1.17a64.63,64.63,0,0,0,8.51-3.51c10.11-6.17,7.48-24.48,7.12-27.66-0.51-4.52-2.9-16.31-18.66-18l-77.72-.32v79.59h23.83v-20.85H325.9s7.38-.14,7.38,8.37v12.48h23v-20a9.31,9.31,0,0,0-8.23-8.94m-14.19-16.67c-0.21,5.32-6.45,5.82-6.45,5.82h-43v-20.71h43.05c6.46-.07,6.38,6.31,6.38,6.31v8.58Z" transform="translate(135.29 -1636.86)"/><path class="cls-2" d="M449.56,2083.35c-0.85,5.15-8.23,4.74-8.23,4.74H405.44c-7.66-.28-8.53-9-8.53-9l-0.06-10.83,0.06-10.83s0.87-8.67,8.53-9h35.89s7.38-.42,8.23,4.74v5.85H474s0-7,0-11.42c0-9.41-5.28-15.61-11.56-17.28s-8.23-2.11-25.39-2.54c-9.79-.25-27.43-0.41-38.18.47-6.13.51-15.66,2.28-21.33,9.66a31.31,31.31,0,0,0-5.53,17.2v26.19a31.31,31.31,0,0,0,5.53,17.2c5.67,7.38,15.21,9.16,21.33,9.66,10.75,0.89,28.39.72,38.18,0.47,17.16-.43,19.08-0.87,25.39-2.54s11.52-7.86,11.56-17.27c0-4.39,0-11.42,0-11.42H449.56v5.85Z" transform="translate(135.29 -1636.86)"/><path class="cls-2" d="M594.34,2048.93c0-9.7-9-20.2-23.25-20.17,0,0-15,0-30.49,0s-30.49,0-30.49,0c-14.23,0-23.26,10.47-23.25,20.17,0,4,0,12,0,19.61s0,15.64,0,19.61c0,9.7,9,20.2,23.25,20.17,0,0,15,0,30.49,0s30.49,0,30.49,0c14.23,0,23.26-10.47,23.25-20.17,0-4,0-12,0-19.61s0-15.64,0-19.61m-23.87,29.7s-0.28,10.15-10.33,10.15H521.06c-10,0-10.33-10.15-10.33-10.15v-20.17s0.28-10.15,10.33-10.15h39.08c10,0,10.33,10.15,10.33,10.15v20.17Z" transform="translate(135.29 -1636.86)"/><path class="cls-2" d="M71.52,2142.63A4.91,4.91,0,0,1,67.9,2144a4.59,4.59,0,0,1-4.31-2.18,12.37,12.37,0,0,1-1.33-6.31v-0.42a12.55,12.55,0,0,1,1.3-6.26,5.14,5.14,0,0,1,7.64-.94,6.51,6.51,0,0,1,1.54,4.05H70.67a5.66,5.66,0,0,0-1-3,2.36,2.36,0,0,0-1.78-.8,2.74,2.74,0,0,0-2.79,1.78,13.71,13.71,0,0,0-.77,5.16v0.56a13,13,0,0,0,.77,5,3,3,0,0,0,4.95.82,5.34,5.34,0,0,0,.88-3.35H73a6.42,6.42,0,0,1-1.52,4.45" transform="translate(135.29 -1636.86)"/><polygon class="cls-2" points="228.94 506.95 228.94 498.89 223.3 498.89 223.28 506.95 221.2 506.95 221.2 490.02 223.28 490.02 223.28 497.32 228.92 497.34 228.94 490.02 231.02 490.02 231.02 506.95 228.94 506.95"/><rect class="cls-2" x="243.76" y="490.03" width="2.07" height="16.93"/><polygon class="cls-2" points="258.58 506.95 258.58 490.02 260.66 490.02 260.66 505.4 266.91 505.4 266.91 506.95 258.58 506.95"/><polygon class="cls-2" points="278.75 506.95 278.75 490.02 287.53 490.02 287.53 491.57 280.83 491.57 280.83 497.34 285.78 497.34 285.78 498.89 280.83 498.89 280.83 505.4 287.85 505.4 287.85 506.95 278.75 506.95"/><path class="cls-2" d="M220.26,2134.9a5.43,5.43,0,0,1-3.72,1.27h-2.45v7.64H212v-16.93h4.47a5.29,5.29,0,0,1,3.75,1.29,4.42,4.42,0,0,1,1.44,3.42,4.28,4.28,0,0,1-1.41,3.3m-1.49-5.65a3.23,3.23,0,0,0-2.34-.82h-2.34v6.19H216a4.08,4.08,0,0,0,2.66-.75,2.91,2.91,0,0,0,.9-2.34,3.13,3.13,0,0,0-.8-2.27" transform="translate(135.29 -1636.86)"/><polygon class="cls-2" points="368.55 506.95 368.55 490.02 377.33 490.02 377.33 491.57 370.63 491.57 370.63 497.34 375.58 497.34 375.58 498.89 370.63 498.89 370.63 505.4 377.65 505.4 377.65 506.95 368.55 506.95"/><path class="cls-2" d="M262.13,2143.81l-3.09-8-2.71.09v7.92h-2.08v-16.93h4.5a6.24,6.24,0,0,1,4,1.17,4,4,0,0,1,1.46,3.26,4.17,4.17,0,0,1-.85,2.63,4.24,4.24,0,0,1-2.26,1.48l3.25,8.39h-2.18Zm-1-14.7a5.15,5.15,0,0,0-2.9-.67h-1.92v5.81h1.81a5.21,5.21,0,0,0,3-.68,2.75,2.75,0,0,0,.93-2.35,2.44,2.44,0,0,0-.93-2.12" transform="translate(135.29 -1636.86)"/><path class="cls-2" d="M285.28,2142.82a5.06,5.06,0,0,1-3.64,1.22,5,5,0,0,1-3.62-1.19,4.52,4.52,0,0,1-1.28-3.47v-12.5h2.08v12.78a2.85,2.85,0,0,0,.72,2.09,2.78,2.78,0,0,0,2.1.75,2.69,2.69,0,0,0,2.07-.75,3.09,3.09,0,0,0,.72-2.18v-12.68h2.07v12.45a4.72,4.72,0,0,1-1.22,3.49M281.45,2126h-1.3l2.58-3.23h2Z" transform="translate(135.29 -1636.86)"/><path class="cls-2" d="M354.38,2134.9a5.43,5.43,0,0,1-3.73,1.27h-2.45v7.64h-2.07v-16.93h4.47a5.3,5.3,0,0,1,3.75,1.29,4.42,4.42,0,0,1,1.43,3.42,4.28,4.28,0,0,1-1.41,3.3m-1.49-5.65a3.23,3.23,0,0,0-2.34-.82h-2.34v6.19h1.92a4.08,4.08,0,0,0,2.66-.75,2.91,2.91,0,0,0,.9-2.34,3.13,3.13,0,0,0-.8-2.27" transform="translate(135.29 -1636.86)"/><path class="cls-2" d="M374.31,2143.81l-1.15-5h-4.89l-1.14,5h-2.07l4.23-16.93h2.87l4.26,16.93h-2.1ZM370.72,2128l-2.15,9.21h4.31Z" transform="translate(135.29 -1636.86)"/><path class="cls-2" d="M395.39,2143.81l-3.09-8-2.71.09v7.92h-2.08v-16.93H392a6.23,6.23,0,0,1,4,1.17,4,4,0,0,1,1.46,3.26,4.17,4.17,0,0,1-.85,2.63,4.23,4.23,0,0,1-2.26,1.48l3.25,8.39h-2.18Zm-1-14.7a5.15,5.15,0,0,0-2.9-.67h-1.92v5.81h1.81a5.21,5.21,0,0,0,3-.68,2.75,2.75,0,0,0,.93-2.35,2.44,2.44,0,0,0-.93-2.12" transform="translate(135.29 -1636.86)"/><path class="cls-2" d="M417.68,2143.81l-1.15-5h-4.9l-1.14,5h-2.08l4.23-16.93h2.87l4.26,16.93h-2.1ZM414.09,2128l-2.16,9.21h4.31Z" transform="translate(135.29 -1636.86)"/><path class="cls-2" d="M439.61,2143.81l-0.27-1.27a4.44,4.44,0,0,1-1.6,1.15,5,5,0,0,1-1.91.35,4.46,4.46,0,0,1-4.18-2.27,12.83,12.83,0,0,1-1.33-6.4,18.28,18.28,0,0,1,.33-3.7,9.71,9.71,0,0,1,1-2.74,4.5,4.5,0,0,1,4.23-2.27,4.68,4.68,0,0,1,3.43,1.31,6.71,6.71,0,0,1,1.65,4.13h-2.08a5.36,5.36,0,0,0-.85-2.91,2.58,2.58,0,0,0-2.15-1,2.67,2.67,0,0,0-2.66,1.78,13.11,13.11,0,0,0-.77,5v0.28a15.52,15.52,0,0,0,.72,5.37,2.77,2.77,0,0,0,2.77,1.88,3.2,3.2,0,0,0,2.18-.68,2.52,2.52,0,0,0,.77-1.92v-2.46h-2.61v-1.55H441v7.92h-1.36Z" transform="translate(135.29 -1636.86)"/><path class="cls-2" d="M461.85,2142.82a5.07,5.07,0,0,1-3.65,1.22,5,5,0,0,1-3.62-1.2,4.52,4.52,0,0,1-1.28-3.47v-12.5h2.08v12.78a2.84,2.84,0,0,0,.72,2.09,2.77,2.77,0,0,0,2.1.75,2.68,2.68,0,0,0,2.08-.75,3.08,3.08,0,0,0,.72-2.18v-12.68h2.08v12.45a4.72,4.72,0,0,1-1.22,3.49" transform="translate(135.29 -1636.86)"/><path class="cls-2" d="M483.48,2143.81l-1.15-5h-4.9l-1.15,5h-2.08l4.23-16.93h2.87l4.26,16.93h-2.1ZM479.89,2128l-2.16,9.21H482Z" transform="translate(135.29 -1636.86)"/><polygon class="cls-2" points="635.32 499.78 635.32 506.95 633.25 506.95 633.25 499.78 628.75 490.02 631.01 490.02 634.31 497.43 637.5 490.02 639.76 490.02 635.32 499.78"/><path class="cls-2" d="M180.3,2138.91a1.57,1.57,0,0,1-1.61-1.69,1.6,1.6,0,0,1,1.61-1.69,1.65,1.65,0,0,1,1.66,1.69,1.62,1.62,0,0,1-1.66,1.69" transform="translate(135.29 -1636.86)"/><path class="cls-2" d="M316.59,2138.91a1.57,1.57,0,0,1-1.61-1.69,1.6,1.6,0,0,1,1.61-1.69,1.65,1.65,0,0,1,1.66,1.69,1.62,1.62,0,0,1-1.66,1.69" transform="translate(135.29 -1636.86)"/><rect class="cls-4" width="841.89" height="595.28"/></svg>