<svg id="Capa_1" data-name="Capa 1" xmlns="http://www.w3.org/2000/svg" xmlns:xlink="http://www.w3.org/1999/xlink" viewBox="0 0 617.36 476.97"><defs><style>.cls-1{fill:none;}.cls-2{clip-path:url(#clip-path);}.cls-3{fill:#868686;}.cls-4{fill:#fff;}.cls-5{fill:#fdd31a;}</style><clipPath id="clip-path" transform="translate(1532.73 -762.84)"><rect class="cls-1" x="-1645" y="732.62" width="841.89" height="595.28"/></clipPath></defs><title>inarco-logo-blanco</title><g class="cls-2"><polygon class="cls-3" points="118.24 47.17 169.31 0 220.38 47.17 220.38 231.34 169.31 275.39 118.24 232.55 118.24 47.17"/><polygon class="cls-4" points="169.31 4.72 169.31 275.39 118.24 232.55 118.24 47.17 169.31 0 169.31 4.72"/><g class="cls-2"><path class="cls-5" d="M-1421.44,835.39v77.88s-19.87,19.15-26.13,26.44c-3.24,3.77-7,13.07-.4,20.35,16.56,18.19,53.2,52,72.78,67.12,5.18,4,11.77,8.37,23,0,14.94-11.16,42-37,56-49.23,5-4.4,7.8-8.23,19.72-8.23h52.63c4.82,0,9,5.55,5.11,9.65-29.36,31.28-81.79,89-125.55,113.77-8.42,4.77-25.07,9.59-39.65-.21-38.09-25.61-113.49-92.21-129.38-119.45-3.34-5.73-13.69-26.88.5-47.6,0,0,20.57-29.37,91.36-90.51" transform="translate(1532.73 -762.84)"/><rect class="cls-4" y="361.66" width="25.75" height="79.59"/><polygon class="cls-4" points="42.91 361.67 42.91 441.25 65.33 441.25 65.33 381.24 112.99 441.25 151.44 441.25 151.44 361.67 129.03 361.67 129.03 420.82 81.36 361.67 42.91 361.67"/><path class="cls-4" d="M-1300,1124.5h-32.06l-43.41,79.58h26.53l8.23-15.18h49.51l7.66,15.18h26.81Zm-33.05,48.94,17-30.64,16.81,30.64h-33.76Z" transform="translate(1532.73 -762.84)"/><path class="cls-4" d="M-1161.69,1175.15l-6.49-1.17a64.63,64.63,0,0,0,8.51-3.51c10.11-6.17,7.48-24.48,7.12-27.66-0.51-4.52-2.9-16.31-18.66-18l-77.72-.32v79.59h23.83v-20.85h41.28s7.38-.14,7.38,8.37v12.48h23v-20a9.31,9.31,0,0,0-8.23-8.94m-14.19-16.67c-0.21,5.32-6.45,5.82-6.45,5.82h-43v-20.71h43.05c6.46-.07,6.38,6.31,6.38,6.31v8.58Z" transform="translate(1532.73 -762.84)"/><path class="cls-4" d="M-1060.15,1179.12c-0.85,5.15-8.23,4.74-8.23,4.74h-35.89c-7.66-.28-8.53-9-8.53-9l-0.06-10.83,0.06-10.83s0.87-8.67,8.53-9h35.89s7.38-.42,8.23,4.74v5.85h24.42s0-7,0-11.42c0-9.41-5.28-15.61-11.56-17.28s-8.23-2.11-25.39-2.54c-9.79-.25-27.43-0.41-38.18.47-6.13.51-15.66,2.28-21.33,9.66a31.31,31.31,0,0,0-5.53,17.2v26.19a31.31,31.31,0,0,0,5.53,17.2c5.67,7.38,15.21,9.16,21.33,9.66,10.75,0.89,28.39.72,38.18,0.47,17.16-.43,19.08-0.87,25.39-2.54s11.52-7.86,11.56-17.27c0-4.39,0-11.42,0-11.42h-24.42v5.85Z" transform="translate(1532.73 -762.84)"/><path class="cls-4" d="M-915.38,1144.7c0-9.7-9-20.2-23.25-20.17,0,0-15,0-30.49,0s-30.49,0-30.49,0c-14.23,0-23.26,10.47-23.25,20.17,0,4,0,12,0,19.61s0,15.64,0,19.61c0,9.7,9,20.2,23.25,20.17,0,0,15,0,30.49,0s30.49,0,30.49,0c14.23,0,23.26-10.47,23.25-20.17,0-4,0-12,0-19.61s0-15.64,0-19.61m-23.87,29.7s-0.28,10.15-10.33,10.15h-39.08c-10,0-10.33-10.15-10.33-10.15v-20.17s0.28-10.15,10.33-10.15h39.08c10,0,10.33,10.15,10.33,10.15v20.17Z" transform="translate(1532.73 -762.84)"/><path class="cls-4" d="M-1438.19,1238.4a4.91,4.91,0,0,1-3.62,1.41,4.59,4.59,0,0,1-4.31-2.18,12.37,12.37,0,0,1-1.33-6.31v-0.42a12.55,12.55,0,0,1,1.3-6.26,4.56,4.56,0,0,1,4.23-2.23,4.58,4.58,0,0,1,3.41,1.29,6.51,6.51,0,0,1,1.54,4.06H-1439a5.66,5.66,0,0,0-1-3,2.36,2.36,0,0,0-1.78-.8,2.74,2.74,0,0,0-2.79,1.78,13.71,13.71,0,0,0-.77,5.16v0.56a13,13,0,0,0,.77,5,2.73,2.73,0,0,0,2.74,1.78,2.71,2.71,0,0,0,2.21-1,5.34,5.34,0,0,0,.88-3.35h2.1a6.42,6.42,0,0,1-1.52,4.45" transform="translate(1532.73 -762.84)"/><polygon class="cls-4" points="116.68 476.74 116.68 468.67 111.03 468.67 111.01 476.74 108.93 476.74 108.93 459.81 111.01 459.81 111.01 467.1 116.65 467.12 116.68 459.81 118.75 459.81 118.75 476.74 116.68 476.74"/><rect class="cls-4" x="131.5" y="459.81" width="2.07" height="16.93"/><polygon class="cls-4" points="146.32 476.74 146.32 459.81 148.39 459.81 148.39 475.19 154.65 475.19 154.65 476.74 146.32 476.74"/><polygon class="cls-4" points="166.49 476.74 166.49 459.81 175.27 459.81 175.27 461.36 168.56 461.36 168.56 467.12 173.51 467.12 173.51 468.67 168.56 468.67 168.56 475.19 175.59 475.19 175.59 476.74 166.49 476.74"/><path class="cls-4" d="M-1289.46,1230.67a5.43,5.43,0,0,1-3.72,1.27h-2.45v7.64h-2.08v-16.93h4.47a5.29,5.29,0,0,1,3.75,1.29,4.42,4.42,0,0,1,1.44,3.42,4.28,4.28,0,0,1-1.41,3.3m-1.49-5.65a3.23,3.23,0,0,0-2.34-.82h-2.34v6.19h1.92a4.08,4.08,0,0,0,2.66-.75,2.91,2.91,0,0,0,.9-2.34,3.13,3.13,0,0,0-.8-2.27" transform="translate(1532.73 -762.84)"/><polygon class="cls-4" points="256.29 476.74 256.29 459.81 265.07 459.81 265.07 461.36 258.36 461.36 258.36 467.12 263.31 467.12 263.31 468.67 258.36 468.67 258.36 475.19 265.38 475.19 265.38 476.74 256.29 476.74"/><path class="cls-4" d="M-1247.58,1239.57l-3.09-8-2.71.09v7.92h-2.08v-16.93h4.5a6.24,6.24,0,0,1,4,1.17,4,4,0,0,1,1.46,3.26,4.17,4.17,0,0,1-.85,2.63,4.24,4.24,0,0,1-2.26,1.48l3.25,8.39h-2.18Zm-1-14.7a5.15,5.15,0,0,0-2.9-.67h-1.92V1230h1.81a5.21,5.21,0,0,0,3-.68,2.75,2.75,0,0,0,.93-2.35,2.44,2.44,0,0,0-.93-2.12" transform="translate(1532.73 -762.84)"/><path class="cls-4" d="M-1224.43,1238.59a5.06,5.06,0,0,1-3.64,1.22,5,5,0,0,1-3.62-1.19,4.52,4.52,0,0,1-1.28-3.47v-12.5h2.08v12.78a2.85,2.85,0,0,0,.72,2.09,2.78,2.78,0,0,0,2.1.75,2.69,2.69,0,0,0,2.07-.75,3.09,3.09,0,0,0,.72-2.18v-12.68h2.07v12.45a4.72,4.72,0,0,1-1.22,3.49m-3.83-16.83h-1.3l2.58-3.24h2Z" transform="translate(1532.73 -762.84)"/><path class="cls-4" d="M-1155.33,1230.67a5.43,5.43,0,0,1-3.73,1.27h-2.45v7.64h-2.07v-16.93h4.47a5.3,5.3,0,0,1,3.75,1.29,4.42,4.42,0,0,1,1.43,3.42,4.28,4.28,0,0,1-1.41,3.3m-1.49-5.65a3.23,3.23,0,0,0-2.34-.82h-2.34v6.19h1.92a4.08,4.08,0,0,0,2.66-.75,2.91,2.91,0,0,0,.9-2.34,3.13,3.13,0,0,0-.8-2.27" transform="translate(1532.73 -762.84)"/><path class="cls-4" d="M-1135.4,1239.57l-1.15-5h-4.89l-1.14,5h-2.07l4.23-16.93h2.87l4.26,16.93h-2.1Zm-3.59-15.78-2.15,9.21h4.31Z" transform="translate(1532.73 -762.84)"/><path class="cls-4" d="M-1114.33,1239.57l-3.09-8-2.71.09v7.92h-2.08v-16.93h4.5a6.23,6.23,0,0,1,4,1.17,4,4,0,0,1,1.46,3.26,4.17,4.17,0,0,1-.85,2.63,4.23,4.23,0,0,1-2.26,1.48l3.25,8.39h-2.18Zm-1-14.7a5.15,5.15,0,0,0-2.9-.67h-1.92V1230h1.81a5.21,5.21,0,0,0,3-.68,2.75,2.75,0,0,0,.93-2.35,2.44,2.44,0,0,0-.93-2.12" transform="translate(1532.73 -762.84)"/><path class="cls-4" d="M-1092,1239.57l-1.15-5h-4.9l-1.14,5h-2.08l4.23-16.93h2.87l4.26,16.93h-2.1Zm-3.59-15.78-2.16,9.21h4.31Z" transform="translate(1532.73 -762.84)"/><path class="cls-4" d="M-1070.11,1239.57l-0.27-1.27a4.44,4.44,0,0,1-1.6,1.15,5,5,0,0,1-1.91.35,4.46,4.46,0,0,1-4.18-2.27,12.83,12.83,0,0,1-1.33-6.4,18.28,18.28,0,0,1,.33-3.7,9.71,9.71,0,0,1,1-2.74,4.5,4.5,0,0,1,4.23-2.27,4.68,4.68,0,0,1,3.43,1.31,6.71,6.71,0,0,1,1.65,4.13h-2.08a5.36,5.36,0,0,0-.85-2.91,2.58,2.58,0,0,0-2.15-1,2.67,2.67,0,0,0-2.66,1.78,13.11,13.11,0,0,0-.77,5V1231a15.52,15.52,0,0,0,.72,5.37,2.77,2.77,0,0,0,2.77,1.88,3.2,3.2,0,0,0,2.18-.68,2.52,2.52,0,0,0,.77-1.92v-2.46h-2.61v-1.55h4.71v7.92h-1.36Z" transform="translate(1532.73 -762.84)"/><path class="cls-4" d="M-1047.86,1238.59a5.07,5.07,0,0,1-3.65,1.22,5,5,0,0,1-3.62-1.2,4.52,4.52,0,0,1-1.28-3.47v-12.5h2.08v12.78a2.84,2.84,0,0,0,.72,2.09,2.77,2.77,0,0,0,2.1.75,2.68,2.68,0,0,0,2.08-.75,3.08,3.08,0,0,0,.72-2.18v-12.68h2.08v12.45a4.72,4.72,0,0,1-1.22,3.49" transform="translate(1532.73 -762.84)"/><path class="cls-4" d="M-1026.23,1239.57l-1.15-5h-4.9l-1.15,5h-2.08l4.23-16.93h2.87l4.26,16.93h-2.1Zm-3.59-15.78L-1032,1233h4.31Z" transform="translate(1532.73 -762.84)"/><polygon class="cls-4" points="523.05 469.56 523.05 476.74 520.98 476.74 520.98 469.56 516.48 459.81 518.74 459.81 522.04 467.22 525.24 459.81 527.5 459.81 523.05 469.56"/><path class="cls-4" d="M-1329.41,1234.68A1.57,1.57,0,0,1-1331,1233a1.6,1.6,0,0,1,1.61-1.69,1.65,1.65,0,0,1,1.66,1.69,1.62,1.62,0,0,1-1.66,1.69" transform="translate(1532.73 -762.84)"/><path class="cls-4" d="M-1193.13,1234.68a1.57,1.57,0,0,1-1.61-1.69,1.6,1.6,0,0,1,1.61-1.69,1.65,1.65,0,0,1,1.66,1.69,1.62,1.62,0,0,1-1.66,1.69" transform="translate(1532.73 -762.84)"/></g></g></svg>