<svg id="Capa_1" data-name="Capa 1" xmlns="http://www.w3.org/2000/svg" viewBox="0 0 504.31 512"><defs><style>.cls-1{fill:#fc0;}</style></defs><title>inicio-empresa</title><path class="cls-1" d="M-1018.14-667.48h-302.59a58.91,58.91,0,0,0-58.84,58.84v301.89a58.91,58.91,0,0,0,58.84,58.84h92.46v-16.81h-92.46a42.08,42.08,0,0,1-42-42V-448.95h54a9,9,0,0,0,8.36-9.68,9,9,0,0,0-.66-2.79,33.62,33.62,0,0,1,17.25-44.31,33.62,33.62,0,0,1,44.31,17.25,33.62,33.62,0,0,1,0,27.05,8.72,8.72,0,0,0,4.11,11.62,8.73,8.73,0,0,0,3.59.85h54v50.43a49.2,49.2,0,0,0-8.41-.7,50.43,50.43,0,0,0-50.45,50.41,50.43,50.43,0,0,0,30.28,46.25l6.72-15.4a33.62,33.62,0,0,1-17.42-44.24,33.62,33.62,0,0,1,30.87-20.21,33.21,33.21,0,0,1,13.45,2.84,8.41,8.41,0,0,0,11.07-4.34,8.41,8.41,0,0,0,.7-3.36v-61.69h42.74a49.2,49.2,0,0,0-.71,8.41,50.57,50.57,0,0,0,40.35,49.42l3.36-16.47a33.73,33.73,0,0,1-26.9-33,33.21,33.21,0,0,1,2.84-13.45,8.41,8.41,0,0,0-4.34-11.07,8.41,8.41,0,0,0-3.36-.7h-54V-508.5a49.2,49.2,0,0,0,8.41.71,50.43,50.43,0,0,0,50.43-50.43,50.43,50.43,0,0,0-50.43-50.43,49.21,49.21,0,0,0-8.41.71v-42.74h142.89a42.08,42.08,0,0,1,42,42v142.89h-54a8.41,8.41,0,0,0-8.4,8.41,8.41,8.41,0,0,0,.7,3.36,33.21,33.21,0,0,1,2.84,13.45h16.81a49.21,49.21,0,0,0-.71-8.41h51.15a8.41,8.41,0,0,0,8.41-8.41V-608.65A58.91,58.91,0,0,0-1018.14-667.48Zm-134.48,75.65A33.62,33.62,0,0,1-1119-558.21a33.62,33.62,0,0,1-33.62,33.62,33.21,33.21,0,0,1-13.45-2.84,8.41,8.41,0,0,0-11.07,4.34,8.41,8.41,0,0,0-.7,3.36v53.28h-42.68a49.08,49.08,0,0,0,.66-7.71v-0.7a50.43,50.43,0,0,0-50.43-50.43,50.43,50.43,0,0,0-50.43,50.43v0.7a49.08,49.08,0,0,0,.66,7.71h-42.68V-608.65a42.08,42.08,0,0,1,42-42h142.89v54a8.41,8.41,0,0,0,8.41,8.4,8.41,8.41,0,0,0,3.36-.7A33.21,33.21,0,0,1-1152.62-591.84Z" transform="translate(1379.56 667.48)"/><path class="cls-1" d="M-893.23-306.21l-70.66-48.66L-991-427.38a8.4,8.4,0,0,0-10.81-4.95l-0.46.19L-1056.94-408a8.41,8.41,0,0,0-4.45,10.69c0.91,2.35,1.76,4.14,2.66,6A64.11,64.11,0,0,1-1056-385a33.83,33.83,0,0,1-19.66,43.48,33.62,33.62,0,0,1-43.27-19.71,33.61,33.61,0,0,1-2.08-13.66,8.41,8.41,0,0,0-8-8.83,8.41,8.41,0,0,0-3.41.53l-58.4,22a8.4,8.4,0,0,0-4.91,10.81l21,56a47.37,47.37,0,0,0-8.15,2.25,50.54,50.54,0,0,0-29.71,65,50.54,50.54,0,0,0,65,29.71,50.46,50.46,0,0,0,7.78-3.68l15,40.14a8.4,8.4,0,0,0,10.82,4.92h0l83.28-31.38A45.14,45.14,0,0,0-1004-163.63l5.31-16a28.34,28.34,0,0,1-16.07-13.73l25.34-9.54a58.66,58.66,0,0,0,55.35,39v-16.81a42.29,42.29,0,0,1-42-42,8.4,8.4,0,0,0-2.46-5.94l-29.27-29.27a12.47,12.47,0,0,1-1.15-16.21,12.24,12.24,0,0,1,9-4.93,12.05,12.05,0,0,1,9.65,3.61l58.69,58.69,11.89-11.89L-937.1-246a58.63,58.63,0,0,0-.75-39.29l-15.75-42.07,50.79,35a25.27,25.27,0,0,1,10.75,20.66v108.57h16.81V-271.74A42.1,42.1,0,0,0-893.23-306.21Zm-60.37,26.8a42.12,42.12,0,0,1,2.45,19.36l-27.28-27.27a29.21,29.21,0,0,0-41.3-.52,29.21,29.21,0,0,0-.52,41.3l0.52,0.52,26.59,26.59-118.78,44.74-16-42.81a8.4,8.4,0,0,0-6-5.25,8.52,8.52,0,0,0-1.82-.2,8.41,8.41,0,0,0-5.88,2.4,33.62,33.62,0,0,1-47.53-1.35,33.62,33.62,0,0,1,1.35-47.53,33.63,33.63,0,0,1,11-6.92,32.35,32.35,0,0,1,8.31-1.88,29.84,29.84,0,0,1,5.27-.18,8.41,8.41,0,0,0,8.83-8,8.39,8.39,0,0,0-.52-3.39l-22-58.62,40-15.07a50.43,50.43,0,0,0,59,40,50.39,50.39,0,0,0,8.2-2.31,50.65,50.65,0,0,0,29.48-65.09c-0.77-2.07-1.47-3.71-2.14-5.17l38.66-17.12Z" transform="translate(1379.56 667.48)"/></svg>