<svg id="Capa_1" data-name="Capa 1" xmlns="http://www.w3.org/2000/svg" viewBox="0 0 402.54 512"><defs><style>.cls-1{fill:#fc0;}</style></defs><title>innovacion-nosotros</title><g id="_13_idea" data-name="13 idea"><path class="cls-1" d="M1156.65,780.23a7.56,7.56,0,0,0,7.56-7.56V738.76a7.56,7.56,0,0,0-15.11,0v33.92A7.56,7.56,0,0,0,1156.65,780.23Z" transform="translate(-955.38 -731.21)"/><path class="cls-1" d="M1288.28,790.16l-24,24A7.56,7.56,0,0,0,1275,824.83l24-24a7.56,7.56,0,1,0-10.69-10.69h0Z" transform="translate(-955.38 -731.21)"/><path class="cls-1" d="M1038.31,1040.13l-24,24A7.56,7.56,0,1,0,1025,1074.8l24-24A7.56,7.56,0,0,0,1038.31,1040.13Z" transform="translate(-955.38 -731.21)"/><path class="cls-1" d="M1038.31,824.83A7.56,7.56,0,0,0,1049,814.14l-24-24a7.56,7.56,0,1,0-10.69,10.69Z" transform="translate(-955.38 -731.21)"/><path class="cls-1" d="M1275,1040.13a7.56,7.56,0,1,0-10.69,10.69l24,24a7.56,7.56,0,0,0,10.69-10.69Z" transform="translate(-955.38 -731.21)"/><path class="cls-1" d="M996.85,924.92H962.94a7.56,7.56,0,1,0,0,15.11h33.92A7.56,7.56,0,0,0,996.85,924.92Z" transform="translate(-955.38 -731.21)"/><path class="cls-1" d="M1350.37,924.92h-33.92a7.56,7.56,0,0,0,0,15.11h33.92A7.56,7.56,0,0,0,1350.37,924.92Z" transform="translate(-955.38 -731.21)"/><path class="cls-1" d="M1217.4,1139.45a7.56,7.56,0,0,0,0-15.11h-2.73V1098.8l0.14-.86a107.11,107.11,0,0,1,8.23-26.83,7.56,7.56,0,0,0-13.75-6.28,122.5,122.5,0,0,0-8.47,25.79h-88.59a122.45,122.45,0,0,0-37.79-66.41A122.84,122.84,0,0,1,1034.21,946a7.56,7.56,0,1,0-15,1.64,137.93,137.93,0,0,0,45.18,87.85,107.49,107.49,0,0,1,33.84,62.22l0.19,1.13v25.54h-2.48a7.56,7.56,0,0,0,0,15.11h2.48v18.61h-2.48a7.56,7.56,0,0,0,0,15.11h2.48v13a20.78,20.78,0,0,0,13.63,19.48,44.36,44.36,0,0,0,24.68,36.8,7.56,7.56,0,1,0,6.72-13.53,29.34,29.34,0,0,1-16.06-22h58.33a29.33,29.33,0,0,1-16.06,22,7.56,7.56,0,1,0,6.72,13.53,44.36,44.36,0,0,0,24.68-36.8,20.78,20.78,0,0,0,13.63-19.48v-13h2.73a7.56,7.56,0,1,0,0-15.11h-2.73v-18.61h2.73Zm-103.9-33.72h86.06v18.61h-86.06v-18.61Zm86.06,80.4a5.66,5.66,0,0,1-5.66,5.66h-74.75a5.66,5.66,0,0,1-5.66-5.66v-13h86.06v13Zm0-28.07H1113.5v-18.61h86.06v18.61Z" transform="translate(-955.38 -731.21)"/><path class="cls-1" d="M1156.65,971.24a38.76,38.76,0,1,0-38.76-38.76A38.8,38.8,0,0,0,1156.65,971.24Zm0-62.4A23.65,23.65,0,1,1,1133,932.48,23.67,23.67,0,0,1,1156.65,908.83Z" transform="translate(-955.38 -731.21)"/><path class="cls-1" d="M1073.38,908.91a12.61,12.61,0,0,0-12.59,12.59v21.94A12.61,12.61,0,0,0,1073.38,956h15.08a71.78,71.78,0,0,0,3.31,8l-10.67,10.67a12.61,12.61,0,0,0,0,17.81l15.52,15.52a12.61,12.61,0,0,0,17.81,0l10.67-10.67a71.78,71.78,0,0,0,8,3.31v15.08a12.61,12.61,0,0,0,12.59,12.59h21.94a12.61,12.61,0,0,0,12.59-12.59v-15.08a71.79,71.79,0,0,0,8-3.31l10.67,10.67a12.59,12.59,0,0,0,17.81,0l15.52-15.52a12.61,12.61,0,0,0,0-17.81L1221.53,964a71.4,71.4,0,0,0,3.31-8h15.08a12.61,12.61,0,0,0,12.59-12.59V921.51a12.61,12.61,0,0,0-12.59-12.59h-15.08a71.66,71.66,0,0,0-3.31-8l10.67-10.67a12.61,12.61,0,0,0,0-17.81l-15.52-15.52a12.6,12.6,0,0,0-17.81,0L1188.2,867.6a71.59,71.59,0,0,0-8-3.31V849.21a12.61,12.61,0,0,0-12.59-12.59h-21.94a12.61,12.61,0,0,0-12.59,12.59v15.08a71.59,71.59,0,0,0-8,3.31l-10.67-10.67a12.61,12.61,0,0,0-17.81,0l-15.52,15.52a12.61,12.61,0,0,0,0,17.81l10.67,10.67a71.79,71.79,0,0,0-3.31,8h-15.08Zm33.05-14.7-12.86-12.86,12-12,12.86,12.86a7.56,7.56,0,0,0,9.2,1.15,56.63,56.63,0,0,1,14.92-6.19,7.56,7.56,0,0,0,5.69-7.32V851.73h16.91v18.18a7.56,7.56,0,0,0,5.69,7.32,56.61,56.61,0,0,1,14.92,6.19,7.56,7.56,0,0,0,9.2-1.15l12.86-12.86,12,12-12.86,12.86a7.56,7.56,0,0,0-1.15,9.2,56.62,56.62,0,0,1,6.19,14.92,7.56,7.56,0,0,0,7.32,5.69h18.18v16.91h-18.18a7.56,7.56,0,0,0-7.32,5.69,56.6,56.6,0,0,1-6.19,14.92,7.56,7.56,0,0,0,1.15,9.2l12.86,12.86-12,12-12.86-12.86a7.55,7.55,0,0,0-9.2-1.15,56.64,56.64,0,0,1-14.92,6.19,7.56,7.56,0,0,0-5.69,7.32v18.18H1148.2V995.05a7.56,7.56,0,0,0-5.69-7.32,56.69,56.69,0,0,1-14.92-6.19,7.56,7.56,0,0,0-9.2,1.15l-12.86,12.86-12-12,12.86-12.86a7.56,7.56,0,0,0,1.15-9.2,56.65,56.65,0,0,1-6.19-14.92,7.56,7.56,0,0,0-7.32-5.69H1075.9V924h18.18a7.56,7.56,0,0,0,7.32-5.69,56.65,56.65,0,0,1,6.19-14.92,7.56,7.56,0,0,0-1.15-9.2h0Z" transform="translate(-955.38 -731.21)"/><path class="cls-1" d="M1255,835.27A138.62,138.62,0,0,0,1019.48,915a7.56,7.56,0,0,0,15,1.93,123.17,123.17,0,1,1,205,106.64,130.1,130.1,0,0,0-11.16,11.48,7.56,7.56,0,1,0,11.47,9.84,115,115,0,0,1,9.86-10.14A138.28,138.28,0,0,0,1255,835.27h0Z" transform="translate(-955.38 -731.21)"/></g></svg>