<svg id="Capa_1" data-name="Capa 1" xmlns="http://www.w3.org/2000/svg" viewBox="0 0 308.38 104.83"><defs><style>.cls-1{fill:#1e2b4e;}</style></defs><title>LOGOS-EDIFICIOS</title><path class="cls-1" d="M343.27-150.1l-1.38-3.26h-6.82l-1.38,3.26h-2.43l6.17-14h2.09l6.17,14h-2.43Zm-4.79-11.28-2.53,6H341Z" transform="translate(-242.94 164.41)"/><path class="cls-1" d="M361.55-150.1h-9.9v-14h2.24v12h7.66v2Z" transform="translate(-242.94 164.41)"/><path class="cls-1" d="M374.18-162.09v12h-2.26v-12H367v-2h12.11v2h-4.94Z" transform="translate(-242.94 164.41)"/><path class="cls-1" d="M399.42-157.09a7.24,7.24,0,0,1-7.32,7.28,7.22,7.22,0,0,1-7.3-7.28,7.25,7.25,0,0,1,7.3-7.32A7.26,7.26,0,0,1,399.42-157.09Zm-2.26,0a5,5,0,0,0-5.06-5.21,5,5,0,0,0-5,5.21,5,5,0,0,0,5,5.17A5,5,0,0,0,397.16-157.09Z" transform="translate(-242.94 164.41)"/><path class="cls-1" d="M416.55-160.46l-2.24.46a3,3,0,0,0-3.2-2.47c-1.65,0-2.74.9-2.74,2.13,0,1,.56,1.51,1.78,1.76l3,0.65c2.09,0.46,3.6,1.63,3.6,3.83,0,2.64-2.15,4.29-5.38,4.29-3,0-5.44-1.44-5.79-4.16l2.38-.5c0.34,1.8,1.74,2.68,3.62,2.68s3-.9,3-2.18c0-1.07-.56-1.57-2-1.86l-3.05-.63c-1.74-.4-3.53-1.32-3.53-3.81s2-4.14,5.15-4.14C414-164.41,416.05-162.86,416.55-160.46Z" transform="translate(-242.94 164.41)"/><path class="cls-1" d="M438-164.12c4.77,0,7.74,2.93,7.74,7s-3,7-7.74,7h-4.9v-14H438Zm0,12c3.41,0,5.48-2.07,5.48-5s-2.07-5-5.48-5h-2.66v10H438Z" transform="translate(-242.94 164.41)"/><path class="cls-1" d="M463-150.1H452.55v-14H463v2H454.8v4h7.55v2H454.8v4H463v2Z" transform="translate(-242.94 164.41)"/><path class="cls-1" d="M439-87.3a0.41,0.41,0,0,1-.47-0.47v-47.59a0.41,0.41,0,0,1,.47-0.47h8.25a0.41,0.41,0,0,1,.47.47v47.59a0.41,0.41,0,0,1-.47.47H439Z" transform="translate(-242.94 164.41)"/><path class="cls-1" d="M463.06-88l23.76-47.53a0.72,0.72,0,0,1,.47-0.27h10a0.47,0.47,0,0,1,.47.27L521.57-88a0.52,0.52,0,0,1,0,.53,0.49,0.49,0,0,1-.43.27H512a0.48,0.48,0,0,1-.47-0.33l-4-8a0.48,0.48,0,0,0-.47-0.27H477.51a0.43,0.43,0,0,0-.4.27l-4,8a0.56,0.56,0,0,1-.47.33h-9.12a0.47,0.47,0,0,1-.47-0.27A0.55,0.55,0,0,1,463.06-88Zm19.24-17h20a0.32,0.32,0,0,0,.3-0.17,0.22,0.22,0,0,0,0-.3l-10.05-20.1c-0.09-.22-0.2-0.22-0.33,0L482-105.47C481.94-105.16,482-105,482.3-105Z" transform="translate(-242.94 164.41)"/><path class="cls-1" d="M242.94-72.65S277.8-95,341-90.79c0,0,23.48,1.51,73.19,10.39,0,0,40.86,7.62,70.84,8.07,0,0,31.16,1.76,66.32-11.54,0,0-9.83,8.18-41.9,13.74,0,0-31.21,4.64-73.82.1,0,0-32.89-3.34-66.84-6.88a271.1,271.1,0,0,0-66.33,1.65s-31.51,4.08-46.86,15.69Z" transform="translate(-242.94 164.41)"/><path class="cls-1" d="M380.06-92.15v-13.26a0.35,0.35,0,0,1,.4-0.4h16.31a0.39,0.39,0,0,1,.27.13l16.77,18.24a0.37,0.37,0,0,0,.27.13h10.78a0.32,0.32,0,0,0,.3-0.2,0.26,0.26,0,0,0,0-.33l-16.31-17.77c-0.13-.13-0.11-0.2.07-0.2a16.94,16.94,0,0,0,6-1.16,14.45,14.45,0,0,0,4.76-3,14,14,0,0,0,3.13-4.53,14,14,0,0,0,1.13-5.66,15.15,15.15,0,0,0-1.17-5.82,16.67,16.67,0,0,0-3.19-5,15.35,15.35,0,0,0-4.79-3.49,14,14,0,0,0-6-1.3H371.27a0.35,0.35,0,0,0-.4.4v42Q375.15-92.88,380.06-92.15Zm0-34.09a0.35,0.35,0,0,1,.4-0.4h28.22a4.85,4.85,0,0,1,2.19.53,7.43,7.43,0,0,1,1.93,1.4,6.45,6.45,0,0,1,1.36,2,6.29,6.29,0,0,1,.5,2.5,4.88,4.88,0,0,1-.53,2.33,4.76,4.76,0,0,1-1.4,1.63,6,6,0,0,1-1.93.93,7.81,7.81,0,0,1-2.13.3H380.46a0.35,0.35,0,0,1-.4-0.4v-10.85Z" transform="translate(-242.94 164.41)"/><path class="cls-1" d="M352.24-95.83v-39.53a0.41,0.41,0,0,0-.47-0.47h-8.25a0.41,0.41,0,0,0-.47.47v38.61C344.88-96.6,347.93-96.31,352.24-95.83Z" transform="translate(-242.94 164.41)"/><path class="cls-1" d="M291.46-96.19A71.27,71.27,0,0,1,283.34-98a39.09,39.09,0,0,1-5.66-2q-2.19-1-3.13-1.56a0.13,0.13,0,0,1-.1,0,0.14,0.14,0,0,0-.1,0c-0.22,0-.33.16-0.33,0.47l1,9.82a185.87,185.87,0,0,1,21.92-4.26C295-95.71,293.15-95.91,291.46-96.19Z" transform="translate(-242.94 164.41)"/><path class="cls-1" d="M273.86-115.62a12.07,12.07,0,0,0,2.53,3.23,16.32,16.32,0,0,0,4.66,2.9,33.35,33.35,0,0,0,7.39,2.1,62.12,62.12,0,0,0,10.82.8,81,81,0,0,1,8.72.4,34.4,34.4,0,0,1,5.92,1.1,9.71,9.71,0,0,1,3.4,1.6,2.52,2.52,0,0,1,1.06,1.9q0,2.76-4.24,4.44c4.21-.21,8.62-0.3,13.18-0.26a9.24,9.24,0,0,0,.52-1.69,13,13,0,0,0,.27-2.16,10.79,10.79,0,0,0-1.46-5.72,13.08,13.08,0,0,0-3.86-4,20,20,0,0,0-5.46-2.56A45.73,45.73,0,0,0,311-115a56.55,56.55,0,0,0-6.26-.63q-3.06-.13-5.53-0.13a50.89,50.89,0,0,1-12.78-1.26q-4.66-1.26-4.66-4.06a4.26,4.26,0,0,1,.7-2.16,6.16,6.16,0,0,1,2.83-2.13,25.69,25.69,0,0,1,6-1.63,62,62,0,0,1,10.12-.67,43.53,43.53,0,0,1,7.35.6,56.5,56.5,0,0,1,6.42,1.46,41.41,41.41,0,0,1,5.09,1.83,31.14,31.14,0,0,1,3.36,1.7,0.13,0.13,0,0,1,.1,0,0.13,0.13,0,0,0,.1,0c0.31,0,.42-0.13.33-0.4l-0.67-9.92c0-.18-0.07-0.27-0.2-0.27q-0.53-.27-2.33-1a41.84,41.84,0,0,0-4.66-1.43q-2.86-.73-6.62-1.3a56.08,56.08,0,0,0-8.29-.57,75.49,75.49,0,0,0-10.15.7,35.77,35.77,0,0,0-9.28,2.46,18.1,18.1,0,0,0-6.76,4.83,11.53,11.53,0,0,0-2.63,7.79,18.56,18.56,0,0,0,.2,2.4A9.72,9.72,0,0,0,273.86-115.62Z" transform="translate(-242.94 164.41)"/></svg>