<svg id="Capa_1" data-name="Capa 1" xmlns="http://www.w3.org/2000/svg" viewBox="0 0 139.71 139.71"><defs><style>.cls-1,.cls-2{fill:#1e2b4e;}.cls-2{stroke:#1e2b4e;stroke-miterlimit:10;stroke-width:1.4px;}</style></defs><title>logos-garay</title><path class="cls-1" d="M1162.69-133.21a9.31,9.31,0,0,1,.08,1.17,6.46,6.46,0,0,1-6.68,6.72,6.75,6.75,0,0,1-6.95-6.73,6.74,6.74,0,0,1,6.89-6.73c2.87,0,5.39,1.35,6.29,3.87l-3.06.88a3.32,3.32,0,0,0-3.23-1.85,3.69,3.69,0,0,0-3.69,3.83,3.74,3.74,0,0,0,3.79,3.85,3.38,3.38,0,0,0,3.41-2.31h-3.94v-2.69h7.1Z" transform="translate(-1121.43 202.86)"/><path class="cls-1" d="M1177.94-125.61L1177-128h-5.43l-0.9,2.35h-3.41l5.39-12.89h3.25l5.39,12.89h-3.39Zm-3.62-9.31-1.64,4.23H1176Z" transform="translate(-1121.43 202.86)"/><path class="cls-1" d="M1194.27-125.61l-3.89-4.43h-0.92v4.43h-3.17V-138.5h6.52c2.79,0,4.64,1.69,4.64,4.21a4,4,0,0,1-3.39,4.1l4,4.58h-3.83Zm-1.81-7.08a1.62,1.62,0,0,0,1.87-1.56,1.62,1.62,0,0,0-1.87-1.54h-3v3.1h3Z" transform="translate(-1121.43 202.86)"/><path class="cls-1" d="M1212.73-125.61l-0.9-2.35h-5.43l-0.9,2.35h-3.41l5.39-12.89h3.25l5.39,12.89h-3.39Zm-3.62-9.31-1.64,4.23h3.29Z" transform="translate(-1121.43 202.86)"/><path class="cls-1" d="M1228.31-125.61h-3.23v-4l-5-8.89h3.46l3.17,5.66,3.14-5.66h3.54l-5.1,8.85v4Z" transform="translate(-1121.43 202.86)"/><path class="cls-1" d="M1163.65-82.3a18.47,18.47,0,0,1-12.6,4.4c-7.53-.06-12-3.35-14-5.63a14.3,14.3,0,0,1-2.79-5.13l5.24-1.12a12,12,0,0,0,2.51,3.9,13.13,13.13,0,0,0,9.42,3.51,14.77,14.77,0,0,0,5.46-1,9.64,9.64,0,0,0,5.8-8.92,8.71,8.71,0,0,0-2.45-6.3c-2.9-2.84-7.36-3.07-8.42-3.07-4,0-8.25,1.62-10.7,4.85a6.43,6.43,0,0,0-.95,1.51l-4.29-.84L1137-117h29.44l-0.28,4.74h-25l-0.61,10.2a17.88,17.88,0,0,1,2.45-1.73,20.05,20.05,0,0,1,9.48-2.29c1.9,0,10.31.33,14.11,7a12.6,12.6,0,0,1,1.67,6.41A13.72,13.72,0,0,1,1163.65-82.3Z" transform="translate(-1121.43 202.86)"/><path class="cls-1" d="M1204-82c-4.4,4.13-11.6,4.07-12.93,4.07a28.2,28.2,0,0,1-4.24-.28c-3.35-.45-6.08-1.12-8.7-3.29a10.91,10.91,0,0,1-2.4-2.73,17.33,17.33,0,0,1-2-4.85l5.24-1.23a9.47,9.47,0,0,0,1.23,3.46c2.23,3.62,7.08,4.4,10.93,4.4,7.64-.06,10.43-3.62,10.37-7.47a6.63,6.63,0,0,0-1.67-4.46c-2.23-2.4-6.69-2.45-13.44-2.29l-0.06-4.18a64.84,64.84,0,0,0,6.58-.11c2.17-.22,4.24-0.56,5.8-2.23a4.89,4.89,0,0,0,1.28-3.4,6.28,6.28,0,0,0-1.17-3.62c-2.34-3.35-7.25-3.29-8.2-3.29-5,0-7.86,2.17-9,3.9a7,7,0,0,0-1.23,3.57l-5.13-.95a17.17,17.17,0,0,1,1.17-3.62c1.73-3.57,5.52-7.19,14.11-7.19,1.45,0,6.3-.06,10.48,2.51a9.53,9.53,0,0,1,4.68,8.25,7.88,7.88,0,0,1-3.07,6.41,10.19,10.19,0,0,1-2.73,1.28,17.4,17.4,0,0,1,2.06.95,9.57,9.57,0,0,1,5.3,8.81A10.11,10.11,0,0,1,1204-82Z" transform="translate(-1121.43 202.86)"/><path class="cls-1" d="M1240.54-80.57a17.69,17.69,0,0,1-9.76,2.79,16.71,16.71,0,0,1-9.87-3,23.06,23.06,0,0,1-2.51-2.34,19.53,19.53,0,0,1-4.52-10.09,32.68,32.68,0,0,1-.45-4.91,22.3,22.3,0,0,1,4.46-13.83c1.73-2.17,5.69-5.8,12.88-5.91a16.36,16.36,0,0,1,10.2,3.12,15.19,15.19,0,0,1,3.12,3.07c1.73,2.29,4.18,6.91,4.18,14C1248.29-95.23,1248.07-85.64,1240.54-80.57Zm-0.11-27.15a10.43,10.43,0,0,0-2.23-2.73,10.22,10.22,0,0,0-7.47-2.84,10.88,10.88,0,0,0-6.3,2.23c-2.79,2.17-5.35,6.08-5.35,13.66a18.77,18.77,0,0,0,1.39,7.64,14.37,14.37,0,0,0,1.39,2.62,10.69,10.69,0,0,0,9,4.85,10.91,10.91,0,0,0,8.08-3.57c1.84-2.06,3.74-5.58,3.74-11.82C1242.71-98.91,1242.71-103.82,1240.43-107.72Z" transform="translate(-1121.43 202.86)"/><path class="cls-2" d="M1260.43-63.85h-138.3v-138.3h138.3v138.3ZM1124-65.75h134.51V-200.26H1124V-65.75Z" transform="translate(-1121.43 202.86)"/></svg>