<svg id="Capa_1" data-name="Capa 1" xmlns="http://www.w3.org/2000/svg" viewBox="0 0 283.48 141.31"><defs><style>.cls-1{fill:#1e2b4e;}</style></defs><title>logo-eyzaguirre</title><path class="cls-1" d="M679.72-196.39h13.09a49.91,49.91,0,0,0-6,3,20.46,20.46,0,0,1-13.26,2.47q7.19,4.42,14.67,8.34c18.75-18.49,32-7.16,32-7.16s-6.31-1.92-15.33,3.59a25.47,25.47,0,0,1-16,3.9c1,0.52,2,1,3,1.55,3.92,2,8.25,4,12,6.88,14.42-9.44,30.8-3.24,30.8-3.24-15.09,7.28-27.25,4.53-30.3,3.64A22.94,22.94,0,0,1,711-165c1.7,0.4,7.87,2.39,9.32,10.69,1.69,9.66-3.43,12.2-6.39,12.68-3.13.51-7.07-2.44-8.22-9.79-1.42-9.1,3.53-12.83,4.62-13.53-0.88-1.6-4.47-7.62-10.19-10.54l-1.42-.73a10.4,10.4,0,0,1,.39,7.33c1.8,1.21,4.94,4.81,2.87,11.09a8.09,8.09,0,0,1-8.69,5.86c-3.74-1-7.07-4.61-5.32-11.28s8.9-6.81,10.66-5.95a10.22,10.22,0,0,0-.47-7.34c-5.24-2.74-14-7.48-19.72-10.54a14.78,14.78,0,0,1,2.14,5.49c2.35,0.8,5.28,4.08,5.23,11-0.05,8.36-6.73,8.11-6.73,8.11-2.78-.2-5.78-1.76-5.8-8.5s4-11,6.41-10.79l0.32,0a15.08,15.08,0,0,0-2.48-5.84c-2.22-1.19-3.84-2-4.36-2.31-0.16-.08-0.42-0.23-0.74-0.42v-6.07h7.29Z" transform="translate(-672.07 196.39)"/><path class="cls-1" d="M750-191.51a37,37,0,0,1-.75,8.7,20,20,0,0,1-9.51,12.51l0.91-5.37a15.37,15.37,0,0,1,.88-3.48,16.5,16.5,0,0,1,1.67-2.78,111.09,111.09,0,0,0,6.43-10.62c-0.47-1.28-1-2.56-1.58-3.84h0.6a43.94,43.94,0,0,1,4.55,14.68,6.69,6.69,0,0,0,1.64,1.39,5.12,5.12,0,0,1,2.37-2.15,9.47,9.47,0,0,1,4.19-.71,12.31,12.31,0,0,1,8.21,2.94,6.46,6.46,0,0,1,1.88,3,4.15,4.15,0,0,1-.51,3.41,5.57,5.57,0,0,1-1.95,1.59,11.47,11.47,0,0,1-8.71,1.13,8.37,8.37,0,0,1-5.85-6.26,5,5,0,0,1,0-2,3.76,3.76,0,0,1,.18-0.55,7.69,7.69,0,0,1-1.39-1,25.79,25.79,0,0,1-.25,5.86,22.92,22.92,0,0,1-1.21,4.36l0.21,0.1a7.78,7.78,0,0,1,3.87,6.47,12.11,12.11,0,0,1-2.33,7.38,9.58,9.58,0,0,1-4.34,3.72,5.2,5.2,0,0,1-5.42-.92,6.32,6.32,0,0,1-1.57-3.78,13.34,13.34,0,0,1,6.19-12.7,4.07,4.07,0,0,1,1.57-.63,3.12,3.12,0,0,1,1.51.23,27.83,27.83,0,0,0,.78-11.44A48.82,48.82,0,0,0,750-191.51Z" transform="translate(-672.07 196.39)"/><path class="cls-1" d="M758.51-194.83c0.75,0.38,1.47.81,2.19,1.24s1.62,1,2.42,1.48c2.17,1.4,4.35,3.08,6.93,3.27a8.28,8.28,0,0,1-3.45.45c-3.24-.05-6.56-0.23-9.51-1.58a22.14,22.14,0,0,1-3.24-1.92,21.93,21.93,0,0,1-5.1-4.5h5.66A20.32,20.32,0,0,1,758.51-194.83Z" transform="translate(-672.07 196.39)"/><path class="cls-1" d="M734.32-195.92c0-.16.08-0.32,0.11-0.47h6.27a25.61,25.61,0,0,1-1,4.67c-0.32,1-.71,2-1.09,3l-1.36,3.47a0.3,0.3,0,0,1-.15.19,0.3,0.3,0,0,1-.28-0.13c-1.9-2.08-2.42-5.06-2.58-7.87A14,14,0,0,1,734.32-195.92Z" transform="translate(-672.07 196.39)"/><path class="cls-1" d="M758.62-133v15.79h-3V-133h-6.47v-2.67h16V-133h-6.5Z" transform="translate(-672.07 196.39)"/><path class="cls-1" d="M794.6-126.42a9.54,9.54,0,0,1-9.64,9.59,9.51,9.51,0,0,1-9.62-9.59,9.54,9.54,0,0,1,9.62-9.64A9.57,9.57,0,0,1,794.6-126.42Zm-3,0a6.65,6.65,0,0,0-6.67-6.86,6.64,6.64,0,0,0-6.64,6.86,6.61,6.61,0,0,0,6.64,6.81A6.62,6.62,0,0,0,791.62-126.42Z" transform="translate(-672.07 196.39)"/><path class="cls-1" d="M818.54-117.21L812-124.57h-2.67v7.36h-2.95v-18.46H815c3.8,0,6.34,2.23,6.34,5.57,0,3.17-2.32,5.32-5.81,5.51l6.67,7.38h-3.67Zm-3.53-10c2,0,3.39-1.16,3.39-2.87S817.05-133,815-133h-5.73v5.76H815Z" transform="translate(-672.07 196.39)"/><path class="cls-1" d="M845.31-117.21l-6.58-7.36h-2.67v7.36h-2.95v-18.46h8.68c3.8,0,6.34,2.23,6.34,5.57,0,3.17-2.32,5.32-5.81,5.51l6.67,7.38h-3.67Zm-3.53-10c2,0,3.39-1.16,3.39-2.87s-1.35-2.89-3.39-2.89h-5.73v5.76h5.73Z" transform="translate(-672.07 196.39)"/><path class="cls-1" d="M873.64-117.21H859.89v-18.46h13.72V-133H862.83v5.21h9.95v2.65h-9.95v5.26h10.8v2.67Z" transform="translate(-672.07 196.39)"/><path class="cls-1" d="M702.45-72.56v5.91H672.07v-40.79h30.32v5.91H678.59V-90h22v5.85h-22v11.63h23.87Z" transform="translate(-672.07 196.39)"/><path class="cls-1" d="M736.42-96.92L718.34-56.31h-7.06l4.93-11.08-13-29.53h7.06l9.44,21.8,9.68-21.8h7.06Z" transform="translate(-672.07 196.39)"/><path class="cls-1" d="M762.48-71.89v5.24H736v-4.2l18-20.76H736.49v-5.24h25.27v4.26l-18,20.7h18.69Z" transform="translate(-672.07 196.39)"/><path class="cls-1" d="M795.6-96.86v30.2h-6.33v-3.47a14.48,14.48,0,0,1-11,4.32,14.31,14.31,0,0,1-10.56-4.48,15.65,15.65,0,0,1-4.41-11.48,15.62,15.62,0,0,1,4.44-11.45,14.3,14.3,0,0,1,10.53-4.51,14.48,14.48,0,0,1,11,4.32v-3.47h6.33ZM779.35-71.41a9.67,9.67,0,0,0,6.94-2.89,9.93,9.93,0,0,0,3-7.46,9.93,9.93,0,0,0-3-7.46,9.67,9.67,0,0,0-6.94-2.89,9.52,9.52,0,0,0-7.06,2.83,10.22,10.22,0,0,0-2.8,7.52,10.22,10.22,0,0,0,2.8,7.52A9.52,9.52,0,0,0,779.35-71.41Z" transform="translate(-672.07 196.39)"/><path class="cls-1" d="M830.31-96.86v27.52q0,6.7-4.23,10.47t-11.41,3.77q-10.84,0-14.73-7.25l5.18-3.84A12.07,12.07,0,0,0,809-62.09a11,11,0,0,0,5.63,1.28,9.47,9.47,0,0,0,6.91-2.53,9.22,9.22,0,0,0,2.59-6.91V-72.2q-3.59,3.78-10.41,3.77a14.49,14.49,0,0,1-10.35-4.26A13.87,13.87,0,0,1,799-83.09a13.72,13.72,0,0,1,4.41-10.35,14.56,14.56,0,0,1,10.38-4.2q6.82,0,10.41,3.77v-3h6.15Zm-15.53,23a9.34,9.34,0,0,0,6.61-2.59,8.64,8.64,0,0,0,2.77-6.61,8.62,8.62,0,0,0-2.77-6.64,9.4,9.4,0,0,0-6.61-2.56,9.87,9.87,0,0,0-6.91,2.53,8.59,8.59,0,0,0-2.77,6.67,8.61,8.61,0,0,0,2.77,6.64A9.8,9.8,0,0,0,814.78-73.9Z" transform="translate(-672.07 196.39)"/><path class="cls-1" d="M864.4-96.86v30.2h-6.33v-3.71a12.88,12.88,0,0,1-10.41,4.57,11.45,11.45,0,0,1-8.8-3.56,13.07,13.07,0,0,1-3.32-9.28v-18.2h6.33v16.93a8.83,8.83,0,0,0,2,6,6.62,6.62,0,0,0,5.27,2.28,8.08,8.08,0,0,0,6.58-2.86q2.38-2.86,2.37-8.4V-96.86h6.33Z" transform="translate(-672.07 196.39)"/><path class="cls-1" d="M874-109.88a3.89,3.89,0,0,1,2.86,1.16,3.81,3.81,0,0,1,1.16,2.8,3.74,3.74,0,0,1-1.13,2.8A4,4,0,0,1,874-102a4.08,4.08,0,0,1-2.92-1.1,3.68,3.68,0,0,1-1.16-2.8,3.81,3.81,0,0,1,1.16-2.8A4,4,0,0,1,874-109.88Zm3.17,43.23h-6.33v-30.2h6.33v30.2Z" transform="translate(-672.07 196.39)"/><path class="cls-1" d="M901.42-97.22a7.53,7.53,0,0,1,2.13.24l-0.43,6.09a17.08,17.08,0,0,0-1.76-.06q-5.6,0-8.52,3.62t-2.92,10v10.65h-6.33v-30.2h6.33v6.45Q894.05-97.22,901.42-97.22Z" transform="translate(-672.07 196.39)"/><path class="cls-1" d="M923.34-97.22a7.53,7.53,0,0,1,2.13.24L925-90.89a17.08,17.08,0,0,0-1.76-.06q-5.6,0-8.52,3.62t-2.92,10v10.65H905.5v-30.2h6.33v6.45Q916-97.22,923.34-97.22Z" transform="translate(-672.07 196.39)"/><path class="cls-1" d="M955.55-82.42v2.19H931.07a10,10,0,0,0,3,6.51,8.66,8.66,0,0,0,6.09,2.44q6.27,0,8.89-5.24l5.66,1.22a14.17,14.17,0,0,1-5.63,7.09,16.35,16.35,0,0,1-8.92,2.4,15,15,0,0,1-10.87-4.44,15.32,15.32,0,0,1-4.54-11.45,15.5,15.5,0,0,1,4.54-11.54,15.21,15.21,0,0,1,11.11-4.48,14.41,14.41,0,0,1,10.5,4.29A15.62,15.62,0,0,1,955.55-82.42Zm-15.1-9.68a9.73,9.73,0,0,0-5.85,1.95,8.4,8.4,0,0,0-3.35,5.42H949a9.13,9.13,0,0,0-3-5.48A8.49,8.49,0,0,0,940.45-92.11Z" transform="translate(-672.07 196.39)"/></svg>