<svg id="Capa_1" data-name="Capa 1" xmlns="http://www.w3.org/2000/svg" viewBox="0 0 569.73 512"><defs><style>.cls-1{fill:#fc0;}</style></defs><title>plantita</title><path class="cls-1" d="M-2637.46-313.14a33.31,33.31,0,0,0-41.46-17.52l-25.21,8.87-27-23.8a137.51,137.51,0,0,0-125.65-29.71v-23.47l49.62-51.31c2.79-2.88,5.51-6,8.08-9.23a8.34,8.34,0,0,0-1.34-11.72,8.35,8.35,0,0,0-11.72,1.34c-2.25,2.82-4.61,5.52-7,8L-2861.35-418l-18.57-59a52.53,52.53,0,0,1,11.77-51.63l30-32a47.88,47.88,0,0,0,7.1-9.81l18.67-34.24a0.64,0.64,0,0,1,.56-0.36,0.65,0.65,0,0,1,.61.27,108.83,108.83,0,0,1,15.86,105.51,8.34,8.34,0,0,0,4.88,10.75,8.34,8.34,0,0,0,10.75-4.88A125.41,125.41,0,0,0-2798-615a17.34,17.34,0,0,0-15.14-6.7,17.34,17.34,0,0,0-13.89,9l-18.67,34.24a31.22,31.22,0,0,1-4.62,6.39l-3,3.17a75.76,75.76,0,0,0-2.11-16.26,12.17,12.17,0,0,0-7.66-8.57,12.19,12.19,0,0,0-11.4,1.6l-28.26,20.63a93.09,93.09,0,0,0-38.57,75.6A93.09,93.09,0,0,0-2903.23-420l29.79,22v28.18a136.11,136.11,0,0,0-14.27,6.78L-2961-322.81h-5.09a62.13,62.13,0,0,0-41.67-15.89H-3112a23.32,23.32,0,0,0-20.24-11.78h-63.49a8.34,8.34,0,0,0-8.34,8.34,8.34,8.34,0,0,0,8.34,8.34h63.49a6.64,6.64,0,0,1,6.63,6.63v24.55a8.34,8.34,0,0,0,8.34,8.34,8.34,8.34,0,0,0,8.34-8.34V-322h101.2a45.59,45.59,0,0,1,32.45,13.44,8.34,8.34,0,0,0,5.9,2.44h103a21.6,21.6,0,0,1,21.58,21.58A21.6,21.6,0,0,1-2866.39-263h-83.52a14.36,14.36,0,0,0-10.22,4.23l-14.36,14.36a8.34,8.34,0,0,0,0,11.8,8.32,8.32,0,0,0,5.9,2.44,8.31,8.31,0,0,0,5.9-2.44l13.71-13.71h82.59A38.1,38.1,0,0,0-2841-256l167.62-59a16.69,16.69,0,0,1,20.77,8.78,16.73,16.73,0,0,1-7.51,21.92l-180.81,93.64a75.13,75.13,0,0,1-34.4,8.38h-14.58a8.34,8.34,0,0,0-8.34,8.34,8.34,8.34,0,0,0,8.34,8.34h14.58a91.9,91.9,0,0,0,42.07-10.25l180.81-93.63a33.4,33.4,0,0,0,15-43.75h0Zm-287.16-182.65A76.56,76.56,0,0,1-2892.89-558l22.48-16.41a68.66,68.66,0,0,1-2.2,26.12l-7.71,8.23A69.23,69.23,0,0,0-2895.83-472l15.07,47.86-12.54-9.28A76.56,76.56,0,0,1-2924.62-495.79Zm58.23,173h-59.88l46.58-25.54a120.72,120.72,0,0,1,137.54,15.28l20,17.63L-2828.71-278a38.27,38.27,0,0,0,.58-6.58,38.31,38.31,0,0,0-38.26-38.26h0Z" transform="translate(3204.08 677.51)"/><path class="cls-1" d="M-2925.47-182.2H-3031a74.84,74.84,0,0,1-48.81-18.12l-4.91-4.23a8.34,8.34,0,0,0-5.44-2h-18.82V-267a8.34,8.34,0,0,0-8.34-8.34,8.34,8.34,0,0,0-8.34,8.34v66.71a6.64,6.64,0,0,1-6.63,6.63h-63.49a8.34,8.34,0,0,0-8.34,8.34,8.34,8.34,0,0,0,8.34,8.34h63.49a23.32,23.32,0,0,0,20.81-12.86h18.22l2.56,2.21a91.54,91.54,0,0,0,59.7,22.16h105.49a8.34,8.34,0,0,0,8.34-8.34,8.34,8.34,0,0,0-8.34-8.34h0Z" transform="translate(3204.08 677.51)"/><path class="cls-1" d="M-2980.74-371a8.32,8.32,0,0,0,5.51,2.08,8.32,8.32,0,0,0,6.27-2.83,8.34,8.34,0,0,0-.75-11.78,158.5,158.5,0,0,1-53.78-118.92,158.5,158.5,0,0,1,53.78-118.92,8.34,8.34,0,0,0,.75-11.78,8.34,8.34,0,0,0-11.78-.75,175.2,175.2,0,0,0-59.44,131.44A175.2,175.2,0,0,0-2980.74-371Z" transform="translate(3204.08 677.51)"/><path class="cls-1" d="M-2759.67-384.25a8.34,8.34,0,0,0-.67,11.78,8.32,8.32,0,0,0,6.23,2.79,8.31,8.31,0,0,0,5.55-2.12A175.32,175.32,0,0,0-2690-502.44a175.32,175.32,0,0,0-58.54-130.64,8.34,8.34,0,0,0-11.78.67,8.34,8.34,0,0,0,.67,11.78,158.62,158.62,0,0,1,53,118.19A158.61,158.61,0,0,1-2759.67-384.25Z" transform="translate(3204.08 677.51)"/><path class="cls-1" d="M-2889.55-659a160.54,160.54,0,0,1,55.52,1.17,8.39,8.39,0,0,0,1.64.16,8.35,8.35,0,0,0,8.17-6.72,8.34,8.34,0,0,0-6.56-9.81,177.3,177.3,0,0,0-61.32-1.3,8.35,8.35,0,0,0-7,9.52,8.34,8.34,0,0,0,9.52,7h0Z" transform="translate(3204.08 677.51)"/></svg>