<svg id="Capa_1" data-name="Capa 1" xmlns="http://www.w3.org/2000/svg" viewBox="0 0 302.87 335.79"><defs><style>.cls-1{fill:#d1c9d8;}.cls-2{fill:#212c52;}.cls-3{fill:#ffcd0b;}</style></defs><title>torre</title><polygon class="cls-1" points="105.58 47.18 156.65 0 207.72 47.18 207.72 231.35 156.65 275.4 105.58 232.56 105.58 47.18"/><polygon class="cls-2" points="156.65 4.72 156.65 275.4 105.58 232.55 105.58 47.18 156.65 0 156.65 4.72"/><path class="cls-3" d="M12.24,1053.32v77.88s-19.87,19.15-26.13,26.44c-3.24,3.77-7,13.07-.4,20.35,16.56,18.19,53.2,52,72.78,67.12,5.18,4,11.77,8.37,23,0,14.94-11.16,42-37,56-49.23,5-4.4,7.8-8.23,19.72-8.23h52.63c4.82,0,9,5.55,5.11,9.65-29.36,31.28-81.79,89-125.55,113.77-8.42,4.77-25.07,9.59-39.65-.21-38.07-25.59-113.47-92.16-129.36-119.44-3.34-5.73-13.69-26.88.5-47.6,0,0,20.57-29.37,91.36-90.51" transform="translate(86.39 -980.77)"/></svg>