<svg id="Capa_1" data-name="Capa 1" xmlns="http://www.w3.org/2000/svg" viewBox="0 0 512 379.55"><defs><style>.cls-1{fill:#fc0;}</style></defs><title>transparencia-nosotros</title><path class="cls-1" d="M1209,136.06l-99.3-99.3a8.18,8.18,0,0,0-11.57,0L1048.47,86.4a8.18,8.18,0,0,0,0,11.56l5,5L1042,114.3a25.56,25.56,0,0,1-28.53,5,70.62,70.62,0,0,0-63,2.34,55.11,55.11,0,0,0-32,1.71,25.46,25.46,0,0,1-27-5.67L871.09,97.25l2.43-2.43a8.18,8.18,0,0,0,0-11.56L823.87,33.6a8.18,8.18,0,0,0-11.57,0L701.77,144.14a8.18,8.18,0,0,0,0,11.56l49.65,49.65a8.18,8.18,0,0,0,11.57,0l3-3,14.41,14.41a25,25,0,0,1,7,13.13,128.41,128.41,0,0,0,35.57,67.53l2.71,2.71A29.41,29.41,0,0,0,847,349.84c0.49,0,1,0,1.47,0a29.41,29.41,0,0,0,29.38,30.9l0.66,0a29.42,29.42,0,0,0,50.21,21.45c0.47-.47.91-1,1.34-1.44a27.51,27.51,0,0,0,34.7-16l0.84,0.84a27.5,27.5,0,0,0,45.22-9.88,27.49,27.49,0,0,0,43.65-22.25,27.74,27.74,0,0,0-.77-6.5A27.5,27.5,0,0,0,1070.56,304l6.56-6.56a128.37,128.37,0,0,0,35.73-68.37,22.09,22.09,0,0,1,6.24-11.71l24.4-24.4,4.29,4.29a8.18,8.18,0,0,0,11.57,0L1209,147.62A8.17,8.17,0,0,0,1209,136.06ZM757.21,188l-38.09-38.09,99-99L856.18,89Zm99,141.66a13.07,13.07,0,1,1,0-18.49A13.09,13.09,0,0,1,856.22,329.67Zm30.85,30.85a13.07,13.07,0,1,1,0-18.49A13,13,0,0,1,887.06,360.52Zm30.06,30.06a13.07,13.07,0,1,1,0-18.49A13,13,0,0,1,917.12,390.57ZM1056,327.8a11.12,11.12,0,0,1-15.74,0l-79.33-79.31a8.18,8.18,0,0,0-11.56,11.57l85.45,85.44a11.14,11.14,0,1,1-15.75,15.75l-14.42-14.42-0.24-.25-0.08-.07-66.27-66.27a8.18,8.18,0,0,0-11.57,11.56L993,358.29a11.13,11.13,0,0,1-15.85,15.64L905,301.84a8.18,8.18,0,0,0-11.57,11.56l53.43,53.43,0,0a11.14,11.14,0,0,1-7.88,19,11.34,11.34,0,0,1-2.11-.2,29.41,29.41,0,0,0-29.09-33.79l-0.66,0a29.39,29.39,0,0,0-29.4-30.07q-0.74,0-1.47,0a29.39,29.39,0,0,0-36-30.11l-5.86-5.86a112.11,112.11,0,0,1-31.06-59,41.3,41.3,0,0,0-11.48-21.7l-14.42-14.41,82-82L880,129.25a41.69,41.69,0,0,0,29.51,12.06,42.87,42.87,0,0,0,14.65-2.58,38.49,38.49,0,0,1,7.14-1.83l-50.63,50.63A32.8,32.8,0,0,0,927,233.91l25.43-25.43,6.88,6.89h0l0.29,0.29,0.27,0.27h0l0.23,0.23L1056,312.05A11.14,11.14,0,0,1,1056,327.8Zm51.51-122a38.35,38.35,0,0,0-10.77,20.38,112.09,112.09,0,0,1-31.19,59.7l-6.28,6.29-51.73-51.73c1.12,0.08,2.25.14,3.39,0.14a41.73,41.73,0,0,0,15.93-3.1,8.18,8.18,0,0,0-6.19-15.14c-21,8.61-46.28-15.12-49.09-17.85l-0.14-.13-0.29-.29h0l-0.25-.25h0L964,196.92l7.81-7.81a8.18,8.18,0,1,0-11.56-11.57l-13.57,13.57h0v0l-31.2,31.2a16.44,16.44,0,1,1-23.25-23.25L946,145.24a54.23,54.23,0,0,1,60.71-11,42,42,0,0,0,46.85-8.34L1065,114.49l66.93,66.93Zm46-25.89-87.74-87.74L1103.9,54.1l87.74,87.74Z" transform="translate(-699.38 -31.21)"/><circle class="cls-1" cx="462.41" cy="116.88" r="8.18"/><circle class="cls-1" cx="53.57" cy="124.96" r="8.18"/></svg>